<svg viewBox="0 0 533 778" xmlns="http://www.w3.org/2000/svg">
  <path opacity=".45" d="M263.35 7.43c2.52-1.65 5.48-1.6 8.31-.9l-.9.11c-2.47.22-4.94.54-7.41.79Zm9.48 1.1c1.8-1.35 5.05 1.61 3.92 3.53a25.798 25.798 0 0 1-3.92-3.53Zm60.54.59c-.13-2.34 4.45-1.36 3.37.72-1.13-.22-2.26-.46-3.37-.72Zm-173.91 2.79c2.13-.54 4.29-1.08 6.51-1.05 4.86 0 9.86-.46 14.55 1.12-7.02.1-14.04.15-21.06-.07Zm-4.48 1.3c-.07-1.67 2.89-2.5 3.64-.97-1.11.65-2.37.95-3.64.97Zm26.36-1.02c.97-1.56 4.43-.99 4.55.92-1.56-.08-3.08-.41-4.55-.92Zm77 .17 1.02-.45.79.31c-.37.95-1.04 1.6-2.01 1.94l-.29-.79.49-1.01ZM150.42 14c-.03-1.76 3.08-2.2 3.75-.65-1.2.46-2.47.69-3.75.65Zm37.55-.56c.79-1.49 3.78-.98 4.01.7-1.37.01-2.73-.22-4.01-.7Zm90.74.23c1.59-1.3 5.15.82 4.42 2.8-1.75-.43-3.13-1.61-4.42-2.8Zm-136.75 3.2c2.15-1.84 4.83-2.71 7.64-2.78-2.59.8-5.14 1.73-7.64 2.78Zm50.9-2.56.6-.57 1.2-.06 1.03.62.24.77c-1.12.13-2.14-.12-3.07-.76Zm3.98.96.77-.48 1.06.37.29.86c-.53-.19-1.59-.56-2.12-.75Zm3 .99.77-.49 1.04.38.27.86c-.52-.19-1.56-.56-2.08-.75Zm54.66 2.94c-1.51-1.29.69-4.35 2.36-3.16-.6 1.18-1.39 2.25-2.36 3.16Zm-127.15 6.22c4.2-3.38 8.61-6.81 13.93-8.2-6.4 4.26-13.5 8.03-18.11 14.39.96-2.32 2.13-4.64 4.18-6.19Zm75.41-8.36.8-.44.98.46.16.89c-.48-.23-1.45-.68-1.94-.91Zm2.71 1.07c2.78.4 5.3 1.64 7.53 3.31-2.49-1.14-4.98-2.29-7.53-3.31Zm8.35 3.71c.17.08.51.25.68.33-.17-.08-.51-.25-.68-.33Zm1.27.63Zm13.31-.46 1.03-.44c-.18 2.91-.27 5.82-.36 8.73l-2-1c.45-2.43.88-4.86 1.33-7.29Zm21.95.73.95-.6.8.2c-.27 1-.85 1.76-1.73 2.29l-.37-.79.35-1.1Zm59.97-.12c.1-.07.29-.21.38-.27-.09.06-.28.2-.38.27Zm-93.99.51.64.36-.64-.36Zm1.37.78c3.33.79 6.58 2.17 8.66 5.03-3-1.49-5.83-3.27-8.66-5.03Zm25.19 1.65.69-.39 1.05.27.68.88-.08.81c-1.08-.05-1.86-.57-2.34-1.57Zm3 1.67c.16-1.64 2.63-2.96 4.05-2.09-.86 1.43-2.26 2.8-4.05 2.09Zm101.1-2.37c1.84 1.36 3.09 3.28 3.81 5.44-1.29-1.8-2.57-3.61-3.81-5.44Zm33.41 2.18c-.85-2 3.7-3.46 4.19-1.37-1.35.61-2.77 1.02-4.19 1.37ZM371.1 32c-2.47-1.39 2.28-4.38 3.7-2.55-1.22.88-2.42 1.77-3.7 2.55Zm-251.4 4.26c-1.43-1.62 1.23-5.12 3.11-4.03-.76 1.54-1.84 2.89-3.11 4.03Zm-8.71 15.52c1.61-5.51 3.79-11.15 8.24-15.02-2.84 4.95-5.34 10.09-8.24 15.02Zm280.45-4.1.6-.71 1.01-.12.79.55.08.72c-.59.07-1.77.19-2.36.26l-.12-.7Zm4.71 1.71c.09.11.25.34.34.46-.09-.12-.25-.35-.34-.46ZM110.49 52.8Zm-2.31 8.8c-.06-2.87.48-5.73 2.05-8.17-.82 2.68-1.52 5.41-2.05 8.17Zm282.69 3.51c1.88-3.95 4-7.78 5.99-11.67-1 4.3-2.35 8.85-5.99 11.67Zm-283.57.63c-1.66-.55-.92-3.69.82-3.39.07 1.19-.23 2.36-.82 3.39Zm280.95 4.62c.7-1.56 1.5-3.09 2.29-4.61-.3 1.74-.59 3.48-.88 5.23-.36-.16-1.06-.46-1.41-.62ZM106.88 82.55c-1.36-5.22-1.69-10.85.11-16.01.07 5.04.11 10.07-.08 15.11l-.03.9Zm283.54-11.26c3.22.31 6.6.92 8.85 3.49-2.92-1.25-5.92-2.29-8.85-3.49Zm9.46 3.85c2.69.7 4.93 2.33 6.43 4.67-2.11-1.61-4.25-3.17-6.43-4.67Zm-292.78 7.4c1.16 4.11 2.14 8.27 2.94 12.47-2.3-3.75-2.72-8.18-2.94-12.47Zm302.97 1.68c1.41-1.08 3.88 1.25 2.86 2.72-1.4-.33-2.24-1.53-2.86-2.72Zm3.92 4.79.81-.14.89.65.3 1.07-.38.72c-.98-.48-1.52-1.25-1.62-2.3ZM60.67 91.94l.75.29c-.2 1.06-.87 1.68-2 1.85l-.22-.76.5-.94.97-.44Zm355.3-.07.83-.16.93.63.3 1.09-.43.72c-.89-.51-1.44-1.28-1.63-2.28Zm-368.21 8.21c2.85-3.18 6.86-4.83 10.95-5.69-3.62 1.96-7.26 3.86-10.95 5.69Zm32.32-6.09.8-.18.88.57.31 1-.37.71c-1.07-.35-1.61-1.05-1.62-2.1Zm30.16 1.78c.89 2.64 1.95 5.23 3.03 7.8-1.76-2.27-2.78-4.95-3.03-7.8Zm-63.76 4.36.71.43c-.51.87-1.27 1.43-2.25 1.68l-.16-.85.63-.96 1.07-.3Zm38.46.13.79-.23.97.54.41 1.06-.33.77c-.96-.42-1.57-1.13-1.84-2.14Zm-44.65 5.56c-1.06-1.95 2.47-4.53 4.17-3.18-1.26 1.22-2.61 2.36-4.17 3.18Zm46.81-2.76.81.05.79.81.14 1.13-.5.66c-.84-.67-1.25-1.55-1.24-2.65Zm26.45 1.12c.05.12.16.35.21.47-.05-.12-.16-.35-.21-.47Zm.48 1.02c1.53 3.05 2.95 6.15 4.36 9.26-2.27-2.65-3.65-5.88-4.36-9.26Zm-85.81 12.04c1.99-4.55 6-7.72 10.15-10.2-3.32 3.47-6.58 6.99-10.15 10.2Zm62.81-6.84c1.57-1.35 5.25.73 4.49 2.77-1.68-.59-3.19-1.56-4.49-2.77Zm5.12 3.02c2.61.51 5.1 1.48 7.36 2.89-2.46-.95-4.93-1.87-7.36-2.89Zm22.53 1.63c.05.11.17.34.22.45-.05-.11-.17-.34-.22-.45Zm-14.55 1.53c.11.06.34.17.45.23-.11-.06-.34-.17-.45-.23Zm.96.53c3.42 1.3 6.22 3.8 7.68 7.19-2.44-2.52-5.02-4.91-7.68-7.19Zm14.09-1.09c1.77 3.17 3.39 6.43 4.94 9.72-2.44-2.79-4.02-6.16-4.94-9.72Zm-95.88 7.63c.72-2.48 2.37-4.43 4.45-5.9-1.57 1.9-3.05 3.87-4.45 5.9Zm-2.66 3.67c-1.6-1.26.65-4.39 2.3-3.11-.59 1.15-1.37 2.19-2.3 3.11Zm93.4-1.39c3.91 3.44 8.36 6.51 10.96 11.16-4.05-3.31-8.19-6.63-10.96-11.16Zm10.37.38c.07.11.19.33.25.43-.06-.1-.18-.32-.25-.43Zm-109.15 8.23a11.07 11.07 0 0 1 4.95-6.73c-1.73 2.19-3.39 4.42-4.95 6.73Zm109.71-7.28c3.27 4.65 6.18 9.54 8.35 14.81-3.27-4.64-6.55-9.38-8.35-14.81Zm304.95 1.77.85-.01c.98 10.72 2.96 22.05-.99 32.41 2-10.71 1.54-21.64.14-32.4Zm-416.73 6.58.93-.63.82.18c-.22 1-.75 1.76-1.61 2.31l-.43-.76.29-1.1Zm-2.61 6.52c-1.6-1.38.42-5 2.41-4.09a30.04 30.04 0 0 1-2.41 4.09Zm123.13.71c.08.15.25.45.33.6-.08-.15-.25-.45-.33-.6ZM4.14 154.51c.8-4.45 2.47-8.89 6.09-11.82-2.13 3.89-4.19 7.82-6.09 11.82Zm130.2-10.59ZM3.12 155.5l.89-.18c-.22.49-.64 1.47-.85 1.95l-.47-.78.43-.99Zm-.79 2.73.82-.2c.21 1.03-.01 1.96-.67 2.78l-.64-.51-.12-1.12.61-.95Zm426.41 7.81c-.02-1.3.22-2.57.78-3.74 1.57.68.9 3.7-.78 3.74ZM1.58 171.57c-.74-2.99-.95-6.12.34-8.99-.2 2.7-.3 5.41-.33 8.13l-.01.86Zm426.26-.68c.01-1.38.28-2.73.76-4.02 1.44.84.95 3.83-.76 4.02Zm-425.95.66c3.15 5.9 7.94 10.62 12.12 15.76-5.58-3.8-10.59-8.97-12.12-15.76Zm425.05 2.39c.19-.54.55-1.6.73-2.13l.5.76-.37 1.07-.86.3Zm-1.95 4.8c.38-1.41.97-2.76 1.67-4.04 1.48 1.13.27 4.59-1.67 4.04Zm-4.08 10.23c1.28-3.18 2.63-6.32 3.84-9.53-.33 3.49-1.28 6.99-3.84 9.53ZM15 188.49c.96.83 1.19 2.11 1.26 3.32-1.61.31-2.68-2.5-1.26-3.32Zm402.84 9.64c.63-2.92 1.61-5.75 2.79-8.49-.3 3.01-1.09 5.96-2.79 8.49ZM16.4 192.61c.14.52.41 1.57.54 2.1l-.83-.32-.28-1.06.57-.72Zm.97 11.54c.63 1.48 1.2 2.98 1.71 4.52-2.15.65-3.44-3.37-1.71-4.52Zm401.35.32c1.34-1.28 4.06.96 2.97 2.5-1.12-.64-2.52-1.17-2.97-2.5Zm3.55 2.86c4.53 1.5 8.04 4.84 10.81 8.61-3.82-2.59-7.3-5.63-10.81-8.61Zm-400.76 4.39c1.26.84 2.47 1.75 3.59 2.76-1.48 1.63-4.86-.92-3.59-2.76Zm4.11 3.19c2.25 1.7 4.56 3.35 6.91 4.92-2.86-.74-5.33-2.4-6.91-4.92Zm181.4 3.07c2.41-1.7 5.39-3.83 8.27-1.74-2.78.46-5.56.96-8.27 1.74Zm226.62-1.6c5.1 1.8 8.13 6.51 11.96 10.02 5.27 4.83 8.82 11.23 14.33 15.82 5.95 5.1 11.5 10.7 16.21 16.97-3.13-2.28-5.92-4.98-8.44-7.91-4.47-5.2-10.42-8.91-14.57-14.41-5.72-7.52-12.57-14.1-19.49-20.49Zm-218.18.51c.04.15.12.46.17.62-.05-.16-.13-.47-.17-.62Zm-14.05 1.44c1.62-.05 3.24-.09 4.86-.11-.63.23-1.9.69-2.54.92.46.98.93 1.95 1.41 2.92-1.25-1.24-2.51-2.47-3.73-3.73Zm14.43-.08c1.8 2.82 2.97 6 2.9 9.38-.9-3.15-2-6.23-2.9-9.38Zm-182.73 1.93c1.2.64 2.31 1.46 3.3 2.4-1.34 1.41-4.46-.68-3.3-2.4Zm3.78 2.79c1.15.8 2.19 1.73 3.15 2.75-1.48 1.37-4.28-1.1-3.15-2.75Zm169.41.69c1.55 1.81 3.07 3.64 4.56 5.5a20.821 20.821 0 0 1-4.56-5.5Zm-164.33 3.47c1.03.15 1.85.65 2.46 1.49l-.72.45-1.13-.24-.71-.88.1-.82Zm176.86 1.31c1.65-.01 2.32 2.9.92 3.71-.76-1.09-.93-2.42-.92-3.71Zm-173.85.59c1.16.74 2.38 1.55 2.94 2.88-1.5 1.09-3.95-1.36-2.94-2.88Zm166.35.68c2.42 2.28 5.72 3.02 8.93 3.39-2.08.72-4.57 1.86-6.59.35-.91-1.17-1.61-2.47-2.34-3.74Zm-161.1 3.18c1.2.05 1.85.66 1.96 1.84l-.74.23c-.36-.33-1.07-1-1.43-1.33l.21-.74Zm3.93 3.21c1.39.26 2.48 1.29 2.92 2.63-1.37.95-3.83-1.18-2.92-2.63Zm4.94 3.98c1.36.42 2.47 1.34 3.48 2.31-1.33 1.26-4.38-.58-3.48-2.31Zm3.96 2.71c1.11.81 2.13 1.74 3.05 2.76-1.48 1.42-4.24-1.14-3.05-2.76Zm4.7 4.17c2.97 2.1 5.96 4.19 8.64 6.68-3.48-1.35-6.61-3.51-8.64-6.68Zm9.65 7.58c2.02 1.77 4.03 3.56 6.1 5.26-2.62-.98-4.66-2.89-6.1-5.26Zm400.45 6.08c1.73-1.64 5.12 1.39 3.75 3.28-1.35-.98-2.56-2.13-3.75-3.28Zm-392.56.52c1.39.94 2.68 2.02 3.91 3.17-1.68 1.62-5.19-1.25-3.91-3.17Zm398.03 4.07c2.7.88 5.15 2.4 6.68 4.85-2.28-1.55-4.51-3.17-6.68-4.85Zm-392.4.54c4.81 3.41 8.52 7.99 12.31 12.43-5.09-3.05-8.77-7.78-12.31-12.43Zm274.46.21c2.38.26 4.74.62 7.12.9-1.51.08-3.02.15-4.52.22.35.99.71 1.98 1.07 2.97-1.3-1.29-2.47-2.71-3.67-4.09Zm8.04.98c6.75.06 13.41 1.23 19.97 2.78-7-.56-14.11-1.01-20.88-2.93l.91.15Zm20.74 2.88c.49.2 1.46.59 1.95.79l-.75.51-1-.4-.2-.9Zm2.62 1.19c2.59 1.26 5.21 2.46 7.83 3.66-2.85-.64-5.56-1.79-7.83-3.66Zm94.88.21c2.94.87 5.61 2.47 7.62 4.83-2.56-1.58-5.17-3.09-7.62-4.83Zm-86.4 3.71c1 .26 1.67.89 2.03 1.89l-.78.3-1.02-.43-.5-.97.27-.79Zm94.63 1.56.75-.39 1.06.35.59.97-.19.83c-1-.27-1.73-.86-2.21-1.76Zm-91.98.59c1.01.18 1.78.71 2.32 1.6l-.73.43-1.09-.28-.64-.92.14-.83Zm-30.9 1.11c1.72-1.37 3.94 1.92 2.19 3.14-.8-1-1.54-2.04-2.19-3.14Zm125.63.36c1.6-1.29 5 .51 4.59 2.58-1.62-.71-3.12-1.62-4.59-2.58Zm-398.45.63c1.1 1 2.09 2.13 2.8 3.45-1.75 1.29-4.3-1.96-2.8-3.45Zm306.64-.19c1.02.1 1.82.57 2.4 1.43l-.68.48-1.1-.2-.71-.87.09-.84Zm2.93 1.93c2.13 1.65 4.35 3.19 6.58 4.72-2.81-.59-5.05-2.35-6.58-4.72Zm93.99.47Zm-128.2.55c3.36 4.11 6.63 8.35 10.61 11.9 3.45 3.22 7.81 5.8 9.63 10.39-4.89-4.81-10.33-9.04-15.1-13.98-2.3-2.36-3.66-5.41-5.14-8.31Zm129.34.03c6.26 2.23 13.04 4.39 17.33 9.82-5.7-3.41-11.46-6.72-17.33-9.82Zm-401.54 1.24c2.68 4.09 4.96 8.41 6.98 12.87-3.29-3.7-5.65-8.11-6.98-12.87Zm313.58 2.83c3.73 2.29 7.16 5.01 10.6 7.73-4.3-1.36-7.87-4.2-10.6-7.73Zm106.62 6.53c1.46 2.59 2.32 5.45 2.83 8.37l-1.49.22c-.35-2.88-.87-5.73-1.34-8.59Zm-95.47 1.58c1.11.67 2.15 1.47 3.07 2.41-1.32 1.56-4.4-.77-3.07-2.41Zm-317.36 2.72c.08.17.25.51.33.68-.08-.17-.25-.51-.33-.68Zm.63 1.27.36.68-.36-.68Zm.67 1.27c.09.17.27.5.36.67-.09-.17-.27-.5-.36-.67Zm323.75.67c6.43 3.86 12.43 8.36 18.59 12.62-2.35-.87-4.68-1.85-6.76-3.26-4.16-2.82-8.57-5.44-11.83-9.36Zm-322.98.78c2.41 4.08 4.2 8.48 5.58 13.01-2.63-3.97-4.41-8.41-5.58-13.01Zm411.52 1.48.66-.35.37.83-.55.91-.9.04c.1-.36.31-1.07.42-1.43Zm-126.21 4.49c2.65 1.5 4.87 3.66 5.73 6.67-1.92-2.22-3.87-4.4-5.73-6.67Zm121.54 1.63.58-.17-.58.17Zm-5.74 1.94c1.45-1.16 3.31-1.49 5.1-1.79-.3 1.9-3.64 2.98-5.1 1.79Zm-6.47 4.25c2-1.23 3.93-2.57 5.89-3.86-1.49 1.93-3.48 3.35-5.89 3.86Zm-52.47-1.58c2.42 1.35 4.87 2.66 7.3 4.02-2.7-.81-5.45-1.78-7.3-4.02Zm-336.32 1.56c.06.14.16.43.22.58-.06-.15-.16-.44-.22-.58Zm286.55.61c1.96-1.28 4.71 2.25 3.26 3.98a31.798 31.798 0 0 1-3.26-3.98Zm99.51 1.36c.42-.93 1.13-1.49 2.13-1.69l.23.81-.56.94-1.05.34-.75-.4Zm-385.63-.87c.77 1.75 1.42 3.56 1.98 5.4-2.17-.08-3.16-3.76-1.98-5.4Zm343.85 1.71c.13.07.38.21.51.28-.13-.07-.38-.21-.51-.28Zm29.68 5.36c3.82-2.04 7.7-3.95 11.67-5.66-3.23 3.03-7.35 4.84-11.67 5.66Zm-28.77-4.87c.13.07.4.2.53.27-.13-.07-.4-.2-.53-.27Zm1.26.63c2.48 1.15 4.99 2.25 7.56 3.21-2.8-.34-5.42-1.37-7.56-3.21Zm-55.11 2.52c1.63-1.24 4.04 1.66 2.66 3.12-.99-.96-1.9-1.99-2.66-3.12Zm-288.61.86c.18.52.56 1.57.75 2.09l-.88-.27-.38-1.06.51-.76Zm352.05-.03c.47.25 1.39.76 1.86 1.01l-.82.4-.95-.52-.09-.89Zm2.61 1.03c1.03-.2 1.94.06 2.73.77l-.53.62-1.11.07-.93-.65-.16-.81Zm14.03 1c.45-.25 1.36-.76 1.82-1.01l-.09.91-.94.51-.79-.41Zm-10.52.22c3.22.12 6.46.12 9.69-.01-3.14 1.33-6.53 1.2-9.69.01Zm-357.24.64c.66 2 1.25 4.03 1.75 6.09-2.33-.21-3.08-4.39-1.75-6.09Zm291.78 1.22c1.62-1.29 3.98 1.71 2.49 3.08-.97-.92-1.81-1.95-2.49-3.08Zm3.89 4.72c2.81 1.77 4.79 4.47 5.65 7.69-1.92-2.54-3.77-5.13-5.65-7.69Zm-293.68.88c.22.49.64 1.47.86 1.97l-.9-.18-.43-1 .47-.79Zm1 2.78c1.08 4.31 2.02 8.65 2.88 13.01-2.19-3.99-2.71-8.55-2.88-13.01Zm300.82 7.77c1.67-1.23 3.85 1.85 2.42 3.2-.95-.97-1.81-2.01-2.42-3.2Zm2.81 3.7.82-.2.99.57.39 1.07-.36.75c-.93-.47-1.54-1.2-1.84-2.19Zm-300.51 2.32c.53 1.05.84 2.2.76 3.4-1.77.3-2.43-2.87-.76-3.4ZM436.15 350c1.64-1.21 3.86 1.82 2.38 3.14-1-.89-1.78-1.97-2.38-3.14Zm-302.92 2.4c.22 2.82.58 5.63.89 8.44l-1.22.25c.1-2.9.21-5.8.33-8.69Zm311.78 8.84c1.52-1.37 4.06 1.43 2.63 2.86-1.02-.83-1.98-1.73-2.63-2.86Zm-310.7 1.38c.62 4.95.52 9.96-.17 14.89-.28-4.96-.29-9.94.17-14.89Zm315.89 4.61c1.87-1.27 4.76 2.13 3.29 3.84-1.25-1.14-2.37-2.42-3.29-3.84Zm5.9 6.62c2.97 1.71 5.61 4.1 6.61 7.5-2.27-2.44-4.48-4.94-6.61-7.5Zm-321.97 3.72-.1.86c-.39 3.71-1.08 7.38-1.73 11.06-.09-4.05.17-8.17 1.83-11.92Zm329.93 5.34c3.72 2.24 7.06 5.25 8.75 9.34-3.08-2.96-6.12-5.96-8.75-9.34Zm-332.68 7.48.84-.14c.14 1.02-.13 1.92-.81 2.71l-.63-.54-.07-1.12.67-.91Zm-2.1 10.93c.08-2.64.57-5.25 1.81-7.59-.63 2.52-1.16 5.07-1.81 7.59Zm344.89-7.51c4.55 3.43 9.03 7.24 11.75 12.35-4.34-3.7-8.47-7.66-11.75-12.35Zm-348.06 18.66c.05-3.68.61-7.45 2.98-10.4-.85 3.5-1.94 6.94-2.98 10.4Zm-1.85 5.82c-1.36-1.4-.56-5.33 1.64-5.08-.41 1.73-1 3.41-1.64 5.08Zm-.98 1.06.77-.22c.03 1.16-.31 2.21-1.01 3.14l-.49-.65.05-1.25.68-1.02Zm377.46 3.06.72-.32.96.37.51.89-.21.79c-1.09-.01-1.75-.59-1.98-1.73Zm-378.31 1.51c.07-.21.2-.62.27-.82-.07.2-.2.61-.27.82Zm-.99 1.12.77-.28c.06 1.16-.25 2.22-.93 3.17l-.51-.6.01-1.23.66-1.06Zm-1.29 4.17.84-.33c-.18.55-.53 1.64-.71 2.18l-.49-.76.36-1.09Zm-1.01 3.06.86-.29-.76 2.13-.48-.77.38-1.07Zm-.98 3.14.81-.4c-.11.55-.33 1.66-.45 2.21l-.59-.7.23-1.11Zm-1.58 7.88c-1.43-1.44-.43-5.16 1.68-5.23-.43 1.78-1 3.53-1.68 5.23Zm389.44 1.51c-1.44-.43-1.51-1.03-.22-1.78l.55.84-.33.94Zm-390.57-.68.92-.16c-.24.48-.71 1.44-.95 1.92l-.45-.78.48-.98Zm-5.31 19.32c.42-5.87 1.91-11.67 4.95-16.74-1.59 5.59-3.32 11.15-4.95 16.74ZM513.98 455l.82-.21.94.58.33 1.07-.4.74c-.92-.46-1.49-1.19-1.69-2.18Zm-404.74 9.38.82-.19c.23 1.02.02 1.93-.63 2.75l-.66-.5-.13-1.11.6-.95Zm-1.96 10.92c.1-2.63.62-5.22 1.82-7.58-.65 2.52-1.2 5.06-1.82 7.58Zm-3.97 14.98c.43-4.91.97-10.03 3.8-14.23-1.01 4.81-2.4 9.53-3.8 14.23Zm398.46-.84c.87-.94 1.84-1.79 2.92-2.5 1.42 1.58-1.56 4.08-2.92 2.5Zm-7.08 5.23c2.25-1.52 4.46-3.11 6.6-4.79-1.43 2.52-3.81 4.14-6.6 4.79Zm-393.5 4.54c.05-2.83.2-5.76 1.91-8.14-.63 2.71-1.22 5.44-1.91 8.14Zm310.03-5.67c.97-1.59 2.83-.89 4.17-.28-.84 1.24-3.25 1.54-4.17.28Zm-1.43 3.38c-.23-1.16.07-2.12.92-2.87l.51.6-.03 1.13-.65.95-.75.19Zm6.35-3.46c1.96.5 4.51.5 5.61 2.53-1.81.54-4.96-.69-5.61-2.53Zm68.53 7.29c3.1-1.98 6.24-3.88 9.42-5.71-2.22 3.18-5.73 4.87-9.42 5.71Zm-75.87.19c-.09-1.13.19-2.15.85-3.06l.56.6.02 1.2-.65 1.03-.78.23Zm14.63-2.55c.09.13.29.4.38.53-.09-.13-.29-.4-.38-.53ZM99.2 508.64c-.14-3.01.1-6.08 1.81-8.65-.66 2.87-1.32 5.74-1.81 8.65Zm325-9.25c.87.58 1.41 1.39 1.62 2.43l-.79.14-.91-.66-.31-1.13.39-.78Zm-17.38 8.73c.53-2.16 1.15-4.29 1.82-6.4 1.25 1.86.49 5.88-1.82 6.4Zm19.3-5.59a82.1 82.1 0 0 0 3.75 5.69c-2.1-1.24-3.15-3.41-3.75-5.69Zm50.82 2.07a6.47 6.47 0 0 1 3-1.56c-.09.41-.26 1.23-.35 1.64l-1.03.54c-.41-.16-1.22-.47-1.62-.62Zm-9.26 3.91c1.28-.67 2.61-1.21 4.02-1.55.57 1.96-2.96 3.09-4.02 1.55Zm-369.32 5.24c-1.68-.77-1.22-4.39.75-4.28-.03 1.45-.27 2.9-.75 4.28Zm307.47-1.78c-.15-1.11.09-2.12.72-3.02l.59.56.08 1.19-.61 1.02-.78.25Zm56.42-1.28c1.55-.74 3.14-1.38 4.77-1.91.32 2.12-3.43 3.46-4.77 1.91Zm-27.5 1.36c2.5.71 5.04 1.31 7.59 1.82-2.68.16-5.49.08-7.59-1.82Zm19.99.59c.88-.63 1.85-.85 2.92-.66l-.19.78-.98.6-1.17-.11-.58-.61Zm-51.03 6.34c.55-2.11 1.24-4.18 1.95-6.24 1.23 1.84.39 5.85-1.95 6.24Zm44.5-5.39c1.87-.43 3.77-.69 5.69-.83-.55 2.05-4.37 2.32-5.69.83Zm-351.01 21c-2.33-6.14-1.6-13.06.73-19.08-1.08 6.29-1.24 12.72-.73 19.08Zm304.55-8.62c.48-2.14 1.04-4.26 1.75-6.32 1.27 1.8.51 5.82-1.75 6.32Zm-.72 3.02c.12-.54.35-1.63.47-2.17l.59.69-.24 1.1-.82.38Zm-3.28 4.79a59.7 59.7 0 0 1 3.03-4.03c1.29 1.68-1.04 4.94-3.03 4.03Zm-1.85 3.74c.04-1.24.58-2.36 1.45-3.22 1.35.91.17 3.73-1.45 3.22Zm-298.09-2.39c2.09 1.61 4.22 3.19 6.39 4.71-2.64-.81-5.01-2.27-6.39-4.71Zm293.15 25.16c1.47-7.35 3.12-14.66 4.79-21.97-.37 7.51-1.77 15.05-4.79 21.97Zm-286.15-20.07c2.14.93 4.32 1.79 6.53 2.56-2.39-.28-4.75-.87-6.53-2.56Zm7.28 2.77c2.21.53 4.45.96 6.68 1.4-.58 2.68-1.16 5.36-1.67 8.07.14-2.39.29-4.77.42-7.15-1.82-.76-3.63-1.53-5.43-2.32Zm4.97 9.57-.13.81c-.71 4.78-1.83 9.5-2.78 14.24-.09-5.17.7-10.35 2.91-15.05Zm272.87 11.22c-.19-1.03.05-1.94.73-2.72l.64.53.1 1.12-.65.93-.82.14Zm-5.23 19.52c1.35-6.35 3.11-12.59 5.15-18.75-.7 6.47-2.34 12.87-5.15 18.75Zm-271.43-11.13c-1.52-.71-1.01-3.83.77-3.71 0 1.27-.27 2.53-.77 3.71Zm-.87 4.53c-1.59-.67-.96-3.71.74-3.73.02 1.28-.21 2.55-.74 3.73Zm-2.17 10.88c-.13-3.45.25-6.94 1.91-10.02-.75 3.31-1.39 6.66-1.91 10.02Zm272.69 1.93c.33-1.87.91-3.68 1.55-5.46 1.63 1.34.69 5.64-1.55 5.46Zm-273.55 3.28c-1.66-.54-1.05-3.7.7-3.48.08 1.19-.17 2.39-.7 3.48Zm270.55 8.62c1.09-3.66 1.97-7.39 2.83-11.11.07 3.9-.7 7.79-2.83 11.11Zm-272.71 2.17c-.12-3.44.28-6.91 1.9-9.99-.74 3.3-1.38 6.64-1.9 9.99Zm271.63 1.45c-.18-1.06.06-2 .73-2.83l.62.53.09 1.14-.63.96-.81.2Zm-272.45 2.77c-1.7-.52-1.04-3.72.74-3.43.03 1.18-.24 2.35-.74 3.43Zm271.54.81c-.16-1.06.09-2 .77-2.82l.61.58.07 1.15-.65.94-.8.15Zm-273.71 10.56c.06-3.6.41-7.24 1.95-10.53-.6 3.51-1.1 7.05-1.95 10.53Zm269.56 10.29c.82-6.77 2.01-13.49 4.02-20.02-.64 6.77-1.46 13.68-4.02 20.02Zm-271.62.13c-.14-3.33-.1-6.8 1.88-9.64-.69 3.2-1.38 6.4-1.88 9.64Zm-.86 4.58c-1.49-.75-.98-3.82.78-3.73.02 1.28-.26 2.54-.78 3.73Zm271.42.81c.07-1.6.37-3.17.86-4.68 1.57.98 1.01 4.38-.86 4.68Zm-272.43 4.1c-1.4-.92-.86-3.86.84-4.06-.04 1.38-.32 2.75-.84 4.06Zm271.59 2.86c.11-2.07.38-4.12.74-6.15 1.32 1.56 1.29 5.34-.74 6.15ZM99.3 644.06c-1.41-.92-.87-3.86.82-4.09-.04 1.4-.32 2.78-.82 4.09Zm271.58 6.44c.09-2.22.37-4.41.77-6.57 1.35 1.61 1.43 5.93-.77 6.57Zm-272.47-1.79c-1.56-.7-.94-3.71.74-3.78.03 1.29-.2 2.59-.74 3.78Zm-2.2 10.63c-.26-3.08.18-6.16 1.67-8.88-.64 2.93-1.15 5.91-1.67 8.88Zm273.6 1.4c.3-2.81.65-5.61.93-8.42.13 2.89.26 5.78.38 8.67l-1.31-.25Zm-274.56-.59.82.05c-.64 4.4-1.74 8.72-2.94 13.01.4-4.4 1.17-8.75 2.12-13.06Zm273.59 16.97c.29-5.17.28-10.35.87-15.5.22 5.15 1.37 10.63-.87 15.5ZM91.8 688.68a19.77 19.77 0 0 1 1.14-14.66 72.75 72.75 0 0 0-1.14 14.66Zm275.49-5.06c.47-1.89.96-3.76 1.38-5.65.18 3.6 1.55 6.95 3.36 10.03-1.57-1.48-3.16-2.94-4.74-4.38Zm-275.03 5.69c.08.11.26.33.34.44-.08-.11-.26-.33-.34-.44Zm280.79-.36c2.11 1.18 4.28 2.32 6.11 3.93 1.9 1.63 2.84 4.02 3.86 6.25-3.01-3.69-6.56-6.88-9.97-10.18ZM93 690.22c1.59 1.95 3.59 3.7 4.56 6.09.25 3.46-1.12 6.78-2.3 9.98.39-3.09 1.13-6.15 1.06-9.26-.58-2.49-2.15-4.59-3.32-6.81Zm290.81 12.33c1.78-.23 3.59 2.98 2.74 4.52-1.76-.84-2.55-2.69-2.74-4.52ZM92.27 713.22c.3-2.3 1.24-4.42 2.7-6.21-.86 2.08-1.81 4.13-2.7 6.21Zm294.88-5.75c1.18 2.67 2.13 5.51 2.04 8.48-.03 4.94-.47 10.1-2.8 14.55-1.15 2.49-4.14 2.76-6.45 3.48 2.65-1.6 5.43-3.51 6.55-6.55 2.43-6.37 1.67-13.38.66-19.96Zm-161.17 12.45c.95.5 1.9 1.01 2.86 1.52-1.91 3.05-2.09 6.7-2.77 10.14v-.89c-.01-3.59-.14-7.18-.09-10.77Zm-139.77 13.4c.37-4.4 1.27-8.85 3.82-12.53-.87 4.29-2.34 8.41-3.82 12.53Zm148.13-9.46c.46.26 1.38.78 1.84 1.05l-.82.38-.93-.53-.09-.9Zm2.62 1 2.05.56-.69.59-1.05-.29-.31-.86Zm3.69 1.17c2.52.66 5.06 1.27 7.6 1.86-2.65 0-5.3-.49-7.6-1.86Zm23.57 4.72c3.81.62 7.64 1.19 11.44 1.85-3.86.2-7.73-.1-11.54-.7l.1-1.15Zm-43.21 10.57c1.72-3.2 3.3-6.47 4.79-9.77-.38 3.74-1.78 7.36-4.79 9.77Zm55.49-8.6c1.45.1 2.86.48 4.23 1-.85 1.66-4.43.96-4.23-1ZM84.92 734l1.08.16c-.56 6.68.04 13.4.83 20.04-2.35-6.45-1.91-13.44-1.91-20.2Zm279.88 2.93c4.67-1.36 9.45-2.33 14.3-2.81-4.48 2.07-9.4 2.8-14.3 2.81Zm-160.24 20.89c3.81-3.38 7.7-6.68 11.48-10.09-2.31 4.77-6.74 8-11.48 10.09Zm-117.23-2.89c.2.31.61.95.82 1.27l-.15.72-.87-.25-.34-1.02.54-.72Zm.55 2.78c3.37 3.98 7.74 6.97 12.43 9.2-3.01-.85-6.14-1.66-8.67-3.57-1.91-1.35-2.71-3.65-3.76-5.63Zm113.69 2.02c.55-.87 1.33-1.39 2.34-1.56l.15.81-.65.91-1.11.28-.73-.44Zm-6.13 3.15c1.83-.99 3.69-1.91 5.57-2.81.32 2.4-3.66 3.82-5.57 2.81Zm-1.3.57.68-.28-.68.28Zm-6.27 2.27c1.82-.74 3.66-1.43 5.55-2-.32 2.14-3.86 3.24-5.55 2Zm-2.79 1c.51-.2 1.53-.59 2.05-.78l-.26.87-1.03.4-.76-.49Zm-84.02.19c.5.17 1.5.5 2 .67l-.72.55-1.02-.34-.26-.88Zm81.12.67 2.07-.64-.31.86-1.05.32-.71-.54Zm-78.39.37c2.61.66 5.25 1.23 7.91 1.71-2.76.15-5.56-.16-7.91-1.71Zm55.73 4.12c7.25-1.51 14.54-2.79 21.82-4.17-6.77 3.29-14.41 3.95-21.82 4.17Zm-47.03-2.31c1.42.08 2.83.36 4.17.87-.75 1.7-4.4 1.11-4.17-.87Zm4.99 1.11c13.65 1.83 27.43.19 41.12 1.31l.88.05c-6.73 1.53-13.65.59-20.47.86-7.21-.12-14.7.04-21.53-2.22Z" fill="#171816"/>
  <g fill="#0e140e">
    <path opacity=".94" d="M263.35 7.43c2.47-.25 4.94-.57 7.41-.79.52.47 1.55 1.42 2.07 1.89 1.18 1.3 2.49 2.49 3.92 3.53.49.4 1.47 1.21 1.96 1.61 1.29 1.19 2.67 2.37 4.42 2.8l.65.21c.79 1.3 1.58 2.61 2.36 3.93-6.86-3.59-11.61-10.24-18.93-13.03 2.67 2.99 5.57 5.78 8.2 8.81-3.73-2.06-7.19-4.55-10.6-7.1-6.68 6.66-11.92 14.54-17.71 21.93-2.24 1.3-5.08 1.2-7.34.01-3.71-1.88-6.66-4.88-9.9-7.41.23 2.51.18 5.1 1.01 7.5 2.05 3.16 5.36 5.19 7.89 7.93 2.94 2.81 5.07 6.49 8.49 8.79 3.79.63 7.64-.21 11.43-.57 12.24-1.63 24.64-.95 36.89.3 19.16 2.14 37.79 7.73 55.65 14.85 10.01 3.98 19.5 9.45 27.26 17 4.82-6.12 9.18-12.59 13.42-19.12-1.83-.01-3.65-.02-5.47-.05.46-10.19 1.38-20.37 1.15-30.59-1.48.47-2.95.92-4.39 1.48-7.45 3.76-14.88 8.22-23.33 9.23-2.81.39-4.91-1.93-6.67-3.77-5.55-6.4-9.88-13.75-13.98-21.13-1.21-1.92-2.33-4.17-4.47-5.19-4.3.53-7.63 3.64-11.01 6.06-5.78 3.15-11.14 6.98-16.88 10.18-.35-.12-1.06-.38-1.42-.5 1.6-1.24 3.24-2.43 4.89-3.6.1-.07.29-.21.38-.27 5.23-4.14 11.06-7.38 16.79-10.74 1.87-1.02 3.77-2.09 5.88-2.49 1.11.26 2.24.5 3.37.72 5.09 3.66 6.5 10.24 10.25 15.02 1.24 1.83 2.52 3.64 3.81 5.44l.41.59c1.42 2 2.84 4.02 4.23 6.04 1.18-.17 2.36-.34 3.53-.55 1.34-.42 2.62-1 3.95-1.48 1.91-.66 3.86-1.2 5.82-1.7-3.37 2.36-7.08 4.14-10.77 5.94 10.13-1.05 18.58-7.04 27.79-10.77-.31-.36-.93-1.08-1.25-1.44-4.59 1.9-9.02 4.28-13.9 5.38l.49-.31c1.28-.78 2.48-1.67 3.7-2.55 1.69-1.15 3.63-1.88 5.6-2.41 1.42-.35 2.84-.76 4.19-1.37 1.48 1.36 3.92 2.33 4.02 4.63.58 6.08-.05 12.2.16 18.29.7-.05 2.1-.16 2.79-.21.59-.07 1.77-.19 2.36-.26l2.23 1.27c.09.11.25.34.34.46.68 1.16.81 2.36.37 3.59-1.99 3.89-4.11 7.72-5.99 11.67l-.33.64c-.79 1.52-1.59 3.05-2.29 4.61.35.16 1.05.46 1.41.62l.76.31c2.93 1.2 5.93 2.24 8.85 3.49l.61.36c2.18 1.5 4.32 3.06 6.43 4.67 1.54 1.19 2.76 2.74 3.76 4.41.62 1.19 1.46 2.39 2.86 2.72l.7.28.36 1.79c.1 1.05.64 1.82 1.62 2.3l.36.56c.19 1 .74 1.77 1.63 2.28.61 1.2 1.16 2.43 1.65 3.69-4.69-3.82-7.19-9.5-11.29-13.85-4.15-4.55-9.56-7.85-15.37-9.82-1.99-.63-4.08-1.22-6.17-.89-2.7 2.27-4.4 5.46-6.29 8.39 6.88 7.84 13.2 16.39 16.86 26.26-3.57-5.1-6.51-10.63-10.34-15.55-2.91-3.74-5.95-7.39-9.26-10.78-6.51-6.61-14.77-11.12-23.12-14.95-11.19-5.24-23.09-8.74-35.03-11.77-12.26-2.64-24.6-5.46-37.18-5.78-8.16-.21-16.34-.24-24.45.78-3.47.32-6.99.99-10.46.43-2.39-.89-3.93-3.08-5.6-4.89-8.97-11.2-21.61-18.86-34.72-24.29-11.11-4.71-23.17-6.76-35.16-7.36-12.84-.33-26.28 2.36-36.74 10.18-12.13 9.24-20.88 22.8-24.34 37.65-1.46 6.03-2.48 12.31-1.48 18.51 2.3 15.88 9.9 30.3 17.7 44.09 6.32 10.51 12.21 21.27 17.74 32.21 2.77 5.62 7.48 9.85 11.75 14.28 10.21 10.79 20.55 21.45 31.06 31.95 2.85 2.84 5.42 5.92 8.16 8.85 5.37 6.71 17.24 4.45 20.87-2.97 1.87-3.77 2.81-7.91 4.4-11.79-.18 3.27-.41 6.6-1.56 9.71-1.03 3.08-2.74 6.36-1.3 9.62 2.11 5.93 3.75 12.01 4.62 18.26 4.7 1.69 9.41 3.61 13.31 6.81 6.79 5.51 13.13 11.55 19.55 17.47 2.9 2.77 6.58 4.53 10.41 5.64 14.06 4.29 28.56 7.25 43.22 8.43-6.15-2.31-12.61-3.66-18.75-6.01-9.22-3.64-18.13-8.15-26.43-13.58-6.01-3.88-11.1-8.98-17.12-12.84-3.21-2.09-6.48-4.09-9.64-6.26 8.61 3.42 16.13 8.9 23.36 14.58 13.76 10.49 30.01 17.32 46.75 21.37 7.13 1.77 14.55 2.38 21.89 1.91 6.1-.41 11.71-3.09 17.1-5.78 2.77 5.35 6.32 10.26 9.04 15.64 1.3 2.64 2.22 5.77 1.23 8.67-.6 1.91-2.57 3.12-4.53 3.07-3.89.01-7.51-1.62-11.16-2.75.61-.23 1.83-.7 2.44-.93 3.71 1.26 7.63 1.72 11.52 2.06-.02-3.87-.22-7.9-2.21-11.33-2.17-3.86-4.21-8.13-7.87-10.79-4.39.4-8.36 2.58-12.43 4.11.92 1.41 1.88 2.8 2.63 4.31.85 3.38 1.32 6.83 1.92 10.26-2.82 1.24-5.66 2.65-8.77 2.91-2.7.23-5.4-.02-8.09-.15-3.85-.68-6.89 2.22-10.29 3.41-4.14 1.81-9.68 1.06-12.39-2.81-2.14-2.6-1.93-6.12-2.28-9.27 2.15 3.8 3.31 9.02 7.65 10.94 5.03 1.06 10.1-1.81 13.75-5.09 2.3-1.7 1.23-4.77.33-6.94-1.37-3-3.46-6.29-6.98-6.88-6.51-1.25-13.16-1.44-19.76-1.81 1.68 2.84 3.32 5.71 4.59 8.76-3.57-1.8-5.42-5.4-6.53-9.06-7.47-1.95-14.96-3.83-22.49-5.5 4.71 5.17 10.51 9.25 14.84 14.77 2.89 3.49 5.11 7.46 8.04 10.92 1.93 2.36 4.93 3.33 7.69 4.33 7.16 2.43 14.38 4.71 21.78 6.32 7.8 1.77 15.92 3.12 23.91 1.8 7.69-1.27 14.65-5.76 19.42-11.86.97-1.31 1.92-2.7 2.33-4.29-.69-3.35-2.79-6.16-4.45-9.07-2.46-3.84-4.45-7.98-7.17-11.64-1.21-1.98-3.75-1.67-5.71-2.11-5.84-1.96-11.64 2.04-17.51.46-8.46-2.05-14.69-8.7-20.02-15.18-4.61-5.84-9.58-11.44-13.51-17.77 2.62.95 5.32 1.93 7.48 3.77 8.63 7.34 15.5 17.12 26.05 21.94 8.45 4.05 18 4.08 27.14 4.79 13.3 1.17 26.98.13 39.87 4.27 7.93 2.08 14.26 7.53 20.88 12.08 14.52 10.11 28.2 21.45 43.31 30.72 7.4 4.49 15.17 8.79 23.78 10.37 3.98.77 8.18.61 12-.84 5.98-2.23 11.55-5.51 16.5-9.53-5.76 1.52-11.11 4.14-16.63 6.32 3.85-3.08 8.2-5.54 12.92-7 4.4-1.55 9.07-2.12 13.44-3.76 3.65-1.29 5.61-5.65 4.73-9.32-.71-2.65-2.97-4.48-5.19-5.88-3.58-2.21-7.46-3.86-11.12-5.9-10.06-5.64-19.79-11.9-28.8-19.1-19.46-15.11-34.1-35.29-52.71-51.31-9.33-7.89-19.35-15.01-30.07-20.88-7.83-4.31-16.87-6.41-23.89-12.16-2.69-2.11-4.41-5.13-5.98-8.1 4.25 3.46 8.09 7.5 12.99 10.09 6.46 3.44 13.28 6.16 20.03 8.98 1.96-10.83 2.37-21.87 2.56-32.85.29 0 .88.01 1.17.02.02 7.91-.01 15.85-.92 23.73-.26 3.46-.96 6.98-.3 10.43 2.78 2.97 6.62 4.58 10.11 6.54 3.3-12.75 10.57-24.1 13.16-37.06 1.31-6.55 1.82-13.26 1.79-19.93 0-7.27-2.11-14.43-1.21-21.71.75 2.19 1.44 4.42 1.67 6.74 1.4 10.76 1.86 21.69-.14 32.4l-.26.87c-.56 1.17-.8 2.44-.78 3.74l-.14.83c-.48 1.29-.75 2.64-.76 4.02l-.17.92c-.18.53-.54 1.59-.73 2.13l-.28.76c-.7 1.28-1.29 2.63-1.67 4.04l-.24.7c-1.21 3.21-2.56 6.35-3.84 9.53l-.28.67c-1.18 2.74-2.16 5.57-2.79 8.49-.76 2.16-.27 4.42.88 6.34.45 1.33 1.85 1.86 2.97 2.5l.58.36c3.51 2.98 6.99 6.02 10.81 8.61l.56.44c6.92 6.39 13.77 12.97 19.49 20.49 4.15 5.5 10.1 9.21 14.57 14.41 2.52 2.93 5.31 5.63 8.44 7.91.43.36 1.29 1.07 1.72 1.43 1.19 1.15 2.4 2.3 3.75 3.28.43.32 1.29.98 1.72 1.31 2.17 1.68 4.4 3.3 6.68 4.85.41.29 1.24.87 1.66 1.16 2.45 1.74 5.06 3.25 7.62 4.83l.61.44c.48.9 1.21 1.49 2.21 1.76l.54.3c1.47.96 2.97 1.87 4.59 2.58l.52.26c.13.06.39.19.52.26l.62.32c5.87 3.1 11.63 6.41 17.33 9.82.33.19 1 .58 1.33.78.47 2.86.99 5.71 1.34 8.59l.08.83-.66.35c-.11.36-.32 1.07-.42 1.43.02 2.15-1.7 3.92-3.67 4.52l-.58.17-.64.15c-1.79.3-3.65.63-5.1 1.79l-.58.39c-1.96 1.29-3.89 2.63-5.89 3.86l-.6.26c-1 .2-1.71.76-2.13 1.69l-.43.54c-3.97 1.71-7.85 3.62-11.67 5.66l-.72.13c-.46.25-1.37.76-1.82 1.01l-.83.21c-3.23.13-6.47.13-9.69.01l-.78-.45c-.79-.71-1.7-.97-2.73-.77l-.75-.02c-.47-.25-1.39-.76-1.86-1.01l-.77-.14c-2.57-.96-5.08-2.06-7.56-3.21l-.73-.36c-.13-.07-.4-.2-.53-.27l-.4-.21c-.13-.07-.38-.21-.51-.28l-.66-.35c-2.43-1.36-4.88-2.67-7.3-4.02l-.6-.37c-6.16-4.26-12.16-8.76-18.59-12.62-1.62-1.06-3.19-2.21-4.62-3.52-.92-.94-1.96-1.74-3.07-2.41l-.55-.38c-3.44-2.72-6.87-5.44-10.6-7.73l-.59-.4c-2.23-1.53-4.45-3.07-6.58-4.72l-.53-.5c-.58-.86-1.38-1.33-2.4-1.43l-.6-.31c-.54-.89-1.31-1.42-2.32-1.6l-.62-.26c-.36-1-1.03-1.63-2.03-1.89l-.65-.26c-2.62-1.2-5.24-2.4-7.83-3.66l-.67-.4c-.49-.2-1.46-.59-1.95-.79l-.77-.1c-6.56-1.55-13.22-2.72-19.97-2.78l-.92-.08c-2.38-.28-4.74-.64-7.12-.9 1.2 1.38 2.37 2.8 3.67 4.09 2.72 2.63 5.92 4.87 7.96 8.14.65 1.1 1.39 2.14 2.19 3.14l.35.61c1.48 2.9 2.84 5.95 5.14 8.31 4.77 4.94 10.21 9.17 15.1 13.98.8.83 1.55 1.71 2.31 2.6 1.86 2.27 3.81 4.45 5.73 6.67.34.43 1.02 1.31 1.36 1.74.97 1.41 2.07 2.74 3.26 3.98.38.47 1.15 1.39 1.53 1.86.76 1.13 1.67 2.16 2.66 3.12.36.45 1.08 1.37 1.44 1.82.68 1.13 1.52 2.16 2.49 3.08l1.4 1.64c1.88 2.56 3.73 5.15 5.65 7.69.88 1.21 1.72 2.45 2.49 3.74.61 1.19 1.47 2.23 2.42 3.2l.39.5c.3.99.91 1.72 1.84 2.19.34.49 1.03 1.45 1.38 1.94.6 1.17 1.38 2.25 2.38 3.14 2.43 2.46 4.54 5.23 6.48 8.1.65 1.13 1.61 2.03 2.63 2.86.97.93 1.77 2.03 2.56 3.13.92 1.42 2.04 2.7 3.29 3.84.9.89 1.77 1.82 2.61 2.78 2.13 2.56 4.34 5.06 6.61 7.5.34.39 1.01 1.17 1.35 1.56 2.63 3.38 5.67 6.38 8.75 9.34l1.36 1.56c3.28 4.69 7.41 8.65 11.75 12.35 3.18 3.14 5.82 6.77 9.13 9.79 2 2.03 4.44 3.81 5.69 6.46.23 1.14.89 1.72 1.98 1.73l.24.95c.8 3.25 1.84 6.43 2.82 9.63-3.03-2.44-5.82-5.19-9.1-7.3-2.16-1.5-4.89-1.48-7.39-1.35-10.42.67-20.32 4.66-29.19 9.99-9.49 5.58-18.28 12.26-26.52 19.53-5.68 5.04-10.94 10.68-14.76 17.28-1.54 2.79-2.98 5.83-3.02 9.08.26 2.2 1.66 4.04 2.66 5.96 2.73-4.67 5.25-9.51 8.73-13.69 6.89-8.42 15.06-15.73 23.64-22.39 9.28-7.16 19.33-13.55 30.4-17.56 7.41-2.68 16.02-3.49 23.14.49-.17 2.58-.37 5.17-.53 7.76.92-2.55 1.84-5.1 2.87-7.6.37 1.67.66 3.37.9 5.08-.48 1.09-1.08 2.09-1.81 3.02-1.29.75-1.22 1.35.22 1.78.32.29.97.85 1.29 1.14.23.39.69 1.19.93 1.58-2.5-.16-4.97-.49-7.45-.77.95-4.53-1.62-8.81-4.86-11.75-1.48-1.52-3.77-1.01-5.63-.87-10.43 1.68-19.91 6.82-28.65 12.53-11.8 7.89-22.8 17.12-32.14 27.83-3.56 4.4-7.4 9.1-8.35 14.85.21 4.21 3.46 7.46 5.49 10.95 2.97 4.14 5.49 9.63 10.93 10.88 8.64 1.87 17.62.05 25.85-2.77 10.37-3.55 20.1-8.76 29.33-14.62 5.55-3.66 11.14-7.39 15.78-12.2 2.97-3.07 4.99-6.88 6.88-10.67-3.45-1.86-6.92-3.69-10.35-5.58-4.05 2.13-8.22 4.34-12.83 4.87-4.31.64-8.77-.06-12.97 1.22-4.47 1.51-8.55 3.93-12.76 6.02-8.84 4.43-17.13 9.97-24.61 16.46-4.04 3.47-6.92 7.99-10.14 12.18 2.48-10.88 12.17-17.62 20.83-23.53 8.73-6.12 18.59-10.29 28.59-13.85-1.17-4.99-3.22-10.16-1.95-15.33 1.34-5.12 7.54-8.01 12.39-6.1 3.1 1.21 5.64 3.44 8.24 5.47.27-1.43.5-2.86.76-4.28 1.18 5.08 3.29 9.87 5.53 14.57 3.18-.94 6.36-1.87 9.55-2.82-2.51-3.97-5.27-7.78-7.64-11.84.38.22 1.13.64 1.51.86 2.13 1.28 3.45 3.54 4.41 5.77.2.99.77 1.72 1.69 2.18 2.73 2.46 4.27 6.69 2.75 10.22-.68 1.84-1.43 3.65-2.17 5.48l3.44-.56c-1.66 2.42-3.61 4.64-5.91 6.47-3.17 2.56-5.86 5.67-9.09 8.15-1.08.71-2.05 1.56-2.92 2.5l-.48.44c-2.14 1.68-4.35 3.27-6.6 4.79l-.6.37c-3.18 1.83-6.32 3.73-9.42 5.71-1.5.9-3.07 1.72-4.73 2.29a6.47 6.47 0 0 0-3 1.56c-1.6 1.09-3.42 1.79-5.24 2.36-1.41.34-2.74.88-4.02 1.55l-.66.27c-1.63.53-3.22 1.17-4.77 1.91-1.47.6-3.01 1.1-4.59 1.29-1.07-.19-2.04.03-2.92.66l-.84.12c-1.92.14-3.82.4-5.69.83-1.93.35-3.92.55-5.87.28-2.55-.51-5.09-1.11-7.59-1.82-1.91-.85-3.56-2.23-4.88-3.83a82.1 82.1 0 0 1-3.75-5.69l-.3-.71c-.21-1.04-.75-1.85-1.62-2.43l-.39-.47c-.09-.13-.29-.4-.38-.53l-1.68-2.4c-1.1-2.03-3.65-2.03-5.61-2.53l-.75-.2c-1.34-.61-3.2-1.31-4.17.28l-.51.51c-.85.75-1.15 1.71-.92 2.87l-.14.96c-.66.91-.94 1.93-.85 3.06l-.16.78c-.67 2.11-1.29 4.24-1.82 6.4l-.27.83c-.63.9-.87 1.91-.72 3.02l-.17.77c-.71 2.06-1.4 4.13-1.95 6.24l-.21.67c-.71 2.06-1.27 4.18-1.75 6.32l-.25.85c-.12.54-.35 1.63-.47 2.17l-.25.76a59.7 59.7 0 0 0-3.03 4.03l-.4.52c-.87.86-1.41 1.98-1.45 3.22l-.15.8c-1.67 7.31-3.32 14.62-4.79 21.97l-.3.77c-.68.78-.92 1.69-.73 2.72l-.08.77c-2.04 6.16-3.8 12.4-5.15 18.75l-.23.75c-.64 1.78-1.22 3.59-1.55 5.46l-.17.79c-.86 3.72-1.74 7.45-2.83 11.11l-.35.79c-.67.83-.91 1.77-.73 2.83l-.14.76c-.68.82-.93 1.76-.77 2.82l-.13.83c-2.01 6.53-3.2 13.25-4.02 20.02l-.2.84c-.49 1.51-.79 3.08-.86 4.68l-.1.81c-.36 2.03-.63 4.08-.74 6.15-.06.5-.18 1.49-.23 1.99-.4 2.16-.68 4.35-.77 6.57-.03.45-.1 1.37-.14 1.82-.28 2.81-.63 5.61-.93 8.42l-.1.88c-.59 5.15-.58 10.33-.87 15.5l-.17.85c-.42 1.89-.91 3.76-1.38 5.65 1.58 1.44 3.17 2.9 4.74 4.38.26.24.77.71 1.02.95 3.41 3.3 6.96 6.49 9.97 10.18.31 1.12.57 2.26.79 3.42.19 1.83.98 3.68 2.74 4.52l.6.4c1.01 6.58 1.77 13.59-.66 19.96-1.12 3.04-3.9 4.95-6.55 6.55l-.84.14c-4.85.48-9.63 1.45-14.3 2.81l-.86.19c-3.5.25-7.01.03-10.5-.24 9.12-2.7 19.06-1.74 27.83-5.73 3.63-1.44 4.37-5.7 4.84-9.11 1.33-8.66-1.92-17.34-6.8-24.37-2.29-2.83-4.8-6.03-8.42-7.1-2.83.17-5.46 1.37-8.13 2.23-6.76 2.41-13.83 3.79-20.83 5.32-22.32 4.56-45.08 8.39-67.95 6.98-8.49-.61-17.06-.93-25.41-2.72-3.33-.63-6.7-1.5-10.1-1.12-2.42.1-3.65 2.44-5.16 3.98 1.23.11 2.47.23 3.71.36-.52.76-1.05 1.52-1.56 2.3 12.09 3.96 24.65 6.42 37.31 7.63 13.01 1.59 26.09 2.6 39.17 3.33 18.74 1.03 37.54.25 56.21-1.46 3.42-.42 6.98-.64 10.13-2.14 2.55-1.47 4.36-3.85 6.41-5.9-1.07 2.01-1.83 4.3-3.52 5.9-2.08 1.55-4.64 2.22-7.11 2.83-7.57 1.66-15.36 1.65-23.06 2.12-18.58 1.09-37.2.31-55.77-.73-16.38-1.35-32.79-3.13-48.82-6.9-7.26-1.66-14.17-4.47-21.17-6.96.27 3.68.32 7.42 1.28 11.02.49 2.21 2.6 3.41 4.44 4.4 8.6 4.41 18.57 4.4 27.47 7.95-3.13-.2-6.26-.45-9.35-.95l-.83-.15c-2.54-.59-5.08-1.2-7.6-1.86-.41-.15-1.23-.46-1.64-.61l-2.05-.56-.78.05c-.46-.27-1.38-.79-1.84-1.05-1.96-.5-3.72-1.52-5.5-2.42-.96-.51-1.91-1.02-2.86-1.52-.05 3.59.08 7.18.09 10.77l-.27.86c-1.49 3.3-3.07 6.57-4.79 9.77-.35.42-1.05 1.27-1.41 1.69-1.07 1.04-2 2.23-2.74 3.54-.21.3-.62.88-.82 1.18-3.78 3.41-7.67 6.71-11.48 10.09l-.65.35c-1.01.17-1.79.69-2.34 1.56l-.56.34c-1.88.9-3.74 1.82-5.57 2.81l-.62.29-.68.28-.72.27c-1.89.57-3.73 1.26-5.55 2l-.74.22c-.52.19-1.54.58-2.05.78l-.83.22-2.07.64-.84.32c-7.28 1.38-14.57 2.66-21.82 4.17l-.92.11c-13.69-1.12-27.47.52-41.12-1.31l-.82-.24c-1.34-.51-2.75-.79-4.17-.87l-.79-.1c-2.66-.48-5.3-1.05-7.91-1.71l-.73-.37c-.5-.17-1.5-.5-2-.67h-.75c-4.69-2.23-9.06-5.22-12.43-9.2l.12-.79.15-.72c-.21-.32-.62-.96-.82-1.27l-.5-.73c-.79-6.64-1.39-13.36-.83-20.04l.21-.84c1.48-4.12 2.95-8.24 3.82-12.53.61-2.57 1.24-5.14 2.24-7.57.89-2.08 1.84-4.13 2.7-6.21l.29-.72c1.18-3.2 2.55-6.52 2.3-9.98-.97-2.39-2.97-4.14-4.56-6.09l-.4-.47c-.08-.11-.26-.33-.34-.44l-.46-.63c-.12-4.91.27-9.83 1.14-14.66l.19-.81c1.2-4.29 2.3-8.61 2.94-13.01l.14-.86c.52-2.97 1.03-5.95 1.67-8.88.13-.44.39-1.31.53-1.75.54-1.19.77-2.49.74-3.78l.15-.87c.5-1.31.78-2.69.82-4.09l.17-.89c.52-1.31.8-2.68.84-4.06l.17-.85c.52-1.19.8-2.45.78-3.73l.08-.85c.5-3.24 1.19-6.44 1.88-9.64l.18-.78c.85-3.48 1.35-7.02 1.95-10.53l.22-.84c.5-1.08.77-2.25.74-3.43l.08-.79c.52-3.35 1.16-6.69 1.9-9.99l.26-.8c.53-1.09.78-2.29.7-3.48l.16-1.73c.52-3.36 1.16-6.71 1.91-10.02l.26-.86c.53-1.18.76-2.45.74-3.73l.13-.8c.5-1.18.77-2.44.77-3.71l.11-.85c.95-4.74 2.07-9.46 2.78-14.24l.17-.91c.51-2.71 1.09-5.39 1.67-8.07-2.23-.44-4.47-.87-6.68-1.4l-.75-.21c-2.21-.77-4.39-1.63-6.53-2.56l-.61-.38c-2.17-1.52-4.3-3.1-6.39-4.71l-.61-.54c-.51-6.36-.35-12.79.73-19.08.11-.44.32-1.32.43-1.76.48-1.38.72-2.83.75-4.28l.09-.83c.49-2.91 1.15-5.78 1.81-8.65l.18-.78c.69-2.7 1.28-5.43 1.91-8.14l.21-.79c1.4-4.7 2.79-9.42 3.8-14.23l.17-.75c.62-2.52 1.17-5.06 1.82-7.58l.33-.78c.65-.82.86-1.73.63-2.75l.08-.75c1.63-5.59 3.36-11.15 4.95-16.74l.33-.82c.24-.48.71-1.44.95-1.92l.21-.67c.68-1.7 1.25-3.45 1.68-5.23l.26-.84c.12-.55.34-1.66.45-2.21l.27-.9.76-2.13.28-.92c.18-.54.53-1.63.71-2.18l.29-.95c.68-.95.99-2.01.93-3.17l.22-.84c.07-.21.2-.62.27-.82l.34-.83c.7-.93 1.04-1.98 1.01-3.14l.21-.84c.64-1.67 1.23-3.35 1.64-5.08l.21-.74c1.04-3.46 2.13-6.9 2.98-10.4l.19-.75c.65-2.52 1.18-5.07 1.81-7.59l.32-.77c.68-.79.95-1.69.81-2.71l.08-.76c.65-3.68 1.34-7.35 1.73-11.06l.11-.92c.69-4.93.79-9.94.17-14.89-.05-.44-.15-1.33-.19-1.78-.31-2.81-.67-5.62-.89-8.44l-.05-.81c.08-1.2-.23-2.35-.76-3.4l-.24-.78c-.86-4.36-1.8-8.7-2.88-13.01l-.14-.81c-.22-.5-.64-1.48-.86-1.97l-.24-.73c-.5-2.06-1.09-4.09-1.75-6.09l-.18-.77c-.19-.52-.57-1.57-.75-2.09l-.32-.81c-.56-1.84-1.21-3.65-1.98-5.4l-.21-.52c-.06-.15-.16-.44-.22-.58l-.27-.76c-1.38-4.53-3.17-8.93-5.58-13.01l-.41-.78c-.09-.17-.27-.5-.36-.67l-.31-.59-.36-.68-.3-.59c-.08-.17-.25-.51-.33-.68l-.39-.79c-2.02-4.46-4.3-8.78-6.98-12.87l-.36-.58c-.71-1.32-1.7-2.45-2.8-3.45l-.96-1c-3.79-4.44-7.5-9.02-12.31-12.43l-1.72-1.44c-1.23-1.15-2.52-2.23-3.91-3.17-.45-.33-1.34-1-1.79-1.34-2.07-1.7-4.08-3.49-6.1-5.26-.25-.22-.76-.68-1.01-.9-2.68-2.49-5.67-4.58-8.64-6.68l-1.65-1.41c-.92-1.02-1.94-1.95-3.05-2.76l-.48-.4c-1.01-.97-2.12-1.89-3.48-2.31-.43-.18-1.29-.55-1.72-.73l-.3-.62c-.44-1.34-1.53-2.37-2.92-2.63-.46-.16-1.37-.47-1.83-.63l-.14-.74c-.11-1.18-.76-1.79-1.96-1.84l-1.95-.36-.36-.62c-.56-1.33-1.78-2.14-2.94-2.88l-.55-.41c-.61-.84-1.43-1.34-2.46-1.49-.49-.35-1.45-1.06-1.93-1.41-.96-1.02-2-1.95-3.15-2.75l-.48-.39c-.99-.94-2.1-1.76-3.3-2.4l-.58-.35c-2.35-1.57-4.66-3.22-6.91-4.92l-.52-.43a31.096 31.096 0 0 0-3.59-2.76c-1.07-.77-2-1.79-2.43-3.05-.51-1.54-1.08-3.04-1.71-4.52-.94-3.05-.89-6.32-.43-9.44-.13-.53-.4-1.58-.54-2.1l-.14-.8c-.07-1.21-.3-2.49-1.26-3.32-.25-.3-.74-.89-.99-1.18-4.18-5.14-8.97-9.86-12.12-15.76l-.3-.84c.03-2.72.13-5.43.33-8.13l.56-1.77c.66-.82.88-1.75.67-2.78l.01-.76c.21-.48.63-1.46.85-1.95l.13-.81c1.9-4 3.96-7.93 6.09-11.82l.35-.56c.92-1.3 1.71-2.67 2.41-4.09l.34-.57c.86-.55 1.39-1.31 1.61-2.31l.32-.62c1.56-2.31 3.22-4.54 4.95-6.73l.43-.49c.93-.92 1.71-1.96 2.3-3.11l.36-.56c1.4-2.03 2.88-4 4.45-5.9l.47-.51c3.57-3.21 6.83-6.73 10.15-10.2.48-.3 1.44-.92 1.92-1.22 1.56-.82 2.91-1.96 4.17-3.18l.48-.4c.98-.25 1.74-.81 2.25-1.68l.57-.48c3.69-1.83 7.33-3.73 10.95-5.69l.71-.31c1.13-.17 1.8-.79 2-1.85l.19-.72c.34.67.68 1.35 1.02 2.03 3.99-.45 8-.78 12-1.18-.34 2.13-.99 4.28-.74 6.46.4 1.89 1.25 3.63 1.99 5.4 1.12-2.05 2.5-4.04 2.98-6.36-.22-1.97-1.57-3.57-2.48-5.28.42.1 1.25.29 1.67.39.5.1 1.5.32 2 .43l.03.59c.01 1.05.55 1.75 1.62 2.1 1.56.92 2.53 2.55 3.24 4.17.27 1.01.88 1.72 1.84 2.14l.32.66c-.01 1.1.4 1.98 1.24 2.65l.65.61c-3.06-2.19-5.45-5.11-7.82-7.99-1.4 2.34-2.79 4.68-4.21 7.01 4.18 3.59 8.72 6.74 13.71 9.09-.24-1.67-.5-3.34-.78-5.01.28.25.85.74 1.14.98 1.3 1.21 2.81 2.18 4.49 2.77l.63.25c2.43 1.02 4.9 1.94 7.36 2.89l.62.27c.11.06.34.17.45.23l.51.3c2.66 2.28 5.24 4.67 7.68 7.19l1.27 1.63c2.77 4.53 6.91 7.85 10.96 11.16 4.8 4.2 7.59 10.33 12.85 14.02-.5-1.53-1.05-3.05-1.64-4.55-.23-.35-.67-1.06-.89-1.41l-.55-.65c-.1-.15-.32-.44-.43-.58l-.3-.48c-.08-.15-.25-.45-.33-.6l-.39-.77c-2.17-5.27-5.08-10.16-8.35-14.81l-.31-.52c-.06-.1-.18-.32-.25-.43l-.29-.57c-1.55-3.29-3.17-6.55-4.94-9.72l-.28-.52c-.05-.11-.17-.34-.22-.45l-.29-.59c-1.41-3.11-2.83-6.21-4.36-9.26l-.27-.55c-.05-.12-.16-.35-.21-.47l-.28-.61c-1.08-2.57-2.14-5.16-3.03-7.8l-.2-.76c-.8-4.2-1.78-8.36-2.94-12.47l-.19-.89c.19-5.04.15-10.07.08-15.11l.31-.8c.59-1.03.89-2.2.82-3.39l.06-.75c.53-2.76 1.23-5.49 2.05-8.17l.26-.63c.05-.12.16-.36.22-.47l.28-.55c2.9-4.93 5.4-10.07 8.24-15.02l.47-.5c1.27-1.14 2.35-2.49 3.11-4.03l.36-.62c4.61-6.36 11.71-10.13 18.11-14.39l.68-.35c2.5-1.05 5.05-1.98 7.64-2.78l.82-.09c1.28.04 2.55-.19 3.75-.65l.81-.14c1.27-.02 2.53-.32 3.64-.97l.84-.33c7.02.22 14.04.17 21.06.07l.82.21c1.47.51 2.99.84 4.55.92.52.08 1.56.25 2.08.33 1.28.48 2.64.71 4.01.7l.88.17c.93.64 1.95.89 3.07.76l.91.2c.53.19 1.59.56 2.12.75l.88.24c.52.19 1.56.56 2.08.75l.84.05c.49.23 1.46.68 1.94.91l.77.16c2.55 1.02 5.04 2.17 7.53 3.31l.82.4c.17.08.51.25.68.33l.59.3c.16.09.5.27.67.35l.57.31.64.36.73.42c2.83 1.76 5.66 3.54 8.66 5.03l.71.36 2 1c.09-2.91.18-5.82.36-8.73l.07-1.28c.74.61 1.46 1.24 2.17 1.89 2.1 1.95 3.94 4.18 6.24 5.91 2.12 1.58 4.86 1.82 7.37 2.36-2.82-3.43-6.11-6.42-9.26-9.54 2.61.99 5.29 2.23 6.87 4.65.48 1 1.26 1.52 2.34 1.57l.66.1c1.79.71 3.19-.66 4.05-2.09l.43-.51a3.71 3.71 0 0 0 1.73-2.29c.63-1.16 1.5-2.18 2.4-3.14.97-.91 1.76-1.98 2.36-3.16l1.28-1.88c.97-.34 1.64-.99 2.01-1.94.94-1.68 2.11-3.21 3.2-4.79m124.8 51.91c2.72-1.16 5.61-2.7 6.7-5.65 1.16-1.88-.38-4.89-2.67-4.54-3.44 2.2-4.28 6.39-4.03 10.19M59.66 96.57c-14.09 5.25-25.13 16.23-34.23 27.87-6.95 8.96-13.39 18.4-18.24 28.67-2.6 6.1-5.07 13.32-2.17 19.75 3.18 6.5 9.08 10.99 13.79 16.3 2.33 2.28 4.33 5.28 7.53 6.38 4.51.65 9.01-.67 13.28-2.01 9.1-2.95 17.23-8.25 24.53-14.35 10.5-8.99 18.86-20.24 25.83-32.11 4.07-7.73 8.34-16.47 6.27-25.43-.56-3.11-3.37-4.86-6.14-5.77-5.12-1.8-9.32-5.29-13.62-8.47-1.24 4.66-1.65 9.49-2.85 14.16-5.42 18.74-17.67 35.43-34.01 46.11-6.96 4.57-14.7 9.46-23.38 8.91-3.33-.05-6.02-2.12-8.42-4.2 3.3 1.07 6.63 2.46 10.16 2.28 5.01-.11 9.65-2.34 13.87-4.85 13.87-8.35 25.56-20.34 33.34-34.55 4.06-7.67 7-15.91 8.79-24.4 1.6-5.51-2.44-10.46-2.64-15.9-3.95-.14-7.99.09-11.69 1.61m33.67 17.08c2 2.99 4.85 5.68 5.4 9.4 1.08 7.05-1.49 13.94-4.37 20.25-3.56 8-8.65 15.19-13.88 22.17-8.42 10.9-18.95 20.31-31.22 26.69-7.35 3.68-15.6 6.86-23.96 5.29-2.94-.99-5.03-3.47-7.5-5.24 2.63 5.12 6.85 9.13 11.21 12.77 1.17.92 2.46 1.89 4.03 1.87 7.38.49 14.3-2.73 20.61-6.18 14.05-8.04 26-19.4 35.88-32.15 5.82-8.05 11.1-16.68 13.96-26.26 1.48-4.73 2.67-9.93 1.08-14.79-1.96-5.72-5.67-11.13-11.24-13.82m9.64 4.88c1.42 4.15 3.8 8.06 4.26 12.5.17 4.74-1.08 9.38-2.43 13.88-4.23 12.49-11.81 23.58-20.52 33.38-9.28 10.21-20 19.3-32.26 25.74-5.87 3.01-12.33 5.37-19.01 5.17-3.55-.04-6.88-1.39-10.1-2.74 1.44-.04 2.87-.07 4.31-.1-2.33-2.43-4.82-4.7-7.5-6.72.12 3-.42 6.48 1.72 8.94 3.26 3.8 7.68 6.29 11.62 9.31 18.15 13.42 36.21 27 53.58 41.44 5.56 4.76 11.22 9.44 16.22 14.8 5.12 5.47 8.9 11.99 12.45 18.54 5.32 9.91 9.52 20.38 13.08 31.04 3.65 9.85 5.34 20.25 7.41 30.51 1.39 9.01 1.71 18.26.46 27.3-3.06 15.44-7.52 30.57-12.28 45.56-9.71 28.01-17.5 56.71-22.76 85.89-.9 5.29-1.82 10.66-1.41 16.05.11 2.62 1.98 4.69 3.91 6.27 4.19 3.42 9.46 5.12 14.64 6.37 8.74 1.95 17.67 3.26 26.64 3.04 13.03.3 26.15-1.39 38.6-5.28 14.99-5.22 28.15-14.49 40.23-24.6 12.7-10.9 24.95-22.41 35.66-35.31 18.42-22.33 32.73-47.93 43.07-74.94 2.4-6.46 4.97-12.95 5.89-19.83 1.48-11.1.67-22.35-.74-33.42.14-1.98.31-3.95.52-5.91 1.07 3.35 1.87 6.8 2.08 10.32.65 9.87 1.39 19.83-.04 29.66-.79 5.33-2.66 10.41-4.41 15.48-9.82 27.39-23.7 53.39-41.67 76.31-5.46 6.99-11.77 13.25-17.51 20 2.99 1.81 6.08 3.46 9.32 4.79 10.29 4.35 21.01 8.21 32.24 9.01 3.14.26 5.65-1.99 8.03-3.7 11.66-9.25 22.69-19.33 34.94-27.84 4.75 6.6 8.14 14.05 12.39 20.97 2.41 3.84 4.13 8.41 7.86 11.2 3.43.29 6.71-1.11 9.82-2.39 8.39-3.79 16.16-8.85 23.43-14.49 1.29-1.04 2.61-2.09 3.62-3.41.63-2.78.1-5.64-.06-8.43-.76-7.69-.31-15.43-.96-23.12-1.14-11.56-.39-23.18-.63-34.77.52-33.34-2.34-66.8-9.53-99.39-2.89-11.49-5.92-23.09-11.36-33.69-3.56 4.07-6.92 8.51-11.71 11.23-8.96 5.37-19.97 5.9-30.03 4.03-11.33-1.47-21.98-5.74-32.75-9.3 7.17 12.44 13.59 25.58 16.32 39.79.49 2.56-.01 5.16-.17 7.73-3.28-20.76-12.8-40.03-24.69-57.17-3.33-4.91-7.24-9.41-11.75-13.26-9.69-8.29-18.98-17.04-28.47-25.56-4.61-4.12-9.13-8.57-14.8-11.21-3.5-1.67-7.35-2.34-11.16-2.83 2.8 4.92 8.39 6.93 12.15 10.92 5.03 5.18 8.89 11.36 12.35 17.66 1.66 2.84 3.32 5.99 6.32 7.65 2.52 1.36 5.32 2.04 8.05 2.87 4.9 1.4 9.63 3.33 14.42 5.06-5.5 4.63-12.23 7.9-16.67 13.7-.98 1.46-2.46 3.29-1.52 5.12 3.18 7.39 10.46 11.56 16.01 16.96 7.78 7.71 14.22 16.66 20.06 25.9 5.67 9.22 10.67 18.94 13.8 29.34 1.3 3.75 2.1 7.66 2.14 11.64-2.44-4.7-3-10.05-4.91-14.94-5.07-13.34-12.45-25.68-20.94-37.11-4.88-6.37-9.87-12.81-16.27-17.74-4.81-3.85-10-7.86-12.43-13.71-1.05-2.41.42-4.89 1.93-6.71 3.92-4.67 9.24-7.81 14.12-11.35-5.23-3.34-11.36-4.55-17.09-6.68-3.99-1.44-6.36-5.16-8.44-8.61-3.64-6.18-7.65-12.2-12.69-17.33-3.65-3.72-8.06-6.6-11.57-10.46-10.34-11.32-19.77-23.47-30.76-34.18-10.27-10.07-19.95-20.7-30.04-30.94-15.28-16.39-30.97-32.4-45.82-49.18-1.69-1.86-3.74-3.33-5.81-4.72m104.05 99.45-.75.24c-1.62.02-3.24.06-4.86.11 1.22 1.26 2.48 2.49 3.73 3.73l1.16 1.6c1.19 2.09 2.74 3.94 4.56 5.5l.47.55c.73 1.27 1.43 2.57 2.34 3.74 2.02 1.51 4.51.37 6.59-.35l-.51-.95c1.4-.81.73-3.72-.92-3.71l-.09-.81c.07-3.38-1.1-6.56-2.9-9.38l-.21-.74c-.05-.16-.13-.47-.17-.62l-.17-.65c-2.88-2.09-5.86.04-8.27 1.74m93.2 19.81c3.79 5.43 8.27 10.33 12.6 15.32 3.11 3.32 6.15 7.23 10.78 8.43.55 1.67 2.33 2.35 3.89 2.74 3.45.74 7.01.54 10.52.61-4.83-1.64-9.49-4.5-14.77-4.13-1.07-3.91-4.84-5.84-7.63-8.38-5.46-4.52-9.76-10.27-15.39-14.59M353.05 266c6.03 10.37 12.75 20.42 17.39 31.53 7.16 17.96 10.71 37.08 13.8 56.09 1.15 8.39 1.92 16.83 2.91 25.24 2.9 33.35.23 66.89 2.69 100.27 1.16 11.51 1.18 23.11 2.76 34.58.97 6.25 1 12.77 3.57 18.66 1.61-1.89 3.14-3.91 3.82-6.33 4.22-14.09 7.64-28.4 11.43-42.62 1.7-6.61 2.55-13.39 3.89-20.07 1.63-8.04 1.62-16.27 2.64-24.39 1.14-8.61.6-17.32.75-25.98.14-7.03-.87-14-1.6-20.97a167.058 167.058 0 0 0-8.43-38.63c-1.43-4.28-2.68-8.61-4.05-12.91-1.63-5.17-3.58-10.28-4.29-15.69 1.24 1.81 2.39 3.72 2.97 5.87 3.19 10.99 7.02 21.78 10.31 32.74 7.53 26.82 9.32 55.15 5.87 82.77-.62 9.46-2.45 18.75-4.02 28.08 3.09-4.17 5.73-8.68 9.24-12.53 5.55-6.15 11.94-11.46 18.42-16.59 7.52-5.72 15.39-11.08 24.02-14.98 7.44-3.61 15.58-5.98 23.88-6.17 4.12-.12 7.52 2.54 11.11 4.16-1.39-2.88-3.09-5.62-5.38-7.86-16.13-16.26-31.54-33.21-46.48-50.56-6.76-7.96-13.34-16.06-19.58-24.43-11.81-16.31-24.36-32.15-38.58-46.43 1.68 5.09 3.56 10.15 4.62 15.43 1.13 5.35 1.32 10.84 2.07 16.26.49 3.53.82 7.12.41 10.68-1.29 11.91-2.81 23.79-4.25 35.68-.83 7.04-1.02 14.14-1.91 21.18-1.04 8.27-.97 16.62-1.21 24.94-.38 12.98-.28 25.97-.06 38.96-.06 5.6-.12 11.23.8 16.79-.27 0-.81.01-1.09.01-.37-5.6-.94-11.2-1.08-16.82-.18-16.3-.24-32.61.01-48.91.87-21.49 3.32-42.88 6.11-64.19 1.63-14.76.28-29.88-4.3-44.02-1.74-5.67-5.72-10.19-9.44-14.64-3.73-4.6-8.51-8.24-12.01-13.05 2.7 1.99 5.33 4.08 8.07 6.03-3.59-5.91-8.78-10.58-14.01-14.99-3.19-2.98-7.82-2.09-11.79-2.19m-38.92 8.37c3.44 4.35 5.47 9.62 5.62 15.18 4.04.33 8.37 1.1 12.21-.64 2.92-1.33 2.47-5.2 2.07-7.82-.66-3.03-2.46-6.92-6.07-6.94-4.61-.28-9.22.18-13.83.22m183.88 159.72c1.28 2.05 2.6 4.07 3.94 6.09.33-1.32.65-2.64.97-3.96-1.63-.73-3.27-1.45-4.91-2.13m-16.9 19.18c-1.55 5.1.39 10.4 2.62 14.98 3.07-1.78 6.07-3.76 9.43-4.98 3.21-1.17 6.66-1.32 10.03-1.66-2.75-4.67-5.81-9.59-10.78-12.13-3.92-2.02-9.85-.76-11.3 3.79m27 10.75c.04.39.13 1.18.18 1.57 2.79 1.84 6.24 1.8 9.46 1.65 0-1.51 0-3.02.01-4.52-3.27-.27-6.67-.22-9.65 1.3m-21.77 4.85c5.73-.21 12.33-.56 16.48-5.1-5.94-.79-12.08 1.02-16.48 5.1m-189.86 40.62c-2.02 1.48-4.08 3.12-6.58 3.65-2.48.27-4.95-.23-7.38-.67-13.28-2.7-26.33-6.85-38.38-13.12-12.13 11.58-24.6 22.99-38.81 32.01-12.48 7.77-26.6 13.24-41.32 14.52-7.32.63-14.66 1.39-22.02 1.18-6.92-.1-13.8-.99-20.67-1.81-2.54 13.79-5.33 27.53-7.9 41.32-6.28 31-11.62 62.19-18.6 93.05-.61 3.22-1.06 6.85.75 9.79 1.94 3.1 5.28 4.91 8.47 6.46 12.62 5.73 26.43 7.84 39.99 10.13 6.28.93 12.64 1.21 18.92 2.18 11.59 1.84 23.35 1.92 35.05 1.98 6.94-.12 14.11.1 20.72-2.36 2-.82 4.43-1.8 5.04-4.12 1.42-4.26 1.8-8.76 2.71-13.13 3.76-18.49 9.97-36.35 16.12-54.15 5.44-14.66 10.89-29.33 17.19-43.65 3.83-8.53 7.96-16.99 13.25-24.72 2.45-3.47 5.23-7.16 9.44-8.52 6.98-2.31 14.48-3.27 21.78-2.21-6.77 2.49-14.2 2.33-20.9 5.03-2.94 1.18-5.12 3.6-7.02 6.05-3.83 5.03-6.89 10.6-9.78 16.22-9.61 18.85-16.89 38.75-24.16 58.59-5.01 14.42-9.6 28.99-13.25 43.82 9.87 3.57 20.51 3.51 30.86 3.38 9.97-.15 19.96.4 29.91-.51 12.31-.97 24.64-1.84 36.94-3.07 10.5-1.41 21.09-1.99 31.62-3.2 2.45-.41 5.1-.52 7.28-1.84 1.34-2.31 1.09-5.15 1.35-7.72.17-8.4 1.25-16.73 1.9-25.09.6-9.08 2.83-17.93 4.07-26.92 5.52-28.6 14.8-56.33 20.05-84.99 1.06-5.23-1.31-10.28-1.79-15.43-.88-8.55-1.59-17.12-2.54-25.67-10.04 5.71-19.73 12.21-30.62 16.23-2.74.83-5.95 1.94-8.68.55-2.58-2.3-4.06-5.51-5.85-8.4-4.32-7.19-8.56-14.44-12.92-21.62-12.39 7.6-22.92 17.76-34.24 26.78m115.57-18.89c2.52.94 5.07 1.8 7.64 2.6-2.12-2.84-4.16-5.73-6.15-8.66-.53 2.01-1.02 4.03-1.49 6.06m-73 197.02c-7.88.54-15.77 1.02-23.59 2.17-9.5 1.38-19.12 1.26-28.67 2.19-5.51.54-11.06.34-16.59.64-13.76.98-27.86.71-41.16-3.31-.31 1.1-.65 2.2-.94 3.32 4.74 2.86 9.75 5.43 15.19 6.66 8.13 1.76 16.38 3.08 24.72 3.31 15.7 1.27 31.62 1.15 47.17-1.64 13.52-1.93 26.92-4.69 40.21-7.85 5-1.27 10.09-2.49 14.59-5.11-1.79-1.33-3.55-3.17-5.96-3.03-8.41-.06-16.62 2.06-24.97 2.65m-113.18 16.25c1.73-2.1 3.45-4.21 5.22-6.28-1.11-.68-2.21-1.35-3.32-2.01-.72 2.74-1.34 5.5-1.9 8.29m-125.53-6.85c-1.9 7.24-5.35 13.89-7.78 20.94 2.62 1.65 5.34 3.27 8.42 3.9 10.2 2.17 20.67 2.26 31.05 2.57 8.73.27 17.47-.28 26.17.52 6.25.54 12.55.37 18.79 1.06 8.04.86 16.39 1.36 24.24-1.01 7.46-2.68 13.81-8.12 17.91-14.88-4.34.8-8.68 1.73-13.1 1.97-14.39.75-28.8-.25-43.13-1.55-15.7-1.85-31.39-4.05-46.75-7.82-5.49-1.25-10.61-3.62-15.82-5.7m131.41 2.6c-1.4.74-2.61 1.78-3.84 2.77 1.52 1.54 3.05 3.09 4.6 4.61.32-1.48.63-2.95.95-4.41 1-1.11 2.01-2.21 3.01-3.3-1.58.03-3.18-.05-4.72.33m-17.48 19.69c-4.93 4.31-10.92 7.64-17.47 8.54-7.45 1.01-14.98.31-22.44-.2-10.11-.84-20.27-.67-30.38-1.41-17.38-.62-35.41.88-52-5.39-1.51 3.61-2.62 7.59-1.5 11.48.8 4.83 5.06 7.7 8.35 10.85-2.04-.87-4.38-1.37-5.99-2.98-1.8-2.25-2.71-5.03-3.94-7.59-1.47 6.65-.74 13.49.48 20.11.5 2.46 1.2 5.03 2.92 6.95 2.13 2.34 5.01 3.82 7.9 5.01 8.02 3.14 16.63 4.31 25.17 4.99 9.88 1.05 19.88 1.58 29.78.51 8.17-.93 16.43-1.57 24.38-3.76 8.77-2.41 17.7-5.26 24.99-10.9 7.37-5.6 13.97-12.52 18.13-20.86 2.22-4.28 2.25-9.22 2.05-13.91-2.07 2.97-3.85 6.13-5.84 9.16-6.09 9.04-16.37 15.38-27.37 15.78 3.9-2.22 8.55-2.49 12.46-4.7 8.24-4.47 14.9-11.79 18.63-20.38 1.72-3.74 1.32-7.94.51-11.85-2.82 3.61-5.34 7.51-8.82 10.55Z"/>
    <path opacity=".94" d="M275.8 16.53c5.63 3.2 10.56 7.5 16.31 10.52.36-.7.73-1.4 1.1-2.1.37.29 1.1.88 1.47 1.18 1.72 1.52 3.9 2.43 6.23 2.09l.81-.21c1.27-.38 2.55-.75 3.83-1.14-1.61 1.39-3.23 2.77-4.83 4.15-6.44-.63-12.13-3.84-17.7-6.88-2.66-2.28-5.03-4.88-7.22-7.61Z"/>
    <path opacity=".94" d="M289.33 24.14c-1.21-.58-1.36-2.05-1.83-3.15.66.15 1.99.44 2.65.59.78.78.76 3.05-.82 2.56ZM64.87 91c.51-.41 1.52-1.24 2.03-1.65 2.1.55 4.19 1.15 6.28 1.75-2.77-.01-5.54-.16-8.31-.1Zm355.8 10.54c.74.87 1.46 1.76 2.17 2.65 1.55 2.24 2.89 4.84 2.93 7.62-.19.45-.58 1.36-.77 1.81-1.93-3.83-3.33-7.91-4.33-12.08Zm-101.19 8.86c6.11-2.93 13.17-4.48 19.87-2.88 1.74.36 2.87 1.84 4.15 2.94-6.15.84-12.51.54-18.45 2.57-5.4 1.64-9.9 5.52-15.6 6.27 1.2-4.82 5.96-6.96 10.03-8.9Zm106.95 5.95.9.14.45.98-.46.78c-.23-.47-.67-1.42-.89-1.9Zm-34.88 7.43c1.92.45 4.21.49 5.6 2.12 5.19 5.7 7.93 13.65 6.78 21.35-1.42-3.49-2.23-7.18-3.51-10.71-1.78-5.03-6.9-7.82-8.87-12.76Zm-68.08 21.69c3.26-.91 6.63 1.44 7.66 4.51 1.14 3.12.9 7.12-1.55 9.56-3.41 2.49-8.69 1.4-10.97-2.13-3.32-4.2-.27-11.03 4.86-11.94m-.51 1.29c1.63 1.8 3.59 3.38 4.78 5.54.39 2.41.03 4.85-.01 7.27 2.95-3.12 3.67-8.57.42-11.72-1.67-.63-3.45-.8-5.19-1.09m-3.18 4.63c.53 1.09 1.05 2.19 1.67 3.24 2.37-.04 2.04-2.8 2.63-4.44-1.44.38-2.87.79-4.3 1.2Zm70.71 14.12c2.19-.92 4.55.43 5.46 2.5 1.76 3.82 1.27 9.2-2.35 11.78-3.06.62-5.89-1.66-7.09-4.31-1.67-3.6.02-8.75 3.98-9.97m.79.57c.78 2 1.79 3.93 2.33 6.02.09 2.47-.71 4.86-1.13 7.27 2.13-2.54 3.63-5.8 2.63-9.15-.13-2.2-2.21-3.15-3.83-4.14m-3.57 4.5-.4 2.32c.96-.19 1.93-.38 2.9-.57.14-.56.4-1.68.54-2.24-1.02.16-2.03.32-3.04.49Zm-97.42 31.32c2.01 2.43 4.05 5.02 4.62 8.21 1.19 6.27.31 12.85-1.89 18.8-1.71 4.88-6.96 7.76-11.96 7.69-4.38-.1-8.8-.5-13.03-1.63-3.58-.93-6.39-3.43-9.08-5.82 3.91 1.75 7.8 3.56 11.87 4.92-3-3.31-7.41-6.25-7.54-11.17-.73-5.56 1.3-11.39 5.69-14.96 4.25-4.03 10.95-4.15 16.08-1.83 3.78 1.74 6.11 5.57 7.36 9.4-.09.51-.28 1.52-.38 2.02-2.19-3.26-3.88-7.09-7.17-9.43-5.1-2.86-12.42-2.1-16.19 2.61-3.81 4.64-5.25 11.95-1.43 17.02 2.94 3.67 7.38 6.11 12 6.88 5.3.95 10.87-2.85 11.92-8.12 1.01-4.85 2.1-9.75 2.17-14.71-.61-3.41-2.05-6.58-3.04-9.88Zm57.21 123.38c4.25-2.64 8.67 4.3 5.29 7.53-2.04 2.35-5.84.79-6.82-1.83-1.3-1.93-.27-4.5 1.53-5.7m.53.42c-.14 1.77-1.06 3.76-.06 5.43 1.19 2.32 5.79.8 4.62-1.86-.17-2.4-2.87-2.66-4.56-3.57Zm4.33 46.66c5.83-1.48 6.38 9.71.7 9.54-4.81-.42-5.41-8.42-.7-9.54m-.13 1.72c-2.14 1.41-.86 4.1-.75 6.14.99-.01 2.98-.03 3.97-.05.21-2.05 1.22-4.47-.69-6.05l-2.53-.04Zm-9.77 60.38c3.22-1.1 5.74 3.4 4.21 6.03-1.01 2.28-4.32 4.58-6.47 2.33-2.98-2.46-1.09-7.37 2.26-8.36m-.23 1.58c-1.55 1.73-1.26 4.14-1.4 6.28 1.78-.57 4.17-.62 5.02-2.62.51-2.06-1.69-3.84-3.62-3.66ZM259.56 729c9.55 1.02 19.17 2.19 28.44 4.75-2.13.12-4.26.22-6.38.21l-.89-.24c-1.37-.52-2.78-.9-4.23-1l-.84-.12c-3.8-.66-7.63-1.23-11.44-1.85l-.85-.19c-1.28-.49-2.55-1.03-3.81-1.56Zm29.5 5.25c7.57-.42 15.2.41 22.47 2.61-2.52.12-5.04.26-7.56.24l-.87-.07c-4.74-.59-9.43-1.56-14.04-2.78Zm23.46 3.26c8.11-1.24 16.32-.22 24.48-.57 5.22-.23 10.46-.29 15.66.35-4.82 1.07-9.77 1.3-14.69 1.13-7.76-.23-15.54.32-23.28-.46-.54-.11-1.63-.33-2.17-.45Z"/>
  </g>
  <path d="M267.21 7.58c7.32 2.79 12.07 9.44 18.93 13.03-.78-1.32-1.57-2.63-2.36-3.93 1.31 1.35 2.96 2.52 3.72 4.31.47 1.1.62 2.57 1.83 3.15 1.58.49 1.6-1.78.82-2.56 1.02 1.12 2.05 2.24 3.06 3.37-.37.7-.74 1.4-1.1 2.1-5.75-3.02-10.68-7.32-16.31-10.52 2.19 2.73 4.56 5.33 7.22 7.61-6.81-2.98-11.88-8.57-17.97-12.67-3.19 3.38-6.21 6.9-8.92 10.66-2.52 3.47-5.27 6.91-9.03 9.09 5.79-7.39 11.03-15.27 17.71-21.93 3.41 2.55 6.87 5.04 10.6 7.1-2.63-3.03-5.53-5.82-8.2-8.81Zm39.64 19.14c5.74-3.2 11.1-7.03 16.88-10.18-2.6 2.5-5.24 4.96-8.26 6.94-4.6 3.04-9.19 6.54-14.75 7.54 1.6-1.38 3.22-2.76 4.83-4.15-1.28.39-2.56.76-3.83 1.14 1.18-.68 2.2-3.06 3.71-1.79.36.12 1.07.38 1.42.5Zm-75.18-4.54c1.44-.44 2.9-.86 4.35-1.27 3.15 3.12 6.44 6.11 9.26 9.54-2.51-.54-5.25-.78-7.37-2.36-2.3-1.73-4.14-3.96-6.24-5.91Zm138.94 10.13c4.88-1.1 9.31-3.48 13.9-5.38.32.36.94 1.08 1.25 1.44-9.21 3.73-17.66 9.72-27.79 10.77 3.69-1.8 7.4-3.58 10.77-5.94-1.96.5-3.91 1.04-5.82 1.7 2.33-1.47 5.02-2.08 7.69-2.59Zm12.58-.97c1.44-.56 2.91-1.01 4.39-1.48.23 10.22-.69 20.4-1.15 30.59-.81-5.19-1.13-10.46-.76-15.7.11-3.41.64-6.89-.13-10.25-.74-1.09-1.55-2.12-2.35-3.16Z" fill="#eee27e"/>
  <g fill="#feec6e">
    <path d="M323.73 16.54c3.38-2.42 6.71-5.53 11.01-6.06 2.14 1.02 3.26 3.27 4.47 5.19 4.1 7.38 8.43 14.73 13.98 21.13 1.76 1.84 3.86 4.16 6.67 3.77 8.45-1.01 15.88-5.47 23.33-9.23.8 1.04 1.61 2.07 2.35 3.16.77 3.36.24 6.84.13 10.25-.37 5.24-.05 10.51.76 15.7 1.82.03 3.64.04 5.47.05-4.24 6.53-8.6 13-13.42 19.12-7.76-7.55-17.25-13.02-27.26-17-17.86-7.12-36.49-12.71-55.65-14.85-12.25-1.25-24.65-1.93-36.89-.3-3.79.36-7.64 1.2-11.43.57-3.42-2.3-5.55-5.98-8.49-8.79-2.53-2.74-5.84-4.77-7.89-7.93-.83-2.4-.78-4.99-1.01-7.5 3.24 2.53 6.19 5.53 9.9 7.41 2.26 1.19 5.1 1.29 7.34-.01 3.76-2.18 6.51-5.62 9.03-9.09 2.71-3.76 5.73-7.28 8.92-10.66 6.09 4.1 11.16 9.69 17.97 12.67 5.57 3.04 11.26 6.25 17.7 6.88 5.56-1 10.15-4.5 14.75-7.54 3.02-1.98 5.66-4.44 8.26-6.94Z"/>
    <path d="M388.15 59.34c-.25-3.8.59-7.99 4.03-10.19 2.29-.35 3.83 2.66 2.67 4.54-1.09 2.95-3.98 4.49-6.7 5.65Z"/>
  </g>
  <g fill="#c9c6bc">
    <path d="M134.93 23.95c10.46-7.82 23.9-10.51 36.74-10.18 11.99.6 24.05 2.65 35.16 7.36 13.11 5.43 25.75 13.09 34.72 24.29 1.67 1.81 3.21 4 5.6 4.89 3.47.56 6.99-.11 10.46-.43 8.11-1.02 16.29-.99 24.45-.78 12.58.32 24.92 3.14 37.18 5.78 11.94 3.03 23.84 6.53 35.03 11.77 8.35 3.83 16.61 8.34 23.12 14.95 3.31 3.39 6.35 7.04 9.26 10.78 3.83 4.92 6.77 10.45 10.34 15.55-3.66-9.87-9.98-18.42-16.86-26.26 1.89-2.93 3.59-6.12 6.29-8.39 2.09-.33 4.18.26 6.17.89 5.81 1.97 11.22 5.27 15.37 9.82 4.1 4.35 6.6 10.03 11.29 13.85 2.03 1.55 2.86 4.01 3.59 6.35-.71-.89-1.43-1.78-2.17-2.65 1 4.17 2.4 8.25 4.33 12.08.19-.45.58-1.36.77-1.81.29 1.5.64 3 .66 4.54.22.48.66 1.43.89 1.9 1.39.92.94 2.65.93 4.04-.9 7.28 1.21 14.44 1.21 21.71.03 6.67-.48 13.38-1.79 19.93-2.59 12.96-9.86 24.31-13.16 37.06-3.49-1.96-7.33-3.57-10.11-6.54-.66-3.45.04-6.97.3-10.43.91-7.88.94-15.82.92-23.73-.29-.01-.88-.02-1.17-.02-.19 10.98-.6 22.02-2.56 32.85-6.75-2.82-13.57-5.54-20.03-8.98-4.9-2.59-8.74-6.63-12.99-10.09 1.57 2.97 3.29 5.99 5.98 8.1 7.02 5.75 16.06 7.85 23.89 12.16 10.72 5.87 20.74 12.99 30.07 20.88 18.61 16.02 33.25 36.2 52.71 51.31 9.01 7.2 18.74 13.46 28.8 19.1 3.66 2.04 7.54 3.69 11.12 5.9 2.22 1.4 4.48 3.23 5.19 5.88.88 3.67-1.08 8.03-4.73 9.32-4.37 1.64-9.04 2.21-13.44 3.76-4.72 1.46-9.07 3.92-12.92 7 5.52-2.18 10.87-4.8 16.63-6.32-4.95 4.02-10.52 7.3-16.5 9.53-3.82 1.45-8.02 1.61-12 .84-8.61-1.58-16.38-5.88-23.78-10.37-15.11-9.27-28.79-20.61-43.31-30.72-6.62-4.55-12.95-10-20.88-12.08-12.89-4.14-26.57-3.1-39.87-4.27-9.14-.71-18.69-.74-27.14-4.79-10.55-4.82-17.42-14.6-26.05-21.94-2.16-1.84-4.86-2.82-7.48-3.77 3.93 6.33 8.9 11.93 13.51 17.77 5.33 6.48 11.56 13.13 20.02 15.18 5.87 1.58 11.67-2.42 17.51-.46-5.39 2.69-11 5.37-17.1 5.78-7.34.47-14.76-.14-21.89-1.91-16.74-4.05-32.99-10.88-46.75-21.37-7.23-5.68-14.75-11.16-23.36-14.58 3.16 2.17 6.43 4.17 9.64 6.26 6.02 3.86 11.11 8.96 17.12 12.84 8.3 5.43 17.21 9.94 26.43 13.58 6.14 2.35 12.6 3.7 18.75 6.01-14.66-1.18-29.16-4.14-43.22-8.43-3.83-1.11-7.51-2.87-10.41-5.64-6.42-5.92-12.76-11.96-19.55-17.47-3.9-3.2-8.61-5.12-13.31-6.81-.87-6.25-2.51-12.33-4.62-18.26-1.44-3.26.27-6.54 1.3-9.62 1.15-3.11 1.38-6.44 1.56-9.71-1.59 3.88-2.53 8.02-4.4 11.79-3.63 7.42-15.5 9.68-20.87 2.97-2.74-2.93-5.31-6.01-8.16-8.85-10.51-10.5-20.85-21.16-31.06-31.95-4.27-4.43-8.98-8.66-11.75-14.28-5.53-10.94-11.42-21.7-17.74-32.21-7.8-13.79-15.4-28.21-17.7-44.09-1-6.2.02-12.48 1.48-18.51 3.46-14.85 12.21-28.41 24.34-37.65m184.55 86.45c-4.07 1.94-8.83 4.08-10.03 8.9 5.7-.75 10.2-4.63 15.6-6.27 5.94-2.03 12.3-1.73 18.45-2.57-1.28-1.1-2.41-2.58-4.15-2.94-6.7-1.6-13.76-.05-19.87 2.88m72.07 13.38c1.97 4.94 7.09 7.73 8.87 12.76 1.28 3.53 2.09 7.22 3.51 10.71 1.15-7.7-1.59-15.65-6.78-21.35-1.39-1.63-3.68-1.67-5.6-2.12m-68.08 21.69c-5.13.91-8.18 7.74-4.86 11.94 2.28 3.53 7.56 4.62 10.97 2.13 2.45-2.44 2.69-6.44 1.55-9.56-1.03-3.07-4.4-5.42-7.66-4.51m67.02 20.04c-3.96 1.22-5.65 6.37-3.98 9.97 1.2 2.65 4.03 4.93 7.09 4.31 3.62-2.58 4.11-7.96 2.35-11.78-.91-2.07-3.27-3.42-5.46-2.5m-100.2 36.39c.99 3.3 2.43 6.47 3.04 9.88-.34 1.23-.65 2.48-.92 3.73-1.25-3.83-3.58-7.66-7.36-9.4-5.13-2.32-11.83-2.2-16.08 1.83-4.39 3.57-6.42 9.4-5.69 14.96.13 4.92 4.54 7.86 7.54 11.17-4.07-1.36-7.96-3.17-11.87-4.92 2.69 2.39 5.5 4.89 9.08 5.82 4.23 1.13 8.65 1.53 13.03 1.63 5 .07 10.25-2.81 11.96-7.69 2.2-5.95 3.08-12.53 1.89-18.8-.57-3.19-2.61-5.78-4.62-8.21ZM59.66 96.57c3.7-1.52 7.74-1.75 11.69-1.61.2 5.44 4.24 10.39 2.64 15.9-1.79 8.49-4.73 16.73-8.79 24.4-7.78 14.21-19.47 26.2-33.34 34.55-4.22 2.51-8.86 4.74-13.87 4.85-3.53.18-6.86-1.21-10.16-2.28 2.4 2.08 5.09 4.15 8.42 4.2 8.68.55 16.42-4.34 23.38-8.91 16.34-10.68 28.59-27.37 34.01-46.11 1.2-4.67 1.61-9.5 2.85-14.16 4.3 3.18 8.5 6.67 13.62 8.47 2.77.91 5.58 2.66 6.14 5.77 2.07 8.96-2.2 17.7-6.27 25.43-6.97 11.87-15.33 23.12-25.83 32.11-7.3 6.1-15.43 11.4-24.53 14.35-4.27 1.34-8.77 2.66-13.28 2.01-3.2-1.1-5.2-4.1-7.53-6.38-4.71-5.31-10.61-9.8-13.79-16.3-2.9-6.43-.43-13.65 2.17-19.75 4.85-10.27 11.29-19.71 18.24-28.67 9.1-11.64 20.14-22.62 34.23-27.87Z"/>
    <path d="M300.22 237.79c5.63 4.32 9.93 10.07 15.39 14.59 2.79 2.54 6.56 4.47 7.63 8.38l.36.78c-4.63-1.2-7.67-5.11-10.78-8.43-4.33-4.99-8.81-9.89-12.6-15.32Zm161.43 208.87c8.74-5.71 18.22-10.85 28.65-12.53 1.86-.14 4.15-.65 5.63.87 3.24 2.94 5.81 7.22 4.86 11.75-.04.42-.13 1.28-.17 1.71-.26 1.42-.49 2.85-.76 4.28-2.6-2.03-5.14-4.26-8.24-5.47-4.85-1.91-11.05.98-12.39 6.1-1.27 5.17.78 10.34 1.95 15.33-10 3.56-19.86 7.73-28.59 13.85-8.66 5.91-18.35 12.65-20.83 23.53 3.22-4.19 6.1-8.71 10.14-12.18 7.48-6.49 15.77-12.03 24.61-16.46 4.21-2.09 8.29-4.51 12.76-6.02 4.2-1.28 8.66-.58 12.97-1.22 4.61-.53 8.78-2.74 12.83-4.87 3.43 1.89 6.9 3.72 10.35 5.58-1.89 3.79-3.91 7.6-6.88 10.67-4.64 4.81-10.23 8.54-15.78 12.2-9.23 5.86-18.96 11.07-29.33 14.62-8.23 2.82-17.21 4.64-25.85 2.77-5.44-1.25-7.96-6.74-10.93-10.88-2.03-3.49-5.28-6.74-5.49-10.95.95-5.75 4.79-10.45 8.35-14.85 9.34-10.71 20.34-19.94 32.14-27.83Zm54.6 26.22c.74-1.83 1.49-3.64 2.17-5.48.42 1.63.84 3.27 1.27 4.92l-3.44.56Zm-177.2 214.74c8.35-.59 16.56-2.71 24.97-2.65 2.41-.14 4.17 1.7 5.96 3.03-4.5 2.62-9.59 3.84-14.59 5.11-13.29 3.16-26.69 5.92-40.21 7.85-15.55 2.79-31.47 2.91-47.17 1.64-8.34-.23-16.59-1.55-24.72-3.31-5.44-1.23-10.45-3.8-15.19-6.66.29-1.12.63-2.22.94-3.32 13.3 4.02 27.4 4.29 41.16 3.31 5.53-.3 11.08-.1 16.59-.64 9.55-.93 19.17-.81 28.67-2.19 7.82-1.15 15.71-1.63 23.59-2.17Zm-238.71 9.4c5.21 2.08 10.33 4.45 15.82 5.7 15.36 3.77 31.05 5.97 46.75 7.82 14.33 1.3 28.74 2.3 43.13 1.55 4.42-.24 8.76-1.17 13.1-1.97-4.1 6.76-10.45 12.2-17.91 14.88-7.85 2.37-16.2 1.87-24.24 1.01-6.24-.69-12.54-.52-18.79-1.06-8.7-.8-17.44-.25-26.17-.52-10.38-.31-20.85-.4-31.05-2.57-3.08-.63-5.8-2.25-8.42-3.9 2.43-7.05 5.88-13.7 7.78-20.94Z"/>
  </g>
  <g fill="#454c3e">
    <path d="M233.79 19.31c.43-1.32 2.8-.76 2.34.66-.43 1.33-2.84.77-2.34-.66Zm60.89 6.82c2.06.73 4.14 1.43 6.23 2.09-2.33.34-4.51-.57-6.23-2.09Zm56.53 4.76c2.08 2.45 4.5 4.79 7.76 5.49-1.17.21-2.35.38-3.53.55-1.39-2.02-2.81-4.04-4.23-6.04Zm-16.35 247.23c1.32 2.7 2.01 5.65 2.66 8.58 1.87 1.07 3.74 2.14 5.7 3.06-.61.23-1.83.7-2.44.93-3.87-1.71-7.81.2-11.59 1.15-3.09.92-6.22-.17-9.27-.7 2.69.13 5.39.38 8.09.15 3.11-.26 5.95-1.67 8.77-2.91-.6-3.43-1.07-6.88-1.92-10.26Zm27.9 414.68c2.67-.86 5.3-2.06 8.13-2.23 3.62 1.07 6.13 4.27 8.42 7.1 4.88 7.03 8.13 15.71 6.8 24.37-.47 3.41-1.21 7.67-4.84 9.11-8.77 3.99-18.71 3.03-27.83 5.73 3.49.27 7 .49 10.5.24a211.6 211.6 0 0 1-23.99 1.71c-8.41.49-16.93.51-25.26-.87 7.74.78 15.52.23 23.28.46 4.92.17 9.87-.06 14.69-1.13-5.2-.64-10.44-.58-15.66-.35-8.16.35-16.37-.67-24.48.57-2.86.34-5.73.07-8.55-.41 2.52.02 5.04-.12 7.56-.24-7.27-2.2-14.9-3.03-22.47-2.61 4.61 1.22 9.3 2.19 14.04 2.78-7.2-.72-14.41-1.5-21.48-3.07 2.12.01 4.25-.09 6.38-.21-9.27-2.56-18.89-3.73-28.44-4.75 1.26.53 2.53 1.07 3.81 1.56-4.86-.13-9.66-1.06-14.29-2.52 3.09.5 6.22.75 9.35.95-8.9-3.55-18.87-3.54-27.47-7.95-1.84-.99-3.95-2.19-4.44-4.4-.96-3.6-1.01-7.34-1.28-11.02 7 2.49 13.91 5.3 21.17 6.96 16.03 3.77 32.44 5.55 48.82 6.9 18.57 1.04 37.19 1.82 55.77.73 7.7-.47 15.49-.46 23.06-2.12 2.47-.61 5.03-1.28 7.11-2.83 1.69-1.6 2.45-3.89 3.52-5.9-2.05 2.05-3.86 4.43-6.41 5.9-3.15 1.5-6.71 1.72-10.13 2.14-18.67 1.71-37.47 2.49-56.21 1.46-13.08-.73-26.16-1.74-39.17-3.33-12.66-1.21-25.22-3.67-37.31-7.63.51-.78 1.04-1.54 1.56-2.3-1.24-.13-2.48-.25-3.71-.36 1.51-1.54 2.74-3.88 5.16-3.98 3.4-.38 6.77.49 10.1 1.12 8.35 1.79 16.92 2.11 25.41 2.72 22.87 1.41 45.63-2.42 67.95-6.98 7-1.53 14.07-2.91 20.83-5.32Zm-136.89 11.07c.56-2.79 1.18-5.55 1.9-8.29 1.11.66 2.21 1.33 3.32 2.01-1.77 2.07-3.49 4.18-5.22 6.28Z"/>
    <path d="M231.75 699.62c1.54-.38 3.14-.3 4.72-.33-1 1.09-2.01 2.19-3.01 3.3-.32 1.46-.63 2.93-.95 4.41-1.55-1.52-3.08-3.07-4.6-4.61 1.23-.99 2.44-2.03 3.84-2.77Zm-17.48 19.69c3.48-3.04 6-6.94 8.82-10.55.81 3.91 1.21 8.11-.51 11.85-3.73 8.59-10.39 15.91-18.63 20.38-3.91 2.21-8.56 2.48-12.46 4.7 11-.4 21.28-6.74 27.37-15.78 1.99-3.03 3.77-6.19 5.84-9.16.2 4.69.17 9.63-2.05 13.91-4.16 8.34-10.76 15.26-18.13 20.86-7.29 5.64-16.22 8.49-24.99 10.9-7.95 2.19-16.21 2.83-24.38 3.76-9.9 1.07-19.9.54-29.78-.51-8.54-.68-17.15-1.85-25.17-4.99-2.89-1.19-5.77-2.67-7.9-5.01-1.72-1.92-2.42-4.49-2.92-6.95-1.22-6.62-1.95-13.46-.48-20.11 1.23 2.56 2.14 5.34 3.94 7.59 1.61 1.61 3.95 2.11 5.99 2.98-3.29-3.15-7.55-6.02-8.35-10.85-1.12-3.89-.01-7.87 1.5-11.48 16.59 6.27 34.62 4.77 52 5.39 10.11.74 20.27.57 30.38 1.41 7.46.51 14.99 1.21 22.44.2 6.55-.9 12.54-4.23 17.47-8.54m-25.97 25.75v.83l.71.41.72-.41v-.83l-.72-.41-.71.41Zm28.56 1.49c.74-1.31 1.67-2.5 2.74-3.54 1.56 1.46-.95 4.77-2.74 3.54Z"/>
  </g>
  <g fill="#e5e4db">
    <path d="M66.9 89.35c4.1-.24 7.43 2.39 11.15 3.62-.42-.1-1.25-.29-1.67-.39.91 1.71 2.26 3.31 2.48 5.28-.48 2.32-1.86 4.31-2.98 6.36-.74-1.77-1.59-3.51-1.99-5.4-.25-2.18.4-4.33.74-6.46-4 .4-8.01.73-12 1.18-.34-.68-.68-1.36-1.02-2.03 1.08-.19 2.16-.4 3.26-.51 2.77-.06 5.54.09 8.31.1-2.09-.6-4.18-1.2-6.28-1.75Zm14.27 8.98c2.37 2.88 4.76 5.8 7.82 7.99l.39.3c.17.93.35 1.86.51 2.8.28 1.67.54 3.34.78 5.01-4.99-2.35-9.53-5.5-13.71-9.09 1.42-2.33 2.81-4.67 4.21-7.01Zm187.5 112.38c3.77-4.71 11.09-5.47 16.19-2.61 3.29 2.34 4.98 6.17 7.17 9.43.1-.5.29-1.51.38-2.02.27-1.25.58-2.5.92-3.73-.07 4.96-1.16 9.86-2.17 14.71-1.05 5.27-6.62 9.07-11.92 8.12-4.62-.77-9.06-3.21-12-6.88-3.82-5.07-2.38-12.38 1.43-17.02Zm232.12 236.04c2.48.28 4.95.61 7.45.77-.24-.39-.7-1.19-.93-1.58.74 1.09 1.55 2.15 2.26 3.29-.38-.22-1.13-.64-1.51-.86 2.37 4.06 5.13 7.87 7.64 11.84-3.19.95-6.37 1.88-9.55 2.82-2.24-4.7-4.35-9.49-5.53-14.57.04-.43.13-1.29.17-1.71Zm-19.68 6.52c1.45-4.55 7.38-5.81 11.3-3.79 4.97 2.54 8.03 7.46 10.78 12.13-3.37.34-6.82.49-10.03 1.66-3.36 1.22-6.36 3.2-9.43 4.98-2.23-4.58-4.17-9.88-2.62-14.98Zm27 10.75c2.98-1.52 6.38-1.57 9.65-1.3-.01 1.5-.01 3.01-.01 4.52-3.22.15-6.67.19-9.46-1.65-.05-.39-.14-1.18-.18-1.57Z"/>
    <path d="M486.34 468.87c4.4-4.08 10.54-5.89 16.48-5.1-4.15 4.54-10.75 4.89-16.48 5.1Z"/>
  </g>
  <g fill="#fff">
    <path d="M93.33 113.65c5.57 2.69 9.28 8.1 11.24 13.82 1.59 4.86.4 10.06-1.08 14.79-2.86 9.58-8.14 18.21-13.96 26.26-9.88 12.75-21.83 24.11-35.88 32.15-6.31 3.45-13.23 6.67-20.61 6.18-1.57.02-2.86-.95-4.03-1.87-4.36-3.64-8.58-7.65-11.21-12.77 2.47 1.77 4.56 4.25 7.5 5.24 8.36 1.57 16.61-1.61 23.96-5.29 12.27-6.38 22.8-15.79 31.22-26.69 5.23-6.98 10.32-14.17 13.88-22.17 2.88-6.31 5.45-13.2 4.37-20.25-.55-3.72-3.4-6.41-5.4-9.4Zm229.63 33.11c1.74.29 3.52.46 5.19 1.09 3.25 3.15 2.53 8.6-.42 11.72.04-2.42.4-4.86.01-7.27-1.19-2.16-3.15-3.74-4.78-5.54Zm-3.18 4.63c1.43-.41 2.86-.82 4.3-1.2-.59 1.64-.26 4.4-2.63 4.44-.62-1.05-1.14-2.15-1.67-3.24Zm71.5 14.69c1.62.99 3.7 1.94 3.83 4.14 1 3.35-.5 6.61-2.63 9.15.42-2.41 1.22-4.8 1.13-7.27-.54-2.09-1.55-4.02-2.33-6.02Zm-3.57 4.5c1.01-.17 2.02-.33 3.04-.49-.14.56-.4 1.68-.54 2.24-.97.19-1.94.38-2.9.57l.4-2.32Zm-41.51 95.48c1.96.44 4.5.13 5.71 2.11 2.72 3.66 4.71 7.8 7.17 11.64 1.66 2.91 3.76 5.72 4.45 9.07-.41 1.59-1.36 2.98-2.33 4.29-4.77 6.1-11.73 10.59-19.42 11.86-7.99 1.32-16.11-.03-23.91-1.8-7.4-1.61-14.62-3.89-21.78-6.32-2.76-1-5.76-1.97-7.69-4.33-2.93-3.46-5.15-7.43-8.04-10.92-4.33-5.52-10.13-9.6-14.84-14.77 7.53 1.67 15.02 3.55 22.49 5.5 1.11 3.66 2.96 7.26 6.53 9.06.1.25.32.76.42 1.02.35 3.15.14 6.67 2.28 9.27 2.71 3.87 8.25 4.62 12.39 2.81 3.4-1.19 6.44-4.09 10.29-3.41 3.05.53 6.18 1.62 9.27.7 3.78-.95 7.72-2.86 11.59-1.15 3.65 1.13 7.27 2.76 11.16 2.75 1.96.05 3.93-1.16 4.53-3.07.99-2.9.07-6.03-1.23-8.67-2.72-5.38-6.27-10.29-9.04-15.64Zm156.76 159.03c.82 2.9 1.78 5.77 3.31 8.39 1.21 1.95 1.13 4.31 1.34 6.52-.24-1.71-.53-3.41-.9-5.08-1.03 2.5-1.95 5.05-2.87 7.6.16-2.59.36-5.18.53-7.76-7.12-3.98-15.73-3.17-23.14-.49-11.07 4.01-21.12 10.4-30.4 17.56-8.58 6.66-16.75 13.97-23.64 22.39-3.48 4.18-6 9.02-8.73 13.69-1-1.92-2.4-3.76-2.66-5.96.04-3.25 1.48-6.29 3.02-9.08 3.82-6.6 9.08-12.24 14.76-17.28 8.24-7.27 17.03-13.95 26.52-19.53 8.87-5.33 18.77-9.32 29.19-9.99 2.5-.13 5.23-.15 7.39 1.35 3.28 2.11 6.07 4.86 9.1 7.3-.98-3.2-2.02-6.38-2.82-9.63Z"/>
    <path d="M498.01 434.09c1.64.68 3.28 1.4 4.91 2.13-.32 1.32-.64 2.64-.97 3.96-1.34-2.02-2.66-4.04-3.94-6.09Zm-85.96 56.51c.47-2.03.96-4.05 1.49-6.06 1.99 2.93 4.03 5.82 6.15 8.66-2.57-.8-5.12-1.66-7.64-2.6Z"/>
  </g>
  <g fill="#50ad5e">
    <path d="M102.97 118.53c2.07 1.39 4.12 2.86 5.81 4.72 14.85 16.78 30.54 32.79 45.82 49.18 10.09 10.24 19.77 20.87 30.04 30.94 10.99 10.71 20.42 22.86 30.76 34.18 3.51 3.86 7.92 6.74 11.57 10.46 5.04 5.13 9.05 11.15 12.69 17.33 2.08 3.45 4.45 7.17 8.44 8.61 5.73 2.13 11.86 3.34 17.09 6.68-4.88 3.54-10.2 6.68-14.12 11.35-1.51 1.82-2.98 4.3-1.93 6.71 2.43 5.85 7.62 9.86 12.43 13.71 6.4 4.93 11.39 11.37 16.27 17.74 8.49 11.43 15.87 23.77 20.94 37.11 1.91 4.89 2.47 10.24 4.91 14.94-.04-3.98-.84-7.89-2.14-11.64-3.13-10.4-8.13-20.12-13.8-29.34-5.84-9.24-12.28-18.19-20.06-25.9-5.55-5.4-12.83-9.57-16.01-16.96-.94-1.83.54-3.66 1.52-5.12 4.44-5.8 11.17-9.07 16.67-13.7-4.79-1.73-9.52-3.66-14.42-5.06-2.73-.83-5.53-1.51-8.05-2.87-3-1.66-4.66-4.81-6.32-7.65-3.46-6.3-7.32-12.48-12.35-17.66-3.76-3.99-9.35-6-12.15-10.92 3.81.49 7.66 1.16 11.16 2.83 5.67 2.64 10.19 7.09 14.8 11.21 9.49 8.52 18.78 17.27 28.47 25.56 4.51 3.85 8.42 8.35 11.75 13.26 11.89 17.14 21.41 36.41 24.69 57.17.04 1.98.1 3.95.26 5.92 1.41 11.07 2.22 22.32.74 33.42-.92 6.88-3.49 13.37-5.89 19.83-10.34 27.01-24.65 52.61-43.07 74.94-10.71 12.9-22.96 24.41-35.66 35.31-12.08 10.11-25.24 19.38-40.23 24.6-12.45 3.89-25.57 5.58-38.6 5.28-8.97.22-17.9-1.09-26.64-3.04-5.18-1.25-10.45-2.95-14.64-6.37-1.93-1.58-3.8-3.65-3.91-6.27-.41-5.39.51-10.76 1.41-16.05 5.26-29.18 13.05-57.88 22.76-85.89 4.76-14.99 9.22-30.12 12.28-45.56 1.25-9.04.93-18.29-.46-27.3-2.07-10.26-3.76-20.66-7.41-30.51-3.56-10.66-7.76-21.13-13.08-31.04-3.55-6.55-7.33-13.07-12.45-18.54-5-5.36-10.66-10.04-16.22-14.8-17.37-14.44-35.43-28.02-53.58-41.44-3.94-3.02-8.36-5.51-11.62-9.31-2.14-2.46-1.6-5.94-1.72-8.94 2.68 2.02 5.17 4.29 7.5 6.72-1.44.03-2.87.06-4.31.1 3.22 1.35 6.55 2.7 10.1 2.74 6.68.2 13.14-2.16 19.01-5.17 12.26-6.44 22.98-15.53 32.26-25.74 8.71-9.8 16.29-20.89 20.52-33.38 1.35-4.5 2.6-9.14 2.43-13.88-.46-4.44-2.84-8.35-4.26-12.5ZM353.05 266c3.97.1 8.6-.79 11.79 2.19 5.23 4.41 10.42 9.08 14.01 14.99-2.74-1.95-5.37-4.04-8.07-6.03 3.5 4.81 8.28 8.45 12.01 13.05 3.72 4.45 7.7 8.97 9.44 14.64 4.58 14.14 5.93 29.26 4.3 44.02-2.79 21.31-5.24 42.7-6.11 64.19-.25 16.3-.19 32.61-.01 48.91.14 5.62.71 11.22 1.08 16.82.28 0 .82-.01 1.09-.01-.92-5.56-.86-11.19-.8-16.79-.22-12.99-.32-25.98.06-38.96.24-8.32.17-16.67 1.21-24.94.89-7.04 1.08-14.14 1.91-21.18 1.44-11.89 2.96-23.77 4.25-35.68.41-3.56.08-7.15-.41-10.68-.75-5.42-.94-10.91-2.07-16.26-1.06-5.28-2.94-10.34-4.62-15.43 14.22 14.28 26.77 30.12 38.58 46.43 6.24 8.37 12.82 16.47 19.58 24.43 14.94 17.35 30.35 34.3 46.48 50.56 2.29 2.24 3.99 4.98 5.38 7.86-3.59-1.62-6.99-4.28-11.11-4.16-8.3.19-16.44 2.56-23.88 6.17-8.63 3.9-16.5 9.26-24.02 14.98-6.48 5.13-12.87 10.44-18.42 16.59-3.51 3.85-6.15 8.36-9.24 12.53 1.57-9.33 3.4-18.62 4.02-28.08 3.45-27.62 1.66-55.95-5.87-82.77-3.29-10.96-7.12-21.75-10.31-32.74-.58-2.15-1.73-4.06-2.97-5.87.71 5.41 2.66 10.52 4.29 15.69 1.37 4.3 2.62 8.63 4.05 12.91 4.32 12.49 7.17 25.48 8.43 38.63.73 6.97 1.74 13.94 1.6 20.97-.15 8.66.39 17.37-.75 25.98-1.02 8.12-1.01 16.35-2.64 24.39-1.34 6.68-2.19 13.46-3.89 20.07-3.79 14.22-7.21 28.53-11.43 42.62-.68 2.42-2.21 4.44-3.82 6.33-2.57-5.89-2.6-12.41-3.57-18.66-1.58-11.47-1.6-23.07-2.76-34.58-2.46-33.38.21-66.92-2.69-100.27-.99-8.41-1.76-16.85-2.91-25.24-3.09-19.01-6.64-38.13-13.8-56.09-4.64-11.11-11.36-21.16-17.39-31.53Z"/>
    <path d="M296.48 509.49c11.32-9.02 21.85-19.18 34.24-26.78 4.36 7.18 8.6 14.43 12.92 21.62 1.79 2.89 3.27 6.1 5.85 8.4 2.73 1.39 5.94.28 8.68-.55 10.89-4.02 20.58-10.52 30.62-16.23.95 8.55 1.66 17.12 2.54 25.67.48 5.15 2.85 10.2 1.79 15.43-5.25 28.66-14.53 56.39-20.05 84.99-1.24 8.99-3.47 17.84-4.07 26.92-.65 8.36-1.73 16.69-1.9 25.09-.26 2.57-.01 5.41-1.35 7.72-2.18 1.32-4.83 1.43-7.28 1.84-10.53 1.21-21.12 1.79-31.62 3.2-12.3 1.23-24.63 2.1-36.94 3.07-9.95.91-19.94.36-29.91.51-10.35.13-20.99.19-30.86-3.38 3.65-14.83 8.24-29.4 13.25-43.82 7.27-19.84 14.55-39.74 24.16-58.59 2.89-5.62 5.95-11.19 9.78-16.22 1.9-2.45 4.08-4.87 7.02-6.05 6.7-2.7 14.13-2.54 20.9-5.03-7.3-1.06-14.8-.1-21.78 2.21-4.21 1.36-6.99 5.05-9.44 8.52-5.29 7.73-9.42 16.19-13.25 24.72-6.3 14.32-11.75 28.99-17.19 43.65-6.15 17.8-12.36 35.66-16.12 54.15-.91 4.37-1.29 8.87-2.71 13.13-.61 2.32-3.04 3.3-5.04 4.12-6.61 2.46-13.78 2.24-20.72 2.36-11.7-.06-23.46-.14-35.05-1.98-6.28-.97-12.64-1.25-18.92-2.18-13.56-2.29-27.37-4.4-39.99-10.13-3.19-1.55-6.53-3.36-8.47-6.46-1.81-2.94-1.36-6.57-.75-9.79 6.98-30.86 12.32-62.05 18.6-93.05 2.57-13.79 5.36-27.53 7.9-41.32 6.87.82 13.75 1.71 20.67 1.81 7.36.21 14.7-.55 22.02-1.18 14.72-1.28 28.84-6.75 41.32-14.52 14.21-9.02 26.68-20.43 38.81-32.01 12.05 6.27 25.1 10.42 38.38 13.12 2.43.44 4.9.94 7.38.67 2.5-.53 4.56-2.17 6.58-3.65Z"/>
  </g>
  <path d="M135.32 145.15c.22.35.66 1.06.89 1.41l-.61.47-.78-.41-.11-.95.61-.52Zm52.98 599.91.71-.41.72.41v.83l-.72.41-.71-.41v-.83Z" fill="#656460"/>
  <path fill="#4b1917" d="M323.24 260.76c5.28-.37 9.94 2.49 14.77 4.13-3.51-.07-7.07.13-10.52-.61-1.56-.39-3.34-1.07-3.89-2.74l-.36-.78Z"/>
  <g fill="#a41d16">
    <path d="M332.23 273.81c4.07-1.53 8.04-3.71 12.43-4.11 3.66 2.66 5.7 6.93 7.87 10.79 1.99 3.43 2.19 7.46 2.21 11.33-3.89-.34-7.81-.8-11.52-2.06-1.96-.92-3.83-1.99-5.7-3.06-.65-2.93-1.34-5.88-2.66-8.58-.75-1.51-1.71-2.9-2.63-4.31Zm-42.28-1.12c6.6.37 13.25.56 19.76 1.81 3.52.59 5.61 3.88 6.98 6.88.9 2.17 1.97 5.24-.33 6.94-3.65 3.28-8.72 6.15-13.75 5.09-4.34-1.92-5.5-7.14-7.65-10.94-.1-.26-.32-.77-.42-1.02-1.27-3.05-2.91-5.92-4.59-8.76Z"/>
    <path d="M314.13 274.37c4.61-.04 9.22-.5 13.83-.22 3.61.02 5.41 3.91 6.07 6.94.4 2.62.85 6.49-2.07 7.82-3.84 1.74-8.17.97-12.21.64-.15-5.56-2.18-10.83-5.62-15.18Z"/>
  </g>
  <g fill="#017562">
    <path d="M354.08 303.15c4.79-2.72 8.15-7.16 11.71-11.23 5.44 10.6 8.47 22.2 11.36 33.69 7.19 32.59 10.05 66.05 9.53 99.39.24 11.59-.51 23.21.63 34.77.65 7.69.2 15.43.96 23.12.16 2.79.69 5.65.06 8.43-1.01 1.32-2.33 2.37-3.62 3.41-7.27 5.64-15.04 10.7-23.43 14.49-3.11 1.28-6.39 2.68-9.82 2.39-3.73-2.79-5.45-7.36-7.86-11.2-4.25-6.92-7.64-14.37-12.39-20.97-12.25 8.51-23.28 18.59-34.94 27.84-2.38 1.71-4.89 3.96-8.03 3.7-11.23-.8-21.95-4.66-32.24-9.01-3.24-1.33-6.33-2.98-9.32-4.79 5.74-6.75 12.05-13.01 17.51-20 17.97-22.92 31.85-48.92 41.67-76.31 1.75-5.07 3.62-10.15 4.41-15.48 1.43-9.83.69-19.79.04-29.66-.21-3.52-1.01-6.97-2.08-10.32-.21 1.96-.38 3.93-.52 5.91-.16-1.97-.22-3.94-.26-5.92.16-2.57.66-5.17.17-7.73-2.73-14.21-9.15-27.35-16.32-39.79 10.77 3.56 21.42 7.83 32.75 9.3 10.06 1.87 21.07 1.34 30.03-4.03m-6.58 22.13c-1.8 1.2-2.83 3.77-1.53 5.7.98 2.62 4.78 4.18 6.82 1.83 3.38-3.23-1.04-10.17-5.29-7.53m4.86 47.08c-4.71 1.12-4.11 9.12.7 9.54 5.68.17 5.13-11.02-.7-9.54m-9.9 62.1c-3.35.99-5.24 5.9-2.26 8.36 2.15 2.25 5.46-.05 6.47-2.33 1.53-2.63-.99-7.13-4.21-6.03Z"/>
    <path d="M348.03 325.7c1.69.91 4.39 1.17 4.56 3.57 1.17 2.66-3.43 4.18-4.62 1.86-1-1.67-.08-3.66.06-5.43Zm4.2 48.38 2.53.04c1.91 1.58.9 4 .69 6.05-.99.02-2.98.04-3.97.05-.11-2.04-1.39-4.73.75-6.14Zm-10 61.96c1.93-.18 4.13 1.6 3.62 3.66-.85 2-3.24 2.05-5.02 2.62.14-2.14-.15-4.55 1.4-6.28Z"/>
  </g>
</svg>