<svg viewBox="0 0 192.756 192.756" xmlns="http://www.w3.org/2000/svg">
    <path d="M96.397 36.213c14.804 0 29.648 2.055 43.947 5.93 16.936 4.612 43.908 17.362 43.908 38.25 0 16.587-16.896 27.515-30.266 33.444-9.844 4.341-20.424 6.859-31.043 8.604-8.758 1.434-17.672 2.131-26.546 2.131-14.842 0-29.646-2.015-43.946-5.891-16.936-4.611-43.947-17.4-43.947-38.288 0-16.548 16.897-27.477 30.267-33.406 9.843-4.34 20.462-6.898 31.042-8.604a165.091 165.091 0 0 1 26.584-2.17z" />
    <path fill="#fff" d="M96.242 46.095c-13.641 0-27.244 1.667-40.575 4.573-13.06 2.907-40.536 12.75-40.536 29.569 0 13.448 17.555 22.09 28.096 25.965 9.184 3.372 18.873 5.154 28.561 6.511 8.1 1.085 16.277 1.666 24.454 1.666 13.641 0 27.244-1.627 40.537-4.534 13.098-2.906 40.574-12.75 40.574-29.607 0-13.447-17.594-22.051-28.135-25.926-9.146-3.372-18.873-5.193-28.523-6.51-8.099-1.087-16.275-1.707-24.453-1.707z" />
    <path d="M40.553 59.232h14.262v15.502l11.432-15.502h13.099L66.247 78.648l16.122 22.71H69.037L54.815 82.756v18.602h-11.82v-39.18l-2.442-1.162v-1.784zM89.344 61.016v-1.784h14.068v42.126H91.631v-39.18l-2.287-1.162zM127.982 62.178l-2.248-1.162v-1.784h16.975l14.184 42.126h-11.51l-9.535-27.709-9.534 27.709h-11.392l13.06-39.18z" />
</svg>