<svg viewBox="0 0 390 844" fill="none" xmlns="http://www.w3.org/2000/svg"><path fill="#fff" d="M0 0h390v844H0z"/><path d="M162.598 770h-3.142v-10.182h3.281c.988 0 1.833.204 2.535.612a3.997 3.997 0 011.616 1.745c.375.755.562 1.66.562 2.714 0 1.061-.189 1.974-.567 2.74a4.035 4.035 0 01-1.65 1.759c-.723.408-1.601.612-2.635.612zm-1.909-1.094h1.829c.842 0 1.54-.162 2.093-.487a3.002 3.002 0 001.238-1.387c.272-.6.408-1.314.408-2.143 0-.822-.134-1.529-.403-2.123a2.967 2.967 0 00-1.203-1.372c-.534-.321-1.198-.482-1.994-.482h-1.968v7.994zm11.772 1.253c-.689 0-1.294-.164-1.814-.492a3.338 3.338 0 01-1.213-1.377c-.289-.59-.433-1.28-.433-2.068 0-.796.144-1.49.433-2.084a3.34 3.34 0 011.213-1.382c.52-.328 1.125-.492 1.814-.492.69 0 1.293.164 1.81.492.52.329.925.789 1.213 1.382.292.594.438 1.288.438 2.084 0 .788-.146 1.478-.438 2.068a3.296 3.296 0 01-1.213 1.377c-.517.328-1.12.492-1.81.492zm0-1.054c.524 0 .955-.134 1.293-.403.338-.268.588-.621.751-1.059.162-.437.243-.911.243-1.421 0-.511-.081-.986-.243-1.427a2.411 2.411 0 00-.751-1.069c-.338-.272-.769-.408-1.293-.408-.523 0-.954.136-1.292.408a2.403 2.403 0 00-.751 1.069 4.104 4.104 0 00-.244 1.427c0 .51.082.984.244 1.421.162.438.413.791.751 1.059.338.269.769.403 1.292.403zm6.425-9.287V770h-1.173v-10.182h1.173zM181.035 770v-7.636h1.173V770h-1.173zm.596-8.909a.832.832 0 01-.591-.234.75.75 0 01-.244-.562c0-.218.081-.406.244-.561a.832.832 0 01.591-.234c.229 0 .425.078.587.234a.741.741 0 01.249.561.744.744 0 01-.249.562.816.816 0 01-.587.234zm2.885 8.909v-10.182h1.173v3.759h.1c.086-.133.205-.302.358-.507.156-.209.378-.395.666-.557.292-.166.686-.249 1.183-.249.643 0 1.21.161 1.701.482.49.322.873.778 1.148 1.368.275.59.413 1.286.413 2.088 0 .808-.138 1.509-.413 2.103-.275.59-.656 1.047-1.143 1.372-.488.321-1.049.482-1.686.482-.49 0-.883-.081-1.178-.244a2.182 2.182 0 01-.681-.561 7.523 7.523 0 01-.368-.527h-.139V770h-1.134zm1.154-3.818c0 .577.084 1.085.253 1.526.169.438.416.781.741 1.029.325.245.722.368 1.193.368.491 0 .9-.129 1.228-.388.331-.262.58-.613.746-1.054.169-.444.253-.938.253-1.481 0-.537-.083-1.021-.248-1.452a2.252 2.252 0 00-.741-1.029c-.328-.255-.741-.383-1.238-.383-.477 0-.878.121-1.203.363-.325.239-.57.573-.736 1.004-.166.428-.248.927-.248 1.497zm9.63 3.997c-.484 0-.924-.091-1.318-.273a2.269 2.269 0 01-.94-.801c-.232-.351-.348-.775-.348-1.273 0-.437.087-.792.259-1.064.172-.275.403-.49.691-.646.288-.156.607-.272.955-.348.351-.079.704-.142 1.058-.189.465-.059.841-.104 1.129-.134.292-.033.504-.088.636-.164.136-.076.204-.209.204-.398v-.04c0-.49-.134-.871-.402-1.143-.266-.272-.668-.408-1.209-.408-.56 0-.999.123-1.317.368-.318.245-.542.507-.671.786l-1.114-.398c.199-.464.464-.825.796-1.084a2.977 2.977 0 011.093-.547 4.547 4.547 0 011.174-.159c.245 0 .527.03.845.09.321.056.631.174.93.353.301.179.551.449.75.81.199.361.299.845.299 1.452V770h-1.174v-1.034h-.059c-.08.166-.213.343-.398.532-.186.189-.433.35-.741.482-.308.133-.684.199-1.128.199zm.179-1.054c.464 0 .855-.091 1.173-.273.321-.183.563-.418.726-.706.165-.289.248-.592.248-.91v-1.074c-.049.06-.159.114-.328.164a5.534 5.534 0 01-.577.124 29 29 0 01-.631.09c-.202.023-.366.043-.492.059-.305.04-.59.105-.855.194a1.475 1.475 0 00-.637.393c-.159.172-.238.408-.238.706 0 .408.151.716.452.925.305.205.691.308 1.159.308zm5.462.875v-7.636h1.134v1.153h.079c.139-.378.391-.684.756-.92a2.224 2.224 0 011.233-.353c.086 0 .194.002.323.005.129.004.227.009.293.015v1.193a3.702 3.702 0 00-.273-.044 2.608 2.608 0 00-.443-.035c-.371 0-.702.078-.994.234a1.712 1.712 0 00-.935 1.556V770h-1.173zm5.209 0v-7.636h1.134v1.153h.079c.139-.378.391-.684.756-.92a2.224 2.224 0 011.233-.353c.086 0 .194.002.323.005.129.004.227.009.293.015v1.193a3.702 3.702 0 00-.273-.044 2.608 2.608 0 00-.443-.035c-.371 0-.702.078-.994.234a1.712 1.712 0 00-.935 1.556V770h-1.173zm5.225 0h-1.292l3.738-10.182h1.273L218.833 770h-1.293l-3.043-8.571h-.079L211.375 770zm.477-3.977h5.211v1.093h-5.211v-1.093zm8.567 3.977v-10.182h3.44c.799 0 1.452.144 1.959.433.51.285.888.671 1.133 1.158.245.487.368 1.031.368 1.631 0 .6-.123 1.145-.368 1.635a2.735 2.735 0 01-1.123 1.174c-.508.288-1.157.432-1.949.432h-2.466v-1.093h2.426c.547 0 .986-.095 1.317-.284.332-.189.572-.444.721-.766.153-.324.229-.691.229-1.098 0-.408-.076-.772-.229-1.094a1.636 1.636 0 00-.726-.756c-.334-.185-.778-.278-1.332-.278h-2.168V770h-1.232zm10.119-10.182V770h-1.233v-10.182h1.233zm-85.626 34.361c-.484 0-.923-.091-1.318-.273a2.266 2.266 0 01-.939-.801c-.232-.351-.348-.775-.348-1.273 0-.437.086-.792.258-1.064.173-.275.403-.49.691-.646.289-.156.607-.272.955-.348.351-.079.704-.142 1.059-.189.464-.059.84-.104 1.128-.134.292-.033.504-.088.637-.164.136-.076.204-.209.204-.398v-.04c0-.49-.135-.871-.403-1.143-.265-.272-.668-.408-1.208-.408-.56 0-1 .123-1.318.368-.318.245-.542.507-.671.786l-1.114-.398c.199-.464.464-.825.796-1.084a2.981 2.981 0 011.094-.547 4.54 4.54 0 011.173-.159c.245 0 .527.03.845.09.322.056.632.174.93.353.301.179.552.449.751.81.198.361.298.845.298 1.452V794h-1.173v-1.034h-.06c-.08.166-.212.343-.398.532a2.27 2.27 0 01-.741.482c-.308.133-.684.199-1.128.199zm.179-1.054c.464 0 .855-.091 1.173-.273a1.863 1.863 0 00.975-1.616v-1.074c-.05.06-.16.114-.329.164a5.51 5.51 0 01-.576.124c-.216.033-.426.063-.632.09-.202.023-.366.043-.492.059-.305.04-.59.105-.855.194a1.465 1.465 0 00-.636.393c-.159.172-.239.408-.239.706 0 .408.151.716.452.925.305.205.691.308 1.159.308zm.079-7.795l-1.551-2.307h1.372l1.213 2.307h-1.034zm9.321 11.534v-10.5h1.133v1.213h.14c.086-.133.205-.302.358-.507.155-.209.377-.395.666-.557.291-.166.686-.249 1.183-.249.643 0 1.21.161 1.7.482.491.322.874.778 1.149 1.368.275.59.412 1.286.412 2.088 0 .808-.137 1.509-.412 2.103-.275.59-.657 1.047-1.144 1.372-.487.321-1.049.482-1.685.482-.491 0-.883-.081-1.178-.244a2.198 2.198 0 01-.682-.561 7.456 7.456 0 01-.367-.527h-.1v4.037h-1.173zm1.153-6.682c0 .577.085 1.085.254 1.526.169.438.416.781.741 1.029.324.245.722.368 1.193.368.49 0 .9-.129 1.228-.388.331-.262.58-.613.745-1.054.17-.444.254-.938.254-1.481 0-.537-.083-1.021-.249-1.452a2.243 2.243 0 00-.74-1.029c-.328-.255-.741-.383-1.238-.383-.478 0-.879.121-1.203.363-.325.239-.57.573-.736 1.004-.166.428-.249.927-.249 1.497zm7.378 3.818v-7.636h1.134v1.153h.079c.139-.378.391-.684.756-.92a2.224 2.224 0 011.233-.353c.086 0 .194.002.323.005.129.004.227.009.293.015v1.193a3.606 3.606 0 00-.273-.044 2.608 2.608 0 00-.443-.035c-.371 0-.702.078-.994.234a1.712 1.712 0 00-.935 1.556V794h-1.173zm8.079.159c-.689 0-1.294-.164-1.815-.492a3.345 3.345 0 01-1.213-1.377c-.288-.59-.432-1.28-.432-2.068 0-.796.144-1.49.432-2.084a3.347 3.347 0 011.213-1.382c.521-.328 1.126-.492 1.815-.492.689 0 1.293.164 1.81.492.52.329.924.789 1.213 1.382.291.594.437 1.288.437 2.084 0 .788-.146 1.478-.437 2.068a3.303 3.303 0 01-1.213 1.377c-.517.328-1.121.492-1.81.492zm0-1.054c.524 0 .954-.134 1.293-.403.338-.268.588-.621.75-1.059.163-.437.244-.911.244-1.421 0-.511-.081-.986-.244-1.427a2.401 2.401 0 00-.75-1.069c-.339-.272-.769-.408-1.293-.408-.524 0-.955.136-1.293.408a2.401 2.401 0 00-.75 1.069 4.081 4.081 0 00-.244 1.427c0 .51.081.984.244 1.421.162.438.412.791.75 1.059.338.269.769.403 1.293.403zm5.251 3.759v-10.5h1.134v1.213h.139c.086-.133.205-.302.358-.507.156-.209.378-.395.666-.557.292-.166.686-.249 1.183-.249.643 0 1.21.161 1.701.482.49.322.873.778 1.148 1.368.275.59.413 1.286.413 2.088 0 .808-.138 1.509-.413 2.103-.275.59-.656 1.047-1.143 1.372-.488.321-1.049.482-1.686.482-.49 0-.883-.081-1.178-.244a2.182 2.182 0 01-.681-.561 7.523 7.523 0 01-.368-.527h-.1v4.037h-1.173zm1.154-6.682c0 .577.084 1.085.253 1.526.169.438.416.781.741 1.029.325.245.722.368 1.193.368.491 0 .9-.129 1.228-.388a2.37 2.37 0 00.746-1.054c.169-.444.253-.938.253-1.481 0-.537-.082-1.021-.248-1.452a2.252 2.252 0 00-.741-1.029c-.328-.255-.741-.383-1.238-.383-.477 0-.878.121-1.203.363-.325.239-.57.573-.736 1.004-.166.428-.248.927-.248 1.497zm10.48 3.977c-.69 0-1.295-.164-1.815-.492a3.345 3.345 0 01-1.213-1.377c-.288-.59-.433-1.28-.433-2.068 0-.796.145-1.49.433-2.084a3.347 3.347 0 011.213-1.382c.52-.328 1.125-.492 1.815-.492.689 0 1.292.164 1.809.492.521.329.925.789 1.213 1.382.292.594.438 1.288.438 2.084 0 .788-.146 1.478-.438 2.068a3.29 3.29 0 01-1.213 1.377c-.517.328-1.12.492-1.809.492zm0-1.054c.523 0 .954-.134 1.292-.403.338-.268.589-.621.751-1.059.162-.437.244-.911.244-1.421 0-.511-.082-.986-.244-1.427a2.403 2.403 0 00-.751-1.069c-.338-.272-.769-.408-1.292-.408-.524 0-.955.136-1.293.408a2.411 2.411 0 00-.751 1.069 4.104 4.104 0 00-.243 1.427c0 .51.081.984.243 1.421.163.438.413.791.751 1.059.338.269.769.403 1.293.403zm10.66-5.031l-1.054.298a1.954 1.954 0 00-.293-.512 1.438 1.438 0 00-.517-.418c-.219-.109-.499-.164-.841-.164-.467 0-.856.108-1.168.324-.308.212-.462.482-.462.81 0 .292.106.522.318.691.212.169.544.31.994.423l1.134.278c.683.166 1.191.419 1.526.761.335.338.502.774.502 1.307 0 .438-.126.829-.378 1.173-.248.345-.596.617-1.044.816-.447.199-.967.298-1.561.298-.779 0-1.423-.169-1.934-.507-.51-.338-.833-.832-.969-1.482l1.114-.278c.106.411.306.719.601.925.298.205.688.308 1.168.308.547 0 .981-.116 1.303-.348.325-.235.487-.517.487-.845a.89.89 0 00-.278-.666c-.186-.183-.471-.319-.855-.408l-1.273-.298c-.699-.166-1.213-.423-1.541-.771-.325-.351-.487-.79-.487-1.317 0-.431.12-.812.362-1.144a2.48 2.48 0 011-.78 3.506 3.506 0 011.441-.284c.756 0 1.349.166 1.78.497.435.332.743.769.925 1.313zm10.218.288v1.094h-4.455v-1.094h4.455zm5.982 5.638v-.895l3.361-3.679c.394-.431.719-.805.974-1.123.255-.322.444-.624.567-.905.126-.285.189-.584.189-.895 0-.358-.086-.668-.259-.93a1.67 1.67 0 00-.696-.606 2.248 2.248 0 00-.994-.214c-.391 0-.732.081-1.024.243-.288.16-.512.383-.671.672a2.097 2.097 0 00-.234 1.014h-1.173c0-.597.137-1.12.412-1.571.275-.451.65-.802 1.124-1.054a3.386 3.386 0 011.606-.378c.596 0 1.125.126 1.586.378.46.252.822.591 1.084 1.019.261.428.392.903.392 1.427 0 .374-.068.741-.204 1.099-.132.354-.364.75-.696 1.188-.328.434-.783.964-1.367 1.591l-2.287 2.446v.079h4.733V794h-6.423zm11.798.139c-.749 0-1.388-.204-1.915-.611-.526-.411-.929-1.006-1.208-1.785-.278-.782-.417-1.727-.417-2.834 0-1.1.139-2.04.417-2.819.282-.782.686-1.379 1.213-1.79.531-.414 1.167-.621 1.91-.621.742 0 1.377.207 1.904.621.53.411.934 1.008 1.213 1.79.281.779.422 1.719.422 2.819 0 1.107-.139 2.052-.417 2.834-.279.779-.681 1.374-1.208 1.785-.527.407-1.165.611-1.914.611zm0-1.094c.742 0 1.319-.358 1.73-1.073.411-.716.616-1.737.616-3.063 0-.882-.094-1.632-.283-2.252-.186-.62-.454-1.092-.806-1.417a1.776 1.776 0 00-1.257-.487c-.736 0-1.311.363-1.726 1.089-.414.722-.621 1.745-.621 3.067 0 .882.093 1.631.278 2.247.186.617.453 1.086.801 1.407a1.81 1.81 0 001.268.482zm5.429.955v-.895l3.36-3.679c.395-.431.72-.805.975-1.123.255-.322.444-.624.567-.905.125-.285.188-.584.188-.895 0-.358-.086-.668-.258-.93a1.67 1.67 0 00-.696-.606 2.251 2.251 0 00-.994-.214c-.392 0-.733.081-1.025.243-.288.16-.512.383-.671.672a2.097 2.097 0 00-.233 1.014h-1.174c0-.597.138-1.12.413-1.571.275-.451.65-.802 1.124-1.054a3.382 3.382 0 011.605-.378c.597 0 1.126.126 1.586.378.461.252.822.591 1.084 1.019.262.428.393.903.393 1.427 0 .374-.068.741-.204 1.099-.133.354-.365.75-.696 1.188-.328.434-.784.964-1.367 1.591l-2.287 2.446v.079h4.733V794h-6.423zm11.916.139c-.656 0-1.241-.112-1.755-.338a3.007 3.007 0 01-1.218-.939 2.535 2.535 0 01-.487-1.407h1.253c.027.328.139.611.338.85.199.235.459.417.781.547.321.129.677.193 1.069.193a2.81 2.81 0 001.163-.228c.338-.153.603-.365.795-.637.193-.271.289-.586.289-.944a1.77 1.77 0 00-.279-.99c-.185-.288-.457-.513-.815-.676-.358-.162-.795-.243-1.313-.243h-.815v-1.094h.815c.405 0 .759-.073 1.064-.219a1.651 1.651 0 00.985-1.551c0-.345-.076-.645-.229-.9a1.56 1.56 0 00-.646-.596 2.087 2.087 0 00-.975-.214c-.351 0-.682.064-.994.194-.308.126-.56.31-.756.552a1.441 1.441 0 00-.318.865h-1.193c.02-.534.181-1.001.482-1.402.302-.405.696-.72 1.183-.945a3.834 3.834 0 011.616-.338c.63 0 1.17.128 1.621.383.451.252.797.585 1.039.999.242.414.363.862.363 1.342 0 .574-.151 1.063-.452 1.467a2.3 2.3 0 01-1.219.84v.08c.643.106 1.146.379 1.507.82.361.438.542.979.542 1.626 0 .553-.151 1.05-.453 1.491a3.068 3.068 0 01-1.223 1.034c-.517.252-1.105.378-1.765.378zM106.475 233v-26.182h10.023c1.892 0 3.464.298 4.717.895 1.261.588 2.203 1.394 2.825 2.416.631 1.023.946 2.182.946 3.478 0 1.065-.204 1.977-.613 2.735a5.156 5.156 0 01-1.649 1.828 6.972 6.972 0 01-2.314 1.01v.256c.929.051 1.819.337 2.671.857.861.511 1.564 1.235 2.11 2.173.545.937.818 2.071.818 3.4 0 1.356-.328 2.574-.984 3.657-.657 1.074-1.645 1.922-2.966 2.544-1.321.622-2.983.933-4.986.933h-10.598zm4.743-3.963h5.101c1.721 0 2.961-.328 3.72-.984.767-.665 1.15-1.517 1.15-2.557 0-.776-.191-1.475-.575-2.097-.383-.631-.929-1.125-1.636-1.483-.708-.366-1.551-.55-2.531-.55h-5.229v7.671zm0-11.084h4.692c.818 0 1.555-.149 2.211-.447.657-.307 1.172-.738 1.547-1.292.384-.562.575-1.227.575-1.994 0-1.014-.358-1.849-1.073-2.506-.708-.656-1.76-.984-3.158-.984h-4.794v7.223zM129.931 233v-19.636h4.627V233h-4.627zm2.326-22.423a2.7 2.7 0 01-1.892-.729c-.528-.494-.792-1.087-.792-1.777 0-.699.264-1.291.792-1.777a2.676 2.676 0 011.892-.741c.742 0 1.372.247 1.892.741.529.486.793 1.078.793 1.777 0 .69-.264 1.283-.793 1.777-.52.486-1.15.729-1.892.729zm15.753 22.807c-1.968 0-3.669-.41-5.1-1.228-1.424-.826-2.519-1.994-3.286-3.503-.767-1.517-1.15-3.302-1.15-5.356 0-2.02.383-3.793 1.15-5.318.776-1.534 1.858-2.728 3.247-3.58 1.389-.861 3.022-1.291 4.897-1.291 1.21 0 2.352.196 3.426.588a7.74 7.74 0 012.863 1.79c.836.809 1.492 1.841 1.969 3.094.477 1.244.716 2.727.716 4.448v1.419h-16.095v-3.119h11.659c-.009-.886-.2-1.675-.575-2.365a4.181 4.181 0 00-1.573-1.649c-.665-.401-1.44-.601-2.327-.601-.946 0-1.776.23-2.492.69a4.759 4.759 0 00-1.675 1.79 5.159 5.159 0 00-.601 2.416v2.723c0 1.142.209 2.123.626 2.941.418.809 1.002 1.432 1.752 1.866.75.426 1.628.639 2.633.639a5.59 5.59 0 001.829-.281 4.063 4.063 0 001.419-.856c.4-.375.703-.84.907-1.394l4.321.486a6.725 6.725 0 01-1.559 2.991c-.759.844-1.731 1.5-2.915 1.969-1.185.46-2.54.691-4.066.691zm17.275-11.89V233h-4.628v-19.636h4.423v3.336h.231a5.602 5.602 0 012.16-2.62c.997-.648 2.229-.972 3.695-.972 1.355 0 2.535.29 3.541.869 1.014.58 1.798 1.419 2.352 2.519.563 1.099.84 2.433.831 4.001V233h-4.628v-11.787c0-1.312-.341-2.339-1.022-3.081-.674-.741-1.607-1.112-2.8-1.112-.81 0-1.53.179-2.161.537a3.719 3.719 0 00-1.47 1.521c-.349.665-.524 1.47-.524 2.416zm34.146-8.13L192.438 233h-5.113l-6.993-19.636h4.935l4.512 14.586h.205l4.525-14.586h4.922zm11.228 20.02c-1.969 0-3.669-.41-5.101-1.228-1.423-.826-2.518-1.994-3.285-3.503-.767-1.517-1.151-3.302-1.151-5.356 0-2.02.384-3.793 1.151-5.318.775-1.534 1.858-2.728 3.247-3.58 1.389-.861 3.021-1.291 4.896-1.291 1.21 0 2.352.196 3.426.588a7.745 7.745 0 012.864 1.79c.835.809 1.491 1.841 1.969 3.094.477 1.244.715 2.727.715 4.448v1.419h-16.095v-3.119h11.659c-.008-.886-.2-1.675-.575-2.365a4.179 4.179 0 00-1.572-1.649c-.665-.401-1.441-.601-2.327-.601-.946 0-1.777.23-2.493.69a4.766 4.766 0 00-1.675 1.79 5.159 5.159 0 00-.601 2.416v2.723c0 1.142.209 2.123.627 2.941.418.809 1.001 1.432 1.751 1.866.75.426 1.628.639 2.634.639.673 0 1.283-.093 1.828-.281a4.063 4.063 0 001.419-.856 3.57 3.57 0 00.908-1.394l4.321.486a6.737 6.737 0 01-1.56 2.991c-.758.844-1.73 1.5-2.915 1.969-1.184.46-2.54.691-4.065.691zm17.274-11.89V233h-4.627v-19.636h4.423v3.336h.23a5.613 5.613 0 012.16-2.62c.998-.648 2.229-.972 3.695-.972 1.355 0 2.536.29 3.541.869 1.014.58 1.799 1.419 2.353 2.519.562 1.099.839 2.433.831 4.001V233h-4.628v-11.787c0-1.312-.341-2.339-1.023-3.081-.673-.741-1.607-1.112-2.8-1.112-.809 0-1.53.179-2.16.537a3.719 3.719 0 00-1.47 1.521c-.35.665-.525 1.47-.525 2.416zm29.826 3.247v-11.377h4.628V233h-4.488v-3.49h-.204c-.443 1.099-1.172 1.999-2.186 2.697-1.006.699-2.246 1.049-3.72 1.049-1.287 0-2.425-.286-3.414-.857-.98-.579-1.747-1.419-2.301-2.518-.554-1.108-.831-2.446-.831-4.015v-12.502h4.628v11.787c0 1.244.341 2.233 1.023 2.965.681.733 1.576 1.1 2.684 1.1.682 0 1.343-.166 1.982-.499.639-.332 1.163-.826 1.572-1.483.418-.664.627-1.495.627-2.493zm18.08 8.643c-1.969 0-3.669-.41-5.101-1.228-1.424-.826-2.519-1.994-3.286-3.503-.767-1.517-1.15-3.302-1.15-5.356 0-2.02.383-3.793 1.15-5.318.776-1.534 1.858-2.728 3.247-3.58 1.39-.861 3.022-1.291 4.897-1.291 1.21 0 2.352.196 3.426.588a7.74 7.74 0 012.863 1.79c.836.809 1.492 1.841 1.969 3.094.477 1.244.716 2.727.716 4.448v1.419h-16.095v-3.119h11.659c-.008-.886-.2-1.675-.575-2.365a4.174 4.174 0 00-1.573-1.649c-.664-.401-1.44-.601-2.326-.601-.946 0-1.777.23-2.493.69a4.766 4.766 0 00-1.675 1.79 5.159 5.159 0 00-.601 2.416v2.723c0 1.142.209 2.123.627 2.941.417.809 1.001 1.432 1.751 1.866.75.426 1.628.639 2.634.639.673 0 1.282-.093 1.828-.281a4.063 4.063 0 001.419-.856c.4-.375.703-.84.907-1.394l4.321.486a6.725 6.725 0 01-1.559 2.991c-.759.844-1.73 1.5-2.915 1.969-1.185.46-2.54.691-4.065.691z" fill="#000"/><path d="M94.85 172H84.095v-29.091h10.739c2.964 0 5.516.582 7.656 1.747 2.15 1.156 3.807 2.822 4.972 5 1.164 2.169 1.747 4.764 1.747 7.784 0 3.031-.583 5.635-1.747 7.813-1.156 2.178-2.808 3.849-4.958 5.014-2.149 1.155-4.701 1.733-7.656 1.733zm-3.722-5.994h3.451c1.629 0 3.007-.275 4.134-.824 1.136-.559 1.993-1.463 2.571-2.713.587-1.26.88-2.936.88-5.029 0-2.092-.293-3.759-.88-5-.587-1.25-1.454-2.149-2.6-2.699-1.136-.558-2.538-.838-4.204-.838h-3.353v17.103zm32.372 6.406c-2.292 0-4.262-.469-5.909-1.406a9.702 9.702 0 01-3.793-3.949c-.881-1.695-1.321-3.66-1.321-5.895 0-2.244.44-4.209 1.321-5.895.89-1.695 2.154-3.011 3.793-3.949 1.647-.947 3.617-1.42 5.909-1.42 2.291 0 4.256.473 5.895 1.42a9.48 9.48 0 013.792 3.949c.89 1.686 1.335 3.651 1.335 5.895 0 2.235-.445 4.2-1.335 5.895a9.593 9.593 0 01-3.792 3.949c-1.639.937-3.604 1.406-5.895 1.406zm.042-5.242c.834 0 1.539-.255 2.117-.767.577-.511 1.018-1.221 1.321-2.13.312-.909.469-1.961.469-3.154 0-1.212-.157-2.272-.469-3.181-.303-.91-.744-1.62-1.321-2.131-.578-.512-1.283-.767-2.117-.767-.861 0-1.591.255-2.187.767-.587.511-1.037 1.221-1.35 2.131-.303.909-.454 1.969-.454 3.181 0 1.193.151 2.245.454 3.154.313.909.763 1.619 1.35 2.13.596.512 1.326.767 2.187.767zm21.485-24.261V172h-6.946v-29.091h6.946zM149.448 172v-21.818h6.946V172h-6.946zm3.48-24.361c-.975 0-1.814-.322-2.514-.966-.701-.653-1.051-1.439-1.051-2.358 0-.909.35-1.685 1.051-2.329.7-.654 1.539-.98 2.514-.98.985 0 1.823.326 2.514.98.701.644 1.051 1.42 1.051 2.329 0 .919-.35 1.705-1.051 2.358-.691.644-1.529.966-2.514.966zM160.815 172v-29.091h6.946v11.009h.142A7.652 7.652 0 01169.11 152c.531-.616 1.203-1.117 2.017-1.506.824-.397 1.809-.596 2.955-.596 1.515 0 2.931.397 4.247 1.193 1.326.795 2.396 2.022 3.21 3.679.815 1.657 1.222 3.769 1.222 6.335 0 2.472-.393 4.541-1.179 6.207-.776 1.667-1.828 2.917-3.153 3.75-1.317.834-2.78 1.25-4.39 1.25-1.098 0-2.05-.179-2.855-.539a6.214 6.214 0 01-2.031-1.421 6.83 6.83 0 01-1.25-1.889h-.213V172h-6.875zm6.804-10.909c0 1.174.156 2.197.469 3.068.322.871.781 1.548 1.378 2.031.606.474 1.33.711 2.173.711.852 0 1.577-.237 2.173-.711.597-.483 1.047-1.16 1.35-2.031.312-.871.468-1.894.468-3.068 0-1.174-.156-2.192-.468-3.054-.303-.862-.753-1.529-1.35-2.003-.587-.473-1.311-.71-2.173-.71-.852 0-1.577.232-2.173.696-.597.464-1.056 1.127-1.378 1.989-.313.861-.469 1.889-.469 3.082zm24.932 11.278c-1.392 0-2.627-.232-3.707-.696a5.772 5.772 0 01-2.543-2.13c-.615-.957-.923-2.155-.923-3.594 0-1.212.213-2.235.639-3.068a5.47 5.47 0 011.762-2.032c.748-.52 1.61-.913 2.585-1.179a16.86 16.86 0 013.125-.554 44.775 44.775 0 002.997-.355c.758-.132 1.307-.317 1.648-.554.35-.246.525-.591.525-1.037v-.071c0-.729-.251-1.292-.752-1.69-.502-.398-1.179-.597-2.032-.597-.918 0-1.657.199-2.216.597-.558.398-.913.947-1.065 1.648l-6.406-.227a7.575 7.575 0 011.463-3.552c.795-1.051 1.884-1.875 3.267-2.471 1.392-.606 3.063-.909 5.014-.909 1.392 0 2.675.165 3.85.497 1.174.322 2.197.795 3.068 1.42a6.431 6.431 0 012.017 2.273c.483.9.724 1.927.724 3.082V172h-6.534v-3.04h-.17a6.196 6.196 0 01-1.492 1.875 5.937 5.937 0 01-2.116 1.151c-.805.255-1.714.383-2.728.383zm2.145-4.545c.748 0 1.421-.152 2.017-.455a3.724 3.724 0 001.449-1.25c.36-.539.54-1.164.54-1.875v-2.074c-.199.105-.44.199-.724.285-.275.085-.578.165-.909.241-.332.076-.673.142-1.023.199-.351.057-.687.109-1.009.156-.653.104-1.212.265-1.676.483-.454.218-.805.502-1.051.852-.237.341-.355.748-.355 1.222 0 .72.256 1.269.767 1.648.521.378 1.179.568 1.974.568zM209.838 172v-21.818h6.748v3.977h.227c.398-1.439 1.046-2.509 1.946-3.21.899-.71 1.946-1.065 3.139-1.065.322 0 .653.023.994.071.341.037.659.099.952.184v6.037c-.331-.114-.767-.203-1.307-.27a11.628 11.628 0 00-1.42-.099c-.824 0-1.567.184-2.23.554-.654.36-1.17.866-1.549 1.52-.369.644-.554 1.401-.554 2.272V172h-6.946zm16.836 0v-21.818h6.748v3.977h.227c.398-1.439 1.046-2.509 1.946-3.21.899-.71 1.946-1.065 3.139-1.065.322 0 .653.023.994.071.341.037.658.099.952.184v6.037c-.331-.114-.767-.203-1.307-.27a11.628 11.628 0 00-1.42-.099c-.824 0-1.567.184-2.23.554-.654.36-1.17.866-1.549 1.52-.369.644-.554 1.401-.554 2.272V172h-6.946zm21.527 0h-7.556l9.815-29.091h9.361L269.636 172h-7.557l-6.832-21.761h-.227L248.201 172zm-1.008-11.449h15.795v5.341h-15.795v-5.341zM272.768 172v-29.091h12.017c2.178 0 4.058.426 5.639 1.279 1.591.842 2.818 2.021 3.679 3.536.862 1.506 1.293 3.258 1.293 5.256 0 2.008-.44 3.764-1.321 5.27-.871 1.496-2.117 2.656-3.736 3.48-1.619.824-3.542 1.236-5.767 1.236h-7.415v-5.54h6.108c1.061 0 1.946-.185 2.657-.554.719-.369 1.264-.885 1.633-1.548.369-.672.554-1.454.554-2.344 0-.9-.185-1.676-.554-2.329-.369-.663-.914-1.175-1.633-1.535-.72-.359-1.606-.539-2.657-.539h-3.466V172h-7.031zm33.125-29.091V172h-7.031v-29.091h7.031z" fill="#4E0146"/><path d="M146.41 254.091V265h-.996v-10.909h.996zm5.649 11.079c-.671 0-1.259-.177-1.763-.532-.505-.355-.899-.851-1.183-1.486-.28-.636-.421-1.376-.421-2.222 0-.841.141-1.578.421-2.21.284-.636.68-1.129 1.188-1.481.508-.355 1.099-.533 1.774-.533.497 0 .911.089 1.241.267.33.174.595.39.794.65.198.259.353.511.463.756h.085v-4.288h.954V265h-.927v-1.518h-.112a3.77 3.77 0 01-.469.767c-.202.259-.47.478-.804.655-.33.178-.744.266-1.241.266zm.112-.868c.529 0 .98-.144 1.353-.431.372-.291.657-.691.852-1.199.199-.511.298-1.097.298-1.758 0-.653-.097-1.23-.293-1.731-.195-.504-.479-.898-.852-1.182-.373-.288-.826-.432-1.358-.432-.547 0-1.009.149-1.385.448-.373.294-.657.694-.853 1.198a4.767 4.767 0 00-.287 1.699c0 .636.097 1.21.293 1.721.195.511.479.918.852 1.22.376.298.836.447 1.38.447zm9.449.868c-.763 0-1.424-.177-1.981-.532a3.575 3.575 0 01-1.295-1.486c-.302-.636-.452-1.368-.452-2.195 0-.824.15-1.555.452-2.195.306-.642.726-1.145 1.263-1.507.539-.366 1.163-.549 1.869-.549.444 0 .872.082 1.284.245.412.16.781.407 1.108.741.33.33.591.747.783 1.252.192.5.288 1.093.288 1.779v.468h-6.392v-.836h5.422c0-.525-.106-.998-.319-1.417a2.494 2.494 0 00-.879-1.001 2.306 2.306 0 00-1.295-.368c-.518 0-.974.139-1.369.416a2.844 2.844 0 00-.926 1.097 3.427 3.427 0 00-.336 1.492v.5c0 .65.112 1.218.336 1.705.227.483.548.857.964 1.124.415.266.907.399 1.475.399.387 0 .726-.06 1.018-.181a2.183 2.183 0 001.198-1.161l.9.293a2.648 2.648 0 01-.612.953 3.1 3.1 0 01-1.055.703c-.419.174-.902.261-1.449.261zm6.356-5.284V265h-.948v-8.182h.922v1.284h.085a2.29 2.29 0 01.895-1.007c.408-.256.912-.383 1.513-.383.55 0 1.033.115 1.448.346.419.227.744.563.975 1.007.235.444.352.989.352 1.635v5.3h-.948v-5.241c0-.672-.189-1.203-.565-1.593-.373-.391-.874-.586-1.502-.586-.43 0-.812.092-1.145.277a2.02 2.02 0 00-.794.799c-.192.344-.288.755-.288 1.23zm10.961-3.068v.826h-3.904v-.826h3.904zm-2.684-1.96h.953v8.006c0 .341.059.609.176.804.117.192.27.329.458.41.188.079.389.118.602.118.124 0 .231-.007.32-.022.088-.017.166-.035.234-.053l.202.858a2.387 2.387 0 01-.841.144c-.348 0-.684-.077-1.007-.23a1.966 1.966 0 01-.788-.681c-.206-.302-.309-.677-.309-1.124v-8.23zM181.101 265v-8.182h.954V265h-.954zm.485-9.588a.705.705 0 01-.501-.197.655.655 0 01-.207-.485c0-.188.069-.348.207-.479a.694.694 0 01.501-.203c.195 0 .362.068.501.203a.636.636 0 01.207.479c0 .188-.069.35-.207.485a.705.705 0 01-.501.197zm6.343 1.406v.826h-4.022v-.826h4.022zM185.164 265v-9.38c0-.441.101-.812.304-1.114a1.99 1.99 0 01.804-.687c.33-.156.68-.234 1.05-.234.248 0 .454.021.617.064.167.039.299.078.395.117l-.277.831a21.219 21.219 0 00-.261-.075 1.515 1.515 0 00-.389-.042c-.412 0-.73.115-.954.346-.223.231-.335.561-.335.991l-.006 9.183h-.948zm4.668 0v-8.182h.953V265h-.953zm.484-9.588a.701.701 0 01-.5-.197.652.652 0 01-.208-.485c0-.188.069-.348.208-.479a.69.69 0 01.5-.203.69.69 0 01.501.203.633.633 0 01.208.479c0 .188-.069.35-.208.485a.702.702 0 01-.501.197zm6.285 9.758c-.764 0-1.424-.177-1.982-.532a3.573 3.573 0 01-1.294-1.486c-.302-.636-.453-1.368-.453-2.195 0-.824.151-1.555.453-2.195.305-.642.726-1.145 1.262-1.507.54-.366 1.163-.549 1.87-.549.444 0 .872.082 1.284.245.412.16.781.407 1.108.741.33.33.591.747.783 1.252.191.5.287 1.093.287 1.779v.468h-6.392v-.836h5.423c0-.525-.107-.998-.32-1.417a2.48 2.48 0 00-.879-1.001 2.303 2.303 0 00-1.294-.368 2.32 2.32 0 00-1.369.416 2.855 2.855 0 00-.927 1.097 3.44 3.44 0 00-.336 1.492v.5c0 .65.112 1.218.336 1.705.227.483.549.857.964 1.124.416.266.907.399 1.476.399.387 0 .726-.06 1.017-.181a2.164 2.164 0 001.199-1.161l.9.293a2.65 2.65 0 01-.613.953c-.28.292-.632.526-1.054.703-.419.174-.902.261-1.449.261zm5.152-.17v-.751l4.73-6.467v-.069h-4.528v-.895h5.748v.783l-4.645 6.435v.069h4.815V265h-6.12zm18.762-8.182L217.527 265h-1.012l-2.989-8.182h1.028l2.429 6.93h.075l2.429-6.93h1.028zm4.742 8.352c-.707 0-1.332-.179-1.875-.538-.54-.358-.962-.854-1.268-1.486-.305-.635-.458-1.369-.458-2.2 0-.838.153-1.575.458-2.21.306-.639.728-1.137 1.268-1.492.543-.358 1.168-.538 1.875-.538.707 0 1.33.18 1.87.538.539.359.962.856 1.267 1.492.309.635.464 1.372.464 2.21 0 .831-.153 1.565-.458 2.2-.306.632-.73 1.128-1.273 1.486-.54.359-1.163.538-1.87.538zm0-.868c.568 0 1.049-.152 1.444-.458.394-.305.692-.712.894-1.22a4.424 4.424 0 00.309-1.678c0-.61-.103-1.171-.309-1.683a2.862 2.862 0 00-.894-1.23c-.395-.309-.876-.464-1.444-.464-.565 0-1.046.155-1.444.464a2.906 2.906 0 00-.9 1.23 4.547 4.547 0 00-.303 1.683c0 .611.101 1.17.303 1.678.206.508.506.915.9 1.22.395.306.876.458 1.444.458zm10.881-2.429v-5.055h.948V265h-.948v-1.358h-.074a2.527 2.527 0 01-.911 1.049c-.416.277-.924.416-1.524.416-.522 0-.985-.114-1.39-.341a2.412 2.412 0 01-.953-1.012c-.231-.444-.347-.989-.347-1.636v-5.3h.948v5.242c0 .639.189 1.154.565 1.544.376.387.859.581 1.449.581.369 0 .724-.089 1.065-.266.341-.178.622-.437.842-.778.22-.344.33-.767.33-1.268zm8.956-3.26l-.869.245a2.286 2.286 0 00-.362-.666 1.659 1.659 0 00-.612-.474c-.249-.117-.558-.175-.927-.175-.554 0-1.009.131-1.364.394-.355.263-.533.602-.533 1.017 0 .352.121.638.363.858.245.216.621.389 1.129.516l1.236.304c.685.167 1.198.432 1.539.794.345.362.517.817.517 1.363 0 .462-.128.872-.384 1.231-.255.359-.612.641-1.07.847-.455.202-.982.303-1.582.303-.799 0-1.458-.179-1.977-.538-.518-.362-.85-.884-.996-1.566l.911-.223c.117.486.346.854.687 1.102.345.249.798.373 1.359.373.628 0 1.131-.14 1.507-.421.377-.284.565-.639.565-1.065 0-.33-.11-.607-.331-.831-.22-.227-.553-.394-1.001-.501l-1.337-.319c-.71-.171-1.236-.441-1.577-.81-.341-.369-.511-.827-.511-1.374 0-.451.123-.847.368-1.188a2.456 2.456 0 011.012-.81c.429-.195.919-.293 1.47-.293.749 0 1.347.171 1.795.512.451.337.776.802.975 1.395zm-203.138 49.66V317h-.776l-5.156-7.308h-.068V317h-.797v-8.727h.771l5.174 7.316h.068v-7.316h.784zm4.707 8.863a2.66 2.66 0 01-1.5-.43 2.912 2.912 0 01-1.015-1.189c-.244-.508-.366-1.095-.366-1.76 0-.67.122-1.26.366-1.768a2.876 2.876 0 011.015-1.194c.434-.286.934-.43 1.5-.43.565 0 1.064.144 1.495.43.432.287.77.685 1.015 1.194.247.508.37 1.098.37 1.768 0 .665-.122 1.252-.366 1.76a2.9 2.9 0 01-1.019 1.189c-.431.287-.93.43-1.495.43zm0-.694c.454 0 .84-.122 1.155-.367a2.26 2.26 0 00.715-.976c.165-.406.248-.853.248-1.342 0-.489-.083-.937-.248-1.346-.162-.41-.4-.738-.715-.985-.316-.247-.7-.371-1.155-.371-.452 0-.837.124-1.155.371a2.32 2.32 0 00-.72.985 3.623 3.623 0 00-.243 1.346c0 .489.08.936.243 1.342.164.407.405.732.72.976.315.245.7.367 1.155.367zm4.546.558v-6.545h.737v1.005h.068c.13-.338.348-.603.652-.797.307-.196.675-.294 1.104-.294.451 0 .822.107 1.112.32.292.21.511.5.656.869h.055a1.82 1.82 0 01.72-.865c.336-.216.742-.324 1.22-.324.607 0 1.087.192 1.44.576.352.38.528.937.528 1.67V317h-.758v-4.385c0-.517-.133-.905-.397-1.163-.264-.259-.612-.388-1.044-.388-.5 0-.885.153-1.155.46-.27.307-.404.696-.404 1.168V317h-.776v-4.453c0-.443-.124-.801-.37-1.074-.248-.273-.596-.409-1.045-.409-.3 0-.572.074-.814.222a1.563 1.563 0 00-.566.617 1.93 1.93 0 00-.205.904V317h-.758zm16.032.136c-.537 0-1.007-.142-1.41-.426-.404-.284-.72-.68-.947-1.189-.224-.508-.336-1.101-.336-1.777 0-.673.112-1.262.336-1.768.228-.509.544-.904.95-1.185.407-.284.88-.426 1.42-.426.397 0 .728.071.992.213.265.139.476.313.635.52.16.207.283.409.371.605h.068v-3.43h.763V317h-.741v-1.214h-.09a3.03 3.03 0 01-.375.613 1.972 1.972 0 01-.643.524c-.264.142-.596.213-.993.213zm.09-.694c.423 0 .783-.115 1.082-.345.298-.233.525-.553.681-.959.16-.409.24-.878.24-1.406 0-.523-.079-.985-.235-1.385-.157-.404-.384-.719-.682-.946-.298-.231-.66-.346-1.087-.346-.437 0-.807.12-1.108.358a2.208 2.208 0 00-.681.959c-.154.404-.23.857-.23 1.36 0 .508.077.967.234 1.376.156.409.383.734.682.976.3.238.669.358 1.103.358zm5.603-8.169v.767c0 .233-.043.481-.128.746a3.077 3.077 0 01-.366.762c-.16.245-.353.458-.58.64l-.413-.363c.213-.25.393-.527.54-.831a2.13 2.13 0 00.223-.941v-.78h.724zm5.086 6.226v-4.044h.758V317h-.758v-1.087h-.06a2.02 2.02 0 01-.728.84c-.333.221-.74.332-1.22.332a2.23 2.23 0 01-1.111-.273 1.925 1.925 0 01-.763-.809c-.185-.355-.277-.791-.277-1.308v-4.24h.758v4.193c0 .511.15.923.452 1.236.301.309.688.464 1.16.464a1.816 1.816 0 001.525-.835c.176-.276.264-.614.264-1.014zm5.345-4.044v.66H80.24v-.66h3.124zm-2.148-1.569h.763v6.405c0 .273.047.487.14.644a.803.803 0 00.367.328c.15.062.31.094.481.094a1.56 1.56 0 00.444-.06l.161.686a1.894 1.894 0 01-.673.115c-.278 0-.547-.061-.805-.183a1.572 1.572 0 01-.63-.546c-.166-.241-.248-.541-.248-.899v-6.584zM85.096 317v-6.545h.763V317h-.763zm.388-7.67a.562.562 0 01-.4-.158.522.522 0 01-.167-.388c0-.15.055-.278.166-.383a.553.553 0 01.4-.162c.157 0 .29.054.401.162a.508.508 0 01.166.383c0 .151-.055.28-.166.388a.562.562 0 01-.4.158zm3.14-1.057V317h-.76v-8.727h.76zM90.638 317v-6.545h.763V317h-.763zm.388-7.67a.562.562 0 01-.4-.158.522.522 0 01-.167-.388c0-.15.055-.278.166-.383a.553.553 0 01.4-.162c.157 0 .29.054.401.162a.508.508 0 01.166.383c0 .151-.055.28-.166.388a.562.562 0 01-.4.158zm6.778 2.561l-.694.196a1.828 1.828 0 00-.29-.533 1.308 1.308 0 00-.49-.379c-.199-.094-.446-.141-.742-.141-.443 0-.806.105-1.09.315-.284.211-.427.482-.427.814 0 .282.097.51.29.686.196.174.497.312.904.414l.988.243c.549.133.96.345 1.232.635.275.289.413.653.413 1.091 0 .369-.102.697-.307.984a2.05 2.05 0 01-.856.677c-.364.162-.786.243-1.266.243-.639 0-1.166-.143-1.58-.43-.416-.29-.681-.707-.798-1.253l.729-.179c.094.389.277.683.55.882.275.199.638.299 1.086.299.503 0 .905-.113 1.206-.337.302-.227.452-.511.452-.852a.91.91 0 00-.264-.665c-.176-.182-.443-.315-.801-.401l-1.07-.255c-.568-.137-.989-.353-1.261-.648-.273-.296-.41-.662-.41-1.1 0-.36.099-.677.295-.95.196-.275.466-.491.81-.648a2.817 2.817 0 011.175-.234c.6 0 1.079.136 1.437.409.36.27.62.642.78 1.117zm3.583 5.258c-.395 0-.756-.077-1.082-.23a1.894 1.894 0 01-.78-.673c-.193-.296-.29-.654-.29-1.074 0-.324.061-.597.183-.818a1.49 1.49 0 01.52-.546c.225-.142.49-.254.797-.336a7.262 7.262 0 011.014-.192c.367-.046.676-.085.929-.119.256-.035.451-.089.584-.162.134-.074.2-.194.2-.358v-.154c0-.446-.133-.797-.4-1.052-.264-.259-.645-.388-1.142-.388-.472 0-.857.104-1.155.311-.295.207-.503.452-.622.733l-.72-.26a2.12 2.12 0 01.613-.857c.262-.215.554-.37.878-.464.324-.097.652-.145.985-.145.25 0 .509.033.779.098.273.065.526.179.759.341.233.159.422.382.567.669.145.284.217.645.217 1.082V317h-.759v-1.036h-.046a2.088 2.088 0 01-1.079 1.01 2.369 2.369 0 01-.95.175zm.102-.694c.404 0 .753-.09 1.049-.269a1.85 1.85 0 00.682-.712c.161-.298.242-.626.242-.984v-.946a.754.754 0 01-.285.145 3.87 3.87 0 01-.456.115c-.171.031-.341.058-.511.081l-.461.06a4.214 4.214 0 00-.946.213 1.37 1.37 0 00-.601.4c-.139.168-.208.384-.208.648 0 .398.142.706.426.925.284.216.64.324 1.069.324zm7.328-6v.66h-3.124v-.66h3.124zm-2.148-1.569h.763v6.405c0 .273.047.487.141.644a.797.797 0 00.366.328c.151.062.311.094.482.094a1.555 1.555 0 00.443-.06l.162.686a1.9 1.9 0 01-.674.115c-.278 0-.547-.061-.805-.183a1.572 1.572 0 01-.631-.546c-.165-.241-.247-.541-.247-.899v-6.584zm6.446 8.25c-.61 0-1.139-.142-1.585-.426a2.852 2.852 0 01-1.035-1.189c-.242-.508-.362-1.093-.362-1.755 0-.659.12-1.245.362-1.756a2.94 2.94 0 011.01-1.206c.432-.293.93-.439 1.495-.439.356 0 .698.065 1.027.196a2.5 2.5 0 01.887.592 2.8 2.8 0 01.626 1.002c.154.4.23.875.23 1.423v.375h-5.113v-.669h4.338c0-.42-.085-.798-.256-1.133a1.988 1.988 0 00-.703-.802 1.844 1.844 0 00-1.036-.294c-.414 0-.779.111-1.095.333a2.28 2.28 0 00-.741.878 2.744 2.744 0 00-.269 1.193v.4c0 .52.09.975.269 1.364.182.386.439.686.771.899.332.213.726.32 1.18.32.31 0 .581-.049.814-.145a1.715 1.715 0 00.959-.929l.72.234c-.099.276-.262.53-.49.763a2.488 2.488 0 01-.843.563 3.012 3.012 0 01-1.16.208zm8.486-2.637v-4.044h.758V317h-.758v-1.087h-.06a2.018 2.018 0 01-.728.84c-.333.221-.739.332-1.219.332-.418 0-.789-.091-1.112-.273a1.921 1.921 0 01-.763-.809c-.185-.355-.277-.791-.277-1.308v-4.24h.758v4.193c0 .511.151.923.452 1.236.301.309.688.464 1.159.464a1.817 1.817 0 001.526-.835c.176-.276.264-.614.264-1.014zm2.767 2.501v-6.545h.737v1.005h.055c.131-.329.358-.595.682-.797a2.05 2.05 0 011.108-.306c.062 0 .132.001.209.004l.192.008v.772a4.66 4.66 0 00-.179-.026 2.18 2.18 0 00-.277-.017 1.88 1.88 0 00-.912.217c-.265.142-.473.34-.627.593-.153.253-.23.541-.23.865V317h-.758zM35.16 367.273h.92l3.166 7.602h.076l3.167-7.602h.92V376h-.75v-7.044h-.068L39.646 376h-.724l-2.945-7.044h-.068V376h-.75v-8.727zm12.956 8.863a2.66 2.66 0 01-1.5-.43 2.91 2.91 0 01-1.014-1.189c-.245-.508-.367-1.095-.367-1.76 0-.67.122-1.26.367-1.768a2.874 2.874 0 011.014-1.194c.434-.286.934-.43 1.5-.43.565 0 1.064.144 1.495.43.432.287.77.685 1.015 1.194.247.508.37 1.098.37 1.768 0 .665-.122 1.252-.366 1.76a2.899 2.899 0 01-1.019 1.189c-.431.287-.93.43-1.495.43zm0-.694c.454 0 .84-.122 1.155-.367.315-.244.554-.569.715-.976.165-.406.248-.853.248-1.342 0-.489-.083-.937-.248-1.346a2.28 2.28 0 00-.715-.985c-.316-.247-.7-.371-1.155-.371-.452 0-.837.124-1.155.371a2.318 2.318 0 00-.72.985 3.621 3.621 0 00-.243 1.346c0 .489.08.936.243 1.342.165.407.405.732.72.976.315.245.7.367 1.155.367zm7.124-5.987v.66h-3.124v-.66h3.124zm-2.148-1.569h.763v6.405c0 .273.047.487.14.644a.803.803 0 00.367.328c.15.062.31.094.481.094a1.56 1.56 0 00.444-.06l.162.686a1.894 1.894 0 01-.674.115c-.278 0-.547-.061-.805-.183a1.572 1.572 0 01-.63-.546c-.166-.241-.248-.541-.248-.899v-6.584zm9.602 8.25c-.537 0-1.007-.142-1.41-.426-.404-.284-.72-.68-.947-1.189-.224-.508-.336-1.101-.336-1.777 0-.673.112-1.262.336-1.768.228-.509.544-.904.95-1.185.407-.284.88-.426 1.42-.426.397 0 .728.071.993.213.264.139.475.313.635.52.159.207.282.409.37.605h.068v-3.43h.763V376h-.741v-1.214h-.09a3.04 3.04 0 01-.375.613 1.974 1.974 0 01-.643.524c-.264.142-.595.213-.993.213zm.09-.694c.423 0 .784-.115 1.082-.345.298-.233.525-.553.682-.959.159-.409.238-.878.238-1.406 0-.523-.078-.985-.234-1.385-.156-.404-.384-.719-.682-.946-.298-.231-.66-.346-1.087-.346-.437 0-.806.12-1.108.358a2.21 2.21 0 00-.681.959c-.154.404-.23.857-.23 1.36 0 .508.078.967.234 1.376.156.409.383.734.682.976.3.238.669.358 1.103.358zm7.559.694c-.61 0-1.14-.142-1.585-.426a2.855 2.855 0 01-1.036-1.189c-.241-.508-.362-1.093-.362-1.755 0-.659.12-1.245.362-1.756a2.942 2.942 0 011.01-1.206 2.6 2.6 0 011.496-.439c.355 0 .697.065 1.027.196.33.128.625.325.886.592.264.265.473.598.627 1.002.153.4.23.875.23 1.423v.375h-5.114v-.669h4.338c0-.42-.085-.798-.255-1.133a1.984 1.984 0 00-.704-.802 1.843 1.843 0 00-1.035-.294c-.415 0-.78.111-1.095.333a2.278 2.278 0 00-.742.878 2.74 2.74 0 00-.268 1.193v.4c0 .52.09.975.268 1.364.182.386.44.686.772.899.332.213.725.32 1.18.32.31 0 .581-.049.814-.145a1.725 1.725 0 00.959-.929l.72.234c-.1.276-.263.53-.49.763a2.495 2.495 0 01-.844.563 3.007 3.007 0 01-1.159.208zm7.701 2.319v-9h.738v1.248h.09c.09-.196.215-.396.374-.601.16-.207.37-.382.63-.524.265-.142.597-.213.998-.213.54 0 1.011.142 1.415.426.406.281.721.676.946 1.185.227.506.34 1.095.34 1.768 0 .676-.113 1.269-.34 1.777-.225.509-.54.905-.946 1.189a2.38 2.38 0 01-1.407.426c-.394 0-.725-.071-.992-.213a2.034 2.034 0 01-.644-.524 3.04 3.04 0 01-.375-.613h-.068v3.669h-.759zm.75-5.723c0 .528.079.997.235 1.406.159.406.386.726.682.959.298.23.659.345 1.082.345.435 0 .801-.12 1.1-.358a2.25 2.25 0 00.686-.976 3.77 3.77 0 00.238-1.376c0-.503-.078-.956-.234-1.36a2.163 2.163 0 00-.682-.959c-.301-.238-.67-.358-1.108-.358-.426 0-.788.115-1.087.346-.298.227-.525.542-.681.946-.154.4-.23.862-.23 1.385zm8.274 3.417a2.52 2.52 0 01-1.083-.23 1.895 1.895 0 01-.78-.673c-.193-.296-.29-.654-.29-1.074 0-.324.062-.597.184-.818a1.49 1.49 0 01.52-.546 2.86 2.86 0 01.797-.336 7.254 7.254 0 011.014-.192c.366-.046.676-.085.929-.119.256-.035.45-.089.584-.162.133-.074.2-.194.2-.358v-.154c0-.446-.133-.797-.4-1.052-.265-.259-.645-.388-1.142-.388-.472 0-.857.104-1.155.311a1.722 1.722 0 00-.623.733l-.72-.26c.148-.358.353-.644.614-.857.261-.215.554-.37.878-.464.324-.097.652-.145.984-.145.25 0 .51.033.78.098.273.065.526.179.759.341.233.159.421.382.566.669.145.284.218.645.218 1.082V376h-.759v-1.036h-.047a2.085 2.085 0 01-1.078 1.01c-.27.117-.587.175-.95.175zm.102-.694c.403 0 .753-.09 1.048-.269a1.84 1.84 0 00.682-.712c.162-.298.243-.626.243-.984v-.946a.76.76 0 01-.285.145 3.84 3.84 0 01-.456.115c-.17.031-.341.058-.512.081l-.46.06c-.37.045-.685.116-.946.213-.261.096-.462.23-.6.4-.14.168-.21.384-.21.648 0 .398.142.706.426.925.285.216.641.324 1.07.324zm9.147-4.564l-.694.196a1.828 1.828 0 00-.29-.533 1.308 1.308 0 00-.49-.379 1.735 1.735 0 00-.742-.141c-.443 0-.807.105-1.09.315-.285.211-.427.482-.427.814 0 .282.097.51.29.686.196.174.497.312.903.414l.989.243c.548.133.959.345 1.231.635.276.289.414.653.414 1.091 0 .369-.102.697-.307.984a2.05 2.05 0 01-.856.677c-.364.162-.786.243-1.266.243-.64 0-1.166-.143-1.581-.43-.415-.29-.68-.707-.797-1.253l.729-.179c.094.389.277.683.55.882.275.199.637.299 1.086.299.503 0 .905-.113 1.206-.337.301-.227.452-.511.452-.852a.91.91 0 00-.264-.665c-.177-.182-.444-.315-.802-.401l-1.07-.255c-.567-.137-.988-.353-1.26-.648-.273-.296-.41-.662-.41-1.1 0-.36.098-.677.294-.95.196-.275.466-.491.81-.648a2.817 2.817 0 011.176-.234c.6 0 1.078.136 1.436.409.361.27.621.642.78 1.117zm6.152 0l-.694.196a1.824 1.824 0 00-.29-.533 1.306 1.306 0 00-.49-.379 1.73 1.73 0 00-.741-.141c-.444 0-.807.105-1.091.315-.284.211-.426.482-.426.814 0 .282.096.51.29.686.195.174.496.312.903.414l.988.243c.549.133.959.345 1.232.635.275.289.413.653.413 1.091 0 .369-.102.697-.307.984a2.05 2.05 0 01-.856.677c-.364.162-.786.243-1.266.243-.639 0-1.166-.143-1.58-.43-.416-.29-.681-.707-.798-1.253l.73-.179c.093.389.276.683.549.882.275.199.638.299 1.086.299.503 0 .905-.113 1.206-.337.302-.227.452-.511.452-.852a.91.91 0 00-.264-.665c-.176-.182-.443-.315-.801-.401l-1.07-.255c-.568-.137-.989-.353-1.261-.648-.273-.296-.41-.662-.41-1.1 0-.36.099-.677.295-.95.196-.275.466-.491.81-.648a2.818 2.818 0 011.176-.234c.599 0 1.078.136 1.436.409.36.27.62.642.779 1.117zm4.401 5.245c-.61 0-1.139-.142-1.585-.426a2.852 2.852 0 01-1.035-1.189c-.242-.508-.363-1.093-.363-1.755 0-.659.121-1.245.363-1.756a2.94 2.94 0 011.01-1.206c.431-.293.93-.439 1.495-.439.355 0 .698.065 1.027.196a2.5 2.5 0 01.887.592 2.8 2.8 0 01.626 1.002c.154.4.23.875.23 1.423v.375h-5.113v-.669h4.338c0-.42-.086-.798-.256-1.133a1.988 1.988 0 00-.703-.802 1.844 1.844 0 00-1.036-.294c-.414 0-.78.111-1.095.333a2.28 2.28 0 00-.741.878 2.744 2.744 0 00-.269 1.193v.4c0 .52.09.975.269 1.364a2.1 2.1 0 00.771.899c.332.213.726.32 1.18.32.31 0 .581-.049.814-.145a1.715 1.715 0 00.959-.929l.72.234c-.099.276-.263.53-.49.763a2.483 2.483 0 01-.844.563 3.004 3.004 0 01-1.159.208z" fill="#000"/><rect x="34" y="328" width="322" height="23" rx="4" fill="#D9D9D9"/><rect x="34" y="387" width="322" height="23" rx="4" fill="#D9D9D9"/><rect x="129" y="460" width="131" height="28" rx="4" fill="#4E0146"/><path d="M161.346 479.182c-.78 0-1.46-.195-2.04-.585-.576-.391-1.023-.925-1.341-1.603-.318-.678-.477-1.45-.477-2.318 0-.875.161-1.653.483-2.335.326-.682.776-1.216 1.352-1.602.576-.391 1.244-.586 2.006-.586.583 0 1.112.114 1.585.341a3.09 3.09 0 011.756 2.37h-1.023a2.262 2.262 0 00-.767-1.262c-.402-.352-.913-.528-1.534-.528a2.49 2.49 0 00-1.477.454c-.428.3-.764.718-1.006 1.256-.239.534-.358 1.153-.358 1.858 0 .708.117 1.335.352 1.881.235.541.565.966.989 1.272.428.307.928.461 1.5.461.386 0 .739-.072 1.057-.216a2.193 2.193 0 001.25-1.585h1.022a3.116 3.116 0 01-.562 1.409c-.296.409-.68.731-1.153.966-.47.234-1.008.352-1.614.352zm8.889 0c-.754 0-1.42-.191-2-.574-.576-.383-1.026-.911-1.352-1.585-.326-.678-.489-1.461-.489-2.347 0-.894.163-1.68.489-2.358.326-.682.776-1.212 1.352-1.591.58-.382 1.246-.574 2-.574s1.419.192 1.994.574c.576.383 1.027.913 1.353 1.591.329.678.494 1.464.494 2.358 0 .886-.163 1.669-.489 2.347-.325.674-.778 1.202-1.358 1.585-.575.383-1.24.574-1.994.574zm0-.926c.606 0 1.119-.163 1.54-.489.42-.326.738-.759.954-1.301.22-.542.33-1.138.33-1.79 0-.651-.11-1.25-.33-1.795a3.06 3.06 0 00-.954-1.313c-.421-.329-.934-.494-1.54-.494-.602 0-1.115.165-1.54.494-.42.33-.74.767-.96 1.313a4.833 4.833 0 00-.324 1.795c0 .652.108 1.248.324 1.79.22.542.54.975.96 1.301.421.326.934.489 1.54.489zm7.073-4.711V479h-1.012v-8.727h.983v1.369h.091c.205-.447.523-.805.955-1.074.435-.273.973-.409 1.613-.409.587 0 1.102.123 1.546.369.447.243.793.601 1.039 1.074.25.474.375 1.055.375 1.745V479h-1.011v-5.591c0-.716-.201-1.282-.602-1.699-.398-.416-.932-.625-1.602-.625a2.48 2.48 0 00-1.222.296 2.162 2.162 0 00-.847.852c-.204.367-.306.805-.306 1.312zm9.265 0V479h-1.011v-8.727h.983v1.369h.091c.204-.447.522-.805.954-1.074.436-.273.974-.409 1.614-.409.587 0 1.102.123 1.545.369.447.243.794.601 1.04 1.074.25.474.375 1.055.375 1.745V479h-1.011v-5.591c0-.716-.201-1.282-.603-1.699-.397-.416-.931-.625-1.602-.625a2.48 2.48 0 00-1.221.296 2.156 2.156 0 00-.847.852c-.205.367-.307.805-.307 1.312zm11.783 5.637c-.815 0-1.519-.19-2.114-.568a3.8 3.8 0 01-1.38-1.586c-.322-.678-.483-1.458-.483-2.34 0-.879.161-1.66.483-2.341.325-.686.774-1.222 1.346-1.608.576-.391 1.241-.586 1.994-.586.474 0 .93.088 1.37.262.439.17.833.433 1.182.79.352.352.63.797.835 1.335.204.534.307 1.166.307 1.898v.5h-6.819v-.893h5.785a3.29 3.29 0 00-.341-1.511 2.647 2.647 0 00-.938-1.068 2.46 2.46 0 00-1.381-.392 2.48 2.48 0 00-1.46.443 3.04 3.04 0 00-.988 1.171 3.64 3.64 0 00-.358 1.59v.534c0 .694.119 1.3.358 1.819.242.515.585.914 1.028 1.199.443.284.968.426 1.574.426.413 0 .774-.065 1.085-.194a2.317 2.317 0 001.278-1.238l.961.312a2.826 2.826 0 01-.654 1.017 3.31 3.31 0 01-1.125.75c-.447.186-.962.279-1.545.279zm6.159-8.909l2.25 3.721 2.25-3.721h1.176l-2.807 4.363 2.807 4.364h-1.176l-2.25-3.602-2.25 3.602h-1.171l2.773-4.364-2.773-4.363h1.171zm7.808 8.727v-8.727h1.017V479h-1.017zm.517-10.227a.746.746 0 01-.534-.211.693.693 0 01-.221-.517c0-.2.073-.371.221-.511a.738.738 0 01.534-.216c.209 0 .387.072.534.216.148.14.222.311.222.511a.694.694 0 01-.222.517.743.743 0 01-.534.211zm6.567 10.409c-.754 0-1.42-.191-2-.574-.576-.383-1.027-.911-1.352-1.585-.326-.678-.489-1.461-.489-2.347 0-.894.163-1.68.489-2.358.325-.682.776-1.212 1.352-1.591.58-.382 1.246-.574 2-.574s1.419.192 1.994.574c.576.383 1.027.913 1.353 1.591.329.678.494 1.464.494 2.358 0 .886-.163 1.669-.489 2.347-.326.674-.778 1.202-1.358 1.585-.575.383-1.24.574-1.994.574zm0-.926c.606 0 1.119-.163 1.54-.489.42-.326.738-.759.954-1.301.22-.542.33-1.138.33-1.79 0-.651-.11-1.25-.33-1.795a3.06 3.06 0 00-.954-1.313c-.421-.329-.934-.494-1.54-.494-.602 0-1.116.165-1.54.494-.42.33-.74.767-.96 1.313a4.833 4.833 0 00-.324 1.795c0 .652.108 1.248.324 1.79.22.542.54.975.96 1.301.421.326.934.489 1.54.489zm7.072-4.711V479h-1.011v-8.727h.983v1.369h.091c.204-.447.523-.805.954-1.074.436-.273.974-.409 1.614-.409.587 0 1.102.123 1.546.369.447.243.793.601 1.039 1.074.25.474.375 1.055.375 1.745V479h-1.011v-5.591c0-.716-.201-1.282-.602-1.699-.398-.416-.932-.625-1.603-.625a2.48 2.48 0 00-1.221.296 2.162 2.162 0 00-.847.852c-.204.367-.307.805-.307 1.312z" fill="#fff"/><path d="M145.718 548v-8.727h.983v1.341h.091c.174-.451.464-.805.869-1.063.409-.261.9-.392 1.472-.392.602 0 1.096.142 1.483.426.39.281.682.667.875 1.159h.074c.197-.485.517-.869.96-1.153.447-.288.988-.432 1.625-.432.81 0 1.451.256 1.92.767.47.508.705 1.25.705 2.227V548h-1.012v-5.847c0-.689-.176-1.206-.528-1.551-.352-.344-.816-.517-1.392-.517-.667 0-1.18.205-1.54.614-.36.409-.54.928-.54 1.557V548h-1.034v-5.938c0-.59-.164-1.068-.494-1.431-.329-.364-.793-.546-1.392-.546-.401 0-.763.099-1.085.296-.318.197-.57.471-.756.824-.182.348-.273.75-.273 1.204V548h-1.011zm17.126.182c-.753 0-1.42-.191-2-.574-.575-.383-1.026-.911-1.352-1.585-.326-.678-.488-1.461-.488-2.347 0-.894.162-1.68.488-2.358.326-.682.777-1.212 1.352-1.591.58-.382 1.247-.574 2-.574.754 0 1.419.192 1.995.574.576.383 1.026.913 1.352 1.591.33.678.494 1.464.494 2.358 0 .886-.163 1.669-.488 2.347-.326.674-.779 1.202-1.358 1.585-.576.383-1.241.574-1.995.574zm0-.926c.607 0 1.12-.163 1.54-.489.421-.326.739-.759.955-1.301a4.733 4.733 0 00.329-1.79c0-.651-.11-1.25-.329-1.795a3.054 3.054 0 00-.955-1.313c-.42-.329-.933-.494-1.54-.494-.602 0-1.115.165-1.539.494-.421.33-.741.767-.961 1.313a4.853 4.853 0 00-.323 1.795c0 .652.108 1.248.323 1.79.22.542.54.975.961 1.301.42.326.933.489 1.539.489zm9.499-7.983v.88h-4.165v-.88h4.165zm-2.864-2.091h1.017v8.54c0 .363.063.649.188.858.125.204.288.35.489.437.2.083.414.125.642.125.132 0 .246-.008.341-.023.094-.019.178-.038.25-.057l.215.915a2.446 2.446 0 01-.363.103 2.368 2.368 0 01-.534.051c-.371 0-.729-.082-1.074-.245a2.103 2.103 0 01-.841-.727c-.22-.322-.33-.721-.33-1.199v-8.778zm12.803 11c-.716 0-1.343-.19-1.881-.568-.538-.379-.958-.908-1.261-1.586-.299-.678-.449-1.467-.449-2.369 0-.898.15-1.684.449-2.358.303-.678.725-1.204 1.267-1.579.542-.379 1.172-.569 1.892-.569.53 0 .972.095 1.324.285.352.185.634.416.846.693.213.276.377.545.495.807h.091v-4.574h1.017V548h-.989v-1.619h-.119a4.046 4.046 0 01-.5.818 2.658 2.658 0 01-.858.699c-.352.189-.794.284-1.324.284zm.119-.926c.565 0 1.046-.154 1.443-.461.398-.31.701-.736.91-1.278.212-.545.318-1.17.318-1.875 0-.697-.104-1.312-.313-1.847-.208-.537-.511-.958-.909-1.261-.398-.307-.881-.46-1.449-.46-.583 0-1.075.159-1.477.477-.398.315-.701.741-.909 1.279-.205.537-.307 1.142-.307 1.812 0 .678.104 1.29.313 1.835.208.546.511.979.909 1.301.401.319.892.478 1.471.478zm10.08.926c-.815 0-1.519-.19-2.114-.568a3.8 3.8 0 01-1.38-1.586c-.322-.678-.483-1.458-.483-2.34 0-.879.161-1.66.483-2.341.325-.686.774-1.222 1.346-1.608.576-.391 1.241-.586 1.994-.586.474 0 .93.088 1.37.262.439.17.833.433 1.182.79.352.352.63.797.835 1.335.204.534.307 1.166.307 1.898v.5h-6.819v-.893h5.785a3.29 3.29 0 00-.341-1.511 2.647 2.647 0 00-.938-1.068 2.46 2.46 0 00-1.381-.392 2.48 2.48 0 00-1.46.443 3.04 3.04 0 00-.988 1.171 3.64 3.64 0 00-.358 1.59v.534c0 .694.119 1.3.358 1.819.242.515.585.914 1.028 1.199.443.284.968.426 1.574.426.413 0 .774-.065 1.085-.194a2.317 2.317 0 001.278-1.238l.961.312a2.826 2.826 0 01-.654 1.017 3.31 3.31 0 01-1.125.75c-.447.186-.962.279-1.545.279zm10.268 3.091v-12h.983v1.665h.12c.121-.262.287-.529.5-.802a2.61 2.61 0 01.84-.698c.353-.19.796-.285 1.33-.285.72 0 1.349.19 1.886.569.542.375.963.901 1.262 1.579.303.674.454 1.46.454 2.358 0 .902-.151 1.691-.454 2.369-.299.678-.72 1.207-1.262 1.586-.537.378-1.162.568-1.875.568-.526 0-.967-.095-1.323-.284a2.724 2.724 0 01-.858-.699 4.002 4.002 0 01-.5-.818h-.091v4.892h-1.012zm1-7.631c0 .705.104 1.33.313 1.875.212.542.515.968.909 1.278.398.307.879.461 1.443.461.58 0 1.068-.159 1.466-.478.401-.322.706-.755.915-1.301.212-.545.318-1.157.318-1.835 0-.67-.104-1.275-.313-1.812-.204-.538-.507-.964-.909-1.279-.401-.318-.894-.477-1.477-.477-.568 0-1.051.153-1.449.46-.398.303-.701.724-.909 1.261-.204.535-.307 1.15-.307 1.847zm11.032 4.557a3.35 3.35 0 01-1.444-.307 2.522 2.522 0 01-1.039-.898c-.258-.394-.387-.871-.387-1.432 0-.431.082-.795.245-1.09.162-.296.393-.538.693-.728a3.847 3.847 0 011.062-.449c.409-.109.86-.195 1.352-.255.489-.061.902-.114 1.239-.159.341-.046.601-.118.779-.216.178-.099.267-.258.267-.477v-.205c0-.595-.178-1.063-.535-1.403-.352-.345-.859-.518-1.522-.518-.629 0-1.142.139-1.54.415-.394.277-.67.603-.83.978l-.96-.347c.197-.477.47-.858.818-1.142a3.232 3.232 0 011.171-.619 4.562 4.562 0 011.312-.194c.334 0 .68.044 1.04.131.364.087.701.239 1.011.455.311.212.563.509.756.892.193.378.29.86.29 1.443V548h-1.011v-1.381h-.063a2.723 2.723 0 01-.54.75 2.781 2.781 0 01-.897.597c-.36.155-.783.233-1.267.233zm.136-.926c.538 0 1.004-.12 1.398-.358.394-.239.697-.555.909-.949.216-.398.324-.835.324-1.313v-1.261c-.076.072-.203.136-.381.193a5.301 5.301 0 01-.608.154c-.227.041-.455.077-.682.108l-.614.079a5.686 5.686 0 00-1.261.284c-.348.129-.615.307-.801.534-.186.224-.278.512-.278.864 0 .53.189.941.568 1.233.379.288.854.432 1.426.432zm12.196-6.085l-.926.261a2.421 2.421 0 00-.387-.71 1.749 1.749 0 00-.653-.506c-.265-.125-.595-.188-.989-.188-.591 0-1.075.141-1.454.421s-.568.642-.568 1.085c0 .375.128.68.386.915.261.231.663.415 1.205.551l1.318.324c.731.178 1.278.46 1.642.847.367.386.551.871.551 1.454 0 .492-.136.93-.409 1.313-.273.382-.654.683-1.142.903-.485.216-1.048.324-1.688.324-.852 0-1.555-.191-2.108-.574-.553-.386-.907-.943-1.062-1.67l.971-.239c.125.519.37.911.733 1.176.368.265.851.398 1.449.398.671 0 1.207-.15 1.608-.449.402-.303.602-.682.602-1.136 0-.353-.117-.648-.352-.887-.235-.242-.591-.42-1.068-.534l-1.426-.341c-.758-.182-1.318-.47-1.682-.864-.364-.393-.545-.882-.545-1.465 0-.481.13-.904.392-1.267a2.612 2.612 0 011.079-.864c.459-.208.981-.313 1.568-.313.8 0 1.438.182 1.915.546.481.36.828.856 1.04 1.489zm8.203 0l-.926.261a2.442 2.442 0 00-.386-.71 1.76 1.76 0 00-.654-.506c-.265-.125-.595-.188-.988-.188-.591 0-1.076.141-1.455.421s-.568.642-.568 1.085c0 .375.129.68.386.915.262.231.663.415 1.205.551l1.318.324c.731.178 1.278.46 1.642.847.367.386.551.871.551 1.454 0 .492-.136.93-.409 1.313-.273.382-.653.683-1.142.903-.485.216-1.047.324-1.688.324-.852 0-1.555-.191-2.108-.574-.553-.386-.907-.943-1.062-1.67l.972-.239c.125.519.369.911.733 1.176.367.265.85.398 1.448.398.671 0 1.207-.15 1.608-.449.402-.303.603-.682.603-1.136 0-.353-.118-.648-.353-.887-.235-.242-.591-.42-1.068-.534l-1.426-.341c-.758-.182-1.318-.47-1.682-.864-.363-.393-.545-.882-.545-1.465 0-.481.13-.904.392-1.267a2.612 2.612 0 011.079-.864c.459-.208.981-.313 1.569-.313.799 0 1.437.182 1.914.546.481.36.828.856 1.04 1.489zm5.868 6.994c-.814 0-1.519-.19-2.114-.568a3.807 3.807 0 01-1.38-1.586c-.322-.678-.483-1.458-.483-2.34 0-.879.161-1.66.483-2.341.325-.686.774-1.222 1.346-1.608.576-.391 1.241-.586 1.995-.586.473 0 .929.088 1.369.262.439.17.833.433 1.182.79.352.352.63.797.835 1.335.204.534.307 1.166.307 1.898v.5h-6.818v-.893h5.784a3.29 3.29 0 00-.341-1.511 2.647 2.647 0 00-.938-1.068 2.46 2.46 0 00-1.38-.392c-.553 0-1.04.148-1.461.443a3.04 3.04 0 00-.988 1.171 3.654 3.654 0 00-.358 1.59v.534c0 .694.119 1.3.358 1.819.242.515.585.914 1.028 1.199.443.284.968.426 1.574.426a2.81 2.81 0 001.085-.194 2.307 2.307 0 001.279-1.238l.96.312a2.826 2.826 0 01-.654 1.017 3.31 3.31 0 01-1.125.75c-.447.186-.962.279-1.545.279zm-68.027 19c-.754 0-1.42-.191-2-.574-.576-.383-1.027-.911-1.352-1.585-.326-.678-.489-1.461-.489-2.347 0-.894.163-1.68.489-2.358.325-.682.776-1.212 1.352-1.591.58-.382 1.246-.574 2-.574s1.419.192 1.994.574c.576.383 1.027.913 1.353 1.591.329.678.494 1.464.494 2.358 0 .886-.163 1.669-.489 2.347-.326.674-.778 1.202-1.358 1.585-.575.383-1.24.574-1.994.574zm0-.926c.606 0 1.119-.163 1.54-.489.42-.326.738-.759.954-1.301.22-.542.33-1.138.33-1.79 0-.651-.11-1.25-.33-1.795a3.06 3.06 0 00-.954-1.313c-.421-.329-.934-.494-1.54-.494-.602 0-1.116.165-1.54.494-.42.33-.74.767-.96 1.313a4.833 4.833 0 00-.324 1.795c0 .652.108 1.248.324 1.79.22.542.54.975.96 1.301.421.326.934.489 1.54.489zm11.606-2.591v-5.392h1.012V567h-1.012v-1.449h-.079a2.69 2.69 0 01-.972 1.119c-.443.296-.984.444-1.625.444-.556 0-1.051-.122-1.483-.364a2.58 2.58 0 01-1.017-1.08c-.246-.473-.369-1.054-.369-1.744v-5.653h1.011v5.591c0 .681.201 1.231.603 1.647.401.413.916.62 1.545.62a2.43 2.43 0 001.136-.284c.364-.19.663-.466.898-.83.235-.367.352-.818.352-1.352zm3.9 3.335v-11.636h1.017v4.574h.091c.113-.262.276-.531.488-.807.216-.277.498-.508.847-.693.352-.19.795-.285 1.329-.285.716 0 1.345.19 1.887.569.541.375.964.901 1.267 1.579.303.674.454 1.46.454 2.358 0 .902-.151 1.691-.454 2.369-.299.678-.72 1.207-1.262 1.586-.537.378-1.162.568-1.875.568-.53 0-.973-.095-1.329-.284a2.676 2.676 0 01-.852-.699 4.002 4.002 0 01-.5-.818h-.125V567h-.983zm1-4.358c0 .705.104 1.33.312 1.875.212.542.515.968.909 1.278.398.307.879.461 1.443.461.58 0 1.07-.159 1.472-.478.402-.322.706-.755.915-1.301.208-.545.312-1.157.312-1.835 0-.67-.104-1.275-.312-1.812-.205-.538-.508-.964-.909-1.279-.402-.318-.894-.477-1.478-.477-.568 0-1.051.153-1.448.46-.394.303-.696.724-.904 1.261-.208.535-.312 1.15-.312 1.847zm9.613-7.278V567h-1.011v-11.636h1.011zM201.964 567v-8.727h1.017V567h-1.017zm.517-10.227a.743.743 0 01-.534-.211.694.694 0 01-.222-.517c0-.2.074-.371.222-.511a.735.735 0 01.534-.216c.208 0 .386.072.534.216.148.14.222.311.222.511a.694.694 0 01-.222.517.746.746 0 01-.534.211zm6.703 10.409c-.814 0-1.519-.19-2.114-.568a3.807 3.807 0 01-1.38-1.586c-.322-.678-.483-1.458-.483-2.34 0-.879.161-1.66.483-2.341.325-.686.774-1.222 1.346-1.608.576-.391 1.241-.586 1.995-.586.473 0 .929.088 1.369.262.439.17.833.433 1.182.79.352.352.63.797.835 1.335.204.534.307 1.166.307 1.898v.5h-6.818v-.893h5.784a3.29 3.29 0 00-.341-1.511 2.647 2.647 0 00-.938-1.068 2.46 2.46 0 00-1.38-.392c-.553 0-1.04.148-1.461.443a3.04 3.04 0 00-.988 1.171 3.654 3.654 0 00-.358 1.59v.534c0 .694.119 1.3.358 1.819.242.515.585.914 1.028 1.199.443.284.968.426 1.574.426a2.81 2.81 0 001.085-.194 2.307 2.307 0 001.279-1.238l.96.312a2.826 2.826 0 01-.654 1.017 3.31 3.31 0 01-1.125.75c-.447.186-.962.279-1.545.279zm-.676-10.12l1.454-2.579h1.199l-1.744 2.579h-.909zm8.2 6.603v-.307c.004-.599.07-1.085.199-1.46s.318-.692.568-.949c.254-.262.568-.512.943-.75.281-.182.515-.373.705-.574.193-.205.339-.428.437-.67.103-.247.154-.514.154-.802a1.97 1.97 0 00-.29-1.073 1.915 1.915 0 00-.773-.711 2.306 2.306 0 00-1.085-.255c-.379 0-.733.083-1.062.25a2.025 2.025 0 00-.802.727c-.204.318-.316.712-.335 1.182h-1.074c.019-.625.175-1.167.466-1.625a2.957 2.957 0 011.171-1.063 3.491 3.491 0 011.636-.38c.629 0 1.182.13 1.659.392a2.84 2.84 0 011.119 1.062c.269.447.404.96.404 1.54 0 .382-.061.731-.182 1.045a2.756 2.756 0 01-.545.87 4.545 4.545 0 01-.898.75 4.264 4.264 0 00-.813.676c-.2.223-.344.479-.431.767a3.813 3.813 0 00-.142 1.051v.307h-1.029zm.546 3.42a.801.801 0 01-.58-.238.802.802 0 01-.239-.58c0-.227.08-.42.239-.579a.798.798 0 01.58-.239c.223 0 .414.079.573.239a.78.78 0 01.245.579.772.772 0 01-.114.409.789.789 0 01-.704.409z" fill="#000"/><path stroke="#000" d="M259 246.5H130"/><path fill-rule="evenodd" clip-rule="evenodd" d="M304.804 23.5h-1.167c-.644 0-1.166.504-1.166 1.125v9.75c0 .621.522 1.125 1.166 1.125h1.167c.644 0 1.167-.504 1.167-1.125v-9.75c0-.621-.523-1.125-1.167-1.125zm-6.657 2.625h1.167c.644 0 1.166.504 1.166 1.125v7.125c0 .621-.522 1.125-1.166 1.125h-1.167c-.644 0-1.167-.504-1.167-1.125V27.25c0-.621.523-1.125 1.167-1.125zm-4.323 2.625h-1.167c-.644 0-1.167.503-1.167 1.125v4.5c0 .621.523 1.125 1.167 1.125h1.167c.644 0 1.166-.504 1.166-1.125v-4.5c0-.622-.522-1.125-1.166-1.125zM288.333 31h-1.166c-.645 0-1.167.503-1.167 1.125v2.25c0 .621.522 1.125 1.167 1.125h1.166c.645 0 1.167-.504 1.167-1.125v-2.25c0-.622-.522-1.125-1.167-1.125zm32.638-5.154c2.467 0 4.839.97 6.626 2.711.135.135.35.133.483-.004l1.287-1.33a.374.374 0 00-.003-.52 11.925 11.925 0 00-16.786 0 .368.368 0 00-.107.26.37.37 0 00.103.26l1.288 1.33a.336.336 0 00.482.004 9.498 9.498 0 016.627-2.711zm0 4.327a5.39 5.39 0 013.667 1.447.34.34 0 00.482-.007l1.285-1.33a.371.371 0 00-.005-.523 7.832 7.832 0 00-10.855 0 .37.37 0 00-.005.523l1.285 1.33a.34.34 0 00.482.007 5.39 5.39 0 013.664-1.447zm2.575 2.911a.362.362 0 01-.105.263l-2.223 2.297a.343.343 0 01-.494 0l-2.223-2.297a.362.362 0 01.01-.521 3.742 3.742 0 014.92 0c.071.066.113.16.115.258z" fill="#000"/><rect opacity=".4" x="336.471" y="23.5" width="24" height="12" rx="3.5" stroke="#000"/><path opacity=".5" d="M361.971 27.5v4a2.17 2.17 0 000-4z" fill="#000"/><rect x="337.971" y="25" width="17" height="9" rx="2" fill="#000"/><path d="M51.017 23.723c-2.599 0-4.45 1.777-4.45 4.209v.016c0 2.275 1.61 3.951 3.91 3.951 1.644 0 2.69-.838 3.13-1.784h.166c0 .091-.009.182-.009.274-.091 2.29-.896 4.15-2.797 4.15-1.054 0-1.793-.548-2.109-1.386l-.024-.083h-2.109l.017.091c.382 1.835 2.025 3.138 4.225 3.138 3.013 0 4.83-2.39 4.83-6.425v-.017c0-4.316-2.224-6.134-4.78-6.134zm-.009 6.533c-1.361 0-2.349-.996-2.349-2.383v-.016a2.367 2.367 0 012.374-2.39c1.328 0 2.366 1.07 2.366 2.44v.016c0 1.353-1.038 2.333-2.39 2.333zm8.058-2.017a1.29 1.29 0 001.32-1.312c0-.738-.556-1.311-1.32-1.311a1.29 1.29 0 00-1.32 1.311c0 .73.565 1.312 1.32 1.312zm0 6.159c.764 0 1.32-.573 1.32-1.312 0-.738-.556-1.311-1.32-1.311a1.29 1.29 0 00-1.32 1.311 1.29 1.29 0 001.32 1.312zM68.146 36h2.05v-2.3h1.61v-1.767h-1.61v-7.911h-3.03a159.518 159.518 0 00-4.88 7.927v1.752h5.86V36zm-3.869-4.018v-.124a124.04 124.04 0 013.777-6.126h.125v6.25h-3.902zM76.27 36h2.142V24.022h-2.134l-3.13 2.2v2.017l2.98-2.109h.142V36z" fill="#000"/></svg>