<svg viewBox="0 0 390 844" fill="none" xmlns="http://www.w3.org/2000/svg"><path fill="#fff" d="M0 0h390v844H0z"/><path d="M162.598 770h-3.142v-10.182h3.281c.988 0 1.833.204 2.535.612a3.997 3.997 0 011.616 1.745c.375.755.562 1.66.562 2.714 0 1.061-.189 1.974-.567 2.74a4.035 4.035 0 01-1.65 1.759c-.723.408-1.601.612-2.635.612zm-1.909-1.094h1.829c.842 0 1.54-.162 2.093-.487a3.002 3.002 0 001.238-1.387c.272-.6.408-1.314.408-2.143 0-.822-.134-1.529-.403-2.123a2.967 2.967 0 00-1.203-1.372c-.534-.321-1.198-.482-1.994-.482h-1.968v7.994zm11.772 1.253c-.689 0-1.294-.164-1.814-.492a3.338 3.338 0 01-1.213-1.377c-.289-.59-.433-1.28-.433-2.068 0-.796.144-1.49.433-2.084a3.34 3.34 0 011.213-1.382c.52-.328 1.125-.492 1.814-.492.69 0 1.293.164 1.81.492.52.329.925.789 1.213 1.382.292.594.438 1.288.438 2.084 0 .788-.146 1.478-.438 2.068a3.296 3.296 0 01-1.213 1.377c-.517.328-1.12.492-1.81.492zm0-1.054c.524 0 .955-.134 1.293-.403.338-.268.588-.621.751-1.059.162-.437.243-.911.243-1.421 0-.511-.081-.986-.243-1.427a2.411 2.411 0 00-.751-1.069c-.338-.272-.769-.408-1.293-.408-.523 0-.954.136-1.292.408a2.403 2.403 0 00-.751 1.069 4.104 4.104 0 00-.244 1.427c0 .51.082.984.244 1.421.162.438.413.791.751 1.059.338.269.769.403 1.292.403zm6.425-9.287V770h-1.173v-10.182h1.173zM181.035 770v-7.636h1.173V770h-1.173zm.596-8.909a.832.832 0 01-.591-.234.75.75 0 01-.244-.562c0-.218.081-.406.244-.561a.832.832 0 01.591-.234c.229 0 .425.078.587.234a.741.741 0 01.249.561.744.744 0 01-.249.562.816.816 0 01-.587.234zm2.885 8.909v-10.182h1.173v3.759h.1c.086-.133.205-.302.358-.507.156-.209.378-.395.666-.557.292-.166.686-.249 1.183-.249.643 0 1.21.161 1.701.482.49.322.873.778 1.148 1.368.275.59.413 1.286.413 2.088 0 .808-.138 1.509-.413 2.103-.275.59-.656 1.047-1.143 1.372-.488.321-1.049.482-1.686.482-.49 0-.883-.081-1.178-.244a2.182 2.182 0 01-.681-.561 7.523 7.523 0 01-.368-.527h-.139V770h-1.134zm1.154-3.818c0 .577.084 1.085.253 1.526.169.438.416.781.741 1.029.325.245.722.368 1.193.368.491 0 .9-.129 1.228-.388.331-.262.58-.613.746-1.054.169-.444.253-.938.253-1.481 0-.537-.083-1.021-.248-1.452a2.252 2.252 0 00-.741-1.029c-.328-.255-.741-.383-1.238-.383-.477 0-.878.121-1.203.363-.325.239-.57.573-.736 1.004-.166.428-.248.927-.248 1.497zm9.63 3.997c-.484 0-.924-.091-1.318-.273a2.269 2.269 0 01-.94-.801c-.232-.351-.348-.775-.348-1.273 0-.437.087-.792.259-1.064.172-.275.403-.49.691-.646.288-.156.607-.272.955-.348.351-.079.704-.142 1.058-.189.465-.059.841-.104 1.129-.134.292-.033.504-.088.636-.164.136-.076.204-.209.204-.398v-.04c0-.49-.134-.871-.402-1.143-.266-.272-.668-.408-1.209-.408-.56 0-.999.123-1.317.368-.318.245-.542.507-.671.786l-1.114-.398c.199-.464.464-.825.796-1.084a2.977 2.977 0 011.093-.547 4.547 4.547 0 011.174-.159c.245 0 .527.03.845.09.321.056.631.174.93.353.301.179.551.449.75.81.199.361.299.845.299 1.452V770h-1.174v-1.034h-.059c-.08.166-.213.343-.398.532-.186.189-.433.35-.741.482-.308.133-.684.199-1.128.199zm.179-1.054c.464 0 .855-.091 1.173-.273.321-.183.563-.418.726-.706.165-.289.248-.592.248-.91v-1.074c-.049.06-.159.114-.328.164a5.534 5.534 0 01-.577.124 29 29 0 01-.631.09c-.202.023-.366.043-.492.059-.305.04-.59.105-.855.194a1.475 1.475 0 00-.637.393c-.159.172-.238.408-.238.706 0 .408.151.716.452.925.305.205.691.308 1.159.308zm5.462.875v-7.636h1.134v1.153h.079c.139-.378.391-.684.756-.92a2.224 2.224 0 011.233-.353c.086 0 .194.002.323.005.129.004.227.009.293.015v1.193a3.702 3.702 0 00-.273-.044 2.608 2.608 0 00-.443-.035c-.371 0-.702.078-.994.234a1.712 1.712 0 00-.935 1.556V770h-1.173zm5.209 0v-7.636h1.134v1.153h.079c.139-.378.391-.684.756-.92a2.224 2.224 0 011.233-.353c.086 0 .194.002.323.005.129.004.227.009.293.015v1.193a3.702 3.702 0 00-.273-.044 2.608 2.608 0 00-.443-.035c-.371 0-.702.078-.994.234a1.712 1.712 0 00-.935 1.556V770h-1.173zm5.225 0h-1.292l3.738-10.182h1.273L218.833 770h-1.293l-3.043-8.571h-.079L211.375 770zm.477-3.977h5.211v1.093h-5.211v-1.093zm8.567 3.977v-10.182h3.44c.799 0 1.452.144 1.959.433.51.285.888.671 1.133 1.158.245.487.368 1.031.368 1.631 0 .6-.123 1.145-.368 1.635a2.735 2.735 0 01-1.123 1.174c-.508.288-1.157.432-1.949.432h-2.466v-1.093h2.426c.547 0 .986-.095 1.317-.284.332-.189.572-.444.721-.766.153-.324.229-.691.229-1.098 0-.408-.076-.772-.229-1.094a1.636 1.636 0 00-.726-.756c-.334-.185-.778-.278-1.332-.278h-2.168V770h-1.232zm10.119-10.182V770h-1.233v-10.182h1.233z" fill="#000"/><path d="M154.776 794.179c-.484 0-.923-.091-1.317-.273a2.263 2.263 0 01-.94-.801c-.232-.351-.348-.775-.348-1.273 0-.437.086-.792.259-1.064a1.82 1.82 0 01.691-.646c.288-.156.606-.272.954-.348.351-.079.704-.142 1.059-.189.464-.059.84-.104 1.129-.134.291-.033.503-.088.636-.164.136-.076.204-.209.204-.398v-.04c0-.49-.134-.871-.403-1.143-.265-.272-.668-.408-1.208-.408-.56 0-.999.123-1.317.368-.319.245-.542.507-.672.786l-1.113-.398c.199-.464.464-.825.795-1.084.335-.262.7-.444 1.094-.547a4.546 4.546 0 011.173-.159c.246 0 .527.03.845.09.322.056.632.174.93.353.302.179.552.449.751.81.199.361.298.845.298 1.452V794h-1.173v-1.034h-.06a2.042 2.042 0 01-.398.532c-.185.189-.432.35-.74.482-.309.133-.685.199-1.129.199zm.179-1.054c.464 0 .855-.091 1.173-.273a1.863 1.863 0 00.975-1.616v-1.074c-.05.06-.159.114-.328.164a5.534 5.534 0 01-.577.124c-.215.033-.426.063-.631.09-.203.023-.367.043-.493.059-.305.04-.59.105-.855.194a1.465 1.465 0 00-.636.393c-.159.172-.239.408-.239.706 0 .408.151.716.453.925.305.205.691.308 1.158.308zm5.622.875v-10.182h1.173v3.759h.099c.087-.133.206-.302.358-.507a2.09 2.09 0 01.667-.557c.291-.166.686-.249 1.183-.249.643 0 1.21.161 1.7.482.491.322.873.778 1.149 1.368.275.59.412 1.286.412 2.088 0 .808-.137 1.509-.412 2.103-.276.59-.657 1.047-1.144 1.372-.487.321-1.049.482-1.685.482-.491 0-.884-.081-1.179-.244a2.182 2.182 0 01-.681-.561 7.881 7.881 0 01-.368-.527h-.139V794h-1.133zm1.153-3.818c0 .577.085 1.085.254 1.526.169.438.416.781.74 1.029.325.245.723.368 1.194.368.49 0 .899-.129 1.228-.388.331-.262.58-.613.745-1.054.169-.444.254-.938.254-1.481 0-.537-.083-1.021-.249-1.452a2.243 2.243 0 00-.74-1.029c-.329-.255-.741-.383-1.238-.383-.478 0-.879.121-1.204.363-.324.239-.57.573-.735 1.004-.166.428-.249.927-.249 1.497zm10.485 3.977c-.689 0-1.294-.164-1.814-.492a3.338 3.338 0 01-1.213-1.377c-.289-.59-.433-1.28-.433-2.068 0-.796.144-1.49.433-2.084a3.34 3.34 0 011.213-1.382c.52-.328 1.125-.492 1.814-.492.69 0 1.293.164 1.81.492.52.329.925.789 1.213 1.382.292.594.437 1.288.437 2.084 0 .788-.145 1.478-.437 2.068a3.296 3.296 0 01-1.213 1.377c-.517.328-1.12.492-1.81.492zm0-1.054c.524 0 .955-.134 1.293-.403.338-.268.588-.621.751-1.059.162-.437.243-.911.243-1.421 0-.511-.081-.986-.243-1.427a2.411 2.411 0 00-.751-1.069c-.338-.272-.769-.408-1.293-.408-.523 0-.954.136-1.292.408a2.403 2.403 0 00-.751 1.069 4.081 4.081 0 00-.244 1.427c0 .51.081.984.244 1.421.162.438.413.791.751 1.059.338.269.769.403 1.292.403zm10.064-2.227v-4.514h1.173V794h-1.173v-1.293h-.08a2.505 2.505 0 01-.835.99c-.378.268-.855.402-1.432.402-.477 0-.901-.104-1.272-.313-.372-.212-.663-.53-.875-.954-.212-.428-.319-.966-.319-1.616v-4.852h1.174v4.772c0 .557.156 1.001.467 1.333.315.331.716.497 1.203.497a2 2 0 00.89-.224c.305-.149.56-.378.766-.686.209-.308.313-.701.313-1.178zm6.643-4.514v.994h-3.957v-.994h3.957zm-2.804-1.83h1.174v7.278c0 .332.048.581.144.746a.739.739 0 00.378.328c.155.053.319.08.492.08.129 0 .235-.007.318-.02l.199-.04.238 1.054c-.079.03-.19.06-.333.09a2.463 2.463 0 01-.542.049c-.331 0-.656-.071-.974-.213a1.94 1.94 0 01-.786-.652c-.205-.291-.308-.659-.308-1.103v-7.597z" fill="#4F0063"/><path d="M199 788.362v1.094h-4.455v-1.094H199zm5.982 5.638v-.895l3.361-3.679c.394-.431.719-.805.974-1.123.255-.322.444-.624.567-.905.126-.285.189-.584.189-.895 0-.358-.087-.668-.259-.93a1.67 1.67 0 00-.696-.606 2.248 2.248 0 00-.994-.214c-.391 0-.733.081-1.024.243-.289.16-.512.383-.672.672a2.109 2.109 0 00-.233 1.014h-1.174c0-.597.138-1.12.413-1.571.275-.451.65-.802 1.124-1.054a3.384 3.384 0 011.606-.378c.596 0 1.125.126 1.585.378.461.252.822.591 1.084 1.019.262.428.393.903.393 1.427 0 .374-.068.741-.204 1.099-.132.354-.364.75-.696 1.188-.328.434-.784.964-1.367 1.591l-2.287 2.446v.079h4.733V794h-6.423zm11.797.139c-.749 0-1.387-.204-1.914-.611-.527-.411-.929-1.006-1.208-1.785-.278-.782-.417-1.727-.417-2.834 0-1.1.139-2.04.417-2.819.282-.782.686-1.379 1.213-1.79.531-.414 1.167-.621 1.909-.621.743 0 1.377.207 1.904.621.531.411.935 1.008 1.213 1.79.282.779.423 1.719.423 2.819 0 1.107-.139 2.052-.418 2.834-.278.779-.681 1.374-1.208 1.785-.527.407-1.165.611-1.914.611zm0-1.094c.743 0 1.319-.358 1.73-1.073.411-.716.617-1.737.617-3.063 0-.882-.095-1.632-.283-2.252-.186-.62-.455-1.092-.806-1.417a1.776 1.776 0 00-1.258-.487c-.735 0-1.311.363-1.725 1.089-.414.722-.621 1.745-.621 3.067 0 .882.093 1.631.278 2.247.186.617.453 1.086.801 1.407.351.322.773.482 1.267.482zm5.429.955v-.895l3.361-3.679c.394-.431.719-.805.975-1.123.255-.322.444-.624.566-.905.126-.285.189-.584.189-.895 0-.358-.086-.668-.258-.93a1.67 1.67 0 00-.696-.606 2.252 2.252 0 00-.995-.214c-.391 0-.732.081-1.024.243-.288.16-.512.383-.671.672a2.097 2.097 0 00-.234 1.014h-1.173c0-.597.138-1.12.413-1.571a2.864 2.864 0 011.123-1.054 3.39 3.39 0 011.606-.378c.597 0 1.125.126 1.586.378.461.252.822.591 1.084 1.019.262.428.393.903.393 1.427 0 .374-.068.741-.204 1.099-.133.354-.365.75-.696 1.188-.328.434-.784.964-1.367 1.591l-2.287 2.446v.079h4.733V794h-6.424zm11.917.139c-.656 0-1.241-.112-1.755-.338a3.007 3.007 0 01-1.218-.939 2.528 2.528 0 01-.487-1.407h1.253c.026.328.139.611.338.85.199.235.459.417.78.547.322.129.678.193 1.069.193.438 0 .826-.076 1.164-.228.338-.153.603-.365.795-.637.192-.271.288-.586.288-.944a1.77 1.77 0 00-.278-.99 1.85 1.85 0 00-.815-.676c-.358-.162-.796-.243-1.313-.243h-.815v-1.094h.815c.405 0 .759-.073 1.064-.219a1.71 1.71 0 00.721-.616 1.65 1.65 0 00.263-.935c0-.345-.076-.645-.228-.9a1.562 1.562 0 00-.647-.596 2.082 2.082 0 00-.974-.214c-.351 0-.683.064-.994.194-.308.126-.56.31-.756.552a1.435 1.435 0 00-.318.865h-1.193c.02-.534.18-1.001.482-1.402.302-.405.696-.72 1.183-.945a3.83 3.83 0 011.616-.338c.63 0 1.17.128 1.621.383.45.252.797.585 1.039.999.242.414.363.862.363 1.342 0 .574-.151 1.063-.453 1.467a2.294 2.294 0 01-1.218.84v.08c.643.106 1.145.379 1.507.82.361.438.542.979.542 1.626 0 .553-.151 1.05-.453 1.491a3.068 3.068 0 01-1.223 1.034c-.517.252-1.105.378-1.765.378zM127.214 233.396c-1.244 0-2.365-.221-3.362-.664a5.492 5.492 0 01-2.353-1.995c-.571-.878-.856-1.96-.856-3.247 0-1.108.204-2.024.614-2.749a4.754 4.754 0 011.674-1.738 8.464 8.464 0 012.391-.985c.895-.23 1.82-.396 2.774-.498a106.38 106.38 0 002.8-.32c.716-.102 1.236-.255 1.559-.46.333-.213.499-.541.499-.984v-.077c0-.963-.285-1.709-.857-2.237-.571-.529-1.393-.793-2.467-.793-1.133 0-2.033.247-2.697.742-.657.494-1.1 1.078-1.33 1.751l-4.321-.614c.341-1.193.904-2.19 1.688-2.991.784-.81 1.743-1.415 2.876-1.815 1.134-.41 2.386-.614 3.759-.614.946 0 1.887.111 2.825.332a7.941 7.941 0 012.569 1.1c.776.503 1.398 1.189 1.867 2.058.477.869.716 1.956.716 3.26V233h-4.449v-2.697h-.153a5.69 5.69 0 01-1.189 1.534c-.503.468-1.138.848-1.905 1.137-.759.282-1.649.422-2.672.422zm1.202-3.4c.929 0 1.734-.184 2.416-.55.682-.375 1.206-.869 1.572-1.483a3.78 3.78 0 00.563-2.007v-2.314c-.145.119-.392.23-.742.332a10.39 10.39 0 01-1.15.269c-.426.077-.848.145-1.266.204l-1.087.154a8.09 8.09 0 00-1.853.46c-.546.213-.976.511-1.291.895-.316.375-.473.861-.473 1.457 0 .853.311 1.496.933 1.931.622.434 1.415.652 2.378.652zm-.294-19.215l-3.925-5.842h4.538l2.851 5.842h-3.464zm23.043 29.583v-27h4.551v3.247h.269a8.525 8.525 0 011.009-1.522c.435-.545 1.023-1.009 1.765-1.393.741-.392 1.687-.588 2.838-.588 1.517 0 2.885.388 4.103 1.163 1.228.767 2.199 1.905 2.915 3.414.725 1.5 1.087 3.341 1.087 5.522 0 2.157-.354 3.989-1.061 5.498-.708 1.508-1.671 2.659-2.889 3.451-1.219.793-2.6 1.189-4.142 1.189-1.125 0-2.059-.187-2.8-.562-.742-.375-1.338-.827-1.79-1.355a8.748 8.748 0 01-1.035-1.522h-.192v10.458h-4.628zm4.538-17.182c0 1.27.179 2.382.537 3.336.367.955.891 1.701 1.573 2.238.69.528 1.525.792 2.505.792 1.023 0 1.88-.272 2.57-.818.69-.554 1.21-1.308 1.56-2.263.358-.963.537-2.058.537-3.285 0-1.219-.175-2.301-.525-3.247-.349-.946-.869-1.688-1.559-2.225-.691-.537-1.551-.805-2.583-.805-.988 0-1.828.26-2.518.78-.69.52-1.215 1.248-1.573 2.186-.349.937-.524 2.041-.524 3.311zM173.665 233v-19.636h4.487v3.272h.205c.358-1.133.971-2.007 1.841-2.62.877-.623 1.879-.934 3.004-.934.256 0 .541.013.856.039.324.017.593.047.806.089v4.257c-.196-.068-.507-.128-.933-.179a8.696 8.696 0 00-1.215-.089c-.844 0-1.602.183-2.275.55a4.026 4.026 0 00-1.573 1.495c-.383.64-.575 1.377-.575 2.212V233h-4.628zm22.03.384c-1.917 0-3.579-.422-4.986-1.266-1.406-.844-2.497-2.024-3.272-3.541-.767-1.517-1.151-3.29-1.151-5.318 0-2.029.384-3.806 1.151-5.331.775-1.526 1.866-2.711 3.272-3.554 1.407-.844 3.069-1.266 4.986-1.266 1.918 0 3.58.422 4.986 1.266 1.406.843 2.493 2.028 3.26 3.554.775 1.525 1.163 3.302 1.163 5.331 0 2.028-.388 3.801-1.163 5.318-.767 1.517-1.854 2.697-3.26 3.541-1.406.844-3.068 1.266-4.986 1.266zm.026-3.708c1.039 0 1.909-.285 2.608-.856.699-.58 1.218-1.356 1.559-2.327.35-.972.524-2.054.524-3.247 0-1.202-.174-2.289-.524-3.26-.341-.98-.86-1.76-1.559-2.34-.699-.579-1.569-.869-2.608-.869-1.066 0-1.952.29-2.659.869-.699.58-1.223 1.36-1.573 2.34-.341.971-.511 2.058-.511 3.26 0 1.193.17 2.275.511 3.247.35.971.874 1.747 1.573 2.327.707.571 1.593.856 2.659.856zm13.311 10.688v-27h4.551v3.247h.269a8.48 8.48 0 011.01-1.522c.434-.545 1.022-1.009 1.764-1.393.741-.392 1.687-.588 2.838-.588 1.517 0 2.885.388 4.104 1.163 1.227.767 2.199 1.905 2.914 3.414.725 1.5 1.087 3.341 1.087 5.522 0 2.157-.354 3.989-1.061 5.498-.707 1.508-1.67 2.659-2.889 3.451-1.219.793-2.6 1.189-4.142 1.189-1.125 0-2.058-.187-2.8-.562-.741-.375-1.338-.827-1.79-1.355a8.748 8.748 0 01-1.035-1.522h-.192v10.458h-4.628zm4.538-17.182c0 1.27.179 2.382.537 3.336.367.955.891 1.701 1.573 2.238.69.528 1.525.792 2.506.792 1.022 0 1.879-.272 2.569-.818.69-.554 1.21-1.308 1.56-2.263.358-.963.537-2.058.537-3.285 0-1.219-.175-2.301-.524-3.247-.35-.946-.87-1.688-1.56-2.225-.69-.537-1.551-.805-2.582-.805-.989 0-1.829.26-2.519.78-.69.52-1.214 1.248-1.572 2.186-.35.937-.525 2.041-.525 3.311zm26.527 10.202c-1.917 0-3.579-.422-4.985-1.266-1.407-.844-2.497-2.024-3.273-3.541-.767-1.517-1.151-3.29-1.151-5.318 0-2.029.384-3.806 1.151-5.331.776-1.526 1.866-2.711 3.273-3.554 1.406-.844 3.068-1.266 4.985-1.266 1.918 0 3.58.422 4.986 1.266 1.407.843 2.493 2.028 3.26 3.554.776 1.525 1.164 3.302 1.164 5.331 0 2.028-.388 3.801-1.164 5.318-.767 1.517-1.853 2.697-3.26 3.541-1.406.844-3.068 1.266-4.986 1.266zm.026-3.708c1.04 0 1.909-.285 2.608-.856.699-.58 1.219-1.356 1.56-2.327.349-.972.524-2.054.524-3.247 0-1.202-.175-2.289-.524-3.26-.341-.98-.861-1.76-1.56-2.34-.699-.579-1.568-.869-2.608-.869-1.065 0-1.952.29-2.659.869-.699.58-1.223 1.36-1.572 2.34-.341.971-.512 2.058-.512 3.26 0 1.193.171 2.275.512 3.247.349.971.873 1.747 1.572 2.327.707.571 1.594.856 2.659.856zm28.831-11.122l-4.218.46a3.418 3.418 0 00-.627-1.202c-.29-.374-.682-.677-1.176-.907-.494-.23-1.099-.345-1.815-.345-.963 0-1.773.208-2.429.626-.648.418-.968.959-.959 1.624-.009.571.2 1.035.626 1.393.435.358 1.151.652 2.148.882l3.35.716c1.857.401 3.238 1.036 4.142 1.905.911.869 1.372 2.007 1.38 3.413-.008 1.236-.37 2.327-1.086 3.273-.708.938-1.692 1.67-2.954 2.199-1.261.528-2.71.793-4.346.793-2.404 0-4.338-.503-5.804-1.509-1.466-1.014-2.34-2.425-2.621-4.232l4.513-.434c.204.886.639 1.555 1.304 2.007.665.452 1.53.677 2.595.677 1.1 0 1.982-.225 2.646-.677.674-.452 1.01-1.01 1.01-1.675 0-.562-.217-1.027-.652-1.393-.426-.367-1.091-.648-1.994-.844l-3.349-.703c-1.884-.392-3.277-1.053-4.181-1.982-.903-.937-1.351-2.122-1.342-3.554-.009-1.21.319-2.258.984-3.145.674-.894 1.607-1.585 2.8-2.071 1.202-.494 2.587-.741 4.155-.741 2.301 0 4.112.49 5.433 1.47 1.33.98 2.152 2.306 2.467 3.976zM53.734 352.182c-.788 0-1.48-.188-2.074-.563-.591-.375-1.053-.899-1.387-1.574-.33-.674-.494-1.462-.494-2.363 0-.909.165-1.703.494-2.381.334-.678.796-1.204 1.387-1.579.595-.375 1.286-.563 2.074-.563.788 0 1.477.188 2.068.563.595.375 1.057.901 1.386 1.579.334.678.5 1.472.5 2.381 0 .901-.166 1.689-.5 2.363a3.765 3.765 0 01-1.386 1.574c-.591.375-1.28.563-2.068.563zm0-1.205c.598 0 1.09-.153 1.477-.46a2.72 2.72 0 00.858-1.21c.185-.5.278-1.042.278-1.625a4.68 4.68 0 00-.278-1.631 2.742 2.742 0 00-.858-1.221c-.386-.311-.879-.466-1.477-.466-.599 0-1.091.155-1.478.466-.386.31-.672.717-.858 1.221a4.68 4.68 0 00-.278 1.631c0 .583.093 1.125.278 1.625.186.5.472.903.858 1.21.387.307.88.46 1.478.46zm11.501-2.545v-5.159h1.341V352h-1.34v-1.477h-.092a2.86 2.86 0 01-.954 1.13c-.432.307-.978.461-1.637.461a2.92 2.92 0 01-1.454-.358c-.424-.243-.758-.606-1-1.091-.243-.489-.364-1.104-.364-1.847v-5.545h1.341v5.454c0 .637.178 1.144.534 1.523.36.379.818.568 1.375.568.333 0 .672-.085 1.017-.256.349-.17.64-.431.875-.784.239-.352.358-.801.358-1.346zm6.365 3.773a3.551 3.551 0 01-1.505-.313 2.581 2.581 0 01-1.074-.915c-.266-.401-.398-.886-.398-1.454 0-.5.098-.906.295-1.216.197-.315.46-.561.79-.739.33-.178.693-.31 1.091-.398.401-.09.805-.162 1.21-.215.53-.069.96-.12 1.29-.154.333-.038.576-.1.727-.187.156-.087.233-.239.233-.455v-.045c0-.561-.153-.997-.46-1.307-.303-.311-.763-.466-1.38-.466-.64 0-1.143.14-1.506.42-.364.281-.62.58-.767.898l-1.273-.454c.227-.531.53-.944.909-1.239.383-.299.8-.508 1.25-.625a5.199 5.199 0 011.34-.182c.281 0 .603.034.967.102.367.065.721.199 1.062.404.345.204.631.513.858.926.228.413.341.966.341 1.659V352h-1.34v-1.182h-.069a2.33 2.33 0 01-.454.608c-.213.216-.495.4-.847.551-.352.152-.782.228-1.29.228zm.205-1.205c.53 0 .977-.104 1.34-.312a2.13 2.13 0 001.114-1.847v-1.227c-.057.068-.182.13-.375.187-.19.053-.409.101-.659.142a28.32 28.32 0 01-1.284.171 5.108 5.108 0 00-.977.221c-.3.099-.542.248-.727.449-.182.197-.273.466-.273.807 0 .466.172.818.517 1.057.348.235.79.352 1.324.352zm6.243 1v-8.727h1.34V352h-1.34zm.681-10.182a.953.953 0 01-.676-.267.858.858 0 01-.278-.642.86.86 0 01.278-.642.953.953 0 01.676-.267.93.93 0 01.67.267.85.85 0 01.285.642.85.85 0 01-.284.642.934.934 0 01-.67.267zm9.297 3.409l-1.204.341a2.225 2.225 0 00-.335-.585 1.628 1.628 0 00-.591-.477c-.25-.125-.57-.188-.96-.188-.535 0-.98.123-1.336.37-.352.242-.528.551-.528.926 0 .333.12.596.363.789.243.194.622.355 1.137.483l1.295.319c.78.189 1.362.479 1.745.869.382.386.573.884.573 1.494 0 .5-.144.947-.431 1.341-.285.394-.682.705-1.194.932-.511.227-1.106.341-1.784.341-.89 0-1.627-.193-2.21-.58-.583-.386-.953-.95-1.108-1.693l1.273-.318c.121.47.35.822.687 1.057.341.235.786.352 1.336.352.625 0 1.12-.133 1.488-.398.371-.269.557-.591.557-.966 0-.303-.106-.556-.318-.761-.212-.208-.538-.364-.977-.466l-1.455-.341c-.8-.189-1.386-.483-1.761-.88-.372-.402-.557-.904-.557-1.506 0-.493.138-.928.415-1.307.28-.379.66-.676 1.142-.892.484-.216 1.034-.324 1.647-.324.864 0 1.542.189 2.034.568.497.379.849.879 1.057 1.5zM94.704 352v-8.727h1.34V352h-1.34zm.682-10.182a.954.954 0 01-.676-.267.858.858 0 01-.279-.642c0-.25.093-.464.279-.642a.954.954 0 01.676-.267c.261 0 .485.089.67.267a.85.85 0 01.284.642.85.85 0 01-.284.642.934.934 0 01-.67.267zm4.456 4.932V352H98.5v-8.727h1.295v1.363h.114a2.49 2.49 0 01.932-1.068c.416-.273.954-.409 1.613-.409.591 0 1.108.121 1.551.364.444.238.788.602 1.034 1.091.247.484.37 1.098.37 1.841V352h-1.341v-5.455c0-.685-.178-1.219-.534-1.602-.356-.386-.845-.579-1.466-.579-.428 0-.811.092-1.148.278a1.998 1.998 0 00-.79.813c-.193.356-.29.787-.29 1.295zm14.2-1.523l-1.205.341a2.197 2.197 0 00-.335-.585 1.63 1.63 0 00-.591-.477c-.25-.125-.57-.188-.96-.188-.534 0-.979.123-1.335.37-.353.242-.529.551-.529.926 0 .333.122.596.364.789.242.194.621.355 1.136.483l1.296.319c.78.189 1.362.479 1.744.869.383.386.574.884.574 1.494 0 .5-.144.947-.432 1.341-.284.394-.682.705-1.193.932-.511.227-1.106.341-1.784.341-.89 0-1.627-.193-2.21-.58-.584-.386-.953-.95-1.108-1.693l1.272-.318c.122.47.351.822.688 1.057.341.235.786.352 1.335.352.625 0 1.121-.133 1.489-.398.371-.269.557-.591.557-.966 0-.303-.106-.556-.319-.761-.212-.208-.537-.364-.977-.466l-1.454-.341c-.8-.189-1.387-.483-1.762-.88-.371-.402-.557-.904-.557-1.506 0-.493.139-.928.415-1.307a2.827 2.827 0 011.142-.892c.485-.216 1.034-.324 1.648-.324.864 0 1.542.189 2.034.568.496.379.849.879 1.057 1.5zm5.837 6.955c-.841 0-1.567-.186-2.177-.557a3.742 3.742 0 01-1.403-1.568c-.326-.674-.489-1.459-.489-2.352 0-.894.163-1.682.489-2.364.33-.686.788-1.22 1.375-1.602.591-.387 1.28-.58 2.068-.58.455 0 .904.076 1.347.227.443.152.846.398 1.21.739.364.337.653.784.869 1.341.216.557.324 1.242.324 2.057v.568h-6.727v-1.159h5.364c0-.493-.099-.932-.296-1.318a2.223 2.223 0 00-.829-.915c-.357-.224-.777-.335-1.262-.335-.534 0-.996.132-1.386.397a2.617 2.617 0 00-.892 1.023 2.997 2.997 0 00-.313 1.352v.773c0 .659.114 1.218.341 1.676.231.455.551.801.96 1.04.41.235.885.352 1.427.352.352 0 .67-.049.954-.147.288-.103.536-.254.744-.455.209-.205.37-.458.483-.761l1.296.363c-.137.44-.366.826-.688 1.159-.322.33-.719.587-1.193.773a4.42 4.42 0 01-1.596.273zm-.819-10.091l1.387-2.636h1.568l-1.773 2.636h-1.182zm6.472 9.909v-8.727h1.295v1.318h.091c.159-.432.447-.782.864-1.051a2.542 2.542 0 011.409-.404c.099 0 .222.002.369.006.148.004.26.01.336.017v1.364a3.462 3.462 0 00-.313-.051 3.026 3.026 0 00-.506-.04c-.424 0-.803.089-1.136.267a2.019 2.019 0 00-.784.727 1.963 1.963 0 00-.284 1.051V352h-1.341zm9.347.182c-.841 0-1.567-.186-2.177-.557a3.742 3.742 0 01-1.403-1.568c-.326-.674-.489-1.459-.489-2.352 0-.894.163-1.682.489-2.364.33-.686.788-1.22 1.375-1.602.591-.387 1.28-.58 2.068-.58.455 0 .904.076 1.347.227.443.152.846.398 1.21.739.364.337.653.784.869 1.341.216.557.324 1.242.324 2.057v.568h-6.727v-1.159h5.364c0-.493-.099-.932-.296-1.318a2.223 2.223 0 00-.829-.915c-.357-.224-.777-.335-1.262-.335-.534 0-.996.132-1.386.397a2.617 2.617 0 00-.892 1.023 2.997 2.997 0 00-.313 1.352v.773c0 .659.114 1.218.341 1.676.231.455.551.801.96 1.04.41.235.885.352 1.427.352.352 0 .67-.049.954-.147.288-.103.536-.254.744-.455.209-.205.37-.458.483-.761l1.296.363c-.137.44-.366.826-.688 1.159-.322.33-.719.587-1.193.773a4.42 4.42 0 01-1.596.273zm5.403-.182v-1.023l4.955-6.363v-.091h-4.796v-1.25h6.523v1.068l-4.818 6.318v.091h4.977V352h-6.841zm18.906-3.568v-5.159h1.341V352h-1.341v-1.477h-.091c-.204.443-.522.82-.954 1.13-.432.307-.978.461-1.637.461a2.92 2.92 0 01-1.454-.358c-.424-.243-.758-.606-1-1.091-.243-.489-.364-1.104-.364-1.847v-5.545h1.341v5.454c0 .637.178 1.144.534 1.523.36.379.818.568 1.375.568.334 0 .673-.085 1.017-.256.349-.17.64-.431.875-.784.239-.352.358-.801.358-1.346zm5.138-1.682V352h-1.341v-8.727h1.296v1.363h.113c.205-.443.515-.799.932-1.068.417-.273.955-.409 1.614-.409.591 0 1.108.121 1.551.364.443.238.788.602 1.034 1.091.246.484.369 1.098.369 1.841V352h-1.341v-5.455c0-.685-.178-1.219-.534-1.602-.356-.386-.845-.579-1.466-.579-.428 0-.81.092-1.147.278a1.985 1.985 0 00-.79.813c-.193.356-.29.787-.29 1.295zm11.678 5.432c-.841 0-1.567-.186-2.177-.557a3.742 3.742 0 01-1.403-1.568c-.326-.674-.489-1.459-.489-2.352 0-.894.163-1.682.489-2.364.33-.686.788-1.22 1.375-1.602.591-.387 1.28-.58 2.068-.58.455 0 .904.076 1.347.227.443.152.846.398 1.21.739.364.337.653.784.869 1.341.216.557.324 1.242.324 2.057v.568h-6.727v-1.159h5.364c0-.493-.099-.932-.296-1.318a2.223 2.223 0 00-.829-.915c-.357-.224-.777-.335-1.262-.335-.534 0-.996.132-1.386.397a2.617 2.617 0 00-.892 1.023 2.997 2.997 0 00-.313 1.352v.773c0 .659.114 1.218.341 1.676.231.455.551.801.96 1.04.41.235.885.352 1.427.352.352 0 .67-.049.954-.147.288-.103.536-.254.744-.455.209-.205.37-.458.483-.761l1.296.363c-.137.44-.366.826-.688 1.159-.322.33-.719.587-1.193.773a4.42 4.42 0 01-1.596.273zm13.448 0c-.727 0-1.369-.184-1.926-.551-.557-.372-.992-.894-1.307-1.569-.314-.678-.471-1.479-.471-2.403 0-.917.157-1.712.471-2.386.315-.675.752-1.195 1.313-1.563.561-.367 1.208-.551 1.943-.551.568 0 1.017.095 1.347.284.333.186.587.398.761.637.178.234.316.428.415.579h.114v-4.295h1.34V352h-1.295v-1.341h-.159c-.099.159-.239.36-.421.602-.181.239-.441.453-.778.642-.337.186-.786.279-1.347.279zm.182-1.205c.538 0 .993-.14 1.364-.42.371-.284.653-.676.846-1.176.194-.504.29-1.086.29-1.745 0-.651-.094-1.221-.284-1.71-.189-.492-.47-.875-.841-1.148-.371-.276-.829-.414-1.375-.414-.568 0-1.041.145-1.42.437-.375.288-.657.68-.847 1.176a4.694 4.694 0 00-.278 1.659c0 .622.094 1.186.284 1.694.193.503.477.905.852 1.204.379.296.849.443 1.409.443zm10.12 1.205c-.841 0-1.567-.186-2.177-.557a3.742 3.742 0 01-1.403-1.568c-.326-.674-.489-1.459-.489-2.352 0-.894.163-1.682.489-2.364.33-.686.788-1.22 1.375-1.602.591-.387 1.28-.58 2.068-.58.455 0 .904.076 1.347.227.443.152.846.398 1.21.739.364.337.653.784.869 1.341.216.557.324 1.242.324 2.057v.568h-6.727v-1.159h5.364c0-.493-.099-.932-.296-1.318a2.223 2.223 0 00-.829-.915c-.357-.224-.777-.335-1.262-.335-.534 0-.996.132-1.386.397a2.617 2.617 0 00-.892 1.023 2.997 2.997 0 00-.313 1.352v.773c0 .659.114 1.218.341 1.676.231.455.551.801.96 1.04.41.235.885.352 1.427.352.352 0 .67-.049.954-.147.288-.103.536-.254.744-.455.209-.205.37-.458.483-.761l1.296.363c-.137.44-.366.826-.688 1.159-.322.33-.719.587-1.193.773a4.42 4.42 0 01-1.596.273zm11.835-6.955l-1.205.341a2.224 2.224 0 00-.335-.585 1.63 1.63 0 00-.591-.477c-.25-.125-.57-.188-.96-.188-.534 0-.979.123-1.335.37-.353.242-.529.551-.529.926 0 .333.121.596.364.789.242.194.621.355 1.136.483l1.296.319c.78.189 1.361.479 1.744.869.383.386.574.884.574 1.494 0 .5-.144.947-.432 1.341-.284.394-.682.705-1.193.932-.511.227-1.106.341-1.784.341-.89 0-1.627-.193-2.21-.58-.584-.386-.953-.95-1.108-1.693l1.272-.318c.122.47.351.822.688 1.057.341.235.786.352 1.335.352.625 0 1.121-.133 1.489-.398.371-.269.557-.591.557-.966 0-.303-.107-.556-.319-.761-.212-.208-.538-.364-.977-.466l-1.454-.341c-.8-.189-1.387-.483-1.762-.88-.371-.402-.557-.904-.557-1.506 0-.493.139-.928.415-1.307a2.82 2.82 0 011.142-.892c.485-.216 1.034-.324 1.648-.324.864 0 1.542.189 2.034.568a3.07 3.07 0 011.057 1.5zm5.723 6.955c-.818 0-1.523-.193-2.114-.58a3.77 3.77 0 01-1.363-1.596c-.319-.678-.478-1.453-.478-2.324 0-.887.163-1.669.489-2.347.329-.682.788-1.214 1.375-1.596.591-.387 1.28-.58 2.068-.58.614 0 1.167.114 1.659.341.493.227.896.545 1.21.955.315.409.51.886.586 1.431h-1.341c-.103-.397-.33-.75-.682-1.056-.349-.311-.818-.466-1.409-.466-.523 0-.981.136-1.375.409-.39.269-.695.649-.915 1.142-.216.488-.324 1.062-.324 1.721 0 .675.106 1.262.318 1.762.216.5.519.888.909 1.164.394.277.856.415 1.387.415.348 0 .665-.06.949-.182.284-.121.524-.295.721-.522.197-.228.337-.5.421-.818h1.341a3.114 3.114 0 01-.563 1.392 3.142 3.142 0 01-1.176.977c-.485.238-1.049.358-1.693.358zm5.392-.182v-8.727h1.295v1.318h.091c.159-.432.447-.782.864-1.051a2.542 2.542 0 011.409-.404c.098 0 .222.002.369.006.148.004.26.01.335.017v1.364a3.351 3.351 0 00-.312-.051 3.026 3.026 0 00-.506-.04c-.424 0-.803.089-1.136.267a1.954 1.954 0 00-1.068 1.778V352h-1.341zm5.953 0v-8.727h1.341V352h-1.341zm.682-10.182a.951.951 0 01-.676-.267.857.857 0 01-.279-.642c0-.25.093-.464.279-.642a.951.951 0 01.676-.267c.261 0 .485.089.67.267.19.178.284.392.284.642s-.094.464-.284.642a.932.932 0 01-.67.267zm3.115 13.455v-12h1.295v1.386h.159c.099-.151.235-.345.409-.579.179-.239.432-.451.762-.637.333-.189.784-.284 1.352-.284.735 0 1.383.184 1.943.551.561.368.998.888 1.313 1.563.314.674.471 1.469.471 2.386 0 .924-.157 1.725-.471 2.403-.315.675-.75 1.197-1.307 1.569-.557.367-1.199.551-1.926.551-.561 0-1.01-.093-1.347-.279-.337-.189-.596-.403-.778-.642a8.677 8.677 0 01-.421-.602h-.113v4.614h-1.341zm1.318-7.637c0 .659.097 1.241.29 1.745.193.5.475.892.846 1.176.372.28.826.42 1.364.42.561 0 1.028-.147 1.403-.443.379-.299.663-.701.853-1.204a4.734 4.734 0 00.289-1.694c0-.613-.094-1.166-.284-1.659-.185-.496-.467-.888-.846-1.176-.375-.292-.847-.437-1.415-.437-.545 0-1.004.138-1.375.414-.371.273-.651.656-.841 1.148-.189.489-.284 1.059-.284 1.71zm12.227-4.363v1.136h-4.522v-1.136h4.522zm-3.204-2.091h1.341v8.318c0 .379.055.663.164.852a.853.853 0 00.432.375c.178.061.366.091.563.091.147 0 .269-.007.363-.023l.228-.045.272 1.205a2.72 2.72 0 01-.38.102c-.163.038-.37.057-.62.057-.378 0-.75-.082-1.113-.245a2.217 2.217 0 01-.898-.744c-.235-.333-.352-.754-.352-1.261v-8.682zM248.016 352v-8.727h1.341V352h-1.341zm.682-10.182a.953.953 0 01-.676-.267.856.856 0 01-.278-.642c0-.25.092-.464.278-.642a.953.953 0 01.676-.267c.262 0 .485.089.671.267a.851.851 0 01.284.642c0 .25-.095.464-.284.642a.935.935 0 01-.671.267zm6.661 10.364c-.788 0-1.48-.188-2.074-.563-.591-.375-1.053-.899-1.387-1.574-.329-.674-.494-1.462-.494-2.363 0-.909.165-1.703.494-2.381.334-.678.796-1.204 1.387-1.579.594-.375 1.286-.563 2.074-.563.788 0 1.477.188 2.068.563.595.375 1.057.901 1.386 1.579.334.678.5 1.472.5 2.381 0 .901-.166 1.689-.5 2.363a3.758 3.758 0 01-1.386 1.574c-.591.375-1.28.563-2.068.563zm0-1.205c.598 0 1.091-.153 1.477-.46a2.72 2.72 0 00.858-1.21c.185-.5.278-1.042.278-1.625 0-.584-.093-1.127-.278-1.631a2.748 2.748 0 00-.858-1.221c-.386-.311-.879-.466-1.477-.466-.599 0-1.091.155-1.478.466-.386.31-.672.717-.858 1.221a4.695 4.695 0 00-.278 1.631c0 .583.093 1.125.278 1.625.186.5.472.903.858 1.21.387.307.879.46 1.478.46zm7.342-4.227V352h-1.341v-8.727h1.296v1.363h.113c.205-.443.515-.799.932-1.068.417-.273.955-.409 1.614-.409.591 0 1.108.121 1.551.364.443.238.788.602 1.034 1.091.246.484.369 1.098.369 1.841V352h-1.341v-5.455c0-.685-.178-1.219-.534-1.602-.356-.386-.845-.579-1.466-.579-.428 0-.81.092-1.147.278a1.985 1.985 0 00-.79.813c-.193.356-.29.787-.29 1.295zm16.178 5.432c-.841 0-1.567-.186-2.177-.557a3.742 3.742 0 01-1.403-1.568c-.326-.674-.489-1.459-.489-2.352 0-.894.163-1.682.489-2.364.33-.686.788-1.22 1.375-1.602.591-.387 1.28-.58 2.068-.58.455 0 .904.076 1.347.227.443.152.846.398 1.21.739.364.337.653.784.869 1.341.216.557.324 1.242.324 2.057v.568h-6.727v-1.159h5.364c0-.493-.099-.932-.296-1.318a2.223 2.223 0 00-.829-.915c-.357-.224-.777-.335-1.262-.335-.534 0-.996.132-1.386.397a2.617 2.617 0 00-.892 1.023 2.997 2.997 0 00-.313 1.352v.773c0 .659.114 1.218.341 1.676.231.455.551.801.96 1.04.41.235.885.352 1.427.352.352 0 .67-.049.954-.147.288-.103.536-.254.744-.455.209-.205.37-.458.483-.761l1.296.363c-.137.44-.366.826-.688 1.159-.322.33-.719.587-1.193.773a4.42 4.42 0 01-1.596.273zm9.448-8.909v1.136h-4.522v-1.136h4.522zm-3.204-2.091h1.341v8.318c0 .379.055.663.165.852a.847.847 0 00.431.375c.178.061.366.091.563.091.148 0 .269-.007.364-.023l.227-.045.273 1.205a2.74 2.74 0 01-.381.102 2.792 2.792 0 01-.619.057 2.7 2.7 0 01-1.114-.245 2.217 2.217 0 01-.898-.744c-.235-.333-.352-.754-.352-1.261v-8.682zm11.062-.818V352h-1.341v-11.636h1.341zm6.115 11.818c-.84 0-1.566-.186-2.176-.557a3.736 3.736 0 01-1.403-1.568c-.326-.674-.489-1.459-.489-2.352 0-.894.163-1.682.489-2.364.329-.686.788-1.22 1.375-1.602.591-.387 1.28-.58 2.068-.58.455 0 .903.076 1.347.227.443.152.846.398 1.21.739.364.337.653.784.869 1.341.216.557.324 1.242.324 2.057v.568h-6.727v-1.159h5.363c0-.493-.098-.932-.295-1.318a2.219 2.219 0 00-.83-.915c-.356-.224-.776-.335-1.261-.335-.534 0-.996.132-1.386.397a2.617 2.617 0 00-.892 1.023 2.997 2.997 0 00-.313 1.352v.773c0 .659.114 1.218.341 1.676.231.455.551.801.96 1.04.409.235.885.352 1.426.352.353 0 .671-.049.955-.147.288-.103.536-.254.744-.455.209-.205.37-.458.483-.761l1.296.363c-.137.44-.366.826-.688 1.159-.322.33-.719.587-1.193.773a4.421 4.421 0 01-1.597.273zm11.495-5.432V352h-1.341v-8.727h1.295v1.363h.114c.204-.443.515-.799.932-1.068.416-.273.954-.409 1.613-.409.591 0 1.108.121 1.552.364.443.238.787.602 1.034 1.091.246.484.369 1.098.369 1.841V352h-1.341v-5.455c0-.685-.178-1.219-.534-1.602-.356-.386-.845-.579-1.466-.579-.428 0-.811.092-1.148.278a1.99 1.99 0 00-.789.813c-.194.356-.29.787-.29 1.295zm11.564 5.432c-.788 0-1.48-.188-2.074-.563-.591-.375-1.053-.899-1.387-1.574-.329-.674-.494-1.462-.494-2.363 0-.909.165-1.703.494-2.381.334-.678.796-1.204 1.387-1.579.594-.375 1.286-.563 2.074-.563.788 0 1.477.188 2.068.563.595.375 1.057.901 1.386 1.579.334.678.5 1.472.5 2.381 0 .901-.166 1.689-.5 2.363a3.758 3.758 0 01-1.386 1.574c-.591.375-1.28.563-2.068.563zm0-1.205c.598 0 1.091-.153 1.477-.46a2.72 2.72 0 00.858-1.21c.185-.5.278-1.042.278-1.625 0-.584-.093-1.127-.278-1.631a2.748 2.748 0 00-.858-1.221c-.386-.311-.879-.466-1.477-.466-.599 0-1.091.155-1.478.466-.386.31-.672.717-.858 1.221a4.695 4.695 0 00-.278 1.631c0 .583.093 1.125.278 1.625.186.5.472.903.858 1.21.387.307.879.46 1.478.46zM331.36 352v-8.727h1.296v1.363h.113c.182-.466.476-.827.881-1.085.405-.261.892-.392 1.46-.392.576 0 1.055.131 1.438.392.386.258.687.619.903 1.085h.091a2.55 2.55 0 011.006-1.074c.447-.268.983-.403 1.608-.403.78 0 1.418.244 1.914.733.497.485.745 1.241.745 2.267V352h-1.341v-5.841c0-.644-.176-1.104-.529-1.381a1.957 1.957 0 00-1.244-.414c-.614 0-1.089.185-1.426.556-.337.368-.506.834-.506 1.398V352h-1.363v-5.977c0-.496-.161-.896-.483-1.199-.322-.307-.737-.46-1.245-.46-.348 0-.674.092-.977.278a2.1 2.1 0 00-.727.773 2.277 2.277 0 00-.273 1.13V352h-1.341zM52.343 371.182c-.727 0-1.37-.184-1.926-.551-.557-.372-.992-.894-1.307-1.569-.314-.678-.471-1.479-.471-2.403 0-.917.157-1.712.471-2.386.315-.675.752-1.195 1.313-1.563.56-.367 1.208-.551 1.943-.551.568 0 1.017.095 1.346.284.334.186.587.398.762.637.178.234.316.428.415.579h.113v-4.295h1.341V371h-1.295v-1.341h-.16c-.098.159-.238.36-.42.602-.182.239-.441.453-.778.642-.337.186-.786.279-1.347.279zm.182-1.205c.538 0 .992-.14 1.364-.42.37-.284.653-.676.846-1.176.193-.504.29-1.086.29-1.745 0-.651-.095-1.221-.284-1.71-.19-.492-.47-.875-.841-1.148-.371-.276-.83-.414-1.375-.414-.568 0-1.042.145-1.42.437-.376.288-.658.68-.847 1.176a4.68 4.68 0 00-.279 1.659c0 .622.095 1.186.285 1.694.193.503.477.905.852 1.204.379.296.848.443 1.409.443zm10.12 1.205c-.842 0-1.567-.186-2.177-.557a3.74 3.74 0 01-1.403-1.568c-.326-.674-.489-1.459-.489-2.352 0-.894.163-1.682.489-2.364.33-.686.788-1.22 1.375-1.602.59-.387 1.28-.58 2.068-.58.454 0 .903.076 1.346.227a3.33 3.33 0 011.21.739c.364.337.654.784.87 1.341.216.557.324 1.242.324 2.057v.568H59.53v-1.159h5.363c0-.493-.098-.932-.295-1.318a2.22 2.22 0 00-.83-.915c-.356-.224-.776-.335-1.261-.335-.534 0-.996.132-1.387.397a2.625 2.625 0 00-.892 1.023 3.006 3.006 0 00-.312 1.352v.773c0 .659.114 1.218.34 1.676.232.455.552.801.961 1.04.41.235.884.352 1.426.352.352 0 .67-.049.955-.147a2.05 2.05 0 00.744-.455c.208-.205.37-.458.483-.761l1.295.363a2.86 2.86 0 01-.687 1.159 3.35 3.35 0 01-1.193.773 4.421 4.421 0 01-1.597.273zm11.834-6.955l-1.204.341a2.226 2.226 0 00-.335-.585 1.628 1.628 0 00-.591-.477c-.25-.125-.57-.188-.96-.188-.535 0-.98.123-1.336.37-.352.242-.528.551-.528.926 0 .333.121.596.363.789.243.194.622.355 1.137.483l1.295.319c.78.189 1.362.479 1.745.869.382.386.573.884.573 1.494 0 .5-.143.947-.431 1.341-.284.394-.682.705-1.194.932-.51.227-1.106.341-1.784.341-.89 0-1.626-.193-2.21-.58-.583-.386-.953-.95-1.108-1.693l1.273-.318c.121.47.35.822.687 1.057.341.235.786.352 1.336.352.625 0 1.12-.133 1.488-.398.372-.269.557-.591.557-.966 0-.303-.106-.556-.318-.761-.212-.208-.538-.364-.977-.466l-1.455-.341c-.8-.189-1.386-.483-1.761-.88-.371-.402-.557-.904-.557-1.506 0-.493.138-.928.415-1.307.28-.379.66-.676 1.142-.892.485-.216 1.034-.324 1.647-.324.864 0 1.542.189 2.035.568.496.379.848.879 1.056 1.5zm10.2 10.228c-.647 0-1.204-.084-1.67-.25a3.546 3.546 0 01-1.165-.648 3.538 3.538 0 01-.732-.852l1.068-.75c.12.159.274.34.46.545.186.208.44.388.761.54.326.155.752.233 1.279.233.704 0 1.286-.171 1.744-.512.458-.341.688-.875.688-1.602v-1.773h-.114a7.273 7.273 0 01-.42.591c-.179.231-.436.438-.773.62-.334.178-.784.267-1.353.267a3.645 3.645 0 01-1.897-.5c-.557-.334-.998-.819-1.324-1.455-.322-.636-.483-1.409-.483-2.318 0-.894.157-1.672.471-2.335.315-.667.752-1.182 1.313-1.546.56-.367 1.208-.551 1.943-.551.568 0 1.02.095 1.352.284.338.186.595.398.773.637.182.234.322.428.42.579h.137v-1.386h1.295v8.977c0 .75-.17 1.36-.51 1.83a2.91 2.91 0 01-1.365 1.039 5.13 5.13 0 01-1.897.336zm-.045-4.796c.538 0 .993-.123 1.364-.369.371-.246.653-.601.846-1.063.194-.462.29-1.015.29-1.659 0-.629-.094-1.184-.284-1.665-.19-.481-.47-.858-.84-1.13-.372-.273-.83-.409-1.376-.409-.568 0-1.041.144-1.42.431a2.632 2.632 0 00-.847 1.16 4.474 4.474 0 00-.278 1.613c0 .606.094 1.142.284 1.608.193.462.477.826.852 1.091.379.261.849.392 1.41.392zm9.932 1.523c-.84 0-1.566-.186-2.176-.557a3.74 3.74 0 01-1.403-1.568c-.326-.674-.49-1.459-.49-2.352 0-.894.164-1.682.49-2.364.33-.686.787-1.22 1.375-1.602.59-.387 1.28-.58 2.068-.58.454 0 .903.076 1.346.227a3.33 3.33 0 011.21.739c.364.337.654.784.87 1.341.216.557.324 1.242.324 2.057v.568h-6.728v-1.159h5.364c0-.493-.098-.932-.295-1.318a2.22 2.22 0 00-.83-.915c-.356-.224-.776-.335-1.261-.335-.534 0-.997.132-1.387.397a2.625 2.625 0 00-.892 1.023 3.004 3.004 0 00-.312 1.352v.773c0 .659.113 1.218.34 1.676.232.455.552.801.96 1.04.41.235.885.352 1.427.352.352 0 .67-.049.955-.147a2.05 2.05 0 00.744-.455c.208-.205.37-.458.483-.761l1.295.363a2.86 2.86 0 01-.687 1.159 3.35 3.35 0 01-1.193.773 4.42 4.42 0 01-1.597.273zm6.994-5.432V371h-1.341v-8.727h1.296v1.363h.114c.204-.443.515-.799.931-1.068.417-.273.955-.409 1.614-.409.591 0 1.108.121 1.551.364.443.238.788.602 1.034 1.091.246.484.37 1.098.37 1.841V371h-1.341v-5.455c0-.685-.178-1.219-.534-1.602-.357-.386-.845-.579-1.466-.579-.428 0-.811.092-1.148.278a1.992 1.992 0 00-.79.813c-.193.356-.29.787-.29 1.295zm14.201-1.523l-1.205.341a2.224 2.224 0 00-.335-.585 1.63 1.63 0 00-.591-.477c-.25-.125-.57-.188-.96-.188-.534 0-.979.123-1.335.37-.353.242-.529.551-.529.926 0 .333.121.596.364.789.242.194.621.355 1.136.483l1.296.319c.78.189 1.361.479 1.744.869.382.386.574.884.574 1.494 0 .5-.144.947-.432 1.341-.284.394-.682.705-1.193.932-.512.227-1.106.341-1.784.341-.89 0-1.627-.193-2.211-.58-.583-.386-.952-.95-1.108-1.693l1.273-.318c.121.47.351.822.688 1.057.341.235.786.352 1.335.352.625 0 1.121-.133 1.489-.398.371-.269.556-.591.556-.966 0-.303-.106-.556-.318-.761-.212-.208-.538-.364-.977-.466l-1.455-.341c-.799-.189-1.386-.483-1.761-.88-.371-.402-.557-.904-.557-1.506 0-.493.138-.928.415-1.307a2.82 2.82 0 011.142-.892c.485-.216 1.034-.324 1.648-.324.863 0 1.541.189 2.034.568a3.07 3.07 0 011.057 1.5zm12.632 10.046v-4.614h-.114a8.61 8.61 0 01-.42.602c-.182.239-.442.453-.779.642-.337.186-.786.279-1.346.279-.728 0-1.37-.184-1.926-.551-.557-.372-.993-.894-1.307-1.569-.315-.678-.472-1.479-.472-2.403 0-.917.157-1.712.472-2.386.314-.675.752-1.195 1.312-1.563.561-.367 1.209-.551 1.943-.551.569 0 1.017.095 1.347.284.333.186.587.398.761.637.178.234.317.428.415.579h.159v-1.386h1.296v12h-1.341zm-2.478-4.296c.538 0 .993-.14 1.364-.42.371-.284.654-.676.847-1.176.193-.504.289-1.086.289-1.745 0-.651-.094-1.221-.284-1.71-.189-.492-.469-.875-.841-1.148-.371-.276-.829-.414-1.375-.414-.568 0-1.041.145-1.42.437-.375.288-.657.68-.847 1.176a4.694 4.694 0 00-.278 1.659c0 .622.095 1.186.284 1.694.193.503.477.905.852 1.204.379.296.849.443 1.409.443zm11.773-2.545v-5.159h1.341V371h-1.341v-1.477h-.091c-.204.443-.522.82-.954 1.13-.432.307-.978.461-1.637.461a2.92 2.92 0 01-1.454-.358c-.424-.243-.758-.606-1-1.091-.243-.489-.364-1.104-.364-1.847v-5.545h1.341v5.454c0 .637.178 1.144.534 1.523.36.379.818.568 1.375.568.334 0 .673-.085 1.017-.256.349-.17.64-.431.875-.784.239-.352.358-.801.358-1.346zm3.797 3.568v-8.727h1.341V371h-1.341zm.682-10.182a.953.953 0 01-.676-.267.857.857 0 01-.279-.642c0-.25.093-.464.279-.642a.953.953 0 01.676-.267c.261 0 .485.089.67.267.19.178.284.392.284.642s-.094.464-.284.642a.932.932 0 01-.67.267zm11.41 1.455v1.136h-4.522v-1.136h4.522zm-3.204-2.091h1.341v8.318c0 .379.055.663.165.852a.847.847 0 00.431.375c.178.061.366.091.563.091.148 0 .269-.007.364-.023l.227-.045.273 1.205a2.74 2.74 0 01-.381.102 2.792 2.792 0 01-.619.057 2.7 2.7 0 01-1.114-.245 2.217 2.217 0 01-.898-.744c-.235-.333-.352-.754-.352-1.261v-8.682zM155.594 371v-8.727h1.296v1.318h.091c.159-.432.447-.782.863-1.051a2.545 2.545 0 011.41-.404c.098 0 .221.002.369.006a5.5 5.5 0 01.335.017v1.364a3.416 3.416 0 00-.312-.051 3.026 3.026 0 00-.506-.04c-.424 0-.803.089-1.136.267-.33.174-.591.417-.785.727a1.963 1.963 0 00-.284 1.051V371h-1.341zm8.522.205a3.554 3.554 0 01-1.506-.313 2.58 2.58 0 01-1.074-.915c-.265-.401-.398-.886-.398-1.454 0-.5.099-.906.296-1.216.197-.315.46-.561.79-.739.329-.178.693-.31 1.091-.398.401-.09.805-.162 1.21-.215.53-.069.96-.12 1.29-.154.333-.038.575-.1.727-.187.155-.087.233-.239.233-.455v-.045c0-.561-.154-.997-.46-1.307-.303-.311-.764-.466-1.381-.466-.64 0-1.142.14-1.506.42-.363.281-.619.58-.767.898l-1.273-.454c.228-.531.531-.944.91-1.239a3.398 3.398 0 011.25-.625 5.192 5.192 0 011.34-.182c.281 0 .603.034.966.102.368.065.722.199 1.063.404.345.204.631.513.858.926.227.413.341.966.341 1.659V371h-1.341v-1.182h-.068a2.36 2.36 0 01-.455.608c-.212.216-.494.4-.846.551-.353.152-.783.228-1.29.228zm.204-1.205c.531 0 .978-.104 1.341-.312.368-.209.644-.478.83-.807.189-.33.284-.676.284-1.04v-1.227c-.057.068-.182.13-.375.187-.19.053-.409.101-.659.142-.246.038-.487.072-.722.102-.231.027-.418.05-.562.069a5.107 5.107 0 00-.978.221 1.69 1.69 0 00-.727.449c-.182.197-.273.466-.273.807 0 .466.173.818.517 1.057.349.235.79.352 1.324.352zm13.067-7.727L174.16 371h-1.364l-3.227-8.727h1.454l2.41 6.954h.09l2.41-6.954h1.454zm4.073 8.932a3.55 3.55 0 01-1.506-.313 2.58 2.58 0 01-1.074-.915c-.265-.401-.398-.886-.398-1.454 0-.5.099-.906.296-1.216.197-.315.46-.561.789-.739a4.2 4.2 0 011.091-.398c.402-.09.805-.162 1.211-.215.53-.069.96-.12 1.289-.154.334-.038.576-.1.728-.187.155-.087.233-.239.233-.455v-.045c0-.561-.154-.997-.461-1.307-.303-.311-.763-.466-1.38-.466-.64 0-1.142.14-1.506.42-.364.281-.619.58-.767.898l-1.273-.454c.228-.531.531-.944.909-1.239.383-.299.8-.508 1.25-.625a5.205 5.205 0 011.341-.182c.281 0 .603.034.966.102.368.065.722.199 1.063.404.344.204.63.513.858.926.227.413.341.966.341 1.659V371h-1.341v-1.182h-.069a2.33 2.33 0 01-.454.608c-.212.216-.494.4-.847.551-.352.152-.782.228-1.289.228zm.204-1.205c.53 0 .977-.104 1.341-.312.367-.209.644-.478.83-.807.189-.33.284-.676.284-1.04v-1.227c-.057.068-.182.13-.375.187-.19.053-.409.101-.659.142-.247.038-.487.072-.722.102-.231.027-.419.05-.563.069a5.114 5.114 0 00-.977.221 1.684 1.684 0 00-.727.449c-.182.197-.273.466-.273.807 0 .466.173.818.517 1.057.349.235.79.352 1.324.352zm6.243 1v-8.727h1.341V371h-1.341zm.682-10.182a.951.951 0 01-.676-.267.857.857 0 01-.279-.642c0-.25.093-.464.279-.642a.951.951 0 01.676-.267c.261 0 .485.089.67.267.19.178.284.392.284.642s-.094.464-.284.642a.932.932 0 01-.67.267zm4.456-1.454V371h-1.341v-11.636h1.341zm3.797 0V371h-1.341v-11.636h1.341zm6.115 11.818c-.841 0-1.567-.186-2.176-.557a3.738 3.738 0 01-1.404-1.568c-.326-.674-.489-1.459-.489-2.352 0-.894.163-1.682.489-2.364.33-.686.788-1.22 1.375-1.602.591-.387 1.28-.58 2.068-.58.455 0 .904.076 1.347.227.443.152.846.398 1.21.739.364.337.654.784.869 1.341.216.557.324 1.242.324 2.057v.568h-6.727v-1.159h5.364c0-.493-.099-.932-.296-1.318a2.217 2.217 0 00-.829-.915c-.356-.224-.777-.335-1.262-.335-.534 0-.996.132-1.386.397a2.625 2.625 0 00-.892 1.023 3.01 3.01 0 00-.313 1.352v.773c0 .659.114 1.218.341 1.676.231.455.551.801.961 1.04.409.235.884.352 1.426.352.352 0 .67-.049.954-.147.288-.103.536-.254.745-.455.208-.205.369-.458.482-.761l1.296.363c-.136.44-.366.826-.688 1.159-.322.33-.719.587-1.193.773a4.416 4.416 0 01-1.596.273zm6.994-5.432V371h-1.341v-8.727h1.296v1.363h.113c.205-.443.515-.799.932-1.068.417-.273.955-.409 1.614-.409.591 0 1.108.121 1.551.364.443.238.788.602 1.034 1.091.246.484.369 1.098.369 1.841V371h-1.341v-5.455c0-.685-.178-1.219-.534-1.602-.356-.386-.845-.579-1.466-.579-.428 0-.81.092-1.147.278a1.985 1.985 0 00-.79.813c-.193.356-.29.787-.29 1.295zm11.814-3.477v1.136h-4.523v-1.136h4.523zm-3.205-2.091h1.341v8.318c0 .379.055.663.165.852a.853.853 0 00.432.375c.178.061.365.091.562.091.148 0 .269-.007.364-.023l.227-.045.273 1.205a2.74 2.74 0 01-.381.102 2.792 2.792 0 01-.619.057 2.7 2.7 0 01-1.114-.245 2.214 2.214 0 01-.897-.744c-.235-.333-.353-.754-.353-1.261v-8.682zm15.904 4.045l-1.205.341a2.224 2.224 0 00-.335-.585 1.63 1.63 0 00-.591-.477c-.25-.125-.57-.188-.96-.188-.534 0-.979.123-1.335.37-.353.242-.529.551-.529.926 0 .333.121.596.364.789.242.194.621.355 1.136.483l1.296.319c.78.189 1.361.479 1.744.869.383.386.574.884.574 1.494 0 .5-.144.947-.432 1.341-.284.394-.682.705-1.193.932-.511.227-1.106.341-1.784.341-.89 0-1.627-.193-2.21-.58-.584-.386-.953-.95-1.108-1.693l1.272-.318c.122.47.351.822.688 1.057.341.235.786.352 1.335.352.625 0 1.121-.133 1.489-.398.371-.269.557-.591.557-.966 0-.303-.107-.556-.319-.761-.212-.208-.538-.364-.977-.466l-1.454-.341c-.8-.189-1.387-.483-1.762-.88-.371-.402-.557-.904-.557-1.506 0-.493.139-.928.415-1.307a2.82 2.82 0 011.142-.892c.485-.216 1.034-.324 1.648-.324.864 0 1.542.189 2.034.568a3.07 3.07 0 011.057 1.5zm7.677 3.205v-5.159h1.341V371h-1.341v-1.477h-.091c-.204.443-.522.82-.954 1.13-.432.307-.977.461-1.636.461-.546 0-1.031-.12-1.455-.358-.424-.243-.758-.606-1-1.091-.242-.489-.364-1.104-.364-1.847v-5.545h1.341v5.454c0 .637.178 1.144.534 1.523.36.379.819.568 1.375.568.334 0 .673-.085 1.017-.256.349-.17.641-.431.875-.784.239-.352.358-.801.358-1.346zm3.797 3.568v-8.727h1.296v1.318h.091c.159-.432.447-.782.863-1.051a2.544 2.544 0 011.409-.404c.099 0 .222.002.37.006.147.004.259.01.335.017v1.364a3.462 3.462 0 00-.313-.051 3.014 3.014 0 00-.505-.04c-.425 0-.803.089-1.137.267a2.019 2.019 0 00-.784.727 1.963 1.963 0 00-.284 1.051V371h-1.341zm13.999.182c-.818 0-1.523-.193-2.114-.58a3.77 3.77 0 01-1.363-1.596c-.319-.678-.478-1.453-.478-2.324 0-.887.163-1.669.489-2.347.329-.682.788-1.214 1.375-1.596.591-.387 1.28-.58 2.068-.58.614 0 1.167.114 1.659.341.493.227.896.545 1.21.955.315.409.51.886.586 1.431h-1.341c-.103-.397-.33-.75-.682-1.056-.349-.311-.818-.466-1.409-.466-.523 0-.981.136-1.375.409-.39.269-.695.649-.915 1.142-.216.488-.324 1.062-.324 1.721 0 .675.106 1.262.318 1.762.216.5.519.888.909 1.164.394.277.856.415 1.387.415.348 0 .665-.06.949-.182.284-.121.524-.295.721-.522.197-.228.337-.5.421-.818h1.341a3.114 3.114 0 01-.563 1.392 3.142 3.142 0 01-1.176.977c-.485.238-1.049.358-1.693.358zm9.051 0c-.841 0-1.566-.186-2.176-.557a3.744 3.744 0 01-1.404-1.568c-.325-.674-.488-1.459-.488-2.352 0-.894.163-1.682.488-2.364.33-.686.788-1.22 1.375-1.602.591-.387 1.281-.58 2.069-.58.454 0 .903.076 1.346.227.443.152.847.398 1.21.739.364.337.654.784.87 1.341.216.557.324 1.242.324 2.057v.568h-6.728v-1.159h5.364c0-.493-.099-.932-.296-1.318a2.217 2.217 0 00-.829-.915c-.356-.224-.777-.335-1.261-.335-.535 0-.997.132-1.387.397a2.625 2.625 0 00-.892 1.023 3.01 3.01 0 00-.312 1.352v.773c0 .659.113 1.218.341 1.676.231.455.551.801.96 1.04.409.235.884.352 1.426.352.352 0 .67-.049.954-.147.288-.103.536-.254.745-.455.208-.205.369-.458.483-.761l1.295.363a2.86 2.86 0 01-.687 1.159c-.322.33-.72.587-1.193.773a4.425 4.425 0 01-1.597.273zm10.153 3.091v-12h1.296v1.386h.159c.098-.151.235-.345.409-.579.178-.239.432-.451.761-.637.334-.189.784-.284 1.353-.284.734 0 1.382.184 1.943.551.56.368.998.888 1.312 1.563.315.674.472 1.469.472 2.386 0 .924-.157 1.725-.472 2.403-.314.675-.75 1.197-1.307 1.569-.556.367-1.198.551-1.926.551-.56 0-1.009-.093-1.346-.279-.337-.189-.597-.403-.779-.642a8.61 8.61 0 01-.42-.602h-.114v4.614h-1.341zm1.319-7.637c0 .659.096 1.241.289 1.745.193.5.476.892.847 1.176.371.28.826.42 1.364.42.56 0 1.028-.147 1.403-.443.379-.299.663-.701.852-1.204.193-.508.29-1.072.29-1.694 0-.613-.095-1.166-.284-1.659-.186-.496-.468-.888-.847-1.176-.375-.292-.846-.437-1.414-.437-.546 0-1.004.138-1.375.414-.372.273-.652.656-.841 1.148-.19.489-.284 1.059-.284 1.71zm8.431 4.364v-8.727h1.296v1.318h.091c.159-.432.447-.782.863-1.051a2.544 2.544 0 011.409-.404c.099 0 .222.002.37.006.147.004.259.01.335.017v1.364a3.396 3.396 0 00-.313-.051 3.014 3.014 0 00-.505-.04 2.38 2.38 0 00-1.137.267c-.329.174-.59.417-.784.727a1.963 1.963 0 00-.284 1.051V371h-1.341zm9.233.182c-.788 0-1.479-.188-2.074-.563-.59-.375-1.053-.899-1.386-1.574-.329-.674-.494-1.462-.494-2.363 0-.909.165-1.703.494-2.381.333-.678.796-1.204 1.386-1.579.595-.375 1.286-.563 2.074-.563.788 0 1.478.188 2.068.563.595.375 1.057.901 1.387 1.579.333.678.5 1.472.5 2.381 0 .901-.167 1.689-.5 2.363-.33.675-.792 1.199-1.387 1.574-.59.375-1.28.563-2.068.563zm0-1.205c.599 0 1.091-.153 1.478-.46a2.72 2.72 0 00.858-1.21c.185-.5.278-1.042.278-1.625 0-.584-.093-1.127-.278-1.631a2.748 2.748 0 00-.858-1.221c-.387-.311-.879-.466-1.478-.466-.598 0-1.091.155-1.477.466-.386.31-.672.717-.858 1.221a4.671 4.671 0 00-.278 1.631c0 .583.092 1.125.278 1.625.186.5.472.903.858 1.21.386.307.879.46 1.477.46zm6.002-7.704h1.341v9.363c0 .538-.093 1.004-.279 1.398a2.006 2.006 0 01-.829.915c-.368.216-.832.324-1.392.324h-.273v-1.25h.25c.409 0 .708-.121.898-.364.189-.239.284-.579.284-1.023v-9.363zm.659-1.455a.951.951 0 01-.676-.267.857.857 0 01-.279-.642c0-.25.093-.464.279-.642a.951.951 0 01.676-.267c.261 0 .485.089.67.267.19.178.284.392.284.642s-.094.464-.284.642a.932.932 0 01-.67.267zm6.797 10.364c-.841 0-1.567-.186-2.176-.557a3.738 3.738 0 01-1.404-1.568c-.326-.674-.489-1.459-.489-2.352 0-.894.163-1.682.489-2.364.33-.686.788-1.22 1.375-1.602.591-.387 1.28-.58 2.068-.58.455 0 .904.076 1.347.227.443.152.846.398 1.21.739.364.337.654.784.869 1.341.216.557.324 1.242.324 2.057v.568h-6.727v-1.159h5.364c0-.493-.099-.932-.296-1.318a2.217 2.217 0 00-.829-.915c-.356-.224-.777-.335-1.262-.335-.534 0-.996.132-1.386.397a2.625 2.625 0 00-.892 1.023 3.01 3.01 0 00-.313 1.352v.773c0 .659.114 1.218.341 1.676.231.455.551.801.961 1.04.409.235.884.352 1.426.352.352 0 .67-.049.954-.147.288-.103.536-.254.745-.455.208-.205.369-.458.482-.761l1.296.363c-.136.44-.366.826-.688 1.159-.322.33-.719.587-1.193.773a4.416 4.416 0 01-1.596.273zm9.449-8.909v1.136h-4.523v-1.136h4.523zm-3.205-2.091h1.341v8.318c0 .379.055.663.165.852a.847.847 0 00.431.375c.179.061.366.091.563.091.148 0 .269-.007.364-.023l.227-.045.273 1.205a2.74 2.74 0 01-.381.102 2.792 2.792 0 01-.619.057 2.7 2.7 0 01-1.114-.245 2.217 2.217 0 01-.898-.744c-.235-.333-.352-.754-.352-1.261v-8.682zm13.267 11c-.788 0-1.479-.188-2.074-.563-.591-.375-1.053-.899-1.386-1.574-.33-.674-.495-1.462-.495-2.363 0-.909.165-1.703.495-2.381.333-.678.795-1.204 1.386-1.579.595-.375 1.286-.563 2.074-.563.788 0 1.477.188 2.068.563.595.375 1.057.901 1.387 1.579.333.678.5 1.472.5 2.381 0 .901-.167 1.689-.5 2.363-.33.675-.792 1.199-1.387 1.574-.591.375-1.28.563-2.068.563zm0-1.205c.599 0 1.091-.153 1.477-.46.387-.307.673-.71.858-1.21.186-.5.279-1.042.279-1.625 0-.584-.093-1.127-.279-1.631a2.732 2.732 0 00-.858-1.221c-.386-.311-.878-.466-1.477-.466-.598 0-1.091.155-1.477.466-.387.31-.673.717-.858 1.221a4.672 4.672 0 00-.279 1.631c0 .583.093 1.125.279 1.625.185.5.471.903.858 1.21.386.307.879.46 1.477.46zm9.661 1.205c-.841 0-1.567-.186-2.177-.557a3.742 3.742 0 01-1.403-1.568c-.326-.674-.489-1.459-.489-2.352 0-.894.163-1.682.489-2.364.33-.686.788-1.22 1.375-1.602.591-.387 1.28-.58 2.068-.58.455 0 .904.076 1.347.227.443.152.846.398 1.21.739.364.337.653.784.869 1.341.216.557.324 1.242.324 2.057v.568h-6.727v-1.159h5.364c0-.493-.099-.932-.296-1.318a2.223 2.223 0 00-.829-.915c-.357-.224-.777-.335-1.262-.335-.534 0-.996.132-1.386.397a2.617 2.617 0 00-.892 1.023 2.997 2.997 0 00-.313 1.352v.773c0 .659.114 1.218.341 1.676.231.455.551.801.96 1.04.41.235.885.352 1.427.352.352 0 .67-.049.954-.147.288-.103.536-.254.744-.455.209-.205.37-.458.483-.761l1.296.363c-.137.44-.366.826-.688 1.159-.322.33-.719.587-1.193.773a4.42 4.42 0 01-1.596.273zm-.819-10.091l1.387-2.636h1.568l-1.773 2.636h-1.182z" fill="#000"/><path d="M144.204 701v-19.636h4.487v3.272h.205c.358-1.133.971-2.007 1.841-2.62.878-.623 1.879-.934 3.004-.934.256 0 .541.013.856.039.324.017.593.047.806.089v4.257c-.196-.068-.507-.128-.933-.179a8.696 8.696 0 00-1.215-.089c-.844 0-1.602.183-2.275.55a4.026 4.026 0 00-1.573 1.495c-.383.64-.575 1.377-.575 2.212V701h-4.628zm22.158.384c-1.969 0-3.669-.41-5.101-1.228-1.423-.826-2.518-1.994-3.285-3.503-.767-1.517-1.151-3.302-1.151-5.356 0-2.02.384-3.793 1.151-5.318.775-1.534 1.858-2.728 3.247-3.58 1.389-.861 3.021-1.291 4.896-1.291 1.21 0 2.352.196 3.426.588a7.745 7.745 0 012.864 1.79c.835.809 1.491 1.841 1.969 3.094.477 1.244.716 2.727.716 4.448v1.419h-16.096v-3.119h11.659c-.008-.886-.2-1.675-.575-2.365a4.179 4.179 0 00-1.572-1.649c-.665-.401-1.441-.601-2.327-.601-.946 0-1.777.23-2.493.69a4.766 4.766 0 00-1.675 1.79 5.146 5.146 0 00-.6 2.416v2.723c0 1.142.208 2.123.626 2.941.418.809 1.001 1.432 1.751 1.866.75.426 1.628.639 2.634.639.673 0 1.283-.093 1.828-.281a4.045 4.045 0 001.419-.856 3.57 3.57 0 00.908-1.394l4.321.486a6.737 6.737 0 01-1.56 2.991c-.758.844-1.73 1.5-2.915 1.969-1.184.46-2.539.691-4.065.691zm22.452-20.02v3.579h-11.288v-3.579h11.288zm-8.501-4.705h4.628v18.435c0 .622.093 1.099.281 1.432.196.323.451.545.767.664.315.12.665.179 1.048.179.29 0 .554-.021.793-.064.247-.042.434-.081.562-.115l.78 3.618a10.33 10.33 0 01-1.061.281c-.452.103-1.006.162-1.662.179-1.159.035-2.203-.14-3.132-.524a4.876 4.876 0 01-2.212-1.815c-.537-.818-.801-1.841-.792-3.068v-19.202zm20.726 24.725c-1.918 0-3.58-.422-4.986-1.266-1.406-.844-2.497-2.024-3.273-3.541-.767-1.517-1.15-3.29-1.15-5.318 0-2.029.383-3.806 1.15-5.331.776-1.526 1.867-2.711 3.273-3.554 1.406-.844 3.068-1.266 4.986-1.266 1.917 0 3.579.422 4.986 1.266 1.406.843 2.493 2.028 3.26 3.554.775 1.525 1.163 3.302 1.163 5.331 0 2.028-.388 3.801-1.163 5.318-.767 1.517-1.854 2.697-3.26 3.541-1.407.844-3.069 1.266-4.986 1.266zm.025-3.708c1.04 0 1.91-.285 2.608-.856.699-.58 1.219-1.356 1.56-2.327.349-.972.524-2.054.524-3.247 0-1.202-.175-2.289-.524-3.26-.341-.98-.861-1.76-1.56-2.34-.698-.579-1.568-.869-2.608-.869-1.065 0-1.951.29-2.659.869-.699.58-1.223 1.36-1.572 2.34-.341.971-.511 2.058-.511 3.26 0 1.193.17 2.275.511 3.247.349.971.873 1.747 1.572 2.327.708.571 1.594.856 2.659.856zm25.828-4.935v-11.377h4.627V701h-4.487v-3.49h-.204c-.444 1.099-1.172 1.999-2.186 2.697-1.006.699-2.246 1.049-3.721 1.049-1.287 0-2.424-.286-3.413-.857-.98-.579-1.747-1.419-2.301-2.518-.554-1.108-.831-2.446-.831-4.015v-12.502h4.628v11.787c0 1.244.341 2.233 1.022 2.965.682.733 1.577 1.1 2.685 1.1a4.24 4.24 0 001.982-.499c.639-.332 1.163-.826 1.572-1.483.418-.664.627-1.495.627-2.493zm9.386 8.259v-19.636h4.487v3.272h.205c.358-1.133.972-2.007 1.841-2.62.878-.623 1.879-.934 3.004-.934.256 0 .541.013.857.039.324.017.592.047.805.089v4.257c-.196-.068-.507-.128-.933-.179a8.696 8.696 0 00-1.215-.089c-.843 0-1.602.183-2.275.55a4.026 4.026 0 00-1.573 1.495c-.383.64-.575 1.377-.575 2.212V701h-4.628z" fill="#4F0063"/><path d="M94.85 172H84.095v-29.091h10.739c2.964 0 5.516.582 7.656 1.747 2.15 1.156 3.807 2.822 4.972 5 1.164 2.169 1.747 4.764 1.747 7.784 0 3.031-.583 5.635-1.747 7.813-1.156 2.178-2.808 3.849-4.958 5.014-2.149 1.155-4.701 1.733-7.656 1.733zm-3.722-5.994h3.451c1.629 0 3.007-.275 4.134-.824 1.136-.559 1.993-1.463 2.571-2.713.587-1.26.88-2.936.88-5.029 0-2.092-.293-3.759-.88-5-.587-1.25-1.454-2.149-2.6-2.699-1.136-.558-2.538-.838-4.204-.838h-3.353v17.103zm32.372 6.406c-2.292 0-4.262-.469-5.909-1.406a9.702 9.702 0 01-3.793-3.949c-.881-1.695-1.321-3.66-1.321-5.895 0-2.244.44-4.209 1.321-5.895.89-1.695 2.154-3.011 3.793-3.949 1.647-.947 3.617-1.42 5.909-1.42 2.291 0 4.256.473 5.895 1.42a9.48 9.48 0 013.792 3.949c.89 1.686 1.335 3.651 1.335 5.895 0 2.235-.445 4.2-1.335 5.895a9.593 9.593 0 01-3.792 3.949c-1.639.937-3.604 1.406-5.895 1.406zm.042-5.242c.834 0 1.539-.255 2.117-.767.577-.511 1.018-1.221 1.321-2.13.312-.909.469-1.961.469-3.154 0-1.212-.157-2.272-.469-3.181-.303-.91-.744-1.62-1.321-2.131-.578-.512-1.283-.767-2.117-.767-.861 0-1.591.255-2.187.767-.587.511-1.037 1.221-1.35 2.131-.303.909-.454 1.969-.454 3.181 0 1.193.151 2.245.454 3.154.313.909.763 1.619 1.35 2.13.596.512 1.326.767 2.187.767zm21.485-24.261V172h-6.946v-29.091h6.946zM149.448 172v-21.818h6.946V172h-6.946zm3.48-24.361c-.975 0-1.814-.322-2.514-.966-.701-.653-1.051-1.439-1.051-2.358 0-.909.35-1.685 1.051-2.329.7-.654 1.539-.98 2.514-.98.985 0 1.823.326 2.514.98.701.644 1.051 1.42 1.051 2.329 0 .919-.35 1.705-1.051 2.358-.691.644-1.529.966-2.514.966zM160.815 172v-29.091h6.946v11.009h.142A7.652 7.652 0 01169.11 152c.531-.616 1.203-1.117 2.017-1.506.824-.397 1.809-.596 2.955-.596 1.515 0 2.931.397 4.247 1.193 1.326.795 2.396 2.022 3.21 3.679.815 1.657 1.222 3.769 1.222 6.335 0 2.472-.393 4.541-1.179 6.207-.776 1.667-1.828 2.917-3.153 3.75-1.317.834-2.78 1.25-4.39 1.25-1.098 0-2.05-.179-2.855-.539a6.214 6.214 0 01-2.031-1.421 6.83 6.83 0 01-1.25-1.889h-.213V172h-6.875zm6.804-10.909c0 1.174.156 2.197.469 3.068.322.871.781 1.548 1.378 2.031.606.474 1.33.711 2.173.711.852 0 1.577-.237 2.173-.711.597-.483 1.047-1.16 1.35-2.031.312-.871.468-1.894.468-3.068 0-1.174-.156-2.192-.468-3.054-.303-.862-.753-1.529-1.35-2.003-.587-.473-1.311-.71-2.173-.71-.852 0-1.577.232-2.173.696-.597.464-1.056 1.127-1.378 1.989-.313.861-.469 1.889-.469 3.082zm24.932 11.278c-1.392 0-2.627-.232-3.707-.696a5.772 5.772 0 01-2.543-2.13c-.615-.957-.923-2.155-.923-3.594 0-1.212.213-2.235.639-3.068a5.47 5.47 0 011.762-2.032c.748-.52 1.61-.913 2.585-1.179a16.86 16.86 0 013.125-.554 44.775 44.775 0 002.997-.355c.758-.132 1.307-.317 1.648-.554.35-.246.525-.591.525-1.037v-.071c0-.729-.251-1.292-.752-1.69-.502-.398-1.179-.597-2.032-.597-.918 0-1.657.199-2.216.597-.558.398-.913.947-1.065 1.648l-6.406-.227a7.575 7.575 0 011.463-3.552c.795-1.051 1.884-1.875 3.267-2.471 1.392-.606 3.063-.909 5.014-.909 1.392 0 2.675.165 3.85.497 1.174.322 2.197.795 3.068 1.42a6.431 6.431 0 012.017 2.273c.483.9.724 1.927.724 3.082V172h-6.534v-3.04h-.17a6.196 6.196 0 01-1.492 1.875 5.937 5.937 0 01-2.116 1.151c-.805.255-1.714.383-2.728.383zm2.145-4.545c.748 0 1.421-.152 2.017-.455a3.724 3.724 0 001.449-1.25c.36-.539.54-1.164.54-1.875v-2.074c-.199.105-.44.199-.724.285-.275.085-.578.165-.909.241-.332.076-.673.142-1.023.199-.351.057-.687.109-1.009.156-.653.104-1.212.265-1.676.483-.454.218-.805.502-1.051.852-.237.341-.355.748-.355 1.222 0 .72.256 1.269.767 1.648.521.378 1.179.568 1.974.568zM209.838 172v-21.818h6.748v3.977h.227c.398-1.439 1.046-2.509 1.946-3.21.899-.71 1.946-1.065 3.139-1.065.322 0 .653.023.994.071.341.037.659.099.952.184v6.037c-.331-.114-.767-.203-1.307-.27a11.628 11.628 0 00-1.42-.099c-.824 0-1.567.184-2.23.554-.654.36-1.17.866-1.549 1.52-.369.644-.554 1.401-.554 2.272V172h-6.946zm16.836 0v-21.818h6.748v3.977h.227c.398-1.439 1.046-2.509 1.946-3.21.899-.71 1.946-1.065 3.139-1.065.322 0 .653.023.994.071.341.037.658.099.952.184v6.037c-.331-.114-.767-.203-1.307-.27a11.628 11.628 0 00-1.42-.099c-.824 0-1.567.184-2.23.554-.654.36-1.17.866-1.549 1.52-.369.644-.554 1.401-.554 2.272V172h-6.946zm21.527 0h-7.556l9.815-29.091h9.361L269.636 172h-7.557l-6.832-21.761h-.227L248.201 172zm-1.008-11.449h15.795v5.341h-15.795v-5.341zM272.768 172v-29.091h12.017c2.178 0 4.058.426 5.639 1.279 1.591.842 2.818 2.021 3.679 3.536.862 1.506 1.293 3.258 1.293 5.256 0 2.008-.44 3.764-1.321 5.27-.871 1.496-2.117 2.656-3.736 3.48-1.619.824-3.542 1.236-5.767 1.236h-7.415v-5.54h6.108c1.061 0 1.946-.185 2.657-.554.719-.369 1.264-.885 1.633-1.548.369-.672.554-1.454.554-2.344 0-.9-.185-1.676-.554-2.329-.369-.663-.914-1.175-1.633-1.535-.72-.359-1.606-.539-2.657-.539h-3.466V172h-7.031zm33.125-29.091V172h-7.031v-29.091h7.031z" fill="#4E0146"/><path fill-rule="evenodd" clip-rule="evenodd" d="M306.804 23.5h-1.167c-.644 0-1.166.504-1.166 1.125v9.75c0 .621.522 1.125 1.166 1.125h1.167c.644 0 1.167-.504 1.167-1.125v-9.75c0-.621-.523-1.125-1.167-1.125zm-6.657 2.625h1.167c.644 0 1.166.504 1.166 1.125v7.125c0 .621-.522 1.125-1.166 1.125h-1.167c-.644 0-1.167-.504-1.167-1.125V27.25c0-.621.523-1.125 1.167-1.125zm-4.323 2.625h-1.167c-.644 0-1.167.503-1.167 1.125v4.5c0 .621.523 1.125 1.167 1.125h1.167c.644 0 1.166-.504 1.166-1.125v-4.5c0-.622-.522-1.125-1.166-1.125zM290.333 31h-1.166c-.645 0-1.167.503-1.167 1.125v2.25c0 .621.522 1.125 1.167 1.125h1.166c.645 0 1.167-.504 1.167-1.125v-2.25c0-.622-.522-1.125-1.167-1.125zm32.638-5.154c2.467 0 4.839.97 6.626 2.711.135.135.35.133.483-.004l1.287-1.33a.374.374 0 00-.003-.52 11.925 11.925 0 00-16.786 0 .368.368 0 00-.107.26.37.37 0 00.103.26l1.288 1.33a.336.336 0 00.482.004 9.498 9.498 0 016.627-2.711zm0 4.327a5.39 5.39 0 013.667 1.447.34.34 0 00.482-.007l1.285-1.33a.371.371 0 00-.005-.523 7.832 7.832 0 00-10.855 0 .37.37 0 00-.005.523l1.285 1.33a.34.34 0 00.482.007 5.39 5.39 0 013.664-1.447zm2.575 2.911a.362.362 0 01-.105.263l-2.223 2.297a.343.343 0 01-.494 0l-2.223-2.297a.362.362 0 01.01-.521 3.742 3.742 0 014.92 0c.071.066.113.16.115.258z" fill="#000"/><rect opacity=".4" x="338.471" y="23.5" width="24" height="12" rx="3.5" stroke="#000"/><path opacity=".5" d="M363.971 27.5v4a2.17 2.17 0 000-4z" fill="#000"/><rect x="339.971" y="25" width="17" height="9" rx="2" fill="#000"/><path d="M53.017 23.723c-2.599 0-4.45 1.777-4.45 4.209v.016c0 2.275 1.61 3.951 3.91 3.951 1.644 0 2.69-.838 3.13-1.784h.166c0 .091-.009.182-.009.274-.091 2.29-.896 4.15-2.797 4.15-1.054 0-1.793-.548-2.109-1.386l-.024-.083h-2.109l.017.091c.382 1.835 2.025 3.138 4.225 3.138 3.013 0 4.83-2.39 4.83-6.425v-.017c0-4.316-2.224-6.134-4.78-6.134zm-.009 6.533c-1.361 0-2.349-.996-2.349-2.383v-.016a2.367 2.367 0 012.374-2.39c1.328 0 2.366 1.07 2.366 2.44v.016c0 1.353-1.038 2.333-2.39 2.333zm8.058-2.017a1.29 1.29 0 001.32-1.312c0-.738-.556-1.311-1.32-1.311a1.29 1.29 0 00-1.32 1.311c0 .73.565 1.312 1.32 1.312zm0 6.159c.764 0 1.32-.573 1.32-1.312 0-.738-.556-1.311-1.32-1.311a1.29 1.29 0 00-1.32 1.311 1.29 1.29 0 001.32 1.312zM70.146 36h2.05v-2.3h1.61v-1.767h-1.61v-7.911h-3.03a159.518 159.518 0 00-4.88 7.927v1.752h5.86V36zm-3.869-4.018v-.124a124.04 124.04 0 013.777-6.126h.125v6.25h-3.902zM78.27 36h2.142V24.022h-2.134l-3.13 2.2v2.017l2.98-2.109h.142V36z" fill="#000"/></svg>