<svg width="210" height="210" viewBox="0 0 210 210" xmlns="http://www.w3.org/2000/svg">
  <rect width="100%" height="100%" fill="#fff"/>
  <path fill="#aac913" d="M71.359 134.508v-2.99h67.035v5.98H71.36zm0-97.654V5.058h67.035v63.593H71.36Zm35.579 29.35c-.132-3.276-.311-6.367-.375-6.477-.043-.075-.338.054-.656.288-.78.573-1.808 1.026-2.328 1.026-.48 0-2.04-.77-2.61-1.29-.451-.411-1.137-.445-1.284-.062-.058.153-.047 1.779.025 3.613l.132 3.336.57.074c.313.04 1.914.065 3.559.055l2.989-.019zm4.234-1.11c.402-.107.408-.151.408-3.102v-2.994l-.951.114a18.92 18.92 0 0 1-1.834.116l-.882.001.124 2.673c.069 1.47.166 2.815.216 2.99.074.26.302.316 1.301.314.666-.002 1.394-.052 1.618-.112zm-12.974-1.063c.507-2.917.7-4.511.56-4.65-.087-.088-.601-.236-1.142-.328a16.906 16.906 0 0 1-1.608-.356c-.47-.14-.66-.132-.767.037-.078.123-.144 1.335-.145 2.693-.004 2.784-.015 2.759 1.395 3.152 1.327.37 1.56.294 1.707-.548zm14.647-1.948c-.003-2.421-.144-3.497-.423-3.21-.144.147-.16.557-.139 3.3.018 2.246.065 2.673.293 2.673.23 0 .272-.426.27-2.763zm9.528 2.468c1.448-.478 1.44-.458 1.184-2.912-.122-1.176-.3-2.953-.396-3.95a259.3 259.3 0 0 0-.727-6.703 35.88 35.88 0 0 1-.218-2.899l-.037-1.45 1.668-1.99c1.677-2 2.185-2.732 2.015-2.901-.138-.139-1.26.28-1.845.688-.652.454-.757.304-.911-1.295-.166-1.72-.53-3.65-.688-3.65-.195 0-.49.6-.968 1.972-.23.659-.527 1.22-.66 1.245-.133.026-.552-.436-.931-1.026-.77-1.198-2.773-3.46-3.064-3.46-.302 0 .008 2.084.507 3.408.243.648.398 1.222.342 1.278-.055.055-.32-.041-.59-.214-.816-.521-3.142-1.61-3.238-1.514-.19.19.52 1.219 1.565 2.264.603.602 1.033 1.132.957 1.177-.076.045-.656.01-1.29-.079-.633-.088-1.406-.094-1.717-.014l-.565.147 1.08.847c.594.466 2.037 1.39 3.208 2.053 2.414 1.366 2.15.899 2.495 4.417.112 1.146.278 2.776.37 3.623.09.847.252 2.478.359 3.624.106 1.146.268 2.695.36 3.442.092.747.215 1.923.273 2.612.15 1.758.095 1.712 1.462 1.26zm-6.807-.66.815-.404-.013-2.67c-.007-1.468-.068-2.725-.136-2.793-.068-.068-.307-.037-.53.07-.657.312-1.461.571-1.948.629-.447.053-.452.072-.407 1.594.025.847.094 2.14.153 2.872l.107 1.333.572-.113c.314-.063.938-.296 1.387-.518zm-21.197-1.264c0-.623.053-1.917.117-2.875l.115-1.743-.662-.45a14.677 14.677 0 0 1-1.397-1.129c-.404-.374-.79-.624-.857-.557-.161.162-.483 6.955-.336 7.101.214.214 2.023.773 2.521.78.49.005.498-.012.5-1.127zm24.13-.118c.455-.29.877-.606.937-.703.14-.226-.226-5.161-.396-5.333-.07-.07-.513.122-.985.43l-.859.558v2.666c0 1.466.055 2.72.121 2.787.191.19.301.153 1.181-.405zm-28.041-.245c.045-.224.206-1.915.357-3.759.307-3.741.358-3.478-.96-4.898a22.328 22.328 0 0 1-1.32-1.58c-.313-.423-.633-.77-.712-.77-.162 0-.273.63-.43 2.447-.06.697-.186 2.002-.278 2.899-.436 4.222-.436 4.249-.066 4.53.787.595.928.394 1.113-1.586l.174-1.857.048 1.811c.026.997.058 1.932.072 2.078.024.27 1.292 1.085 1.696 1.09.123.001.26-.18.306-.405zm-4.171-2.717c.144-1.184.448-4.079.566-5.39.059-.648.153-1.484.21-1.857.116-.754-.105-.899-.413-.27-.11.223-.872 1.57-1.695 2.995-1.728 2.993-1.729 3.018-.178 4.47 1.114 1.041 1.388 1.05 1.51.052zm18.502.291c.397-.263.935-.676 1.197-.917.391-.362.76-.467 2.083-.595 3.62-.348 6.684-1.062 8.816-2.055 2.028-.944 1.944-.717 1.741-4.741-.095-1.894-.212-3.623-.26-3.844-.051-.24-.432-.6-.945-.894-1.58-.907-5.412-3.502-5.832-3.949l-.415-.442.579-.352a4.264 4.264 0 0 1 1.29-.465c.391-.063.71-.174.71-.248 0-.073-.25-.5-.553-.949-.544-.803-1.439-2.432-1.439-2.62 0-.242 1.126-.047 2.51.434l1.512.527-.119-.665c-.236-1.323-.32-4.017-.125-4.017.314 0 2.204 1.66 3.682 3.232l1.39 1.48.461-1.006c.535-1.168 1.146-2.075 1.398-2.075.28 0 1.361 2.416 1.701 3.803.172.698.374 1.27.45 1.27.077 0 .6-.204 1.164-.453 1.003-.444 2.1-.602 2.1-.302 0 .346-3.13 5.284-4.155 6.552-.268.332-.367.725-.37 1.47-.006 1.478.194 2.697.443 2.697.118 0 .83-.631 1.58-1.404a18.698 18.698 0 0 0 3.062-4.154c.2-.368.528-.598 1.087-.765 1.884-.563 3.237-1.593 3.706-2.82.619-1.621-.276-2.61-2.544-2.81l-1.087-.095-.2-1.268c-.11-.698-.302-2.124-.426-3.17-.308-2.604-.264-2.534-1.088-1.728-.403.393-.816.647-.963.59-.31-.118-.675-1.823-.675-3.15 0-.721-.066-.967-.26-.967-.144 0-.313.083-.376.184-.205.333-2.691 1.912-3.893 2.473-1.602.749-2.632 1.002-4.199 1.032l-1.327.025-.054-.557c-.04-.396.127-.827.576-1.494.347-.516.616-.937.598-.937-.018.001-.563.164-1.21.361-1.46.446-3.548.486-4.127.08-.467-.326-.506-.752-.147-1.61.141-.338.223-.648.182-.69-.042-.04-.544-.006-1.117.077-6.132.892-8.791 1.09-15.441 1.153l-6.428.061-.22 1.235c-.568 3.189-.74 3.548-1.505 3.139-.531-.284-2.755-.422-3.311-.206-.74.29-1.222 1.207-1.222 2.333-.001.898.049 1 .87 1.812.48.473 1.056.982 1.281 1.132.335.222.443.536.595 1.72.265 2.063.254 2.046.888 1.439.341-.327.65-.898.824-1.524.98-3.529 2.105-6.346 2.532-6.346.276 0 .562.84.726 2.133.067.525.18.991.252 1.036.072.044.405-.304.74-.774 1.18-1.657 2.929-3.3 3.511-3.3.193 0 .084 2.095-.162 3.125-.18.75-.19 1.007-.039.917.116-.069.672-.439 1.237-.821 1.372-.93 3.356-1.954 3.788-1.954.192 0 .349.12.349.266 0 .416-.873 1.891-1.854 3.131-.492.623-.854 1.133-.805 1.133.05 0 .73-.123 1.51-.272 1.853-.354 3.685-.365 3.685-.021 0 .58-2.319 2.264-4.601 3.344-.688.325-1.177.654-1.088.732.09.077.55.45 1.024.828.916.73 1.055 1.073.544 1.339-.75.39-4.468 1.13-6.93 1.38-1.699.173-1.919.252-2.195.791-.136.267-.473.876-.748 1.354l-.5.87.568 1.059c2.418 4.504 6.875 7.937 10.937 8.422.831.1 1.322.291 2.083.815 1.581 1.088 1.938 1.14 2.993.44zm.178-5.494c-1.314-.18-2.446-.695-2.446-1.113 0-.301.144-.343 1.19-.343 1.03 0 1.299.075 1.993.553.815.56 1.064 1.099.486 1.053a33.525 33.525 0 0 1-1.223-.15zm.551-.38c.19-.31-.491-.701-1.23-.707-1.052-.01-.862.45.3.729.798.19.798.19.93-.022zm-.098-1.73-2.174-.427c-2.286-.45-5.983-.858-8.787-.973-.651-.026-.73-.08-.783-.538-.032-.28.039-.627.158-.77.3-.363.837-.326.94.064.112.432 1.562.761 3.368.765 1.438.004 3.53.285 6.191.832 1.978.407 5.732.403 7.519-.008 2.338-.539 2.446-.596 2.446-1.294 0-.916.527-.823 1.064.189.478.901.414 1.456-.148 1.278-.195-.062-1.112.1-2.04.36-1.398.39-2.162.483-4.493.54-1.544.038-3.012.03-3.261-.019zm-.996-3.69c-1.65-.3-2.265-.858-1.88-1.705.27-.59.59-.698 1.42-.474.73.196 2.362 1.509 2.362 1.9 0 .444-.55.525-1.902.28zm.815-.7c0-.408-1.288-1.166-1.708-1.005-.382.147-.362.732.032.962.384.224 1.676.257 1.676.043zm14.422-12.987c-.488-.134-1.013-.369-1.166-.522-.25-.25-.243-.317.072-.664.888-.981 2.514-1.146 4.024-.407 1.267.619.924 1.285-.865 1.68-.981.217-.955.218-2.065-.087zm1.908-.477c.385-.116.7-.29.7-.388 0-.34-.637-.66-1.325-.665-1.286-.01-1.882.691-.894 1.052.665.243.71.243 1.519 0zm-25.48-2.492c-.943-.157-1.902-.733-1.902-1.142 0-.293.212-.323 2.27-.323 2.265 0 3.406.235 3.737.77.23.372-.227.68-1.001.673-.7-.005-.725-.023-.394-.273.333-.252.336-.286.045-.577-.239-.239-.642-.31-1.786-.315-.986-.005-1.502.065-1.552.21-.095.278.923.813 1.852.973l.724.124h-.634c-.348 0-.96-.054-1.359-.12zm29.937 27.134.63-.389-.065-4.125c-.035-2.27-.132-4.194-.215-4.277-.083-.082-.267.013-.41.212-.143.199-.681.79-1.196 1.314l-.935.952.31 1.765c.748 4.242.898 4.937 1.07 4.937.1 0 .465-.175.811-.389zm-43.253-3.73c1.146-1.906 2.937-4.9 3.98-6.655 1.32-2.22 2.009-3.21 2.265-3.257.202-.037 1.428-.162 2.723-.277 3.027-.27 5.345-.739 5.345-1.08 0-.16-.53-.424-1.676-.838-.473-.17-.86-.385-.86-.476 0-.091.305-.293.679-.449 2.388-.994 5.803-2.94 5.569-3.173-.227-.227-4.094.513-5.388 1.03-.582.234-.325-.172.802-1.27 1.19-1.158 2.757-3.159 2.6-3.317-.195-.195-1.877.817-3.958 2.38-.78.585-1.46 1.02-1.513.967-.053-.053.03-.611.183-1.24.252-1.034.372-1.937.32-2.403-.03-.27-1.218.953-2.322 2.39-1.06 1.38-1.502 1.631-1.502.85 0-.77-.396-2.092-.605-2.022-.238.08-1.036 2.074-1.575 3.935a38.639 38.639 0 0 1-.596 1.903c-.271.73-4.176 4.706-8.237 8.387-1.823 1.652-3.29 3.11-3.261 3.24.085.388 4.515 4.972 4.738 4.903.113-.036 1.143-1.623 2.289-3.528zm45.074 2.624c.102-.124.263-1.245.358-2.491l.171-2.265.027 2.008c.014 1.105.078 2.06.142 2.124.248.248 1.14-.622 1.225-1.195.048-.32.176-1.234.285-2.03.11-.798.281-2.021.382-2.719l.35-2.445c.091-.648.263-1.812.38-2.586.118-.774.171-1.45.12-1.502-.075-.075-1.498.388-1.735.564-.164.121-.763 4.132-.782 5.23-.011.706-.09 1.528-.173 1.827-.09.326-.129-.758-.096-2.716.042-2.436.005-3.173-.144-2.919-.11.187-.504.807-.877 1.377l-.677 1.036.175 4.328.179 4.465c.007.219.487.156.69-.09zm-50.33-8.131c.685-.511 1.326-1.143 1.425-1.404.099-.261.273-1.168.388-2.015.324-2.383 1.23-6.81 1.742-8.515.255-.847.526-1.907.603-2.355.177-1.026.326-1.403.826-2.084.22-.299.866-1.603 1.436-2.899 1.487-3.378 3.725-7.637 5.028-9.568 1.472-2.183 5.134-5.841 7.306-7.299 1.687-1.133 5.169-2.921 6.613-3.397.202-.067.186-.093-.06-.104-.376-.016-2.696.75-3.926 1.297-3.547 1.575-6 3.119-9.016 5.674-1.197 1.014-2.15 2.32-3.365 4.61-.185.349-.45.813-.587 1.03-.138.218-.403.667-.587.997-2.414 4.316-3.34 6.009-4.886 8.934-1.001 1.894-2.283 4.421-2.848 5.617-.566 1.196-1.123 2.337-1.239 2.536-.222.383-.425 9.874-.211 9.874.061 0 .672-.418 1.358-.93zm5.013-4.35c2.02-1.82 2.427-2.267 2.337-2.583-.06-.21-.16-1.057-.223-1.883-.108-1.421-.144-1.522-.676-1.885-.308-.211-.905-.711-1.325-1.112-.547-.522-.787-.655-.847-.47-1.093 3.347-2.309 10.132-1.816 10.132.058 0 1.205-.99 2.55-2.2zm-4.833-8.671c1.308-2.985 4.38-9.258 5.928-12.104.45-.827.79-1.533.753-1.568-.083-.082-2.004 2.484-3.181 4.25-1.422 2.134-2.509 3.98-3.48 5.915-1.463 2.914-1.648 3.504-1.648 5.27 0 .912.067 1.498.16 1.398.087-.094.748-1.517 1.468-3.161zm54.718 1.494c0-.272-.537-2.882-.81-3.94-.45-1.736-1.767-5.707-1.894-5.707-.233 0-.593 1.645-.505 2.307.05.375.343 1.974.653 3.552s.563 2.947.563 3.042c0 .095.347.326.77.515.836.371 1.223.444 1.223.231zm-44.931-6.232c0-.88.705-4.12 1.193-5.478 1.23-3.429 4.047-7.718 6.802-10.359 3.132-3 6.208-4.5 10.925-5.326 2.197-.385 7.63-.145 10.158.448.541.127.542.126.14-.172-.556-.412-1.498-.791-3.31-1.333-1.277-.382-1.927-.463-3.805-.474-2.53-.013-3.577.23-7.338 1.7-1.114.437-3.796 1.842-4.957 2.598-1.57 1.022-4.65 3.951-6.322 6.013-1.525 1.879-3.563 4.985-4.694 7.156-.942 1.808-2.416 5.134-2.416 5.452 0 .116.293.146.77.08.435-.061 1.164-.002 1.676.136.498.134.967.213 1.042.176.074-.037.136-.315.136-.617zm33.88-1.386c1.145-.576 2.873-1.572 3.838-2.214l1.756-1.168.122-.909c.185-1.38.388-1.586.542-.553.08.524.054 1.11-.06 1.442-.39 1.116-.647 3.263-.46 3.824.389 1.166 1.139.454 1.794-1.705.49-1.611.195-2.976-1.197-5.547-.436-.805-1.436-.819-5.158-.073-4.208.844-7.232 2.103-8.79 3.66-1.88 1.88-.815 2.791 2.347 2.005 2.448-.608 7.263-3.056 9.782-4.973 1.129-.858 1.598-1.039 1.08-.415-.138.167-1.72 1.282-3.513 2.476-4.92 3.277-6.432 4.468-6.432 5.066 0 .288.811.44 1.532.286.403-.086 1.67-.627 2.816-1.202zm-16.76-3.21c7.818-.54 8.983-.686 9.775-1.224.795-.54 2.796-1.344 4.81-1.934.748-.219 1.61-.474 1.916-.566.306-.092.647-.168.758-.168.11 0 .431-.097.712-.214.497-.21.485-.218-.487-.345-2.256-.294-12.452-.031-13.42.347-.242.094-.888.267-1.436.383-4.21.897-16.192 3.857-16.397 4.05-.253.24 8.59.029 13.77-.329zm-13.511-.462c.456-.1 2.46-.596 4.453-1.102 4.3-1.092 5.39-1.352 9.33-2.223 1.645-.363 3.357-.76 3.805-.881.588-.16 3.276-.22 9.648-.22 4.858 0 8.832-.033 8.832-.073 0-.04-.21-.503-.468-1.029-.83-1.697-1.414-2.2-4.152-3.585-1.016-.513-1.206-.547-2.899-.514-.996.019-2.341.112-2.99.207-.647.094-1.87.266-2.717.38-7.704 1.043-15.849 3.685-20.76 6.735-2.23 1.384-4.221 2.989-3.244 2.614.182-.07.705-.21 1.162-.31zm-.266-1.358c5.968-4.764 15.81-7.91 27.423-8.766 2.4-.177 3.427-.03 4.965.714.411.198.77.338.799.31.192-.192-3.63-4.459-4.667-5.21-1.63-1.183-8.648-1.826-12.856-1.177-5.877.905-9.146 2.903-12.912 7.89-1.938 2.566-4.617 7.25-4.146 7.246.074 0 .7-.454 1.394-1.007z"/>
  <path fill="#1bb6bb" d="M138.396 134.515v-2.99h67.035v5.98h-67.035zm0-97.654V5.064h67.035v63.593h-67.035zm36.454 30.283c1.167-.123 2.175-.277 2.241-.343.14-.14-.644-4.315-.857-4.561-.198-.23-.931.128-1.927.943-.747.611-.915.67-1.834.645-.557-.016-1.494-.2-2.083-.408-.987-.35-2.632-.511-2.862-.281-.127.127.76 3.727.992 4.024.23.294 3.45.285 6.33-.019zm-10.345-2.836c1.334-1.197 2.59-2.21 2.788-2.25 4.071-.826 8.132-2.257 7.514-2.648-.147-.093-.572-.17-.946-.171-.909-.003-.857-.303.192-1.109.467-.36 1.002-.918 1.188-1.242l.34-.589-.611.121a11.95 11.95 0 0 0-1.064.266l-1.145.367c-.382.123-.735.182-.786.13-.051-.05.358-.64.91-1.308.814-.988 1.61-2.287 2.085-3.404.174-.412-2.914 1.04-4.53 2.128-.524.352-.98.613-1.014.58-.034-.034.146-.778.4-1.654.254-.875.421-1.632.372-1.681-.05-.05-.43.146-.845.433-.65.452-1.66 1.491-3.677 3.789l-.477.543-.312-.447c-.456-.654-1.328-1.455-1.584-1.455-.336 0-.471 1.015-.348 2.627l.11 1.45-3.185 3.168c-1.752 1.743-3.185 3.222-3.185 3.286 0 .095 2.014.626 4.257 1.123.952.21 1.168.086 3.553-2.053zm9.598-1.884c.457-.408 1.15-.853 1.54-.988 10.12-3.509 16.81-8.334 19.253-13.886.603-1.37.594-1.362 1.613-1.706.523-.177 1.125-.477 1.337-.667.545-.488 1.057-1.77 1.178-2.955.09-.863.046-1.087-.29-1.511-.529-.667-1.345-.672-2.033-.013-.278.266-.537.45-.576.407-.038-.042-.783-1.16-1.656-2.485-.878-1.332-1.92-2.68-2.333-3.018-.41-.336-2.295-1.718-4.188-3.071l-3.443-2.461-3.25-.001-3.25-.002-.87.941-.87.942.36.384c.625.664.464 1.07-.726 1.835-1.213.78-1.428 1.153-1.02 1.775.363.555.192.695-.447.365-1.204-.623-1.54-1.532-.973-2.628.27-.525.263-.547-.363-1.097-.783-.688-.843-1.4-.19-2.256l.45-.589-.948-.212c-1.234-.276-1.924-.534-2.515-.94-.622-.429-.64-.425-.958.19-.31.6-1.074 1.088-2.366 1.51-.498.163-1.6.554-2.446.87-.847.315-1.744.64-1.993.722-.25.082-1.126.4-1.948.709-3.152 1.18-4.332 1.623-5.186 1.946-.744.282-1.286.776-3.448 3.143-1.41 1.544-2.734 3.029-2.942 3.3-.28.365-.482 1.177-.786 3.17-.225 1.473-.437 2.78-.472 2.905-.126.454-.42.205-.918-.777-.574-1.134-1.087-1.689-1.609-1.738-.87-.081-1.352.06-1.877.55-.454.424-.562.67-.562 1.275 0 .964.506 1.946 1.437 2.786.774.7.84.722 2.25.744l.88.014.689 1.594c.958 2.216 1.724 3.424 2.972 4.687 1.916 1.938 4.064 3.18 7.169 4.144l1.89.588 1.33-1.407c1.854-1.958 1.81-2.095-.771-2.402-1.096-.13-2.169-.311-2.384-.402-.298-.127-.465-.082-.71.19-.458.504-.65.194-.586-.942.048-.838.108-.977.418-.977.237 0 .383.14.42.404.077.542 1.093.808 3.204.84l1.63.024.113-1.177c.115-1.217.283-1.812.51-1.812.274 0 1.84 1.142 2.015 1.47.28.523.56.404 1.348-.58.834-1.038 2.752-2.667 3.793-3.22.986-.523 1.27-.278 1.107.963a16.551 16.551 0 0 1-.22 1.33c-.1.404-.078.4.721-.14 1.64-1.107 3.68-1.84 4.376-1.572.243.093.22.268-.177 1.336-.252.675-.694 1.568-.983 1.983-.289.414-.493.785-.455.824.217.217 3.102-.283 4.848-.839 2.327-.741 3.446-1.32 3.54-1.832.11-.59.4-.847.686-.61.136.114.248.322.248.463 0 .141.165.581.368.978.324.636.334.734.084.83-.157.06-.444-.035-.64-.212-.34-.309-.4-.3-1.578.24-1.372.629-3.416 1.313-4.698 1.574-.417.085-.78.388-1.32 1.102-.408.541-.822.985-.918.985-.45 0-.106.335.452.44 1.148.215 1.048.691-.317 1.5-.897.532-2.238 1.042-3.844 1.462-1.9.496-2.54.73-2.045.747.27.01.886.173 1.367.363 1.725.68 2.358.604 3.502-.418zm-3.476-12.369c-.693-.114-1.702-1.013-1.559-1.386.095-.248.375-.303 1.526-.303 1.51 0 2.63.38 2.731.925.09.482-1.57.952-2.698.764zm1.468-.764c0-.23-.473-.382-1.193-.382-.586 0-.767.154-.498.423.181.182 1.69.145 1.69-.041zm-18.027-.742c-1.738-.186-3.276-1.453-3.707-3.053-.157-.585-.31-.734-1.11-1.071-.562-.238-.896-.483-.849-.623.043-.128.548-.315 1.124-.416 1.405-.247 1.935-.862 1.791-2.08-.14-1.178.222-1.467 1.131-.905.615.38.717.39 1.635.17.806-.193 1.044-.344 1.344-.853.458-.776.828-.723 1.46.206.263.388.78.86 1.149 1.05 1.667.855 2.865 2.706 2.898 4.476.018.954-.006 1.004-.706 1.494-.997.698-3.255 1.545-4.349 1.63-.498.04-1.313.028-1.811-.025zm2.355-1.313c1.344-.499 2.628-2.023 2.626-3.118 0-.577-.556-1.647-1.064-2.048-.521-.413-1.5-.77-2.107-.77-.837 0-2.265 1-2.716 1.902-.462.923-.448 2.38.03 3.207.647 1.122 1.705 1.392 3.23.827zm-1.068-2.703c-.5-.713.347-1.493 1.152-1.063.408.219.491.896.151 1.236-.342.342-1.004.254-1.303-.173zm3.806 2.161c.782-.603.966-.908.85-1.408-.18-.773-.269-.782-.592-.063a6.585 6.585 0 0 1-.81 1.286c-.59.699-.258.81.552.185zm-6.808-.31c-.258-.482-.236-2.475.032-2.904.42-.674-.043-.605-.674.1-.737.823-.735 1.35.007 2.473.472.712.98.979.634.332zm28.602 1.003c-1.605-.557-1.613-.564-1.615-1.433-.004-1.641 1.355-4.316 2.766-5.444.375-.3 1.231-.722 1.903-.938.894-.287 1.28-.512 1.441-.839.121-.245.386-.596.589-.78.35-.316.386-.317.714-.02.19.172.44.541.556.82.35.846.932.98 1.902.438.848-.474 1.364-.469 1.364.013 0 .15-.13.652-.288 1.118-.35 1.03-.18 1.22.965 1.08.422-.052.993-.01 1.268.095l.5.19-.906.808c-1.153 1.029-1.15 1.025-2.493 2.444-2.496 2.637-5.595 3.512-8.666 2.448zm4.818-.606c1.248-.438 2.53-1.722 2.685-2.687.35-2.186-1.454-3.945-3.68-3.589-.822.132-1.977.918-2.393 1.629-1.137 1.947-.053 4.962 1.785 4.964.384 0 1.105-.142 1.603-.317zm-.996-2.764c-.2-.199-.362-.425-.362-.503 0-.36.606-.946.978-.946.43 0 1.015.504 1.015.875 0 .303-.675.937-.997.937-.15 0-.435-.163-.634-.363zm-3.49 2.039a7.204 7.204 0 0 1-.496-1.767l-.107-.906-.39 1.254c-.216.69-.35 1.322-.298 1.406.1.16 1.341.852 1.555.865.069.004-.05-.38-.264-.852zm8.485-2.493c.324-.776.196-1.368-.417-1.93l-.465-.424.143.453c.079.25.18.922.224 1.495.045.573.12 1.042.165 1.042.046 0 .204-.287.35-.636zm-35.795-6.479c0-.772 2.347-2.492 3.39-2.484 1.402.011 3.76 1.942 2.968 2.432-.09.055-.774-.016-1.519-.158-1.186-.227-1.498-.226-2.508.01-2.016.472-2.331.499-2.331.2zm4.48-1.278c-.125-.374-1.158-.554-1.756-.306-.946.391-.669.642.637.575.791-.04 1.165-.13 1.119-.27zm22.278 1.118c-.626-.35-.236-2.198.63-2.985.834-.759 1.149-.83 2.65-.603 2.267.343 2.92.914 1.985 1.738a3.149 3.149 0 0 1-2.102.79c-.434 0-.973.185-1.486.509-1.066.673-1.313.754-1.677.55zm1.983-1.511c.285-.15.658-.272.828-.272.49-.002 1.231-.4 1.231-.661 0-.238-.202-.308-1.495-.516-.567-.09-.754-.034-1.132.344-.489.489-.619 1.375-.202 1.375.138 0 .485-.122.77-.27zm-35.987 6.555c0-.806.103-1.29.367-1.723.425-.696 5.244-6.723 5.626-7.036.141-.116 2.132-.959 4.424-1.874 6.506-2.598 6.218-2.455 9.004-4.432l1.939-1.375-.371-.63c-.205-.346-.401-.629-.437-.629-.036 0-.985.477-2.11 1.06l-5.308 2.75c-1.793.93-4.32 2.235-5.616 2.902l-2.355 1.212-2.854 4.232c-3.043 4.514-3.08 4.6-2.74 6.299.18.902.43.464.43-.756zm-1.156-.01c0-1.065.07-1.269.918-2.672 3.11-5.145 4.257-6.977 4.539-7.247.293-.28 2.112-1.23 12.366-6.453 2.043-1.04 3.737-1.915 3.765-1.942.114-.112-.609-1.184-.799-1.186-.22 0-1.057.33-2.564 1.014-.526.24-.997.435-1.046.435-.218 0-7.513 3.549-9.327 4.538-.352.192-1.33.819-2.174 1.393-1.426.971-1.639 1.202-3.039 3.309-2.352 3.54-3.468 5.518-3.57 6.332-.05.403-.023.734.06.734.085 0 .67-1 1.301-2.22 1.642-3.177 3.363-6.024 4.054-6.705 1.375-1.356 13.925-7.94 14.664-7.694.22.073-.48.516-2.502 1.585a255.224 255.224 0 0 0-4.53 2.44c-.398.222-1.193.66-1.766.973l-1.993 1.09c-.523.286-1.38.751-1.903 1.032-.523.281-1.141.72-1.373.974-.394.432-5.607 9.061-5.839 9.664-.086.226.528 1.76.705 1.76.03 0 .053-.52.053-1.154zm3.274-2.404c2.624-3.063 4.305-4.81 5.032-5.228.673-.387 7.8-3.257 12.205-4.914 1.812-.681 1.883-.73 2.236-1.501.288-.63.323-.886.17-1.223-.107-.234-.259-.426-.337-.426-.08 0-.55.286-1.046.634-2.804 1.971-3.582 2.436-4.979 2.974-.847.327-1.744.678-1.993.782-.25.103-.636.259-.86.345-.52.2-1.178.463-1.812.725-.274.113-.702.287-.951.386l-.906.363c-.52.207-.919.36-1.812.696-.349.131-.763.363-.921.517-.475.46-5.167 6.408-5.392 6.834-.115.217-.195.788-.178 1.268l.032.873.068-.75c.057-.625.296-1.014 1.444-2.355zm46.956-2.68c-.256-.636-.48-.949-1.716-2.382a318.067 318.067 0 0 1-1.213-1.414c-1.853-2.187-3.537-3.424-5.29-3.886-.678-.178-1.212-.277-3.987-.738-1.04-.172-2.88-.338-8.243-.74-3.072-.231-5.203-.239-4.973-.019.094.091.987.52 1.983.952l1.812.786 5.265.018c4.825.017 5.31.047 5.798.36 2.073 1.325 7.05 5.045 7.87 5.882.548.559 1.404 1.708 1.902 2.554l.906 1.538.055-1.176c.03-.647-.047-1.428-.17-1.734zm-50.53-.15c.01-.239 2.52-4.325 3.226-5.251 1.326-1.74 8.005-5.457 15.705-8.739 1.092-.465 2.051-.886 2.132-.936.147-.091-.392-1.152-.586-1.152-.106 0-3.729 1.434-4.89 1.937-.349.15-.797.336-.997.412-.199.076-.607.242-.906.368-.299.127-.706.292-.905.369-.2.076-.75.31-1.221.52-.473.208-.902.38-.954.38-.052 0-.48.17-.953.38-.472.21-1.021.45-1.22.536-2.404 1.032-3.302 1.541-4.179 2.371-1.177 1.113-2.735 3.376-3.54 5.137-.574 1.26-1.24 3.482-1.247 4.157-.003.348 0 .348.263 0 .146-.194.269-.414.272-.49zm48.136-5.333c-.844-1.685-1.643-3.145-1.777-3.246-.134-.101-1.019-.367-1.965-.591-3.74-.886-6.28-1.496-6.885-1.653-.349-.091-1.368-.336-2.265-.545a56.996 56.996 0 0 1-2.294-.576c-.695-.206-9.27.033-9.502.264-.064.064.008.425.158.803l.273.687 1.968.213c1.083.118 3.967.3 6.408.405 4.935.213 7.236.589 11.067 1.807 1.696.539 2.194.932 4.324 3.417 1.041 1.214 1.923 2.179 1.958 2.143.036-.036-.625-1.443-1.468-3.128zm-17.693 1.708c0-.212-.214-.61-.476-.883-.613-.639-.462-1.024.458-1.17.41-.066.895-.302 1.125-.548l.406-.431-.892-.003c-.491-.001-1.075-.051-1.298-.111-.305-.082-.562.048-1.042.528-.35.35-.636.773-.636.94 0 .168.332.644.739 1.058.611.624.72.842.636 1.265l-.102.51.541-.384c.31-.221.541-.55.541-.771zm-27.895-4.12a19.77 19.77 0 0 1 1.528-1.682c.797-.75 3.104-1.934 5.894-3.028a59.901 59.901 0 0 0 1.63-.667c.35-.151.798-.34.997-.42.2-.08.648-.268.997-.419a93.956 93.956 0 0 1 2.355-.94c.947-.367 1.925-.752 2.174-.856.25-.104.616-.25.815-.323 1.117-.414 1.38-.569 1.314-.771-.041-.125-.458-.249-.944-.28-.844-.055-2.158.357-4.58 1.435-.422.188-.875.342-1.005.342a.714.714 0 0 0-.41.153c-.095.084-.661.343-1.26.574-3.714 1.438-8.163 4.256-9.397 5.953-.618.85-1.201 1.886-1.201 2.135 0 .156.024.13 1.093-1.205zm50.181-.816c.187-.225.137-.404-.286-1.014-.658-.949-1.945-2.052-2.947-2.525-.586-.277-1.069-.358-1.902-.318l-1.117.054.03.61c.02.437.224.812.724 1.33.827.856 1.936 1.646 2.689 1.914.848.302 2.541.272 2.81-.051zm3.985-1.59c.595-.297 1.086-1.305 1.087-2.232 0-1.015-.605-1.869-1.722-2.427-.762-.381-1.16-.453-2.515-.453-1.52 0-1.628.026-1.962.47-.31.415-.328.565-.146 1.268.418 1.617 1.172 2.635 2.45 3.306.654.344 2.182.382 2.808.069zm-11.626-.084c-.367-.828-1.106-1.552-2.053-2.015-2.084-1.017-3.512-1.654-3.705-1.654-.107 0-.337-.072-.51-.16-1.339-.682-3.809-1.415-7.38-2.192-1.666-.362-3.389-.55-5.436-.593l-2.174-.045-.906.618c-.498.34-.936.642-.973.671-.09.072.118.83.311 1.125.13.198.264.196.772-.017.338-.141 1.349-.402 2.246-.58 1.818-.361 4.188-.297 5.797.156 1.776.5 9.273 3.032 10.509 3.548 2.715 1.134 3.633 1.432 3.502 1.137zm-2.688-.182c0-.074-.632-.332-1.404-.572-.772-.24-1.48-.505-1.576-.589-.094-.083-.32-.152-.5-.152s-.47-.08-.643-.176c-.314-.176-3.449-1.213-6.022-1.993l-1.884-.57c-.802-.244-3.112-.184-4.729.12-.797.151-1.757.324-2.133.384-.803.129-.907.249-.752.868l.116.46h4.845c2.665 0 5.082.072 5.37.16.29.087.974.254 1.522.37 1.498.32 2.232.49 4.71 1.084 1.246.3 2.429.579 2.628.622.2.043.383.088.408.1.024.01.044-.04.044-.116zm-38.804-.985c.56-.17 1.845-1.259 1.845-1.563 0-.074-.369-.244-.82-.377-.89-.263-2.079-1.44-2.079-2.058 0-.192-.105-.317-.238-.284-.36.089-3.204 3.178-3.204 3.482 0 .596.513.849 2.174 1.068.581.077 1.557-.036 2.322-.268zm47.317-1.97c-.398-1.66.32-2.525 2.093-2.525h1.015l-.36-.505c-.197-.277-.415-.807-.485-1.177s-.189-.674-.266-.674c-.076 0-.357.286-.623.635-.266.348-.608.634-.76.634-.283 0-2.157-1.364-2.589-1.885-.393-.473-.47-.344-.443.746l.025 1.035.662.023c1.01.035 1.098.228 1.117 2.45.014 1.734.06 2.02.362 2.243.456.336.516.099.252-1zm-42.61-.334c.03-.09-.123-.29-.342-.443-.378-.265-.434-.237-1.18.572-.43.468-.785.908-.79.979-.01.176 2.245-.903 2.313-1.108zm36.477.572c-.264-.494-1.607-1.676-1.905-1.676-.137 0-.344.115-.46.255-.172.207-.062.33.59.655.441.22 1.036.588 1.322.816.59.47.724.456.453-.05zm-2.289-.346c-.786-.65-2.996-2.117-3.578-2.376a211.09 211.09 0 0 0-.906-.401c-1.004-.44-4.736-1.233-8.47-1.797-3.279-.496-4.072-.585-5.29-.597-.882-.009-1.564.092-2.047.302-1.174.51-1.215.581-.807 1.382.199.39.42.707.493.706.073-.001.488-.285.922-.63.435-.345 1.063-.679 1.396-.741.86-.162 5.384.335 7.643.838 2.403.536 4.63 1.162 5.161 1.45.173.095.395.171.493.171.098 0 .63.204 1.18.453.551.25 1.471.659 2.044.91.573.25 1.286.567 1.585.703.749.34.833.166.181-.373zm7.157-.252c0-1.936-.726-2.418-2.45-1.63-.402.184-1.196.393-1.764.464l-1.035.129.498.478c.274.262.623.672.776.91.239.371.335.404.666.227.506-.27 1.608-.241 2.403.065.914.352.906.358.906-.643zm-43.037-.527c.485-.506.507-.598.397-1.654-.243-2.327-.895-3.427-2.03-3.427-.473 0-.727.153-1.231.743-1.085 1.266-1.056 2.805.072 3.885 1.123 1.076 2.05 1.227 2.792.453zm-6.762-.235c1.075-.663 1.968-1.947 1.968-2.828 0-.662-.211-.819-1.467-1.089-.706-.151-1.171-.381-1.529-.754-.282-.295-.61-.537-.727-.537-.253 0-1.747 1.563-2.07 2.165-.74 1.383-.569 2.433.497 3.051.94.545 2.438.541 3.328-.008zm9.148-.97c2.5-1.035 3.48-1.783 3.867-2.953.194-.59.195-.826.007-1.282-.5-1.204-1.806-1.647-2.547-.864-.552.583-1.333 2.187-1.877 3.854-.258.79-.47 1.458-.47 1.486 0 .117.363.032 1.02-.24zm48.86-.076c.523-.411.79-1.568.58-2.519-.26-1.184-1.789-2.368-3.059-2.368-.475 0-.737.134-1.094.558-.397.471-.47.734-.47 1.707 0 1.028.057 1.206.528 1.677.298.298 1.026.691 1.676.905 1.442.475 1.29.471 1.839.04zm-11.81-.264c1.39-.611 1.79-1.258 1.79-2.901 0-1.248-.151-1.71-.78-2.401-.304-.334-.562-.408-1.436-.408-1.178 0-1.806.256-2.519 1.026-.715.773-.912 1.266-.92 2.31-.01 1.078.224 1.65.915 2.235.58.49 2.002.557 2.95.14zm-37.882-2.358a8.61 8.61 0 0 1 .566-1.319c.183-.327.333-.673.333-.77 0-.097-.494-.176-1.099-.176-1.19 0-1.623-.157-2.384-.867l-.494-.461-.705.8c-.657.746-1.966 1.612-2.446 1.618a1.1 1.1 0 0 0-.46.162c-.197.125-.122.274.35.696l.601.537.948-.97c.89-.913 1-.971 1.835-.971.751 0 .976.087 1.473.573.333.326.678.913.797 1.358.234.877.349.842.685-.21zm43.855.045c.19-.224.64-.88.998-1.457.495-.797.623-1.163.533-1.522-.142-.564-1.102-1.508-1.522-1.497-.164.004-.868.397-1.566.872-1.702 1.16-1.738 1.467-.347 2.926.57.597 1.154 1.086 1.297 1.086.143 0 .416-.183.607-.408zm-49.964-2.006c.798-.37 1.537-.871 1.91-1.297.53-.605.596-.788.513-1.409-.26-1.933-2.481-2.374-4.557-.905-.958.678-1.185 1.15-1.185 2.464 0 1.896.973 2.232 3.319 1.147zm6.867-1.218c1.408-.39 1.44-1.645.073-2.816-.774-.663-1.664-.811-2.52-.421-.506.23-1.035 1.052-1.035 1.607 0 .584.511 1.455.96 1.636.55.221 1.715.219 2.522-.006z"/>
  <path fill="#e20359" d="M4.425 137.54c-.06-.06-.108-1.44-.108-3.068v-2.96h67.036v6.156l-33.41-.01c-18.376-.006-33.458-.059-33.518-.118Zm.013-68.835c-.066-.066-.12-14.416-.12-31.887V5.052h67.035v63.772H37.956c-18.369.001-33.452-.053-33.518-.12Zm38.413-4.68c.02-1.395.04-2.63.046-2.744.006-.114 1.25-.507 2.774-.876 4.82-1.17 7.903-2.27 8.263-2.949.269-.507.57-2.801.57-4.344 0-1.888-.374-3.224-1.48-5.301l-1.998-3.758c-.594-1.12-1.052-2.18-1.019-2.356.09-.467.739-.486 1.601-.046.416.212.788.354.827.316.038-.04-.05-.636-.196-1.327-.304-1.437-.353-3.212-.1-3.684.113-.211.083-.908-.088-2.027-.142-.937-.26-2.01-.262-2.384-.002-.373-.04-.68-.084-.68-.044 0-.35.16-.682.356-.937.553-3.032 1.376-4.13 1.623-1.407.316-1.897.5-3.473 1.303-2.33 1.187-3.755 1.118-4.044-.195-.066-.302-.205-.55-.307-.55-.103 0-.565.313-1.028.695-2.26 1.869-4.241 2.929-5.473 2.929-.72 0-.9-.074-1.164-.478-.314-.479-.309-1.503.016-2.852.12-.502.071-.48-1.305.566-4.882 3.714-8.786 5.298-11.288 4.58-1.04-.298-1.465-.84-1.465-1.868 0-1.178.698-2.479 2.388-4.453l1.298-1.516-.801.135c-.44.074-1.21.32-1.707.546-1.864.846-2.331.992-3.177.992-.746 0-.933-.078-1.337-.558-.258-.306-.469-.723-.469-.927 0-.312-.076-.35-.498-.245-.274.069-.753.168-1.064.22-.477.08-.6.212-.79.847-.125.414-.291.957-.371 1.206-.354 1.108-.899 5.14-.893 6.613.006 1.424.657 5.888.86 5.888.052 0 .53-.411 1.061-.914 1.191-1.127 1.914-1.44 3.313-1.44 2.361 0 4.696 1.57 5.358 3.603.621 1.91-.21 3.642-2.052 4.27-1.724.587-3.72.114-6.078-1.441l-.52-.344.135.619c.075.34.203.743.285.896.082.152.41.848.729 1.545 1.461 3.197 3.59 5.426 6.66 6.974 1.595.804 5.572 2.176 7.363 2.54 1.125.229 2.036.628 3.211 1.406.903.597 1.526.486 3.232-.575.908-.565 1.392-.77 1.518-.644.102.102.212.814.245 1.584.032.769.093 1.501.135 1.628.058.178.903.22 3.748.181l3.673-.049zm-14.664-2.369c-1.065-.578-.286-1.345 1.366-1.345 1.217 0 1.76.224 1.76.728 0 .751-2.11 1.168-3.126.617zm2.22-.53c.196-.236.092-.272-.793-.272-.943 0-1.2.121-.898.423.23.23 1.465.12 1.69-.151zm-2.9-1.373c-.248-.109-1.267-.243-2.264-.298-1.41-.078-2.003-.196-2.675-.533-.663-.332-.945-.39-1.211-.247-.191.103-.434.186-.54.186-.365 0-.182-.634.28-.97.457-.334.476-.332 1.67.206.959.432 1.55.564 2.865.641.911.054 1.997.2 2.414.324 1.708.512 6.972-.643 10.423-2.286 1.774-.845 1.843-.901 1.545-1.26-.185-.224-.193-.344-.032-.505.162-.161.337-.138.736.098.289.17.646.31.794.31.287 0 .539.435.357.616-.06.06-.25.109-.422.109-.173 0-.832.313-1.465.695-1.279.774-4.463 2.055-5.861 2.359-.498.108-1.305.284-1.793.392-1.334.294-4.292.394-4.82.163zm-.306-3.602c-.755-.46-1.205-1.155-1.055-1.63.249-.782 2.166-.373 3.31.708.51.481.51.64.004.995-.55.385-1.562.353-2.26-.073zm1.47-.299c.435-.167.346-.402-.302-.798-1.042-.635-1.91-.313-1.088.404.511.445.94.567 1.39.394zm11.206-4.775c-1.162-.527-1.538-1.258-1.448-2.815.1-1.705.683-2.814 2.225-4.227 1.537-1.408 2.75-1.902 4.44-1.809 1.635.09 2.801.704 3.507 1.845.475.769.532 1.018.524 2.289-.008 1.216-.082 1.55-.503 2.269-1.016 1.733-3.45 2.807-6.348 2.8-1.215-.003-1.826-.093-2.397-.352zm3.03-.53c0-.09-.197-.212-.44-.272-.242-.061-.723-.378-1.069-.704-.751-.709-1.109-1.85-.963-3.081.174-1.473-.54-.526-.965 1.28-.271 1.155-.067 1.81.709 2.268.849.502 2.729.852 2.729.509zm2.769-.937c.788-.219 1.842-1.08 2.224-1.818.616-1.192.131-2.69-1.27-3.924-.888-.782-1.575-1.008-2.496-.824-1.625.325-2.675 1.655-2.675 3.386 0 .57.122 1.271.271 1.56.342.661 1.26 1.365 2.084 1.6.848.24 1.06.243 1.862.02zm-1.493-2.876c-.298-.555-.223-.886.272-1.21.844-.554 1.827.311 1.355 1.192-.268.502-1.362.514-1.627.018zm-4.961-5.054c-.459-.506-.37-1.48.216-2.396.66-1.03 1.006-1.328 2.07-1.784l.866-.371.96.36c1.01.377 2.473 1.49 2.473 1.882 0 .484-.656.829-1.575.829-.75 0-1.036.1-1.616.567-1.443 1.162-2.831 1.535-3.394.913zm2.798-1.477c.536-.363 1.024-.541 1.49-.543.61-.003.685-.05.633-.405-.078-.547-1.144-1.23-1.92-1.23-1.118 0-2.712 1.978-2.093 2.598.278.278 1.145.085 1.89-.42zm-29.256 1.06c-.558-.796-.268-1.966.595-2.413.688-.356 2.233-.362 2.909-.012 1.15.594 1.69 2.033.918 2.446-.197.106-.788.186-1.314.18a16.87 16.87 0 0 0-1.885.103c-.835.103-.96.072-1.223-.304zm3.755-.705c.269-.245-.07-.896-.61-1.175-1.325-.685-2.754.003-2.337 1.124.139.374.227.392 1.47.294.728-.057 1.393-.166 1.477-.243zm3.203 22.73c.369-.97.235-1.311-.7-1.785a13.522 13.522 0 0 1-1.724-1.091c-.847-.646-.849-.647-1.003-.239-.23.61-.564 1.686-.564 1.823 0 .196 3.208 1.724 3.674 1.75.077.003.22-.202.317-.458zm38.54-.894 1.495-.691v-1.255c0-1.083-.196-5.486-.428-9.62l-.07-1.238 1.423-1.437C61.965 46.856 63.4 45 63.676 44.28c.176-.457-.508-.328-1.854.349-.682.343-1.275.588-1.319.544-.043-.043.014-.508.129-1.031.305-1.399.612-4.286.544-5.12l-.06-.724-.55.815c-.303.448-.74 1.264-.972 1.812-.608 1.437-.674 1.55-.853 1.45-.088-.05-.301-.948-.473-1.994-.366-2.221-1.061-5.073-1.238-5.073-.225 0-.353 1.653-.353 4.555 0 1.58-.069 2.873-.153 2.873-.085 0-.448-.59-.808-1.313-.617-1.24-2.088-3.235-2.482-3.367-.264-.088-.221 1.427.072 2.543.139.528.431 1.449.65 2.047.76 2.076.753 2.084-.767.946-1.109-.829-2.128-1.31-2.128-1.006 0 .307 1.253 2.34 2.439 3.957.622.849 1.267 1.806 1.434 2.129.586 1.134.733 3.22.504 7.167-.224 3.865-.277 7.605-.11 7.772.055.055.401-.04.77-.213.368-.172 1.342-.624 2.165-1.004zm4.292-12.226c2.987-3.897 4.757-7.477 5.553-11.236.338-1.594.403-2.475.404-5.436 0-3.72-.209-5.253-.959-7.032-.196-.467-.573-1.542-.835-2.389-.771-2.482-1.41-3.712-2.556-4.913-3.16-3.314-7.54-6.214-11.285-7.473-1.362-.458-1.624-.424-1.631.21-.004.343-.64 1.518-1.063 1.966-.456.482-.347.608.42.483.328-.053 1.197.003 1.931.124 4.38.723 7.34 2.264 10.588 5.514 1.672 1.673 3.159 3.552 3.159 3.992 0 .098-.755-.594-1.676-1.539-3.51-3.597-6.6-5.631-10.191-6.708-.399-.12-.912-.288-1.141-.375-.23-.087-.713-.158-1.076-.158-.61 0-.532.063 1.052.86 4.669 2.349 7.657 5.992 8.879 10.826.349 1.38.413 2.117.42 4.8.005 2.292-.065 3.372-.25 3.896-.173.486-.246 1.38-.224 2.718.019 1.096-.073 2.752-.203 3.681-.235 1.677-.234 1.688.139 1.567 2.005-.65 2.45-.715 2.756-.41.262.263.27.379.062.902-.358.906-1.74 2.947-2.926 4.322-1.032 1.195-1.057 1.25-1.057 2.3 0 .911.087 1.316.283 1.316.022 0 .665-.813 1.427-1.808zm-44.229 1.243c.218-.111.66-.454.985-.76.524-.497.589-.666.589-1.548 0-2.37-2.368-4.314-4.131-3.393-1.038.542-1.848 1.833-1.848 2.944 0 .732.713 1.988 1.411 2.485.52.37.882.475 1.633.475.531 0 1.144-.091 1.361-.203zm-.963-2.152c-.473-.473-.457-.624.11-1.07.52-.41.998-.293 1.328.324.139.258.086.42-.234.72-.512.482-.743.487-1.204.026zm-4.263.463c-.45-1.175-.271-2.481.462-3.394.713-.887.322-.915-.69-.05-.81.695-1.07 1.434-.873 2.487.108.58 1.15 2.05 1.328 1.873.049-.049-.054-.461-.227-.916zm-3.796-2.948c-.177-1.417-.244-1.725-.407-1.88-.123-.117-2.373-1.07-2.526-1.07-.222 0 .023.783.455 1.459.485.757 2.227 2.526 2.488 2.526.065 0 .06-.466-.01-1.035zm-.605-7.654c-.188-.253-.463-.484-.61-.513-.23-.045-.238.124-.05 1.269.263 1.607.411 2.242.688 2.951.186.478.218.314.263-1.352.045-1.628.004-1.96-.29-2.355zm47.417-4.084c.112-.498.253-1.13.313-1.404.328-1.483 1.544.713 2.356 4.258.178.772.378 1.404.446 1.404s.264-.224.437-.498c.172-.274.59-.76.927-1.078l.613-.58-.001-2.5c-.002-7.533-2.56-13.396-7.479-17.147-1.212-.924-3.256-2.112-3.634-2.112-.09 0-.051.152.085.338 4.114 5.591 5.483 9.617 4.26 12.525a13.45 13.45 0 0 1-1.083 1.966c-.625.914-.664 1.052-.664 2.392 0 1.23.105 2.074.458 3.705.043.199.61.925 1.26 1.614.65.688 1.194 1.34 1.21 1.449.015.109.088-.617.16-1.614.073-.996.224-2.22.336-2.718zM21.977 38.85c2.656-1 5.706-3.123 12.234-8.517 2.826-2.335 6.609-6.058 10.373-10.208 3.358-3.702 3.308-3.137-.109 1.23-.897 1.148-1.678 2.127-1.735 2.177-.057.05-.634.695-1.282 1.434-.647.74-2.215 2.19-3.483 3.226-1.268 1.034-2.862 2.427-3.543 3.094-1.177 1.154-1.262 1.294-1.716 2.845-.722 2.464-.764 2.786-.39 2.93.602.231 4.009-1.784 5.85-3.46.713-.649 1.778-2.247 3.554-5.331a297.014 297.014 0 0 1 3.559-5.918c1.974-3.203 2.865-4.899 3.31-6.305.181-.572.469-.135.469.712 0 1.792-.64 3.459-1.874 4.876-2.726 3.133-5.453 7.684-6.447 10.76-.454 1.403-.475 2.14-.076 2.582.53.584.98.456 3.686-1.053a8.678 8.678 0 0 1 1.45-.596c2.775-.825 4.247-1.507 5.855-2.71 1.117-.837 1.492-1.46 1.758-2.92.54-2.971-.627-7.032-3.078-10.702-1.04-1.557-1.32-1.84-2.72-2.763-.86-.565-1.834-1.308-2.165-1.65-.594-.612-.605-.653-.716-2.703-.061-1.144-.173-2.142-.248-2.217-.075-.074-.356-.02-.624.121-.765.403-2.592 2.166-2.587 2.496.01.594 1.828 2.212 2.94 2.617.429.156.402.489-.04.489-.76 0-2.544-1.207-3.09-2.09-.385-.623-.412-.633-1.327-.531-.513.057-1.26.175-1.658.26-.399.087-1.214.256-1.812.376-2.59.522-5.217 1.378-7.259 2.364-3.022 1.46-8.904 5.652-10.677 7.61l-.544.6.68-.49c.373-.27.944-.686 1.268-.927 1.323-.983 4.511-2.684 6.748-3.601 3.792-1.555 7.112-2.34 12.072-2.858 1.726-.18 5.381-.078 5.16.143-.046.046-1.048.156-2.226.245-7.46.564-12.416 1.867-17.937 4.714-3.597 1.855-8.602 5.528-9.358 6.867-1.496 2.652-2.414 4.892-2.004 4.892.06 0 .937-.756 1.948-1.68 2.744-2.511 4.472-3.8 6.873-5.126 1.399-.772 3.967-1.997 5.11-2.438.2-.077.648-.264.997-.415a61.895 61.895 0 0 1 1.902-.76c.697-.267 1.431-.551 1.63-.633a49.286 49.286 0 0 1 2.809-1.022c.448-.145.978-.332 1.177-.415.296-.122 3.803-1.244 5.707-1.825 1.956-.597 4.31-1.13 4.556-1.031.155.062.113.105-.117.118-.199.01-.52.14-.714.286-.193.146-.5.266-.682.266-.181 0-.471.073-.644.163-.173.09-.682.261-1.13.38-.449.12-.957.29-1.13.38-.173.09-.44.164-.591.164-.153 0-.419.072-.592.16-.173.09-1.13.42-2.126.734-.997.314-1.975.644-2.174.733-.2.088-.893.335-1.54.547a32.48 32.48 0 0 0-1.54.538c-.2.083-.852.332-1.45.552-.598.22-1.432.555-1.855.743-.422.187-.838.341-.923.341-.085 0-.392.115-.681.254-.29.14-.934.433-1.432.65-4.795 2.091-8.528 4.565-10.2 6.76-1.322 1.735-1.454 3.01-.359 3.47.672.282 1.292.11 3.237-.894.675-.35 1.736-.71 2.446-.832 1.342-.23 2.881-.745 3.834-1.284 2.74-1.55 3.384-1.954 9.116-5.71 3.033-1.987 5.84-3.802 6.239-4.034a357.794 357.794 0 0 1 4.02-2.3c1.142-.643 1.286-.515.299.265-.976.77-8.32 5.7-10.298 6.91a409.64 409.64 0 0 1-5.436 3.27c-3.561 2.042-5.632 3.545-7.609 5.525-2.433 2.436-3 3.911-1.916 4.995.669.669 1.392.69 2.998.085zm27.448-24.915c.695-.744 1.073-1.61 1.398-3.2.306-1.502.202-3.163-.22-3.513-.2-.166-.35-.107-.713.286-.487.525-.54.836-.489 2.889.02.783-.067 1.475-.227 1.811-.254.535-.258.537-.276.09-.099-2.419-.398-5.836-.544-6.222-.1-.264-.315-.48-.477-.48-.748 0-2.118 2.291-2.452 4.1-.23 1.239.018 2.183.792 3.026.569.62 2.21 1.751 2.542 1.751.09 0 .39-.242.666-.538z"/>
  <!-- Titillium Web -->
  <text x="0.5%" y="60.5%" font-family="Titillium Web, sans-serif" font-weight="bold" font-size="75">
    CAES
  </text>
  <!-- <path fill="#000" d="M28.081 127.172c-9.618-1.478-17.808-8.255-21.627-17.894-1.194-3.014-1.275-3.62-1.275-9.476 0-5.112.017-5.377.44-6.837.877-3.022 2.456-6.245 4.264-8.704 1.351-1.836 4.682-5.056 6.436-6.22 1.878-1.247 4.653-2.645 6.53-3.29 5.706-1.958 13.567-2.004 19.333-.111 1.876.616 5.007 2.261 6.652 3.496.838.629 2.13 1.78 2.872 2.556 1.365 1.43 3.054 3.772 3.046 4.222-.005.228-7.817 5.389-8.338 5.508-.13.03-.483-.384-.785-.92-1.706-3.022-4.647-5.208-8.392-6.238-1.984-.546-6.417-.696-8.407-.284-5.961 1.233-10.312 5.668-12.183 12.418-.548 1.978-.598 7.224-.087 9.16 1.895 7.187 6.411 11.839 12.803 13.19 1.614.342 6.061.171 7.7-.295 3.926-1.117 6.935-3.223 8.583-6.009.364-.615.692-1.204.73-1.307.07-.195.688.085 3.17 1.44.742.403 2.076 1.125 2.965 1.602 2.397 1.288 2.859 1.548 3.022 1.703.082.077-.091.616-.384 1.197-3.32 6.574-13.204 11.431-23.116 11.359-1.284-.01-3.063-.13-3.952-.266zm151.157.095c-5.03-.55-9.408-1.697-13.901-3.642-2.532-1.096-5.678-2.892-5.678-3.243 0-.133.373-.918.83-1.746a750.979 750.979 0 0 0 3.404-6.219c.279-.518.57-.943.647-.943.078 0 .567.324 1.088.718.779.591 4.384 2.492 5.797 3.057 4.23 1.692 8.825 2.697 12.293 2.689 1.323-.003 3.86-.353 4.956-.683 1.44-.434 2.852-1.5 3.45-2.601.435-.802.435-3.203 0-4.111-.97-2.025-3.745-3.26-12.839-5.718-6.04-1.633-9.93-3.142-12.373-4.801-2.297-1.56-3.955-3.852-4.655-6.436-.432-1.595-.525-4.543-.2-6.363.417-2.33.577-2.847 1.37-4.401 3.232-6.346 11.093-9.977 20.662-9.544 5.724.258 11.124 1.814 16.436 4.734 2.345 1.289 2.264.93.784 3.485-.709 1.222-1.812 3.134-2.451 4.247l-1.163 2.024-.509-.318-1.73-1.075c-2.056-1.276-6.046-2.744-9.48-3.487-.621-.134-2.223-.232-3.773-.23-2.236.003-2.936.072-4.11.404-3.053.863-4.603 2.627-4.603 5.238 0 1.89.646 3.026 2.347 4.125 1.346.87 3.897 1.708 9.535 3.133 5.118 1.293 6.262 1.635 8.955 2.674 3.146 1.215 5.175 2.459 6.846 4.198 1.616 1.682 2.393 3.064 3.064 5.45.344 1.225.289 6.467-.082 7.724-.16.543-.348 1.19-.419 1.437-.07.247-.404.974-.742 1.616-2.058 3.905-5.923 6.578-11.451 7.92-3.216.78-8.678 1.085-12.305.688zm-122.582-.322c-.055-.09.855-2.576 2.022-5.526a15284.57 15284.57 0 0 0 13.418-34.105c1.164-2.963 2.852-7.248 3.752-9.52l1.637-4.131 5.544-.048c3.605-.03 5.622.017 5.766.137.123.102.365.568.54 1.036.388 1.047 3.338 8.613 5.479 14.053.875 2.223 2.41 6.144 3.414 8.712 3.16 8.095 6.093 15.577 9.682 24.696.99 2.517 1.737 4.64 1.66 4.718-.077.077-2.68.119-5.783.093l-5.643-.048-1.847-5.209a877.374 877.374 0 0 0-2.345-6.556l-.5-1.348-10.321-.046-10.322-.046-.836 2.381c-.459 1.31-1.17 3.311-1.58 4.447a448.942 448.942 0 0 0-2.043 5.748l-.213.63-5.69.047c-3.25.027-5.734-.023-5.791-.115zm34.026-20.815c0-.398-7.452-21.028-7.57-20.955-.078.048-.218.346-.313.664a37.169 37.169 0 0 1-.565 1.655 531.18 531.18 0 0 0-1.256 3.503 857.883 857.883 0 0 1-1.61 4.49 200.852 200.852 0 0 0-.9 2.515c-.18.542-.974 2.764-1.988 5.569a95.433 95.433 0 0 0-.838 2.38c-.086.296.354.314 7.474.314 4.161 0 7.566-.06 7.566-.135zm25.051 20.748c-.047-.124-.065-12.148-.04-26.72l.047-26.495h38.8v9.16l-13.742.09-13.742.09-.047 6.241-.047 6.24 11.902.047 11.903.046v8.443l-11.855.09-11.856.09-.047 6.78-.047 6.78 14.148.045 14.148.046v9.161l-19.72.046c-15.68.036-19.737 0-19.805-.18z"/> -->
  <text x="2%" y="71.725%" font-family="Arial" font-size="12" letter-spacing="2.75">
    Centre d'Audiophonologie
  </text>
    <text x="2%" y="78.5%" font-family="Arial" font-size="12" letter-spacing="2.5">
    et d'Education Sensorielle
  </text>
  <!-- <path fill="#000" d="M6.381 164.88c-.992-.495-1.31-.826-1.652-1.723-.882-2.31.695-4.57 3.188-4.57 1.758 0 3.507 1.61 3.364 3.096l-.057.593-2.835.05-2.836.05.363.711c.693 1.358 2.369 1.696 3.497.705.69-.605 1.271-.639 1.271-.073 0 .227-.318.57-.875.942-1.054.704-2.296.784-3.428.22zm3.762-3.818c-.064-.223-.392-.668-.73-.99-.51-.487-.752-.585-1.443-.585-.952 0-1.73.459-2.147 1.265-.147.284-.267.561-.267.616 0 .054 1.058.099 2.351.099h2.352zm4.95 3.83c-.437-.336-.45-.414-.49-2.83-.04-2.42-.051-2.488-.45-2.583-.568-.136-.542-.754.037-.89.393-.094.44-.19.395-.819-.065-.913.338-1.524.813-1.232.238.147.33.437.34 1.08l.015.88.705.09c.56.07.717.172.762.494.052.364-.018.405-.68.405h-.738l.05 2.295.051 2.294h.756c1.027 0 1.371.355.799.823-.56.458-1.764.454-2.365-.006zm11.248-.088c-1.155-.703-1.62-1.558-1.62-2.98 0-1.04.069-1.285.516-1.872.728-.954 1.48-1.363 2.507-1.364.907 0 1.687.304 2.119.826.227.275.267.105.347-1.473.088-1.758.096-1.783.54-1.783h.45l.1 3.959c.054 2.177.16 4.127.237 4.331.285.772-.753.995-1.153.247-.166-.31-.214-.305-.94.11-1.02.583-2.145.583-3.103 0zm2.73-.807c.942-.428 1.139-.797 1.139-2.14 0-1.002-.042-1.11-.633-1.629-.349-.306-.834-.606-1.08-.668-1.535-.385-3.19 1.537-2.602 3.022.312.79.689 1.208 1.344 1.497.737.323.961.313 1.832-.082zm10.362 1.123c-.172-.064-.225-1.11-.225-4.388v-4.304h6.323l-.057.405c-.056.394-.12.406-2.532.455l-2.475.05v2.869h4.32v.9h-4.32v3.059h5.04v.43c0 .237-.102.47-.226.518-.29.11-5.551.116-5.848.006zm10.363-.394c-1.824-1.156-2.114-3.574-.625-5.211.951-1.045 2.637-1.258 3.786-.478.365.248.697.45.738.45.042 0 .099-.749.127-1.665.051-1.641.058-1.664.502-1.664h.45l.049 3.954c.028 2.271.123 4.028.225 4.13.27.27.21.772-.107.894-.367.14-.977-.188-.977-.526 0-.343-.008-.341-.926.184-1.1.629-2.179.606-3.242-.068zm2.849-.729c.93-.422 1.14-.799 1.14-2.055 0-1.21-.55-1.975-1.653-2.306-.651-.195-.805-.176-1.493.19-.893.473-1.174.98-1.174 2.116 0 .975.489 1.76 1.322 2.126.765.335.983.327 1.858-.07zm6.87.843c-.77-.651-.933-1.182-1.017-3.318-.097-2.456-.002-2.935.58-2.935.577 0 .644.26.647 2.49.003 2.347.083 2.67.744 3.012.69.357 1.8.04 2.414-.688.41-.487.439-.66.439-2.584 0-1.742.046-2.079.294-2.174.162-.062.425-.03.585.07.242.152.307.691.389 3.222.054 1.673.031 3.12-.05 3.217-.185.22-.669-.064-.936-.548a23.737 23.737 0 0 0-.238-.424c-.025-.041-.227.085-.45.28-.999.882-2.597 1.06-3.401.38zm9.88-.125c-1.046-.663-1.574-1.634-1.574-2.893 0-1.933 1.405-3.236 3.486-3.234 1.695 0 3.366 1.46 2.19 1.911-.153.058-.517-.102-.828-.364-.75-.63-1.354-.753-2.221-.45-1.53.532-2.039 2.363-1.005 3.617.962 1.167 2.241 1.274 3.356.279.457-.408 1.02-.356 1.109.103.132.69-1.451 1.562-2.835 1.562-.623 0-1.06-.138-1.679-.53zm8.377.178c-.732-.446-1.201-1.328-1.045-1.961.312-1.264 2.125-2.08 3.78-1.7.442.1.845.14.897.089.24-.241.046-.83-.432-1.308-.642-.642-1.572-.702-2.616-.17-.522.266-.76.306-.938.158-.422-.35-.26-.645.569-1.034 1.05-.494 2.568-.51 3.349-.035 1.048.637 1.239 1.144 1.24 3.289 0 1.087.08 1.972.181 2.035.28.173.212.76-.103.88-.324.124-.91-.142-1.017-.463-.052-.156-.313-.105-.914.177-1.046.492-2.188.508-2.95.043zm2.83-.819c.971-.502 1.221-1.593.434-1.892-.69-.262-2.005-.212-2.607.1-.43.222-.53.39-.53.889 0 .431.119.698.4.895.508.356 1.622.36 2.303.008zm6.459.941c-.606-.465-.723-1.013-.693-3.236.03-2.173.026-2.198-.395-2.298-.583-.137-.57-.754.02-.893.393-.093.44-.189.395-.818-.063-.897.293-1.435.837-1.262.338.107.391.256.391 1.09v.968l.675.055c.542.045.686.136.732.461.052.363-.018.405-.674.405h-.733v2.24c0 1.92.044 2.265.306 2.412.191.107.471.108.75.001.338-.128.515-.1.73.12.259.263.246.32-.141.637-.485.398-1.747.465-2.2.117zm5.635.08c-.175-.111-.218-.893-.18-3.282l.05-3.136h.899l.05 3.136c.047 3.03-.011 3.427-.5 3.427-.05 0-.193-.065-.32-.145zm6.197-.104c-2.515-1.112-2.801-4.43-.508-5.884 2.385-1.513 5.471.327 5.205 3.102-.214 2.226-2.667 3.68-4.697 2.782zm2.106-.893c1.8-.752 1.974-3.097.312-4.204-.749-.499-1.368-.515-2.123-.055-.815.497-1.194 1.164-1.194 2.099 0 .95.436 1.636 1.332 2.093.745.38.909.386 1.673.067zm6.093.997c-.174-.111-.217-.893-.18-3.282.05-3.102.054-3.136.457-3.194.33-.046.428.049.518.502.1.497.144.53.403.304 1.026-.897 2.875-1.133 3.598-.46.613.571.77 1.155.875 3.246.107 2.121.014 2.76-.424 2.928-.638.245-.788-.208-.791-2.39-.003-2.301-.175-2.888-.924-3.15-.36-.127-.663-.072-1.305.24-1.173.567-1.368 1.038-1.368 3.309 0 1.548-.05 1.898-.284 1.988-.344.132-.296.136-.575-.041zm15.436-.041c-1.267-.365-2.16-.921-2.16-1.347 0-.494.49-.713.881-.392.695.57 1.38.761 2.727.761 1.118 0 1.469-.068 1.772-.343.53-.48.51-1.42-.039-1.779-.386-.253-.703-.356-2.731-.883a8.545 8.545 0 0 1-1.32-.48c-1.553-.758-1.44-2.884.202-3.814 1.073-.609 3.137-.603 4.23.012.787.442.828.503.648.974-.144.374-.389.359-1.24-.076-.979-.498-2.573-.492-3.216.014-.474.373-.644 1.245-.336 1.72.152.235 1.433.694 2.477.887 1.108.206 2.151.714 2.577 1.255.795 1.01.311 2.616-.973 3.225-.808.384-2.613.52-3.499.266zm9.677-.055c-1.885-.836-2.658-3.031-1.664-4.727 1.095-1.869 3.71-2.263 5.368-.808.537.471 1.041 1.622.981 2.24l-.055.572-2.745.05c-1.72.031-2.744.118-2.744.234 0 .434.586 1.26 1.074 1.513.977.505 2.667.201 2.947-.53.138-.359.818-.359.955 0 .136.354-.384.928-1.235 1.362-.755.386-2.124.43-2.882.094zm3.639-3.757c-.002-.364-.663-1.262-1.113-1.512-.655-.363-1.902-.298-2.505.131-.556.396-1.123 1.303-.933 1.493.062.062 1.112.113 2.332.113 1.657 0 2.22-.057 2.219-.225zm4.356 3.788c-.254-.255-.305-5.844-.057-6.235.256-.403.825-.167.887.368l.056.482.834-.529c1.186-.752 2.492-.752 3.244 0 .661.661.759 1.149.759 3.8 0 1.964-.028 2.134-.359 2.24-.197.062-.44.062-.54 0-.103-.064-.181-.93-.181-2.015 0-2.203-.23-3.164-.83-3.486-.599-.32-1.711.041-2.306.748-.435.517-.463.67-.463 2.48 0 1.883-.128 2.362-.63 2.362-.109 0-.295-.097-.414-.216zm10.401.09c-1.336-.484-1.813-.954-1.431-1.414.157-.188.362-.15 1.064.203 1.149.577 2.167.576 2.832-.002.829-.72.47-1.044-1.925-1.738-1.109-.321-1.589-.694-1.716-1.334-.263-1.326.756-2.246 2.49-2.247 1.064 0 1.844.277 2.292.817.216.26.206.333-.075.539-.275.201-.411.185-.893-.11-1.05-.64-2.818-.3-2.818.541 0 .478.292.653 1.839 1.101 1.984.575 2.628 1.329 2.092 2.445-.406.845-1.316 1.327-2.472 1.31-.555-.007-1.13-.057-1.279-.111zm8.824-.075c-1.484-.592-2.298-1.983-2.106-3.6.382-3.223 4.972-3.957 6.393-1.022.663 1.37.47 2.627-.57 3.712-.971 1.014-2.512 1.391-3.717.91zm2.043-.949c.885-.37 1.37-1.158 1.37-2.228 0-.633-.109-1.032-.375-1.37-.447-.568-1.245-1.011-1.82-1.01-1.032 0-2.301 1.35-2.303 2.447 0 .738.665 1.705 1.443 2.096.756.38.918.386 1.685.065zm6.09.999c-.175-.111-.218-.894-.18-3.282l.05-3.136h.448c.353 0 .467.11.54.523.084.481.112.498.348.213.603-.728 1.91-1.07 2.108-.554.147.382-.207.745-.85.874-.302.06-.786.347-1.077.638-.522.523-.528.549-.528 2.592 0 1.716-.048 2.083-.284 2.173-.344.132-.296.136-.575-.041zm6.479.003c-.175-.113-.218-.897-.18-3.284l.049-3.136h.9v3.236c0 2.737-.042 3.245-.27 3.284a.809.809 0 0 1-.5-.1zm6.143-.128c-.31-.136-.847-.579-1.193-.984-.93-1.086-1.092-2.243-.498-3.551.892-1.965 3.757-2.473 5.469-.97.537.47 1.04 1.621.98 2.24l-.055.572-2.744.05c-3.14.056-3.244.123-2.046 1.32.588.589.818.7 1.449.7.83 0 1.71-.378 1.874-.804.138-.358.817-.358.955 0 .136.354-.384.928-1.235 1.362-.78.398-2.127.428-2.956.065zm3.714-3.61c0-.402-.675-1.393-1.095-1.61-.734-.38-1.901-.332-2.51.102-.524.372-1.117 1.333-.935 1.514.136.136 4.54.13 4.54-.007zm4.715 3.521c-.216-.2-.436-.545-.49-.765-.054-.22-.075-2.05-.047-4.07.043-3.144.092-3.695.341-3.852.16-.1.423-.132.585-.07.26.1.294.572.294 4.058 0 4.222.01 4.27.901 4.036.483-.126.762.251.52.704-.252.47-1.584.444-2.104-.04zm5.372-.113c-.36-.458-.374-.654-.328-4.544l.048-4.066h.9l.049 3.864c.03 2.352.121 3.936.234 4.05.103.101.443.184.757.184.416 0 .59.093.638.339.09.45-.26.645-1.17.648-.601.002-.827-.093-1.128-.475zm6.559.11c-.962-.471-1.464-1.076-1.782-2.146-.841-2.835 2.426-5.225 5.045-3.69.964.565 1.734 1.796 1.653 2.641l-.057.594-2.835.05c-1.559.027-2.834.083-2.834.124 0 .041.172.366.381.722.764 1.294 2.38 1.582 3.477.62.688-.606 1.27-.64 1.27-.074 0 .227-.318.57-.874.942-1.055.705-2.291.783-3.444.218zm3.777-3.816c-.064-.223-.392-.668-.73-.99-.51-.486-.752-.585-1.442-.585-.952 0-1.731.46-2.148 1.265-.147.285-.267.562-.267.616 0 .055 1.058.099 2.351.099h2.352zm-169.662-2.25c-.041-.074-.066-.702-.056-1.394.018-1.148.054-1.265.41-1.316.507-.072.668.434.508 1.599-.082.594-.234.951-.455 1.07-.182.097-.365.116-.407.042zm57.891-1.38c-.054-.14-.071-.484-.04-.764.048-.409.149-.51.509-.51.38 0 .459.095.508.61.058.603-.16.91-.649.917-.126 0-.274-.112-.328-.252zm81.482.101c-.143-.092-.215-.398-.18-.764.049-.516.128-.611.508-.611.404 0 .45.072.45.717 0 .74-.282.978-.778.658zm-53.18-4.284c-.066-.066-.12-2.137-.12-4.602v-4.481l.405.057a.51.51 0 0 1 .463.463c.07.5.054.501.86-.045.771-.524 2.118-.611 2.934-.19 1.24.642 2.135 2.328 1.9 3.58-.477 2.543-3.324 3.696-5.077 2.055l-.405-.38v1.722c0 1.404-.052 1.742-.284 1.831-.366.14-.527.138-.676-.01zm3.931-3.559c1.879-.785 1.746-3.725-.199-4.403-.867-.302-1.471-.18-2.218.45-.517.434-.554.545-.554 1.675 0 1.086.051 1.259.495 1.683.487.466 1.171.82 1.626.843.126.006.51-.105.85-.248zm60.698 3.433c-.607-.269-1.403-1.005-1.403-1.296 0-.398.581-.461.972-.106.617.56 1.116.748 1.994.748 1.48 0 2.252-.641 2.252-1.868v-.63l-.764.436c-1.708.977-3.632.25-4.475-1.687-.393-.903-.415-1.264-.137-2.195.675-2.251 3.835-3.166 5.21-1.508.236.285.264.267.347-.213.064-.367.21-.54.489-.58.573-.082.635.364.563 4.053-.06 3.041-.085 3.232-.495 3.808-.592.83-1.652 1.278-2.987 1.265-.594-.006-1.299-.108-1.566-.227zm2.734-3.443c.832-.43 1.081-.941 1.081-2.214 0-1.017-.056-1.2-.512-1.656-1.447-1.447-3.805-.387-3.805 1.71 0 1.737 1.77 2.918 3.236 2.16zm-180.637.943c-.802-.257-2.133-1.46-2.576-2.328-1.073-2.104-.314-4.627 1.759-5.842.718-.421 1.061-.502 2.128-.502 1.054 0 1.412.083 2.095.483.453.265.955.683 1.116.93.265.404.266.473.013.726-.377.377-.48.358-.988-.186-.965-1.033-2.463-1.278-3.761-.616-.83.424-1.16.855-1.549 2.025-.244.737-.255 1.01-.067 1.793.306 1.273 1.429 2.407 2.55 2.575 1.116.167 2.181-.167 2.904-.91l.609-.628.424.344.424.344-.72.72c-1.099 1.098-2.898 1.54-4.361 1.072zm9.606-.182c-1.062-.607-1.717-1.527-1.843-2.588-.386-3.26 3.825-5.005 6.026-2.498.621.708.807 1.227.718 2.008l-.06.517-2.754.05c-2.751.05-2.755.05-2.642.45.062.22.404.663.76.984.497.449.81.585 1.346.585.786 0 1.664-.386 1.824-.803.137-.358.817-.358.954 0 .136.354-.384.928-1.235 1.362-.916.468-2.208.44-3.094-.067zm3.852-3.56c0-.104-.123-.426-.273-.717-.77-1.49-3.323-1.39-4.096.16-.15.3-.226.59-.17.645.192.193 4.539.109 4.539-.088zm4.54 3.817c-.175-.11-.218-.893-.18-3.281l.049-3.136h.448c.354 0 .467.11.54.523.084.48.113.497.347.214.392-.473 1.405-.827 2.363-.827.78 0 .92.066 1.418.67l.553.671v2.55c0 2.188-.042 2.565-.293 2.66-.637.245-.787-.208-.79-2.39-.003-2.31-.174-2.887-.937-3.155-.62-.218-1.815.293-2.31.988-.295.414-.35.8-.35 2.468 0 1.637-.048 1.996-.284 2.087-.343.132-.295.135-.575-.042zm10.011-.192c-.4-.324-.43-.488-.514-2.835-.088-2.434-.1-2.492-.506-2.55-.557-.078-.481-.815.092-.897.348-.05.403-.182.45-1.08.05-.957.083-1.023.504-1.023s.453.066.503 1.035l.054 1.035h.692c.466 0 .727.093.801.286.174.452-.038.613-.801.613h-.71v2.138c0 2.419.084 2.594 1.2 2.506.582-.046.698.003.743.318.108.757-1.722 1.089-2.508.454zm5.814.185c-.187-.118-.236-.833-.219-3.189.012-1.67.092-3.106.177-3.19.307-.308.819-.03.91.494.085.479.113.496.349.21.603-.727 1.91-1.07 2.108-.553.152.396-.22.753-.921.885-.365.068-.799.336-1.073.662-.435.517-.461.662-.461 2.584 0 1.691-.048 2.055-.285 2.146-.344.132-.294.136-.585-.049zm7.512-.26c-1.169-.618-1.835-1.656-1.835-2.863 0-2.022 1.424-3.377 3.547-3.377 1.52 0 2.923 1.155 3.218 2.652.22 1.115.191 1.127-2.863 1.127-1.524 0-2.77.06-2.77.135.002.358.763 1.318 1.242 1.566.992.513 1.707.363 3.097-.648.319-.231.88-.098.88.21 0 .297-.914 1.077-1.595 1.362-.905.378-2.012.315-2.921-.165zm3.848-3.474c.062-.062-.004-.339-.147-.615-.848-1.64-3.365-1.678-4.132-.062-.15.316-.272.623-.272.682 0 .144 4.407.14 4.551-.005zm11.068 3.375c-2.818-1.812-1.683-6.141 1.61-6.141.659 0 1.072.119 1.559.45.754.511.854.54.813.224-.016-.123-.02-.898-.007-1.721l.02-1.497.496.057.495.057.044 3.87c.028 2.49.118 4.01.252 4.267.16.308.156.462-.021.675-.317.382-.496.348-.992-.188l-.43-.464-.546.404c-.351.26-.884.43-1.496.477-.82.064-1.066 0-1.797-.47zm2.622-.63c.952-.399 1.374-1.081 1.374-2.224 0-.874-.067-1.05-.598-1.582-1.579-1.579-3.798-.613-3.798 1.653 0 1.055.431 1.704 1.427 2.146.69.307.872.308 1.595.006zm8.816.873c-.058-.15.724-2.135 1.738-4.41 1.79-4.017 1.858-4.134 2.364-4.134.391 0 .565.113.693.45.094.248.344.835.555 1.305.21.47.49 1.097.621 1.394.131.297.69 1.55 1.24 2.784.552 1.234 1.003 2.338 1.003 2.455 0 .264-.457.45-.79.323-.138-.053-.514-.699-.835-1.434l-.583-1.338-1.82.003c-1.001 0-1.906.062-2.012.135-.105.072-.38.604-.61 1.18-.232.577-.536 1.164-.677 1.305-.336.335-.755.327-.887-.018zm5.515-3.638c0-.244-1.334-3.286-1.44-3.286-.11 0-1.45 3.048-1.443 3.284.005.175 2.883.177 2.883.002zm6.518 3.468c-.79-.664-.97-1.452-.905-3.965l.056-2.16h.9l.1 2.41c.1 2.349.115 2.421.596 2.835.271.233.625.424.786.424.504 0 1.842-.736 2.075-1.142.122-.213.262-1.317.311-2.457.09-2.063.092-2.07.54-2.07h.45l.045 2.61c.027 1.57.13 2.773.259 3.02.172.331.16.462-.059.681-.348.348-.853.158-1.066-.4l-.163-.43-.733.485a3.534 3.534 0 0 1-1.676.563c-.822.069-1.016.017-1.516-.404zm10.183.077c-1.776-.938-2.349-3.264-1.213-4.922.942-1.374 2.764-1.78 4.127-.92.392.248.74.45.773.45.033 0 .025-.483-.018-1.073-.042-.59-.023-1.365.044-1.72.108-.573.177-.641.606-.592l.485.056.09 4.05c.05 2.226.157 4.153.24 4.281.157.242-.15.757-.45.757-.092 0-.366-.2-.61-.443l-.443-.444-.654.444c-.81.55-2.021.58-2.977.076zm2.401-.788c1.042-.435 1.273-.835 1.273-2.203 0-1.129-.039-1.25-.552-1.708-1.473-1.317-3.488-.547-3.753 1.435-.137 1.017.337 1.9 1.266 2.36.89.44.976.446 1.766.116zm6.492 1.004c-.174-.11-.217-.893-.18-3.281l.05-3.136h.9l.05 3.136c.047 3.028-.011 3.427-.5 3.427-.05 0-.193-.066-.32-.146zm6.144-.116c-.82-.373-1.818-1.621-1.957-2.446-.348-2.058 1.223-3.945 3.284-3.945 1.929 0 3.298 1.216 3.43 3.046.145 1.995-1.158 3.452-3.174 3.552-.605.03-1.248-.054-1.583-.207zm2.38-1c1.86-.901 1.678-3.745-.279-4.33-.926-.278-1.574-.087-2.292.673-.51.541-.594.759-.594 1.535 0 1.063.474 1.86 1.33 2.232.756.329.952.317 1.835-.11zm15.952 1.117c-.177-.112-.217-1.144-.18-4.541l.048-4.397h.45c.444 0 .451.024.54 1.8.051 1.03.153 1.702.237 1.572.516-.797 2.716-1.212 3.503-.662.787.552.939 1.157.939 3.74 0 2.069-.043 2.436-.293 2.532-.634.243-.787-.211-.787-2.334 0-2.364-.128-2.819-.881-3.131-.742-.307-1.759.086-2.313.895-.358.522-.405.814-.405 2.524 0 1.597-.05 1.953-.285 2.043-.343.132-.295.135-.573-.041zm10.732-.21c-1.97-1.042-2.491-3.418-1.106-5.037.81-.946 1.445-1.261 2.538-1.261 1.08 0 1.945.342 2.574 1.02.719.775.876 1.2.876 2.36 0 .896-.085 1.182-.537 1.807-1.007 1.39-2.9 1.874-4.345 1.11zm2.47-.908c2.089-1.011 1.615-4.054-.69-4.428-2.434-.395-3.453 3.514-1.176 4.51.804.35.99.343 1.865-.082zm5.952 1.148c-.066-.066-.12-1.57-.12-3.342v-3.221l.405.057c.29.041.42.198.461.552.065.566.242.625.596.198.625-.754 2.59-1.039 3.375-.489.731.512.921 1.3.921 3.82 0 1.902-.049 2.345-.27 2.43-.706.271-.81-.018-.81-2.253 0-2.326-.21-3.082-.923-3.308-.572-.182-1.736.268-2.237.864-.408.485-.439.662-.439 2.557 0 1.691-.048 2.055-.284 2.146-.366.14-.527.138-.675-.011zm10.996-.127c-.645-.286-1.527-1.141-1.856-1.8-1.022-2.05.745-4.611 3.182-4.611 2.706 0 4.295 2.937 2.806 5.187-.813 1.23-2.796 1.817-4.132 1.224zm2.515-1.115c.587-.385 1.124-1.324 1.124-1.967 0-1.097-1.282-2.428-2.338-2.428-.583 0-1.517.574-1.91 1.174-.428.653-.404 1.95.048 2.565.775 1.057 2.049 1.329 3.076.656zm6.148 1.131c-.634-.487-.704-.96-.701-4.75 0-2.061.071-3.855.155-3.988.084-.132.346-.213.582-.18l.43.061.048 3.95c.035 2.801.111 3.99.262 4.083.117.072.44.086.716.031.445-.089.503-.048.503.352 0 .25-.128.503-.284.563-.468.18-1.405.113-1.71-.122zm6.351-.152c-1.432-.709-2.223-2.285-1.837-3.662.456-1.631 1.755-2.613 3.454-2.613 1.02 0 1.435.176 2.275.966 1.447 1.361 1.468 3.154.055 4.672-.98 1.053-2.583 1.312-3.947.637zm2.356-.783c.923-.385 1.387-1.129 1.387-2.223 0-.776-.085-.994-.595-1.535-.744-.789-1.408-.968-2.357-.638-1.33.464-1.95 2.102-1.284 3.39.24.463 1.517 1.272 2.01 1.272.11 0 .489-.12.839-.266zm16.073.933c-.262-.192-.293-.596-.25-3.277l.05-3.058h1.08l.05 3.095c.045 2.877.024 3.109-.291 3.278-.238.127-.428.116-.639-.038zm6.114-.123c-1.037-.532-1.318-.847-1.724-1.933-.312-.832-.337-1.092-.167-1.73.808-3.037 4.806-3.622 6.382-.934.31.529.447.996.41 1.39l-.057.594-2.835.05c-1.559.027-2.834.083-2.834.124 0 .041.172.366.381.722.762 1.29 2.299 1.567 3.447.62.37-.304.813-.525.986-.492.564.109.347.736-.45 1.295-1.006.708-2.493.831-3.539.295zm3.71-3.873c-.03-.198-.332-.623-.672-.945-.514-.486-.76-.585-1.448-.585-.952 0-1.731.46-2.148 1.265-.147.285-.267.564-.267.621 0 .058 1.032.082 2.294.054 2.179-.047 2.292-.068 2.241-.41zm-131.96-2.294a43.75 43.75 0 0 1-.096-1.363l-.082-1.317.501.058c.428.049.51.15.562.687.078.83-.274 1.98-.607 1.98-.145 0-.27-.02-.277-.045zm34.058-1.192c-.143-.09-.215-.394-.18-.762.05-.516.129-.61.509-.61s.459.094.508.61c.05.533-.16.913-.508.913-.05 0-.197-.068-.329-.15zm87.977-.102c-.118-.143-.189-.487-.157-.765.05-.43.14-.506.598-.506.458 0 .549.077.598.506.061.537-.223 1.024-.598 1.024-.124 0-.323-.117-.44-.26z"/> -->
</svg>