<svg width="210" height="210" viewBox="0 0 210 210" xml:space="preserve" xmlns="http://www.w3.org/2000/svg">
  <path fill="#d2c8b4" d="M20.47 204.191c-.123-.2.189-.645.832-1.185l1.03-.864.052-3.509c.053-3.56.269-4.3 1.063-3.641.41.34.482 6.686.087 7.726-.423 1.112-2.63 2.174-3.063 1.473zm-29.633-2.896c-3.205-1.587-2.336-5.404 1.416-6.212.942-.203 1.056-.356 1.2-1.622.113-1.006.355-1.427.82-1.427.585 0 .674.657.674 4.995 0 2.882-.098 4.257-.318 4.477-.493.493-2.607.375-3.792-.211zm2.563-2.078c.05-.706.028-1.629-.05-2.05-.122-.67-.24-.757-.925-.683-2.663.288-2.523 4.016.15 4.016.688 0 .739-.08.825-1.283zm3.957 1.922c-.519-.66-.568-.996-.5-3.397.068-2.464.114-2.666.603-2.666.48 0 .542.222.666 2.382.075 1.31.231 2.53.346 2.712.303.477 1.35.406 2.02-.136.5-.405.577-.736.584-2.503.009-2.212.378-2.96 1.147-2.322.305.253.396.946.393 3.009-.003 1.473-.092 2.814-.199 2.978-.107.165-1.16.384-2.339.487-2.124.187-2.15.181-2.72-.544zm10.39.3c-.253-.66.153-.939 1.37-.939 1.112 0 2.234-.641 2.234-1.276 0-.33-1.084-1.254-2.035-1.734-1.79-.904-2.191-2.594-.919-3.867.944-.943 3.037-1.355 3.67-.722.57.57.266.89-1.01 1.061-1.231.165-1.974.737-1.742 1.34.084.22.818.825 1.63 1.345 1.725 1.103 2.15 1.914 1.708 3.256-.227.687-.574 1.038-1.397 1.411-1.336.607-3.297.676-3.509.125zm7.364-.217c-.562-.599-.6-.839-.529-3.395.07-2.549.115-2.75.605-2.75.48 0 .542.22.662 2.38.073 1.31.228 2.53.346 2.713.272.42.925.415 1.77-.01.615-.31.671-.504.794-2.709.12-2.154.182-2.375.662-2.375.5 0 .529.177.529 3.175v3.175l-1.059.054a24.38 24.38 0 0 0-2.116.22c-.9.141-1.149.07-1.664-.478zm11.922-.05c-1.262-.557-1.977-1.851-1.849-3.343.172-2.011 1.353-3.15 3.265-3.15 1.317 0 2.548 1.238 2.432 2.445l-.083.863-1.964.132c-1.208.081-2.004.257-2.07.456-.202.612 1.143 1.611 2.426 1.804.945.141 1.218.287 1.156.616-.11.577-2.162.687-3.313.178zm2.239-4.556c.056-.172-.15-.449-.46-.615-.446-.238-.699-.212-1.215.126-.36.235-.578.548-.487.695.222.36 2.033.187 2.162-.206zm4.266 4.346c-.572-.531-.695-.927-.828-2.684-.104-1.374-.302-2.223-.596-2.548-.414-.457-.396-.543.312-1.43.89-1.116 1.225-1.174 1.63-.282.226.493.506.661 1.102.661 1.15 0 1.106.894-.06 1.229l-.86.246v3.68l.925.437c1.208.57 1.202 1.132-.013 1.234-.693.059-1.116-.084-1.612-.543zM22.56 193.49c-.092-.24-.04-.561.115-.717.403-.403 1.167-.034 1.062.513-.118.609-.965.756-1.177.204zm-77.726-9.726c-2.465-5.213-2.859-6.557-1.916-6.544.615.008.91.452 2.023 3.039.625 1.455 1.29 2.812 1.478 3.016.284.31.597-.153 1.878-2.778 1.496-3.063 2.23-3.856 2.41-2.601.074.514-2.432 6.418-3.276 7.72-.772 1.191-1.354.777-2.597-1.852zm8.705 2.129c-3.565-1.246-3.19-6.34.497-6.756 1.071-.12 1.283-.05 2.004.671.599.599.807 1.051.807 1.753 0 1.03.065 1.005-2.828 1.062-.464.01-.985.157-1.157.327-.522.517.772 1.569 2.192 1.782 1.246.187 1.717.656 1.19 1.183-.362.362-1.634.352-2.705-.022zm1.588-4.973c0-.62-1.817-.542-1.937.084-.079.407.061.467.922.397.689-.057 1.015-.212 1.015-.48zm7.531 4.884c-.56-.675-.054-.957 2.06-1.15.684-.062.259-.984-.81-1.758-1.866-1.352-1.6-3.288.508-3.684 1.11-.208 1.956.021 1.956.53 0 .206-.328.446-.728.534-.4.087-.876.205-1.058.261-.649.2-.314.889.794 1.63 1.746 1.17 1.647 2.894-.212 3.67-1.166.488-2.088.475-2.51-.033zm23.076-.254-.841-.708v-2.726c0-2.073.087-2.76.364-2.867.697-.267.958.442.958 2.597 0 2.334.214 2.778 1.335 2.778 1.148 0 1.576-.736 1.576-2.71 0-.96.072-1.933.16-2.163.208-.541 1.059-.541 1.267 0 .254.664.178 5.23-.095 5.66-.135.215-.7.413-1.252.44-.554.027-1.372.13-1.818.228-.652.144-.979.039-1.654-.53zm-27.443.115c-.232-.375-.443-5.207-.254-5.803.104-.327.536-.423 1.971-.436 2.367-.022 2.638.434.81 1.36l-1.304.661-.077 2.181c-.063 1.782-.157 2.196-.515 2.265-.241.046-.525-.057-.631-.228zm12.696-.059c-.072-.187-.098-2.3-.058-4.696.072-4.29.082-4.357.668-4.44.328-.047.613.013.635.132.177.98.109 8.52-.08 8.882-.284.541-.977.614-1.165.122zm4.976.151c-.566-.203-.357-.882 1.494-4.837 2.485-5.31 2.438-5.318 5.315.869 1.422 3.057 1.512 3.41.987 3.846-.476.395-.84.097-1.558-1.276l-.621-1.19-1.754-.078-1.754-.077-.572 1.18c-.64 1.322-1.05 1.739-1.537 1.563zm4.574-4.324c.208-.336-.371-1.836-.71-1.836-.362 0-.846 1.235-.666 1.703.18.469 1.113.559 1.376.133zm12.833 3.802c-.76-.684-.833-.896-.908-2.663-.059-1.367-.216-2.067-.544-2.43-.442-.488-.43-.55.292-1.453.891-1.118 1.206-1.168 1.786-.282.27.41.682.661 1.09.661.478 0 .654.142.654.53 0 .375-.176.528-.608.528-.932 0-1.244.506-1.244 2.016 0 1.838.148 2.138 1.229 2.495 1.173.387 1.123 1.142-.085 1.26-.618.06-1.053-.114-1.662-.662zm4.512.031c-.445-.374-.946-1.137-1.113-1.694-1.142-3.813 3.203-6.387 5.724-3.39.779.925.9 2.936.254 4.186-.85 1.644-3.416 2.117-4.865.898zm3.502-1.765c.408-.834.436-1.136.177-1.92-.508-1.538-1.71-1.885-2.79-.805-1.41 1.41-.543 3.975 1.285 3.798.677-.066.94-.278 1.328-1.073zm11.687 2.208c-2.383-1.05-2.598-4.997-.347-6.37 1.69-1.03 3.92-.435 4.618 1.233 1.034 2.476-.236 5.064-2.586 5.27-.636.055-1.394-.005-1.685-.133zm2.513-1.614c.373-.372.53-.882.53-1.72 0-2.012-1.68-2.98-2.9-1.67-.837.898-.628 3.058.36 3.717.537.36 1.477.207 2.01-.327zm-11.216 1.17c-.237-.618-.188-5.48.06-5.87.116-.184.62-.32 1.12-.305.5.017 1.405-.056 2.012-.16.973-.168 1.187-.108 1.796.5.667.667.688.785.615 3.406-.07 2.513-.115 2.714-.605 2.714-.477 0-.541-.22-.661-2.276-.151-2.598-.504-3.278-1.566-3.011-1.187.298-1.344.608-1.344 2.652 0 2.253-.148 2.768-.794 2.768-.26 0-.545-.189-.633-.419zm14.552 0c-.234-.61-.19-5.478.054-5.86.113-.179.617-.338 1.12-.355 1.04-.034 3.138-.02 4.023.028.327.017 1.133-.05 1.79-.149.97-.146 1.313-.083 1.837.342.584.473.655.756.747 3.004.079 1.927.012 2.6-.3 3.01-.676.894-1.07.115-1.224-2.426-.16-2.653-.534-3.164-1.794-2.46-.688.386-.732.529-.858 2.779-.12 2.152-.181 2.372-.661 2.372-.48 0-.541-.22-.661-2.38-.174-3.128-.406-3.45-1.972-2.737-.638.291-.674.417-.674 2.36 0 2.375-.142 2.89-.794 2.89-.26 0-.545-.189-.633-.419zm11.511.058c-.21-.254-.288-1.323-.238-3.25.073-2.763.099-2.876.68-2.958l.603-.086-.075 3.24c-.074 3.224-.283 3.882-.97 3.054zm3.912-.24c-1.961-1.305-2.239-3.67-.632-5.375.706-.748 1.044-.904 1.956-.904 1.398 0 2.298.587 2.682 1.751.446 1.35.043 1.688-2.012 1.688-.92 0-1.746.12-1.837.267-.464.752.732 1.85 2.016 1.85.828 0 1.557.488 1.387.93-.246.641-2.483.512-3.56-.206zm2.408-4.172c.343-.23.328-.318-.117-.657-.282-.216-.714-.392-.96-.392-.554 0-1.144.675-.915 1.047.217.35 1.47.351 1.992.003zm-62.853-1.674c-.086-.344-.118-1.028-.071-1.521.066-.692.206-.897.614-.897.409 0 .55.205.615.897.117 1.221-.148 2.146-.615 2.146-.212 0-.457-.281-.543-.625zm56.52-1.604c-.41-.495-.15-.946.546-.946.396 0 .51.147.447.574-.105.718-.564.89-.993.372z" transform="translate(55.68 .648) scale(.8849)"/>
  <path fill="#b9aa91" d="M21.565 203.457c.995-.832 1.163-1.504 1.163-4.643 0-1.745.113-3.115.265-3.208.171-.106.264 1.103.264 3.436 0 3.468-.023 3.623-.65 4.248-.357.358-.863.646-1.124.641-.427-.008-.419-.055.082-.474zm-28.546-2.062c-.102-.102.052-.352.342-.555.44-.308.527-.672.527-2.185 0-2.423-.112-2.653-1.301-2.653-.726 0-1.16.19-1.673.728-1.441 1.515-1.157 2.964.794 4.044l.99.547-.917-.15c-1.41-.232-2.39-1.326-2.39-2.666 0-1.445.821-2.333 2.666-2.881 1.618-.48 1.822-.71 1.827-2.069.002-.546.126-.992.275-.992.177 0 .246 1.537.199 4.432-.07 4.232-.097 4.435-.613 4.509-.297.042-.624-.006-.726-.109zm4.773-.291c-.49-.543-.812-3.298-.556-4.769.254-1.456.644-.65.586 1.21-.03.97.033 2.033.14 2.36.262.799 1.079 1.197 2.027.989 1.227-.27 1.572-1.02 1.572-3.416 0-1.421.088-2.023.268-1.843.276.276.419 5.06.158 5.321-.08.081-.596.18-1.146.22-.55.04-1.36.152-1.8.249-.601.132-.91.053-1.249-.321zm10.481.005c.102-.102.666-.21 1.254-.24 2.059-.106 2.737-1.627 1.274-2.858-.447-.377-.906-.685-1.02-.685-.112 0-.52-.292-.905-.649-1.054-.977-.982-2.362.16-3.058.888-.542 2.743-.74 2.447-.262-.09.146-.428.265-.75.265-.972 0-1.805.75-1.712 1.541.06.514.48.96 1.598 1.7 2.95 1.948 2.154 4.432-1.42 4.432-.611 0-1.028-.084-.926-.186zm6.93-.402c-.454-.648-.602-4.82-.18-5.08.127-.08.283.857.348 2.081.133 2.544.422 3.057 1.716 3.057.54 0 .843.108.746.265-.09.145-.626.265-1.191.265-.762 0-1.134-.152-1.44-.588zm12.342.254c-1.502-.48-2.409-2.246-1.918-3.733.772-2.338 3.636-2.906 4.66-.924.454.878.317 1.286-.433 1.286-.452 0-.475-.067-.183-.545.293-.48.242-.626-.42-1.2-.846-.735-1.595-.67-2.352.205-.36.416-.397.647-.174 1.064.205.383.204.615-.004.822-.88.88.264 2.473 1.977 2.751.823.134.92.204.5.368-.63.247-.582.25-1.653-.094zm-9.119-.088c-.098-.098.063-.485.357-.86.44-.558.523-1.003.463-2.464-.04-.981.007-1.864.104-1.96.318-.319.494 1.036.414 3.193-.07 1.898-.134 2.124-.619 2.193-.297.043-.62-.003-.719-.102zm15.15-.372c-.434-.434-.53-.882-.53-2.481 0-1.406-.11-2.044-.393-2.279-.345-.286-.328-.419.138-1.073l.531-.747.644.644c.354.354.798.656.987.67.188.015.045.11-.319.21-.583.163-.686.38-.867 1.842-.236 1.906.085 2.871 1.132 3.4l.661.335-.727.004c-.4.002-.966-.234-1.257-.525zm-87.192-14.76c-.33-.226-3.56-7.211-3.56-7.699 0-.937.762.172 1.991 2.896.852 1.888 1.532 3.059 1.81 3.113.318.062.637-.347 1.134-1.455 1.916-4.276 2.226-4.87 2.47-4.72.168.105.13.47-.105 1.01-2.853 6.562-3.21 7.217-3.74 6.855zm6.859-.437c-1.182-.514-1.688-1.376-1.688-2.874 0-1.654 1.027-2.831 2.472-2.831 1.3 0 1.722.215 2.187 1.114.624 1.206.34 1.537-1.277 1.497-1.202-.03-1.272-.058-.499-.199 1.218-.221 1.618-.884.968-1.603-.588-.649-1.398-.698-2.205-.133-.703.493-.768 1.31-.125 1.57.412.167.397.214-.132.418-1.436.554-.186 2.555 1.76 2.816.596.08 1.084.25 1.084.375 0 .35-1.615.255-2.545-.15zm9.954.116c0-.146.402-.265.893-.265 1.632 0 1.945-1.465.476-2.225-.39-.202-.931-.612-1.203-.912-.971-1.073.014-2.42 1.77-2.419.461 0 .391.093-.349.463-1.261.63-1.206 1.313.183 2.246 1.245.836 1.574 1.507 1.139 2.32-.457.853-2.91 1.52-2.91.792zm22.655-.228c-.385-.425-.493-1.014-.524-2.844-.022-1.339.073-2.345.226-2.396.159-.053.289.774.324 2.067.066 2.35.453 3.136 1.547 3.136 1.583 0 2.23-1.032 2.23-3.559 0-1.018.113-1.733.274-1.733.176 0 .247.97.198 2.71l-.075 2.71-.926.053c-.51.03-1.345.13-1.858.223-.738.134-1.032.058-1.416-.367zm12.899.115c-1.218-.535-1.688-1.372-1.688-3.01 0-1.225.109-1.524.806-2.222.733-.732.926-.794 2.126-.679 2.27.218 3.335 1.906 2.648 4.198-.486 1.623-2.29 2.417-3.892 1.713zm2.683-1c.62-.738.697-1.019.587-2.167-.097-1.01-.294-1.463-.837-1.93-.91-.783-1.508-.771-2.483.049-.98.824-1.27 2.146-.746 3.4.718 1.717 2.327 2.017 3.479.648zm-42.801.96c-.11-.11-.199-1.345-.199-2.744v-2.544l1.503-.022 1.503-.022-.987.507c-1.173.602-1.229.722-1.45 3.145-.095 1.034-.261 1.79-.37 1.68zm12.766-4.08c0-2.647.099-4.234.264-4.234.166 0 .265 1.587.265 4.233s-.1 4.234-.265 4.234-.264-1.588-.264-4.234zm4.762 3.85c0-.333 1.99-4.839 2.984-6.76.708-1.365 1.092-.99 2.782 2.72 1.86 4.082 1.86 4.083 1.51 4.172-.145.037-.523-.398-.84-.966-.882-1.583-1.052-1.694-2.588-1.694-1.94 0-2.186.137-2.938 1.62-.676 1.334-.91 1.567-.91.907zm4.929-3.446c.233-.608-.75-2.39-1.32-2.39-.56 0-1.382 1.731-1.132 2.382.208.54 2.245.547 2.452.008zm12.315 3.216c-.477-.508-.575-.927-.575-2.46 0-1.035-.133-1.982-.303-2.151-.227-.228-.22-.505.032-1.112.39-.941.67-1.015 1.065-.279.156.291.457.53.67.53.214 0 .388.118.388.264 0 .145-.171.264-.381.264-.533 0-.662.29-.815 1.83-.15 1.514.394 3.197 1.035 3.197.217 0 .468.12.558.265.336.544-1.12.242-1.674-.348zm19.181.071c-1.429-1.124-1.43-3.877-.002-5 .794-.625 2.499-.722 3.53-.202 1.465.74 1.607 3.648.243 5.011-.932.933-2.713 1.023-3.77.191zm2.748.004c.662-.354 1.309-1.62 1.308-2.558-.001-.408-.235-1.125-.521-1.594-1.503-2.465-4.669-.195-3.723 2.67.497 1.507 1.729 2.129 2.936 1.482zm19.917.247c-1.95-.565-2.778-2.867-1.678-4.67.57-.936 1.286-1.245.806-.349-.41.767-.337 1.07.321 1.322.592.227.592.23-.132.514-1.496.587-.385 2.517 1.636 2.84.592.094 1.076.276 1.076.403 0 .287-.924.26-2.029-.06zm-30.515-2.75v-2.777l.992-.018c.546-.01 1.524-.04 2.173-.068 1.017-.043 1.227.042 1.523.611.447.864.349 4.806-.124 4.962-.247.082-.33-.452-.33-2.11 0-2.587-.302-3.204-1.565-3.204-1.4 0-1.859.718-2.05 3.208-.093 1.194-.27 2.172-.393 2.172-.124 0-.226-1.25-.226-2.777zm14.61-.069.075-2.844.805.08c.443.045 1.124-.04 1.514-.189.545-.207.946-.162 1.744.195 1.02.457 1.03.476.655 1.192-.21.401-.305.969-.212 1.262.227.715-.127 3.188-.43 3-.132-.08-.24-1.093-.24-2.248 0-1.749-.089-2.19-.53-2.63-.63-.632-.852-.65-1.832-.143-.964.499-1.077.837-1.077 3.207 0 1.175-.11 1.963-.274 1.963-.176 0-.247-1.014-.198-2.845zm11.27 1.587c-.143-1.76.066-4.299.354-4.299.293 0 .252 5.244-.042 5.426-.115.07-.255-.436-.312-1.127zm-3.126-.842c0-2.409-.298-3.16-1.34-3.368-.579-.115-.716-.229-.467-.387.585-.37 1.249-.26 1.807.298.451.451.53.882.53 2.91 0 1.412-.108 2.382-.265 2.382-.15 0-.265-.788-.265-1.835zm9.611-1.818c.391-.432.394-.534.026-1.058-.223-.32-.571-.58-.772-.58a.714.714 0 0 1-.548-.294c-.344-.557 1.059.052 1.671.726.838.922.79 1.684-.107 1.684-.66 0-.676-.029-.27-.478z" transform="translate(55.68 .648) scale(.8849)"/>
  <path fill="#fbc26f" d="M129.511 116.86c-2.552-.706-5.82-2.71-5.82-3.569 0-.51 1.049-1.611 1.536-1.611.171 0 .844.407 1.495.904 1.63 1.244 3.87 2.031 6.258 2.2 3.23.227 6.056-.738 6.056-2.07 0-.546.285-.7 3.705-2 1.091-.414 3.037-1.388 4.324-2.162 1.287-.775 2.403-1.346 2.48-1.27.308.31-5.752 7.973-7.218 9.126-.63.497-.71.502-1.425.091-.714-.41-.859-.401-2.568.155-1.459.475-2.377.585-4.722.562-1.6-.015-3.446-.175-4.1-.356zm27.286-21.213c-2.54-.555-4.335-1.904-5.48-4.12-.686-1.325-.64-5.82.074-7.385.546-1.198 2.66-3.225 4.05-3.884.944-.448 4.795-1.318 7.276-1.645 3.375-.444 4.608-.947 5.079-2.074.5-1.199.29-2.605-.507-3.398-.902-.897-3.058-1.358-5.166-1.104-1.465.177-1.903.354-2.662 1.076-.5.475-1.075 1.25-1.277 1.724-.205.478-.573.869-.829.88-3.465.152-5.154.088-5.398-.205-.417-.503.198-2.665 1.113-3.916.426-.583.9-1.297 1.056-1.588 1.1-2.066 7.842-3.59 12.333-2.787 2.353.42 5.138 1.484 6.015 2.298 1.954 1.812 2.27 3.945 2.276 15.383.005 7.867.016 8.029.594 8.81.503.68.532.833.199 1.044-.47.296-5.811.333-6.268.043-.176-.112-.507-.65-.736-1.198-.228-.547-.587-1.06-.797-1.14-.215-.083-.86.261-1.473.786-.6.513-1.734 1.238-2.52 1.61-1.298.614-2.006.783-4.472 1.067-.437.05-1.553-.075-2.48-.277zm6.871-4.615c1.525-.405 3.132-1.735 3.73-3.084.696-1.577.947-5.035.415-5.737-.337-.445-.527-.468-1.81-.22-2.575.497-5.973 1.543-6.926 2.133-2.184 1.35-2.392 4.467-.42 6.307 1.233 1.152 2.412 1.293 5.011.601zm51.662-33.056c-1.545-.33-3.518-1.392-4.51-2.43-.988-1.033-1.92-2.958-1.928-3.983-.008-1 .648-1.266 3.111-1.266 2.249 0 2.536.148 3.17 1.64.508 1.192 1.736 1.662 4.343 1.665 2.797.002 3.79-.522 3.79-2 0-1.287-1.026-1.855-5.182-2.869-5.81-1.416-7.787-2.615-8.465-5.13-.887-3.286 1.216-7.03 4.738-8.434 1.283-.512 1.98-.597 4.808-.59 2.755.007 3.55.104 4.763.582 2.002.788 3.283 1.923 4.084 3.615 1.22 2.58.91 3.054-1.999 3.054-2.463 0-2.784-.107-3.299-1.102-.617-1.193-1.846-1.806-3.623-1.808-1.946 0-3.293.543-3.512 1.418-.415 1.655.278 2.069 5.594 3.34 3.773.901 5.581 1.762 6.873 3.27 1.656 1.935 1.745 4.91.226 7.507-1.478 2.528-3.867 3.55-8.578 3.67-1.819.046-3.8-.02-4.404-.15zm-43.816-.579c-.824-.3-.906-.793-.35-2.107.902-2.134 3.602-5.005 6.028-6.41 1.524-.882 4.293-1.758 5.56-1.758.818 0 1.186-.172 1.795-.84.754-.825.786-.833 1.904-.503 2.626.777 10 4.116 10 4.529 0 .115-1.378.142-3.062.059-1.859-.092-4.102-.018-5.708.186-2.585.33-2.653.325-3.038-.224-.6-.858-2.57-.76-4.992.249-1.633.68-2.266 1.144-3.923 2.878-1.086 1.137-2.061 2.35-2.167 2.695-.2.657-.892 1.569-1.162 1.533-.087-.011-.485-.14-.885-.287z" transform="translate(3.45 14.741) scale(.8849)"/>
  <path fill="#c5b170" d="M129.511 116.86c-2.552-.706-5.82-2.71-5.82-3.569 0-.51 1.049-1.611 1.536-1.611.171 0 .844.407 1.495.904 1.63 1.244 3.87 2.031 6.258 2.2 3.23.227 6.056-.738 6.056-2.07 0-.546.285-.7 3.705-2 1.091-.414 3.037-1.388 4.324-2.162 1.287-.775 2.403-1.346 2.48-1.27.308.31-5.752 7.973-7.218 9.126-.63.497-.71.502-1.425.091-.714-.41-.859-.401-2.568.155-1.459.475-2.377.585-4.722.562-1.6-.015-3.446-.175-4.1-.356zm85.82-58.884c-1.546-.33-3.519-1.392-4.511-2.43-.988-1.033-1.92-2.958-1.928-3.983-.008-1 .648-1.266 3.111-1.266 2.249 0 2.536.148 3.17 1.64.508 1.192 1.736 1.662 4.343 1.665 2.797.002 3.79-.522 3.79-2 0-1.287-1.026-1.855-5.182-2.869-5.81-1.416-7.787-2.615-8.465-5.13-.887-3.286 1.216-7.03 4.738-8.434 1.283-.512 1.98-.597 4.808-.59 2.755.007 3.55.104 4.763.582 2.002.788 3.283 1.923 4.084 3.615 1.22 2.58.91 3.054-1.999 3.054-2.463 0-2.784-.107-3.299-1.102-.617-1.193-1.846-1.806-3.623-1.808-1.946 0-3.293.543-3.512 1.418-.415 1.655.278 2.069 5.594 3.34 3.773.901 5.581 1.762 6.873 3.27 1.656 1.935 1.745 4.91.226 7.507-1.478 2.528-3.867 3.55-8.578 3.67-1.819.046-3.8-.02-4.404-.15zm-43.817-.579c-.824-.3-.906-.793-.35-2.107.902-2.134 3.602-5.005 6.028-6.41 1.524-.882 4.293-1.758 5.56-1.758.818 0 1.186-.172 1.795-.84.754-.825.786-.833 1.904-.503 2.626.777 10 4.116 10 4.529 0 .115-1.378.142-3.062.059-1.859-.092-4.102-.018-5.708.186-2.585.33-2.653.325-3.038-.224-.6-.858-2.57-.76-4.992.249-1.633.68-2.266 1.144-3.923 2.878-1.086 1.137-2.061 2.35-2.167 2.695-.2.657-.892 1.569-1.162 1.533-.087-.011-.485-.14-.885-.287z" transform="translate(3.45 14.741) scale(.8849)"/>
  <path fill="#8f7088" d="M215.334 57.84c-2.038-.444-3.038-.96-4.288-2.208-1.192-1.192-1.969-2.748-2.003-4.007-.024-.921-.01-.933 1.299-1.112.727-.1 1.953-.115 2.725-.034 1.287.134 1.438.223 1.852 1.083.757 1.577 1.634 2.029 4.144 2.134 3.365.14 4.764-.755 4.268-2.733-.224-.892-1.1-1.29-4.945-2.253-5.79-1.45-7.256-2.172-8.227-4.058-.683-1.326-.749-3.788-.14-5.24.575-1.371 2.202-3.076 3.624-3.797 3.937-1.995 10.364-1.327 13.078 1.36.947.937 1.731 2.605 1.739 3.7.007.987-.386 1.146-2.845 1.151l-1.66.004-1.409-1.455c-1.496-1.545-1.742-1.628-4.4-1.478-2.84.16-3.842 2.614-1.472 3.604.476.199 2.342.716 4.146 1.15 3.755.902 4.702 1.262 6.221 2.367 1.97 1.432 2.731 4.224 1.904 6.987-.436 1.455-2.308 3.452-3.862 4.121-2.525 1.086-6.648 1.388-9.75.713z" transform="translate(3.45 14.741) scale(.8849)"/>
  <path fill="#fcf9d2" d="M-55.413 116.983c-3.161-.564-6.99-3.372-8.796-6.451-1.094-1.864-3.268-7.035-3.268-7.773 0-.596-1.213-4.237-1.552-4.66-.131-.163-.541-1.13-.912-2.149-.611-1.683-1.054-2.761-2.985-7.276-.343-.8-.982-2.413-1.421-3.583-.44-1.17-1.132-2.659-1.54-3.308-.815-1.299-.68-.99-4.691-10.704a6208.664 6208.664 0 0 0-5.428-13.097 29626.988 29626.988 0 0 1-8.966-21.563c-2.214-5.325-2.496-6.308-2.506-8.732-.014-3.407 1.103-6.048 3.31-7.822 3.597-2.892 6.009-3.961 9.361-4.148 5.613-.314 9.193 1.63 11.955 6.49.555.977 1.105 2.012 1.222 2.3.117.288.381.71.588.938.606.67 5.62 12.884 10.965 26.716 1.04 2.693 2.141 5.49 2.446 6.218.305.728 1.068 2.87 1.696 4.763 2.066 6.225 3.675 10.312 4.091 10.392.267.051.684-.555 1.271-1.85.48-1.06 1.231-2.702 1.668-3.648a41.556 41.556 0 0 0 1.408-3.571c.965-2.907 4.827-11.803 5.39-12.414.517-.562 3.24-7.057 5.055-12.06a179.806 179.806 0 0 1 1.96-5.127c.524-1.291.953-2.608.953-2.925 0-.923 3.559-8.961 4.732-10.689 4.626-6.811 14.153-7.564 20.508-1.619 3.381 3.163 4.35 6.834 2.936 11.132-1.615 4.912-5.793 15.082-10.904 26.542-7.932 17.784-9.522 21.309-9.914 21.976-.445.757-3.39 6.718-3.39 6.86 0 .127-1.673 3.737-3.566 7.692-4.159 8.69-5.826 12.445-6.394 14.4-.746 2.569-2.301 5.012-3.93 6.174-.582.415-1.95 1.19-3.04 1.725-1.814.889-2.193.976-4.497 1.027-1.385.03-3.101-.048-3.815-.176z" transform="translate(130.297 41.686) scale(.8849)"/>
  <path fill="#c8bacc" d="M-55.239 116.322c-2.256-.518-4.446-1.599-5.833-2.877-2.473-2.28-4.605-5.757-5.698-9.293-1.213-3.927-1.642-5.146-2.227-6.322-.354-.712-.915-2.08-1.246-3.042-.331-.962-1.162-3.058-1.846-4.659-.683-1.6-1.518-3.684-1.855-4.63-.337-.946-1.093-2.553-1.68-3.572-.588-1.019-2.575-5.483-4.416-9.922-1.84-4.438-6.276-15.094-9.856-23.68S-96.623 31.943-96.89 31c-.978-3.46-.337-7.577 1.516-9.742 1.055-1.232 4.327-3.534 6.325-4.448 2.088-.956 5.199-1.23 8.04-.707 1.756.324 2.542.63 3.836 1.498 2.611 1.75 5.484 6.138 8.17 12.479 3.207 7.567 7.685 19.082 7.814 20.089.074.586 1.012 3.301 2.083 6.033 1.072 2.732 1.948 5.097 1.948 5.256 0 .16.294.841.653 1.516.359.674.822 1.702 1.028 2.284 1.26 3.55 2.916 7.763 3.26 8.3.547.849.842.51 2.151-2.479a241.83 241.83 0 0 1 2.227-4.895c1.407-2.988 7.689-17.636 8.257-19.254.218-.621.569-1.514.78-1.984.21-.47.768-1.866 1.237-3.103a475.15 475.15 0 0 1 2.272-5.806c.78-1.956 1.419-3.787 1.419-4.07 0-.764 3.352-8.536 4.35-10.083.474-.737 1.514-1.952 2.31-2.7 2.448-2.299 4.932-3.262 8.431-3.267 7.113-.012 13.218 5.272 13.246 11.462.009 1.829-.546 3.823-2.332 8.378-2.61 6.657-12.471 29.058-13.289 30.184-.272.376-1.057 1.923-1.744 3.44a964.214 964.214 0 0 1-2.905 6.328c-.91 1.965-1.807 4.044-1.99 4.62a19.69 19.69 0 0 1-.929 2.25 85.88 85.88 0 0 0-1.185 2.523c-1.031 2.309-4.773 10.284-8.301 17.694-.961 2.02-1.748 3.837-1.748 4.04 0 .894-1.345 4.093-2.252 5.355-1.232 1.715-3.58 3.34-5.604 3.877-2.232.592-5.468.703-7.423.254zm7.077-5.845c2.227-1.273 3.687-2.582 5.114-4.588 2.497-3.506 3.44-6.182 3.79-10.763.287-3.726-.86-8.039-2.994-11.268-3.962-5.997-10.94-8.804-17.312-6.965-1.406.406-3.302 1.33-3.549 1.73-.173.28 1.316 4.913 1.751 5.45.131.16.46.937.731 1.725.271.788.812 2.062 1.201 2.83.39.77.931 2.076 1.203 2.905.725 2.209 1.857 4.827 2.421 5.596.534.728 2.868 6.276 2.876 6.835.005.327 2.178 5.77 2.69 6.736.327.619.668.582 2.078-.223z" transform="translate(130.297 41.686) scale(.8849)"/>
  <path fill="#fbc16e" d="M-55.239 116.322c-3.632-.834-6.392-2.795-8.504-6.042-1.28-1.968-3.264-6.635-3.152-7.417.048-.338.45-.743 1.006-1.012.51-.247 2.176-1.05 3.704-1.784s3.314-1.693 3.969-2.13c1.373-.916 1.867-.981 2.46-.327.456.505 1.712 3.37 2.694 6.145.86 2.435 2.745 6.91 3.078 7.312.598.721 2.283-.066 5.181-2.42 1.15-.932 2.764-3.267 4.025-5.818 1.392-2.818 2.16-6.956 1.87-10.084-.5-5.38-2.465-9.364-6.299-12.763-3.884-3.444-8.974-4.75-13.985-3.59-.991.229-2.187.654-2.658.944-1.379.85-1.943.593-2.84-1.296-.43-.91-.896-1.654-1.034-1.654-.137 0-.736.523-1.332 1.161-1.612 1.73-4.014 3.629-6.205 4.906-1.895 1.104-1.961 1.122-2.425.643-.263-.27-1.37-2.635-2.46-5.254a31349.32 31349.32 0 0 1-16.265-39.159c-2.492-6.034-2.788-7.124-2.646-9.765.094-1.764.274-2.465 1.023-3.984.5-1.013 1.208-2.057 1.573-2.32 1.01-.724 3.733-1.07 7.008-.886 4.756.265 8.336 1.233 13.097 3.542 1.752.849 3.498 2.915 4.41 5.215.46 1.162 2.374 5.923 4.252 10.58 1.88 4.656 3.634 9.121 3.899 9.921.265.8 1.398 3.837 2.517 6.747 1.12 2.91 2.239 6.006 2.488 6.88.249.873.697 2.214.995 2.98.299.766.837 2.195 1.196 3.175l1.273 3.469c1.275 3.471 1.774 3.3 3.765-1.29.221-.51.853-1.882 1.403-3.05.551-1.168 1.14-2.656 1.31-3.307.17-.651 1.334-3.598 2.588-6.549 1.893-4.453 2.386-5.391 2.896-5.52.716-.179 3.39.925 7.331 3.025 1.445.77 2.777 1.344 2.96 1.273.512-.196.71-2.667.557-6.962-.216-6.086-.853-9.955-2.333-14.173-1.078-3.075-1.007-3.896.68-7.882 2-4.726 3.084-6.612 4.772-8.3 5.023-5.024 13.935-4.458 19.054 1.208 1.262 1.396 2.211 3.475 2.566 5.617.257 1.552.22 1.866-.455 3.905-1.183 3.573-6.189 15.964-9.34 23.12-3.981 9.042-3.975 9.029-6.07 13.368-1.022 2.114-2.18 4.615-2.577 5.557-.395.942-2.064 4.451-3.708 7.798-1.644 3.347-3.3 6.8-3.679 7.673-.646 1.486-1.002 2.211-1.883 3.836-.197.364-.733 1.495-1.19 2.514-3.106 6.913-4.379 9.64-4.879 10.45-.314.51-.765 1.725-1.002 2.7-.986 4.06-2.854 6.366-6.69 8.262-1.666.824-2.293.987-4.15 1.081-1.35.068-2.817-.034-3.839-.269z" transform="translate(130.297 41.686) scale(.8849)"/>
  <path fill="#cb98a7" d="M-48.874 113.71c-.867-2.194-.834-2.533.247-2.542.437-.004 1.969-1.013 3.824-2.52 1.15-.933 2.764-3.268 4.025-5.819 1.392-2.818 2.16-6.956 1.87-10.084-.5-5.38-2.465-9.364-6.299-12.763-3.884-3.444-8.974-4.75-13.985-3.59-.991.229-2.187.654-2.658.944-1.379.85-1.943.593-2.84-1.296-.43-.91-.896-1.654-1.034-1.654-.137 0-.736.523-1.332 1.161-1.612 1.73-4.014 3.629-6.205 4.906-1.895 1.104-1.961 1.122-2.425.643-.263-.27-1.37-2.635-2.46-5.254a31349.32 31349.32 0 0 1-16.265-39.159c-2.492-6.034-2.788-7.124-2.646-9.765.094-1.764.274-2.465 1.023-3.984.5-1.013 1.208-2.057 1.573-2.32 1.01-.724 3.733-1.07 7.008-.886 4.756.265 8.336 1.233 13.097 3.542 1.757.852 3.499 2.914 4.403 5.215a519.59 519.59 0 0 0 2.47 6.082c2.824 6.833 6.092 15.295 6.092 15.775 0 .347-.37.533-1.521.763-4.469.895-9.08 2.324-9.832 3.05-.32.307-.256.634.448 2.291a175.62 175.62 0 0 1 1.647 4.05c1.49 3.823 2.167 5.16 2.613 5.159.235 0 1.051-.237 1.814-.527 2.015-.766 4.992-1.504 6.815-1.689.873-.089 1.836-.23 2.14-.315.477-.133.624.054 1.088 1.387.295.848.918 2.553 1.385 3.79a576.986 576.986 0 0 1 1.468 3.936c1.275 3.471 1.774 3.3 3.765-1.29.221-.51.858-1.894 1.416-3.076.558-1.183 1.092-2.457 1.186-2.831.133-.53.267-.63.608-.45.241.126 1.152.497 2.025.824 2.414.904 4.868 2.18 6.483 3.372.8.59 1.914 1.408 2.474 1.816 1.648 1.2 4.111 3.984 5.674 6.416.8 1.245 1.565 2.335 1.7 2.423.135.088-.467 1.636-1.336 3.44-.87 1.804-1.893 3.994-2.273 4.867-.648 1.487-1.006 2.214-1.885 3.836-.197.364-.733 1.495-1.19 2.514-3.14 6.988-4.38 9.642-4.892 10.458-.322.513-.666 1.347-.765 1.852-.384 1.97-1.551 4.748-2.422 5.766-1.019 1.19-2.94 2.631-4.346 3.26l-.926.414zm-15.605-4.578c-.994-1.79-2.498-5.696-2.416-6.273.048-.333.454-.74 1.006-1.008.51-.247 2.176-1.05 3.704-1.784s3.314-1.693 3.969-2.13c.655-.437 1.38-.795 1.613-.795.627-.002 1.23.789 1.932 2.537.346.86.823 2.012 1.06 2.56.42.968.416 1.016-.168 1.615-.33.34-1.672 1.192-2.982 1.894-1.31.702-3.309 1.914-4.443 2.693-1.133.78-2.165 1.353-2.292 1.275-.127-.079-.274-.015-.326.142-.053.158-.348-.17-.657-.726zm40.045-46.064c-1.481-1.423-3.348-3.104-4.149-3.734-.8-.63-1.55-1.311-1.667-1.513a.805.805 0 0 0-.626-.368c-.229 0-1.086-.403-1.906-.896-2.22-1.336-4.142-2.272-6.649-3.24-1.237-.476-2.01-.872-1.717-.879.677-.015 3.746 1.324 7.128 3.11 1.448.766 2.778 1.336 2.956 1.268.503-.193.7-2.69.548-6.959-.216-6.086-.853-9.955-2.333-14.173-1.078-3.075-1.007-3.896.68-7.882 2-4.726 3.084-6.612 4.772-8.3 5.023-5.024 13.935-4.458 19.054 1.208 1.262 1.396 2.211 3.475 2.566 5.617.257 1.552.22 1.866-.455 3.905-1.208 3.648-6.218 16.033-9.46 23.385-5.001 11.343-5.33 12.038-5.696 12.038-.194 0-1.565-1.164-3.046-2.587z" transform="translate(130.297 41.686) scale(.8849)"/>
  <path fill="#c8655e" d="M-63.865 109.355c-.61-.674-2.553-5.29-2.553-6.065 0-.504.232-.724 1.124-1.063 1.269-.481 7.115-3.428 8.154-4.109.549-.36.755-.382 1.08-.116.546.448 2.414 5.049 2.297 5.658-.058.303-1.104 1.04-2.758 1.945-1.465.802-3.58 2.083-4.7 2.847-1.121.764-2.076 1.389-2.121 1.389-.046 0-.282-.219-.523-.486zm-12.746-30.371c-.506-1.11-.92-2.06-.92-2.11 0-.093-5.574-13.604-7.794-18.892-7.241-17.25-10.887-26.143-11.227-27.384-.766-2.793-.093-7.027 1.433-9.029.913-1.196 2.154-1.476 6.466-1.458 5.046.022 9.046.95 13.432 3.117 2.859 1.413 3.881 2.462 4.99 5.12 1.798 4.308 7.971 19.72 8.288 20.692.497 1.522.133 1.913-2.145 2.307-2.403.415-8.29 2.328-8.706 2.83-.24.29-.13.79.505 2.287a265.216 265.216 0 0 1 1.864 4.561 121 121 0 0 0 2.012 4.737c1.421 3.095 2.789 6.741 2.789 7.434 0 .58-2.754 3.415-4.895 5.042-1.374 1.044-4.339 2.763-4.765 2.763-.252 0-.76-.773-1.327-2.017zm52.213-15.874c-1.501-1.439-3.325-3.085-4.053-3.66-1.891-1.493-1.957-1.6-1.7-2.744.66-2.938.386-10.383-.556-15.128-.426-2.148-1.137-4.779-2.431-9.006-.265-.865-.158-1.242 1.38-4.895 2.689-6.39 4.86-9.098 8.376-10.45 1.913-.735 5.384-.982 7.465-.532 3.69.8 7.543 3.655 8.845 6.557 1.05 2.34 1.254 4.19.699 6.346-.686 2.662-2.637 7.87-4.488 11.98a310.279 310.279 0 0 0-2.459 5.689c-2.271 5.401-7.87 17.966-8.121 18.225-.129.132-1.407-.898-2.957-2.382z" transform="translate(130.297 41.686) scale(.8849)"/>
  <path fill="#8d6e89" d="M-76.611 78.984c-.506-1.11-.92-2.06-.92-2.11 0-.093-5.574-13.604-7.794-18.892-7.241-17.25-10.887-26.143-11.227-27.384-.766-2.793-.093-7.027 1.433-9.029.913-1.196 2.154-1.476 6.466-1.458 5.046.022 9.046.95 13.432 3.117 2.858 1.412 3.881 2.462 4.992 5.12 3.187 7.629 8.351 20.765 8.392 21.348.047.66-.053.714-2.142 1.17-2.94.64-7.985 2.236-8.723 2.757-.82.579-.753 1.208.42 3.962.558 1.31 1.526 3.61 2.152 5.111.627 1.501 1.286 2.877 1.465 3.056.742.742 3.04 6.37 3.04 7.444 0 .58-2.753 3.415-4.894 5.042-1.374 1.044-4.339 2.763-4.765 2.763-.252 0-.76-.773-1.327-2.017zm63.242-36.408c-2.985-1.064-5.098-3.841-5.221-6.862-.1-2.421.48-3.848 2.303-5.68 1.383-1.389 1.828-1.67 3.096-1.953.814-.183 2.126-.278 2.915-.213 1.605.133 3.918 1.128 3.918 1.686 0 .723-2.692 7.967-4.286 11.53-.873 1.954-1.093 2.074-2.725 1.492z" transform="translate(130.297 41.686) scale(.8849)"/>
  <path fill="#775373" d="M-75.825 79.877c-.1-.328-.455-1.191-.79-1.919-.57-1.238-2.283-5.354-5.066-12.17-2.645-6.476-5.687-13.805-6.041-14.553-.512-1.079-3.075-7.232-4.63-11.112a241.21 241.21 0 0 0-2.253-5.424c-1.193-2.737-1.965-5.54-1.971-7.162-.008-2.188 1.339-5.777 2.377-6.332 1.238-.663 7.904-.751 10.792-.144 4.571.962 9.904 3.296 11.288 4.94.807.96 2.285 4.082 3.239 6.841.376 1.089 1.188 3.066 1.804 4.393.616 1.328 1.271 2.878 1.455 3.445.184.567.89 2.4 1.568 4.073 1.462 3.608 2.006 5.242 1.81 5.437-.078.079-1.139.38-2.357.667-3.477.823-8.11 2.342-8.58 2.813-.602.602-.456 1.132 1.812 6.561 3.916 9.377 4.935 11.9 5.086 12.587.134.608-.118.952-1.977 2.7-2.44 2.296-6.26 4.954-7.12 4.954-.145 0-.346-.268-.446-.595z" transform="translate(130.297 41.686) scale(.8849)"/>
</svg>